M48
; DRILL file {KiCad 7.0.1} date Tue 02 May 2023 22:09:19 BST
; FORMAT={-:-/ absolute / inch / decimal}
; #@! TF.CreationDate,2023-05-02T22:09:19+01:00
; #@! TF.GenerationSoftware,Kicad,Pcbnew,7.0.1
; #@! TF.FileFunction,Plated,1,2,PTH
FMAT,2
INCH
; #@! TA.AperFunction,Plated,PTH,ViaDrill
T1C0.0157
; #@! TA.AperFunction,Plated,PTH,ComponentDrill
T2C0.0315
; #@! TA.AperFunction,Plated,PTH,ComponentDrill
T3C0.0374
; #@! TA.AperFunction,Plated,PTH,ComponentDrill
T4C0.0394
; #@! TA.AperFunction,Plated,PTH,ComponentDrill
T5C0.0472
; #@! TA.AperFunction,Plated,PTH,ComponentDrill
T6C0.1260
%
G90
G05
T1
X5.4803Y-3.937
X5.4803Y-4.1181
X6.2717Y-4.5591
X6.3661Y-4.5236
X6.4528Y-3.1772
X6.4724Y-4.2441
X6.5079Y-3.0945
X6.5512Y-3.248
X6.5551Y-3.3465
X6.5551Y-4.3031
X6.7087Y-3.248
X6.7913Y-3.1772
X6.7913Y-3.4094
X6.8976Y-3.815
T2
X5.6461Y-2.4461
X5.6461Y-2.5461
X5.6461Y-2.6461
X5.6461Y-2.7461
X5.6461Y-2.8461
X5.6461Y-2.9461
X5.6461Y-3.0461
X5.6461Y-3.1461
X5.6461Y-3.2461
X5.6461Y-3.3461
X5.6461Y-3.4461
X5.6461Y-3.5461
X5.6461Y-3.6461
X5.6461Y-3.7461
X5.6461Y-3.8461
X5.6461Y-3.9461
X5.6461Y-4.0461
X5.6461Y-4.1461
X5.6461Y-4.2461
X5.6461Y-4.3461
X5.8961Y-4.337
X5.9961Y-4.337
X6.0961Y-4.337
X6.3461Y-2.4461
X6.3461Y-2.5461
X6.3461Y-2.6461
X6.3461Y-2.7461
X6.3461Y-2.8461
X6.3461Y-2.9461
X6.3461Y-3.0461
X6.3461Y-3.1461
X6.3461Y-3.2461
X6.3461Y-3.3461
X6.3461Y-3.4461
X6.3461Y-3.5461
X6.3461Y-3.6461
X6.3461Y-3.7461
X6.3461Y-3.8461
X6.3461Y-3.9461
X6.3461Y-4.0461
X6.3461Y-4.1461
X6.3461Y-4.2461
X6.3461Y-4.3461
X6.6189Y-2.8043
X6.6189Y-2.9028
X6.7953Y-2.8031
X6.7953Y-2.9016
T3
X5.3031Y-3.6614
X5.3031Y-3.7598
X5.3031Y-3.8583
X5.3031Y-3.9567
T4
X5.3228Y-2.8559
X5.3228Y-2.9559
X5.3228Y-3.0559
X5.3228Y-3.1559
X5.3228Y-3.2559
X5.3228Y-3.3559
X5.6175Y-4.7
X5.672Y-4.8118
X5.7266Y-4.7
X5.7811Y-4.8118
X5.8356Y-4.7
X5.8902Y-4.8118
X5.9447Y-4.7
X5.9992Y-4.8118
X6.0537Y-4.7
X6.1083Y-4.8118
X6.1628Y-4.7
X6.2173Y-4.8118
X6.2719Y-4.7
X6.3264Y-4.8118
X6.3809Y-4.7
T5
X6.6189Y-3.0512
X6.6189Y-3.5512
X6.6189Y-3.6988
X6.6189Y-4.1988
X6.7953Y-3.0512
X6.7953Y-3.5512
X6.7953Y-3.6988
X6.7953Y-4.1988
T6
X5.2126Y-2.5591
X5.2126Y-4.4488
X5.3437Y-4.7559
X6.6547Y-4.7559
X6.7874Y-2.5591
X6.7874Y-4.4488
T0
M30
