%TF.GenerationSoftware,KiCad,Pcbnew,7.0.1*%
%TF.CreationDate,2023-05-02T22:09:15+01:00*%
%TF.ProjectId,pico-joystick,7069636f-2d6a-46f7-9973-7469636b2e6b,rev?*%
%TF.SameCoordinates,Original*%
%TF.FileFunction,Copper,L2,Bot*%
%TF.FilePolarity,Positive*%
%FSLAX46Y46*%
G04 Gerber Fmt 4.6, Leading zero omitted, Abs format (unit mm)*
G04 Created by KiCad (PCBNEW 7.0.1) date 2023-05-02 22:09:15*
%MOMM*%
%LPD*%
G01*
G04 APERTURE LIST*
G04 Aperture macros list*
%AMRoundRect*
0 Rectangle with rounded corners*
0 $1 Rounding radius*
0 $2 $3 $4 $5 $6 $7 $8 $9 X,Y pos of 4 corners*
0 Add a 4 corners polygon primitive as box body*
4,1,4,$2,$3,$4,$5,$6,$7,$8,$9,$2,$3,0*
0 Add four circle primitives for the rounded corners*
1,1,$1+$1,$2,$3*
1,1,$1+$1,$4,$5*
1,1,$1+$1,$6,$7*
1,1,$1+$1,$8,$9*
0 Add four rect primitives between the rounded corners*
20,1,$1+$1,$2,$3,$4,$5,0*
20,1,$1+$1,$4,$5,$6,$7,0*
20,1,$1+$1,$6,$7,$8,$9,0*
20,1,$1+$1,$8,$9,$2,$3,0*%
G04 Aperture macros list end*
%TA.AperFunction,ComponentPad*%
%ADD10C,6.400000*%
%TD*%
%TA.AperFunction,ComponentPad*%
%ADD11C,2.400000*%
%TD*%
%TA.AperFunction,ComponentPad*%
%ADD12O,2.400000X2.400000*%
%TD*%
%TA.AperFunction,ComponentPad*%
%ADD13C,1.600000*%
%TD*%
%TA.AperFunction,ComponentPad*%
%ADD14RoundRect,0.250000X0.725000X-0.600000X0.725000X0.600000X-0.725000X0.600000X-0.725000X-0.600000X0*%
%TD*%
%TA.AperFunction,ComponentPad*%
%ADD15O,1.950000X1.700000*%
%TD*%
%TA.AperFunction,WasherPad*%
%ADD16C,3.800000*%
%TD*%
%TA.AperFunction,ComponentPad*%
%ADD17O,2.000000X1.200000*%
%TD*%
%TA.AperFunction,ComponentPad*%
%ADD18O,1.200000X2.000000*%
%TD*%
%TA.AperFunction,ComponentPad*%
%ADD19R,1.700000X1.700000*%
%TD*%
%TA.AperFunction,ComponentPad*%
%ADD20O,1.700000X1.700000*%
%TD*%
%TA.AperFunction,ComponentPad*%
%ADD21C,4.000000*%
%TD*%
%TA.AperFunction,ComponentPad*%
%ADD22R,1.600000X1.600000*%
%TD*%
%TA.AperFunction,ViaPad*%
%ADD23C,0.800000*%
%TD*%
%TA.AperFunction,Conductor*%
%ADD24C,0.250000*%
%TD*%
G04 APERTURE END LIST*
D10*
%TO.P,REF\u002A\u002A,1*%
%TO.N,N/C*%
X132400000Y-65000000D03*
%TD*%
D11*
%TO.P,R3,1*%
%TO.N,Net-(U1-GP26)*%
X172600000Y-106650000D03*
D12*
%TO.P,R3,2*%
%TO.N,GND*%
X172600000Y-93950000D03*
%TD*%
D10*
%TO.P,REF\u002A\u002A,1*%
%TO.N,N/C*%
X172400000Y-113000000D03*
%TD*%
D13*
%TO.P,C2,1*%
%TO.N,Net-(U1-GP17)*%
X172600000Y-73700000D03*
%TO.P,C2,2*%
%TO.N,GND*%
X172600000Y-71200000D03*
%TD*%
%TO.P,C1,1*%
%TO.N,Net-(U1-GP16)*%
X168120000Y-73730000D03*
%TO.P,C1,2*%
%TO.N,GND*%
X168120000Y-71230000D03*
%TD*%
D11*
%TO.P,R1,1*%
%TO.N,Net-(J1-Pad2)*%
X168120000Y-90200000D03*
D12*
%TO.P,R1,2*%
%TO.N,Net-(U1-GP16)*%
X168120000Y-77500000D03*
%TD*%
D11*
%TO.P,R4,1*%
%TO.N,Net-(U1-GP27)*%
X168120000Y-106650000D03*
D12*
%TO.P,R4,2*%
%TO.N,GND*%
X168120000Y-93950000D03*
%TD*%
D10*
%TO.P,REF\u002A\u002A,1*%
%TO.N,N/C*%
X172400000Y-65000000D03*
%TD*%
D14*
%TO.P,J2,1,Pin_1*%
%TO.N,Net-(J2-Pin_1)*%
X134700000Y-100500000D03*
D15*
%TO.P,J2,2,Pin_2*%
%TO.N,Net-(J2-Pin_2)*%
X134700000Y-98000000D03*
%TO.P,J2,3,Pin_3*%
%TO.N,Net-(J2-Pin_3)*%
X134700000Y-95500000D03*
%TO.P,J2,4,Pin_4*%
%TO.N,Net-(J2-Pin_4)*%
X134700000Y-93000000D03*
%TD*%
D16*
%TO.P,U1,*%
%TO.N,*%
X146600000Y-62760000D03*
X146600000Y-109760000D03*
X158000000Y-62760000D03*
X158000000Y-109760000D03*
D17*
%TO.P,U1,1,GP0*%
%TO.N,Net-(J3-Pin_5)*%
X143410000Y-62130000D03*
%TO.P,U1,2,GP1*%
%TO.N,Net-(J3-Pin_4)*%
X143410000Y-64670000D03*
%TO.P,U1,3,GND*%
%TO.N,GND*%
X143410000Y-67210000D03*
%TO.P,U1,4,GP2*%
%TO.N,unconnected-(U1-GP2-Pad4)*%
X143410000Y-69750000D03*
%TO.P,U1,5,GP3*%
%TO.N,unconnected-(U1-GP3-Pad5)*%
X143410000Y-72290000D03*
%TO.P,U1,6,GP4*%
%TO.N,unconnected-(U1-GP4-Pad6)*%
X143410000Y-74830000D03*
%TO.P,U1,7,GP5*%
%TO.N,unconnected-(U1-GP5-Pad7)*%
X143410000Y-77370000D03*
%TO.P,U1,8,GND*%
%TO.N,GND*%
X143410000Y-79910000D03*
%TO.P,U1,9,GP6*%
%TO.N,unconnected-(U1-GP6-Pad9)*%
X143410000Y-82450000D03*
%TO.P,U1,10,GP7*%
%TO.N,unconnected-(U1-GP7-Pad10)*%
X143410000Y-84990000D03*
%TO.P,U1,11,GP8*%
%TO.N,unconnected-(U1-GP8-Pad11)*%
X143410000Y-87530000D03*
%TO.P,U1,12,GP9*%
%TO.N,unconnected-(U1-GP9-Pad12)*%
X143410000Y-90070000D03*
%TO.P,U1,13,GND*%
%TO.N,GND*%
X143410000Y-92610000D03*
%TO.P,U1,14,GP10*%
%TO.N,unconnected-(U1-GP10-Pad14)*%
X143410000Y-95150000D03*
%TO.P,U1,15,GP11*%
%TO.N,unconnected-(U1-GP11-Pad15)*%
X143410000Y-97690000D03*
%TO.P,U1,16,GP12*%
%TO.N,unconnected-(U1-GP12-Pad16)*%
X143410000Y-100230000D03*
%TO.P,U1,17,GP13*%
%TO.N,unconnected-(U1-GP13-Pad17)*%
X143410000Y-102770000D03*
%TO.P,U1,18,GND*%
%TO.N,GND*%
X143410000Y-105310000D03*
%TO.P,U1,19,GP14*%
%TO.N,unconnected-(U1-GP14-Pad19)*%
X143410000Y-107850000D03*
%TO.P,U1,20,GP15*%
%TO.N,unconnected-(U1-GP15-Pad20)*%
X143410000Y-110390000D03*
%TO.P,U1,21,GP16*%
%TO.N,Net-(U1-GP16)*%
X161190000Y-110390000D03*
%TO.P,U1,22,GP17*%
%TO.N,Net-(U1-GP17)*%
X161190000Y-107850000D03*
%TO.P,U1,23,GND*%
%TO.N,GND*%
X161190000Y-105310000D03*
%TO.P,U1,24,GP18*%
%TO.N,unconnected-(U1-GP18-Pad24)*%
X161190000Y-102770000D03*
%TO.P,U1,25,GP19*%
%TO.N,unconnected-(U1-GP19-Pad25)*%
X161190000Y-100230000D03*
%TO.P,U1,26,GP20*%
%TO.N,unconnected-(U1-GP20-Pad26)*%
X161190000Y-97690000D03*
%TO.P,U1,27,GP21*%
%TO.N,unconnected-(U1-GP21-Pad27)*%
X161190000Y-95150000D03*
%TO.P,U1,28,GND*%
%TO.N,GND*%
X161190000Y-92610000D03*
%TO.P,U1,29,GP22*%
%TO.N,unconnected-(U1-GP22-Pad29)*%
X161190000Y-90070000D03*
%TO.P,U1,30,RUN*%
%TO.N,unconnected-(U1-RUN-Pad30)*%
X161190000Y-87530000D03*
%TO.P,U1,31,GP26*%
%TO.N,Net-(U1-GP26)*%
X161190000Y-84990000D03*
%TO.P,U1,32,GP27*%
%TO.N,Net-(U1-GP27)*%
X161190000Y-82450000D03*
%TO.P,U1,33,GND*%
%TO.N,GND*%
X161190000Y-79910000D03*
%TO.P,U1,34,GP28*%
%TO.N,unconnected-(U1-GP28-Pad34)*%
X161190000Y-77370000D03*
%TO.P,U1,35,ADC_VREF*%
%TO.N,unconnected-(U1-ADC_VREF-Pad35)*%
X161190000Y-74830000D03*
%TO.P,U1,36,3V3(OUT)*%
%TO.N,+3V3*%
X161190000Y-72290000D03*
%TO.P,U1,37,3V3_EN*%
%TO.N,unconnected-(U1-3V3_EN-Pad37)*%
X161190000Y-69750000D03*
%TO.P,U1,38,GND*%
%TO.N,GND*%
X161190000Y-67210000D03*
%TO.P,U1,39,VSYS*%
%TO.N,Net-(J2-Pin_4)*%
X161190000Y-64670000D03*
%TO.P,U1,40,VBUS*%
%TO.N,unconnected-(U1-VBUS-Pad40)*%
X161190000Y-62130000D03*
D18*
%TO.P,U1,41,SWCLK*%
%TO.N,Net-(J2-Pin_1)*%
X149760000Y-110160000D03*
%TO.P,U1,42,GND*%
%TO.N,Net-(J2-Pin_2)*%
X152300000Y-110160000D03*
%TO.P,U1,43,SWDIO*%
%TO.N,Net-(J2-Pin_3)*%
X154840000Y-110160000D03*
%TD*%
D19*
%TO.P,J3,1,Pin_1*%
%TO.N,GND*%
X135200000Y-85240000D03*
D20*
%TO.P,J3,2,Pin_2*%
%TO.N,unconnected-(J3-Pin_2-Pad2)*%
X135200000Y-82700000D03*
%TO.P,J3,3,Pin_3*%
%TO.N,unconnected-(J3-Pin_3-Pad3)*%
X135200000Y-80160000D03*
%TO.P,J3,4,Pin_4*%
%TO.N,Net-(J3-Pin_4)*%
X135200000Y-77620000D03*
%TO.P,J3,5,Pin_5*%
%TO.N,Net-(J3-Pin_5)*%
X135200000Y-75080000D03*
%TO.P,J3,6,Pin_6*%
%TO.N,unconnected-(J3-Pin_6-Pad6)*%
X135200000Y-72540000D03*
%TD*%
D11*
%TO.P,R2,1*%
%TO.N,Net-(J1-Pad7)*%
X172600000Y-90200000D03*
D12*
%TO.P,R2,2*%
%TO.N,Net-(U1-GP17)*%
X172600000Y-77500000D03*
%TD*%
D10*
%TO.P,REF\u002A\u002A,1*%
%TO.N,N/C*%
X132400000Y-113000000D03*
%TD*%
D21*
%TO.P,J1,0,PAD*%
%TO.N,GND*%
X135730000Y-120800000D03*
X169030000Y-120800000D03*
D22*
%TO.P,J1,1,1*%
%TO.N,+3V3*%
X162075000Y-119380000D03*
D13*
%TO.P,J1,2,2*%
%TO.N,Net-(J1-Pad2)*%
X159305000Y-119380000D03*
%TO.P,J1,3,3*%
%TO.N,Net-(U1-GP26)*%
X156535000Y-119380000D03*
%TO.P,J1,4,4*%
%TO.N,GND*%
X153765000Y-119380000D03*
%TO.P,J1,5,5*%
%TO.N,unconnected-(J1-Pad5)*%
X150995000Y-119380000D03*
%TO.P,J1,6,6*%
%TO.N,Net-(U1-GP27)*%
X148225000Y-119380000D03*
%TO.P,J1,7,7*%
%TO.N,Net-(J1-Pad7)*%
X145455000Y-119380000D03*
%TO.P,J1,8,8*%
%TO.N,unconnected-(J1-Pad8)*%
X142685000Y-119380000D03*
%TO.P,J1,9,P9*%
%TO.N,unconnected-(J1-P9-Pad9)*%
X160690000Y-122220000D03*
%TO.P,J1,10,P10*%
%TO.N,unconnected-(J1-P10-Pad10)*%
X157920000Y-122220000D03*
%TO.P,J1,11,P111*%
%TO.N,unconnected-(J1-P111-Pad11)*%
X155150000Y-122220000D03*
%TO.P,J1,12,P12*%
%TO.N,unconnected-(J1-P12-Pad12)*%
X152380000Y-122220000D03*
%TO.P,J1,13,P13*%
%TO.N,unconnected-(J1-P13-Pad13)*%
X149610000Y-122220000D03*
%TO.P,J1,14,P14*%
%TO.N,unconnected-(J1-P14-Pad14)*%
X146840000Y-122220000D03*
%TO.P,J1,15,P15*%
%TO.N,unconnected-(J1-P15-Pad15)*%
X144070000Y-122220000D03*
%TD*%
D23*
%TO.N,Net-(U1-GP17)*%
X164400000Y-107800000D03*
%TO.N,+3V3*%
X163900000Y-80700000D03*
X166500000Y-109300000D03*
X161700000Y-114900000D03*
%TO.N,Net-(J1-Pad2)*%
X159300000Y-115800000D03*
%TO.N,Net-(U1-GP26)*%
X175200000Y-96900000D03*
X166500000Y-85000000D03*
%TO.N,Net-(U1-GP27)*%
X166400000Y-82500000D03*
X170400000Y-82500000D03*
%TO.N,Net-(J2-Pin_2)*%
X139200000Y-100000000D03*
X139200000Y-104600000D03*
%TO.N,Net-(J2-Pin_4)*%
X172500000Y-86600000D03*
X165300000Y-78600000D03*
X172500000Y-80700000D03*
%TD*%
D24*
%TO.N,Net-(U1-GP17)*%
X164400000Y-107800000D02*
X164350000Y-107850000D01*
X164350000Y-107850000D02*
X161190000Y-107850000D01*
%TO.N,+3V3*%
X161700000Y-114900000D02*
X162075000Y-115275000D01*
X165700000Y-103400000D02*
X165700000Y-108500000D01*
X163900000Y-80700000D02*
X164700000Y-81500000D01*
X164700000Y-102400000D02*
X165700000Y-103400000D01*
X164700000Y-81500000D02*
X164700000Y-100200000D01*
X164700000Y-100200000D02*
X164700000Y-102400000D01*
X162075000Y-115275000D02*
X162075000Y-119380000D01*
X165700000Y-108500000D02*
X166500000Y-109300000D01*
%TO.N,Net-(J1-Pad2)*%
X159305000Y-115805000D02*
X159300000Y-115800000D01*
X159305000Y-119380000D02*
X159305000Y-115805000D01*
%TO.N,Net-(U1-GP26)*%
X173690000Y-84990000D02*
X173750000Y-85050000D01*
X173700000Y-85000000D02*
X173750000Y-85050000D01*
X175200000Y-86500000D02*
X175200000Y-96900000D01*
X173750000Y-85050000D02*
X175200000Y-86500000D01*
X166500000Y-85000000D02*
X173700000Y-85000000D01*
%TO.N,Net-(U1-GP27)*%
X166400000Y-82500000D02*
X170400000Y-82500000D01*
%TO.N,Net-(J2-Pin_2)*%
X139200000Y-100000000D02*
X139200000Y-104600000D01*
%TO.N,Net-(J2-Pin_4)*%
X170300000Y-107500000D02*
X170300000Y-87800000D01*
X164300000Y-111000000D02*
X162000000Y-113300000D01*
X172500000Y-80700000D02*
X167400000Y-80700000D01*
X130300000Y-96000000D02*
X130100000Y-96200000D01*
X140800000Y-113300000D02*
X161800000Y-113300000D01*
X135400000Y-107900000D02*
X136700000Y-109200000D01*
X170300000Y-107500000D02*
X166800000Y-111000000D01*
X162000000Y-113300000D02*
X161800000Y-113300000D01*
X130900000Y-107900000D02*
X135400000Y-107900000D01*
X130100000Y-96200000D02*
X130100000Y-106100000D01*
X134700000Y-93000000D02*
X133300000Y-93000000D01*
X171500000Y-86600000D02*
X172500000Y-86600000D01*
X167400000Y-80700000D02*
X165300000Y-78600000D01*
X130100000Y-107100000D02*
X130900000Y-107900000D01*
X130100000Y-106100000D02*
X130100000Y-107100000D01*
X166800000Y-111000000D02*
X164300000Y-111000000D01*
X170300000Y-87800000D02*
X171500000Y-86600000D01*
X136700000Y-109200000D02*
X140800000Y-113300000D01*
X133300000Y-93000000D02*
X130300000Y-96000000D01*
%TD*%
%TA.AperFunction,Conductor*%
%TO.N,GND*%
G36*
X177337500Y-60017113D02*
G01*
X177382887Y-60062500D01*
X177399500Y-60124500D01*
X177399500Y-129875500D01*
X177382887Y-129937500D01*
X177337500Y-129982887D01*
X177275500Y-129999500D01*
X127524500Y-129999500D01*
X127462500Y-129982887D01*
X127417113Y-129937500D01*
X127400500Y-129875500D01*
X127400500Y-122738579D01*
X134144971Y-122738579D01*
X134144972Y-122738581D01*
X134387783Y-122914993D01*
X134663448Y-123066540D01*
X134955928Y-123182341D01*
X135260620Y-123260573D01*
X135572711Y-123300000D01*
X135887289Y-123300000D01*
X136199379Y-123260573D01*
X136504071Y-123182341D01*
X136796551Y-123066540D01*
X137072212Y-122914995D01*
X137315026Y-122738579D01*
X137315027Y-122738579D01*
X135730000Y-121153553D01*
X134144971Y-122738579D01*
X127400500Y-122738579D01*
X127400500Y-120800000D01*
X133225056Y-120800000D01*
X133244808Y-121113948D01*
X133303754Y-121422957D01*
X133400961Y-121722126D01*
X133534904Y-122006769D01*
X133703456Y-122272364D01*
X133794287Y-122382159D01*
X135376447Y-120800001D01*
X136083553Y-120800001D01*
X137665712Y-122382160D01*
X137665713Y-122382160D01*
X137756536Y-122272374D01*
X137789774Y-122219999D01*
X142764531Y-122219999D01*
X142784364Y-122446689D01*
X142843261Y-122666497D01*
X142939432Y-122872735D01*
X143069953Y-123059140D01*
X143230859Y-123220046D01*
X143417264Y-123350567D01*
X143417265Y-123350567D01*
X143417266Y-123350568D01*
X143623504Y-123446739D01*
X143843308Y-123505635D01*
X144070000Y-123525468D01*
X144296692Y-123505635D01*
X144516496Y-123446739D01*
X144722734Y-123350568D01*
X144909139Y-123220047D01*
X145070047Y-123059139D01*
X145200568Y-122872734D01*
X145296739Y-122666496D01*
X145335224Y-122522864D01*
X145367319Y-122467276D01*
X145422906Y-122435182D01*
X145487094Y-122435182D01*
X145542681Y-122467276D01*
X145574775Y-122522864D01*
X145613261Y-122666496D01*
X145709432Y-122872735D01*
X145839953Y-123059140D01*
X146000859Y-123220046D01*
X146187264Y-123350567D01*
X146187265Y-123350567D01*
X146187266Y-123350568D01*
X146393504Y-123446739D01*
X146613308Y-123505635D01*
X146840000Y-123525468D01*
X147066692Y-123505635D01*
X147286496Y-123446739D01*
X147492734Y-123350568D01*
X147679139Y-123220047D01*
X147840047Y-123059139D01*
X147970568Y-122872734D01*
X148066739Y-122666496D01*
X148105224Y-122522864D01*
X148137319Y-122467276D01*
X148192906Y-122435182D01*
X148257094Y-122435182D01*
X148312681Y-122467276D01*
X148344775Y-122522864D01*
X148383261Y-122666496D01*
X148479432Y-122872735D01*
X148609953Y-123059140D01*
X148770859Y-123220046D01*
X148957264Y-123350567D01*
X148957265Y-123350567D01*
X148957266Y-123350568D01*
X149163504Y-123446739D01*
X149383308Y-123505635D01*
X149610000Y-123525468D01*
X149836692Y-123505635D01*
X150056496Y-123446739D01*
X150262734Y-123350568D01*
X150449139Y-123220047D01*
X150610047Y-123059139D01*
X150740568Y-122872734D01*
X150836739Y-122666496D01*
X150875224Y-122522864D01*
X150907319Y-122467276D01*
X150962906Y-122435182D01*
X151027094Y-122435182D01*
X151082681Y-122467276D01*
X151114775Y-122522864D01*
X151153261Y-122666496D01*
X151249432Y-122872735D01*
X151379953Y-123059140D01*
X151540859Y-123220046D01*
X151727264Y-123350567D01*
X151727265Y-123350567D01*
X151727266Y-123350568D01*
X151933504Y-123446739D01*
X152153308Y-123505635D01*
X152380000Y-123525468D01*
X152606692Y-123505635D01*
X152826496Y-123446739D01*
X153032734Y-123350568D01*
X153219139Y-123220047D01*
X153380047Y-123059139D01*
X153510568Y-122872734D01*
X153606739Y-122666496D01*
X153645224Y-122522864D01*
X153677319Y-122467276D01*
X153732906Y-122435182D01*
X153797094Y-122435182D01*
X153852681Y-122467276D01*
X153884775Y-122522864D01*
X153923261Y-122666496D01*
X154019432Y-122872735D01*
X154149953Y-123059140D01*
X154310859Y-123220046D01*
X154497264Y-123350567D01*
X154497265Y-123350567D01*
X154497266Y-123350568D01*
X154703504Y-123446739D01*
X154923308Y-123505635D01*
X155150000Y-123525468D01*
X155376692Y-123505635D01*
X155596496Y-123446739D01*
X155802734Y-123350568D01*
X155989139Y-123220047D01*
X156150047Y-123059139D01*
X156280568Y-122872734D01*
X156376739Y-122666496D01*
X156415224Y-122522864D01*
X156447319Y-122467276D01*
X156502906Y-122435182D01*
X156567094Y-122435182D01*
X156622681Y-122467276D01*
X156654775Y-122522864D01*
X156693261Y-122666496D01*
X156789432Y-122872735D01*
X156919953Y-123059140D01*
X157080859Y-123220046D01*
X157267264Y-123350567D01*
X157267265Y-123350567D01*
X157267266Y-123350568D01*
X157473504Y-123446739D01*
X157693308Y-123505635D01*
X157920000Y-123525468D01*
X158146692Y-123505635D01*
X158366496Y-123446739D01*
X158572734Y-123350568D01*
X158759139Y-123220047D01*
X158920047Y-123059139D01*
X159050568Y-122872734D01*
X159146739Y-122666496D01*
X159185224Y-122522864D01*
X159217319Y-122467276D01*
X159272906Y-122435182D01*
X159337094Y-122435182D01*
X159392681Y-122467276D01*
X159424775Y-122522864D01*
X159463261Y-122666496D01*
X159559432Y-122872735D01*
X159689953Y-123059140D01*
X159850859Y-123220046D01*
X160037264Y-123350567D01*
X160037265Y-123350567D01*
X160037266Y-123350568D01*
X160243504Y-123446739D01*
X160463308Y-123505635D01*
X160690000Y-123525468D01*
X160916692Y-123505635D01*
X161136496Y-123446739D01*
X161342734Y-123350568D01*
X161529139Y-123220047D01*
X161690047Y-123059139D01*
X161820568Y-122872734D01*
X161883126Y-122738579D01*
X167444971Y-122738579D01*
X167444972Y-122738581D01*
X167687783Y-122914993D01*
X167963448Y-123066540D01*
X168255928Y-123182341D01*
X168560620Y-123260573D01*
X168872711Y-123300000D01*
X169187289Y-123300000D01*
X169499379Y-123260573D01*
X169804071Y-123182341D01*
X170096551Y-123066540D01*
X170372212Y-122914995D01*
X170615026Y-122738579D01*
X170615027Y-122738579D01*
X169030000Y-121153553D01*
X167444971Y-122738579D01*
X161883126Y-122738579D01*
X161916739Y-122666496D01*
X161975635Y-122446692D01*
X161995468Y-122220000D01*
X161975635Y-121993308D01*
X161916739Y-121773504D01*
X161820568Y-121567266D01*
X161690047Y-121380861D01*
X161690046Y-121380859D01*
X161529140Y-121219953D01*
X161342735Y-121089432D01*
X161136497Y-120993261D01*
X160916689Y-120934364D01*
X160690000Y-120914531D01*
X160463310Y-120934364D01*
X160243502Y-120993261D01*
X160037264Y-121089432D01*
X159850859Y-121219953D01*
X159689953Y-121380859D01*
X159559432Y-121567264D01*
X159463261Y-121773502D01*
X159424775Y-121917136D01*
X159392681Y-121972723D01*
X159337094Y-122004817D01*
X159272906Y-122004817D01*
X159217319Y-121972723D01*
X159185225Y-121917136D01*
X159146738Y-121773502D01*
X159050567Y-121567264D01*
X158920046Y-121380859D01*
X158759140Y-121219953D01*
X158572735Y-121089432D01*
X158366497Y-120993261D01*
X158146689Y-120934364D01*
X157920000Y-120914531D01*
X157693310Y-120934364D01*
X157473502Y-120993261D01*
X157267264Y-121089432D01*
X157080859Y-121219953D01*
X156919953Y-121380859D01*
X156789432Y-121567264D01*
X156693261Y-121773502D01*
X156654775Y-121917136D01*
X156622681Y-121972723D01*
X156567094Y-122004817D01*
X156502906Y-122004817D01*
X156447319Y-121972723D01*
X156415225Y-121917136D01*
X156376738Y-121773502D01*
X156280567Y-121567264D01*
X156150046Y-121380859D01*
X155989140Y-121219953D01*
X155802735Y-121089432D01*
X155596497Y-120993261D01*
X155376689Y-120934364D01*
X155150000Y-120914531D01*
X154923310Y-120934364D01*
X154703502Y-120993261D01*
X154497264Y-121089432D01*
X154310859Y-121219953D01*
X154149953Y-121380859D01*
X154019432Y-121567264D01*
X153923261Y-121773502D01*
X153884775Y-121917136D01*
X153852681Y-121972723D01*
X153797094Y-122004817D01*
X153732906Y-122004817D01*
X153677319Y-121972723D01*
X153645225Y-121917136D01*
X153606738Y-121773502D01*
X153510567Y-121567264D01*
X153380046Y-121380859D01*
X153219140Y-121219953D01*
X153032735Y-121089432D01*
X152826497Y-120993261D01*
X152606689Y-120934364D01*
X152380000Y-120914531D01*
X152153310Y-120934364D01*
X151933502Y-120993261D01*
X151727264Y-121089432D01*
X151540859Y-121219953D01*
X151379953Y-121380859D01*
X151249432Y-121567264D01*
X151153261Y-121773502D01*
X151114775Y-121917136D01*
X151082681Y-121972723D01*
X151027094Y-122004817D01*
X150962906Y-122004817D01*
X150907319Y-121972723D01*
X150875225Y-121917136D01*
X150836738Y-121773502D01*
X150740567Y-121567264D01*
X150610046Y-121380859D01*
X150449140Y-121219953D01*
X150262735Y-121089432D01*
X150056497Y-120993261D01*
X149836689Y-120934364D01*
X149610000Y-120914531D01*
X149383310Y-120934364D01*
X149163502Y-120993261D01*
X148957264Y-121089432D01*
X148770859Y-121219953D01*
X148609953Y-121380859D01*
X148479432Y-121567264D01*
X148383261Y-121773502D01*
X148344775Y-121917136D01*
X148312681Y-121972723D01*
X148257094Y-122004817D01*
X148192906Y-122004817D01*
X148137319Y-121972723D01*
X148105225Y-121917136D01*
X148066738Y-121773502D01*
X147970567Y-121567264D01*
X147840046Y-121380859D01*
X147679140Y-121219953D01*
X147492735Y-121089432D01*
X147286497Y-120993261D01*
X147066689Y-120934364D01*
X146840000Y-120914531D01*
X146613310Y-120934364D01*
X146393502Y-120993261D01*
X146187264Y-121089432D01*
X146000859Y-121219953D01*
X145839953Y-121380859D01*
X145709432Y-121567264D01*
X145613261Y-121773502D01*
X145574775Y-121917136D01*
X145542681Y-121972723D01*
X145487094Y-122004817D01*
X145422906Y-122004817D01*
X145367319Y-121972723D01*
X145335225Y-121917136D01*
X145296738Y-121773502D01*
X145200567Y-121567264D01*
X145070046Y-121380859D01*
X144909140Y-121219953D01*
X144722735Y-121089432D01*
X144516497Y-120993261D01*
X144296689Y-120934364D01*
X144070000Y-120914531D01*
X143843310Y-120934364D01*
X143623502Y-120993261D01*
X143417264Y-121089432D01*
X143230859Y-121219953D01*
X143069953Y-121380859D01*
X142939432Y-121567264D01*
X142843261Y-121773502D01*
X142784364Y-121993310D01*
X142764531Y-122219999D01*
X137789774Y-122219999D01*
X137925097Y-122006765D01*
X138059038Y-121722126D01*
X138156245Y-121422957D01*
X138215191Y-121113948D01*
X138234943Y-120800000D01*
X166525056Y-120800000D01*
X166544808Y-121113948D01*
X166603754Y-121422957D01*
X166700961Y-121722126D01*
X166834904Y-122006769D01*
X167003456Y-122272364D01*
X167094287Y-122382159D01*
X168676447Y-120800001D01*
X169383553Y-120800001D01*
X170965712Y-122382160D01*
X170965713Y-122382160D01*
X171056536Y-122272374D01*
X171225097Y-122006765D01*
X171359038Y-121722126D01*
X171456245Y-121422957D01*
X171515191Y-121113948D01*
X171534943Y-120800000D01*
X171515191Y-120486051D01*
X171456245Y-120177042D01*
X171359038Y-119877873D01*
X171225097Y-119593234D01*
X171056537Y-119327627D01*
X170965712Y-119217838D01*
X169383553Y-120800000D01*
X169383553Y-120800001D01*
X168676447Y-120800001D01*
X168676447Y-120799999D01*
X167094286Y-119217838D01*
X167094285Y-119217838D01*
X167003459Y-119327630D01*
X166834904Y-119593230D01*
X166700961Y-119877873D01*
X166603754Y-120177042D01*
X166544808Y-120486051D01*
X166525056Y-120800000D01*
X138234943Y-120800000D01*
X138234943Y-120799999D01*
X138215191Y-120486051D01*
X138156245Y-120177042D01*
X138059038Y-119877873D01*
X137925097Y-119593234D01*
X137789773Y-119379999D01*
X141379531Y-119379999D01*
X141399364Y-119606689D01*
X141458261Y-119826497D01*
X141554432Y-120032735D01*
X141684953Y-120219140D01*
X141845859Y-120380046D01*
X142032264Y-120510567D01*
X142032265Y-120510567D01*
X142032266Y-120510568D01*
X142238504Y-120606739D01*
X142458308Y-120665635D01*
X142685000Y-120685468D01*
X142911692Y-120665635D01*
X143131496Y-120606739D01*
X143337734Y-120510568D01*
X143524139Y-120380047D01*
X143685047Y-120219139D01*
X143815568Y-120032734D01*
X143911739Y-119826496D01*
X143950224Y-119682864D01*
X143982319Y-119627276D01*
X144037906Y-119595182D01*
X144102094Y-119595182D01*
X144157681Y-119627276D01*
X144189775Y-119682864D01*
X144228261Y-119826496D01*
X144324432Y-120032735D01*
X144454953Y-120219140D01*
X144615859Y-120380046D01*
X144802264Y-120510567D01*
X144802265Y-120510567D01*
X144802266Y-120510568D01*
X145008504Y-120606739D01*
X145228308Y-120665635D01*
X145455000Y-120685468D01*
X145681692Y-120665635D01*
X145901496Y-120606739D01*
X146107734Y-120510568D01*
X146294139Y-120380047D01*
X146455047Y-120219139D01*
X146585568Y-120032734D01*
X146681739Y-119826496D01*
X146720224Y-119682864D01*
X146752319Y-119627276D01*
X146807906Y-119595182D01*
X146872094Y-119595182D01*
X146927681Y-119627276D01*
X146959775Y-119682864D01*
X146998261Y-119826496D01*
X147094432Y-120032735D01*
X147224953Y-120219140D01*
X147385859Y-120380046D01*
X147572264Y-120510567D01*
X147572265Y-120510567D01*
X147572266Y-120510568D01*
X147778504Y-120606739D01*
X147998308Y-120665635D01*
X148225000Y-120685468D01*
X148451692Y-120665635D01*
X148671496Y-120606739D01*
X148877734Y-120510568D01*
X149064139Y-120380047D01*
X149225047Y-120219139D01*
X149355568Y-120032734D01*
X149451739Y-119826496D01*
X149490224Y-119682864D01*
X149522319Y-119627276D01*
X149577906Y-119595182D01*
X149642094Y-119595182D01*
X149697681Y-119627276D01*
X149729775Y-119682864D01*
X149768261Y-119826496D01*
X149864432Y-120032735D01*
X149994953Y-120219140D01*
X150155859Y-120380046D01*
X150342264Y-120510567D01*
X150342265Y-120510567D01*
X150342266Y-120510568D01*
X150548504Y-120606739D01*
X150768308Y-120665635D01*
X150995000Y-120685468D01*
X151221692Y-120665635D01*
X151441496Y-120606739D01*
X151647734Y-120510568D01*
X151721344Y-120459026D01*
X153039526Y-120459026D01*
X153112515Y-120510133D01*
X153318673Y-120606266D01*
X153538397Y-120665141D01*
X153765000Y-120684966D01*
X153991602Y-120665141D01*
X154211326Y-120606266D01*
X154417480Y-120510134D01*
X154490472Y-120459025D01*
X153765001Y-119733553D01*
X153765000Y-119733553D01*
X153039526Y-120459025D01*
X153039526Y-120459026D01*
X151721344Y-120459026D01*
X151834139Y-120380047D01*
X151995047Y-120219139D01*
X152125568Y-120032734D01*
X152221739Y-119826496D01*
X152260483Y-119681897D01*
X152292576Y-119626311D01*
X152348164Y-119594217D01*
X152412351Y-119594217D01*
X152467939Y-119626310D01*
X152500033Y-119681898D01*
X152538733Y-119826326D01*
X152634866Y-120032484D01*
X152685972Y-120105471D01*
X152685974Y-120105472D01*
X153411446Y-119380001D01*
X153411446Y-119380000D01*
X152685973Y-118654526D01*
X152685973Y-118654527D01*
X152634865Y-118727516D01*
X152538734Y-118933671D01*
X152500033Y-119078102D01*
X152467939Y-119133689D01*
X152412351Y-119165782D01*
X152348164Y-119165782D01*
X152292576Y-119133688D01*
X152260483Y-119078100D01*
X152260225Y-119077136D01*
X152221739Y-118933504D01*
X152125568Y-118727266D01*
X152095977Y-118685006D01*
X151995046Y-118540859D01*
X151834140Y-118379953D01*
X151721344Y-118300973D01*
X153039526Y-118300973D01*
X153765000Y-119026446D01*
X153765001Y-119026446D01*
X154490472Y-118300974D01*
X154490471Y-118300972D01*
X154417484Y-118249866D01*
X154211326Y-118153733D01*
X153991602Y-118094858D01*
X153765000Y-118075033D01*
X153538397Y-118094858D01*
X153318672Y-118153733D01*
X153112516Y-118249865D01*
X153039527Y-118300973D01*
X153039526Y-118300973D01*
X151721344Y-118300973D01*
X151647735Y-118249432D01*
X151441497Y-118153261D01*
X151221689Y-118094364D01*
X150995000Y-118074531D01*
X150768310Y-118094364D01*
X150548502Y-118153261D01*
X150342264Y-118249432D01*
X150155859Y-118379953D01*
X149994953Y-118540859D01*
X149864432Y-118727264D01*
X149768261Y-118933502D01*
X149729775Y-119077136D01*
X149697681Y-119132723D01*
X149642094Y-119164817D01*
X149577906Y-119164817D01*
X149522319Y-119132723D01*
X149490225Y-119077136D01*
X149473347Y-119014148D01*
X149451739Y-118933504D01*
X149355568Y-118727266D01*
X149325977Y-118685006D01*
X149225046Y-118540859D01*
X149064140Y-118379953D01*
X148877735Y-118249432D01*
X148671497Y-118153261D01*
X148451689Y-118094364D01*
X148225000Y-118074531D01*
X147998310Y-118094364D01*
X147778502Y-118153261D01*
X147572264Y-118249432D01*
X147385859Y-118379953D01*
X147224953Y-118540859D01*
X147094432Y-118727264D01*
X146998261Y-118933502D01*
X146959775Y-119077136D01*
X146927681Y-119132723D01*
X146872094Y-119164817D01*
X146807906Y-119164817D01*
X146752319Y-119132723D01*
X146720225Y-119077136D01*
X146703347Y-119014148D01*
X146681739Y-118933504D01*
X146585568Y-118727266D01*
X146555977Y-118685006D01*
X146455046Y-118540859D01*
X146294140Y-118379953D01*
X146107735Y-118249432D01*
X145901497Y-118153261D01*
X145681689Y-118094364D01*
X145455000Y-118074531D01*
X145228310Y-118094364D01*
X145008502Y-118153261D01*
X144802264Y-118249432D01*
X144615859Y-118379953D01*
X144454953Y-118540859D01*
X144324432Y-118727264D01*
X144228261Y-118933502D01*
X144189775Y-119077136D01*
X144157681Y-119132723D01*
X144102094Y-119164817D01*
X144037906Y-119164817D01*
X143982319Y-119132723D01*
X143950225Y-119077136D01*
X143933347Y-119014148D01*
X143911739Y-118933504D01*
X143815568Y-118727266D01*
X143785977Y-118685006D01*
X143685046Y-118540859D01*
X143524140Y-118379953D01*
X143337735Y-118249432D01*
X143131497Y-118153261D01*
X142911689Y-118094364D01*
X142685000Y-118074531D01*
X142458310Y-118094364D01*
X142238502Y-118153261D01*
X142032264Y-118249432D01*
X141845859Y-118379953D01*
X141684953Y-118540859D01*
X141554432Y-118727264D01*
X141458261Y-118933502D01*
X141399364Y-119153310D01*
X141379531Y-119379999D01*
X137789773Y-119379999D01*
X137756537Y-119327627D01*
X137665712Y-119217838D01*
X136083553Y-120800000D01*
X136083553Y-120800001D01*
X135376447Y-120800001D01*
X135376447Y-120799999D01*
X133794286Y-119217838D01*
X133794285Y-119217838D01*
X133703459Y-119327630D01*
X133534904Y-119593230D01*
X133400961Y-119877873D01*
X133303754Y-120177042D01*
X133244808Y-120486051D01*
X133225056Y-120800000D01*
X127400500Y-120800000D01*
X127400500Y-118861419D01*
X134144971Y-118861419D01*
X135730000Y-120446447D01*
X135730001Y-120446447D01*
X137315027Y-118861419D01*
X137315026Y-118861417D01*
X137072216Y-118685006D01*
X136796551Y-118533459D01*
X136504071Y-118417658D01*
X136199379Y-118339426D01*
X135887289Y-118300000D01*
X135572711Y-118300000D01*
X135260620Y-118339426D01*
X134955928Y-118417658D01*
X134663448Y-118533459D01*
X134387783Y-118685006D01*
X134144972Y-118861418D01*
X134144971Y-118861419D01*
X127400500Y-118861419D01*
X127400500Y-113000000D01*
X128694422Y-113000000D01*
X128714722Y-113387340D01*
X128775396Y-113770429D01*
X128875785Y-114145086D01*
X129014785Y-114507193D01*
X129190876Y-114852793D01*
X129402121Y-115178080D01*
X129402124Y-115178084D01*
X129646219Y-115479516D01*
X129920484Y-115753781D01*
X130221916Y-115997876D01*
X130221918Y-115997877D01*
X130221919Y-115997878D01*
X130547206Y-116209123D01*
X130892806Y-116385214D01*
X131254913Y-116524214D01*
X131629570Y-116624603D01*
X131821114Y-116654939D01*
X132012662Y-116685278D01*
X132400000Y-116705578D01*
X132787338Y-116685278D01*
X133036686Y-116645785D01*
X133170429Y-116624603D01*
X133170433Y-116624602D01*
X133545087Y-116524214D01*
X133907194Y-116385214D01*
X134252789Y-116209125D01*
X134252788Y-116209125D01*
X134252793Y-116209123D01*
X134415436Y-116103500D01*
X134578084Y-115997876D01*
X134879516Y-115753781D01*
X135153781Y-115479516D01*
X135397876Y-115178084D01*
X135532184Y-114971268D01*
X135609123Y-114852793D01*
X135772719Y-114531716D01*
X135785214Y-114507194D01*
X135924214Y-114145087D01*
X136024602Y-113770433D01*
X136024653Y-113770115D01*
X136045785Y-113636686D01*
X136085278Y-113387338D01*
X136105578Y-113000000D01*
X136085278Y-112612662D01*
X136054939Y-112421114D01*
X136024603Y-112229570D01*
X135924214Y-111854913D01*
X135785214Y-111492806D01*
X135609123Y-111147206D01*
X135397878Y-110821919D01*
X135397876Y-110821916D01*
X135153781Y-110520484D01*
X134879516Y-110246219D01*
X134578084Y-110002124D01*
X134578082Y-110002123D01*
X134578080Y-110002121D01*
X134252793Y-109790876D01*
X133907193Y-109614785D01*
X133545086Y-109475785D01*
X133170429Y-109375396D01*
X132787340Y-109314722D01*
X132400000Y-109294422D01*
X132012659Y-109314722D01*
X131629570Y-109375396D01*
X131254913Y-109475785D01*
X130892806Y-109614785D01*
X130547206Y-109790876D01*
X130221919Y-110002121D01*
X129920480Y-110246222D01*
X129646222Y-110520480D01*
X129402121Y-110821919D01*
X129190876Y-111147206D01*
X129014785Y-111492806D01*
X128875785Y-111854913D01*
X128775396Y-112229570D01*
X128714722Y-112612659D01*
X128694422Y-113000000D01*
X127400500Y-113000000D01*
X127400500Y-96180194D01*
X129469840Y-96180194D01*
X129473950Y-96223675D01*
X129474500Y-96235344D01*
X129474500Y-107017256D01*
X129472235Y-107037762D01*
X129474439Y-107107873D01*
X129474500Y-107111768D01*
X129474500Y-107139349D01*
X129475003Y-107143334D01*
X129475918Y-107154967D01*
X129477290Y-107198626D01*
X129482879Y-107217860D01*
X129486825Y-107236916D01*
X129489335Y-107256792D01*
X129505414Y-107297404D01*
X129509197Y-107308451D01*
X129521382Y-107350391D01*
X129531580Y-107367635D01*
X129540136Y-107385100D01*
X129547514Y-107403732D01*
X129547515Y-107403733D01*
X129573180Y-107439059D01*
X129579593Y-107448822D01*
X129601826Y-107486416D01*
X129601829Y-107486419D01*
X129601830Y-107486420D01*
X129615995Y-107500585D01*
X129628627Y-107515375D01*
X129640406Y-107531587D01*
X129674058Y-107559426D01*
X129682699Y-107567289D01*
X130399196Y-108283787D01*
X130412096Y-108299888D01*
X130463223Y-108347900D01*
X130466020Y-108350611D01*
X130485529Y-108370120D01*
X130488711Y-108372588D01*
X130497571Y-108380155D01*
X130529418Y-108410062D01*
X130546972Y-108419712D01*
X130563236Y-108430396D01*
X130574142Y-108438855D01*
X130579064Y-108442673D01*
X130603909Y-108453424D01*
X130619152Y-108460021D01*
X130629631Y-108465154D01*
X130667908Y-108486197D01*
X130687306Y-108491177D01*
X130705708Y-108497477D01*
X130724104Y-108505438D01*
X130767261Y-108512273D01*
X130778664Y-108514634D01*
X130820981Y-108525500D01*
X130841016Y-108525500D01*
X130860413Y-108527026D01*
X130880196Y-108530160D01*
X130923674Y-108526050D01*
X130935344Y-108525500D01*
X135089548Y-108525500D01*
X135137001Y-108534939D01*
X135177229Y-108561819D01*
X140299197Y-113683787D01*
X140312098Y-113699889D01*
X140314212Y-113701874D01*
X140314214Y-113701877D01*
X140361561Y-113746339D01*
X140363240Y-113747916D01*
X140366036Y-113750626D01*
X140385530Y-113770120D01*
X140388704Y-113772582D01*
X140397568Y-113780153D01*
X140429418Y-113810062D01*
X140439914Y-113815832D01*
X140446974Y-113819714D01*
X140463231Y-113830392D01*
X140479064Y-113842674D01*
X140495185Y-113849649D01*
X140519156Y-113860023D01*
X140529643Y-113865160D01*
X140567908Y-113886197D01*
X140587316Y-113891180D01*
X140605710Y-113897478D01*
X140624105Y-113905438D01*
X140667254Y-113912271D01*
X140678680Y-113914638D01*
X140694222Y-113918629D01*
X140720980Y-113925500D01*
X140720981Y-113925500D01*
X140741016Y-113925500D01*
X140760413Y-113927026D01*
X140780196Y-113930160D01*
X140823674Y-113926050D01*
X140835344Y-113925500D01*
X161127629Y-113925500D01*
X161187366Y-113940838D01*
X161232326Y-113983057D01*
X161251384Y-114041714D01*
X161239828Y-114102297D01*
X161200514Y-114149818D01*
X161094129Y-114227110D01*
X160967466Y-114367783D01*
X160872820Y-114531715D01*
X160814326Y-114711742D01*
X160794540Y-114899999D01*
X160794540Y-114900000D01*
X160798060Y-114933492D01*
X160814326Y-115088257D01*
X160872820Y-115268284D01*
X160967466Y-115432216D01*
X161094129Y-115572889D01*
X161247265Y-115684149D01*
X161287742Y-115702170D01*
X161375937Y-115741438D01*
X161414698Y-115768579D01*
X161440471Y-115808266D01*
X161449500Y-115854717D01*
X161449500Y-117955501D01*
X161432887Y-118017501D01*
X161387500Y-118062888D01*
X161325500Y-118079501D01*
X161227128Y-118079501D01*
X161197322Y-118082704D01*
X161167515Y-118085909D01*
X161032669Y-118136204D01*
X160917454Y-118222454D01*
X160831204Y-118337668D01*
X160780909Y-118472516D01*
X160774500Y-118532131D01*
X160774500Y-118897627D01*
X160760489Y-118954884D01*
X160721623Y-118999202D01*
X160666684Y-119020566D01*
X160608087Y-119014148D01*
X160559076Y-118981398D01*
X160537814Y-118942641D01*
X160536324Y-118943336D01*
X160435567Y-118727264D01*
X160305046Y-118540859D01*
X160144140Y-118379953D01*
X159983377Y-118267387D01*
X159944511Y-118223069D01*
X159930500Y-118165812D01*
X159930500Y-116493134D01*
X159938736Y-116448696D01*
X159962348Y-116410164D01*
X160032533Y-116332216D01*
X160103600Y-116209125D01*
X160127179Y-116168284D01*
X160127178Y-116168284D01*
X160185674Y-115988256D01*
X160205460Y-115800000D01*
X160185674Y-115611744D01*
X160142710Y-115479516D01*
X160127179Y-115431715D01*
X160032533Y-115267783D01*
X159905870Y-115127110D01*
X159752730Y-115015848D01*
X159579802Y-114938855D01*
X159394648Y-114899500D01*
X159394646Y-114899500D01*
X159205354Y-114899500D01*
X159205352Y-114899500D01*
X159020197Y-114938855D01*
X158847269Y-115015848D01*
X158694129Y-115127110D01*
X158567466Y-115267783D01*
X158472820Y-115431715D01*
X158414326Y-115611742D01*
X158394540Y-115799999D01*
X158414326Y-115988257D01*
X158472820Y-116168284D01*
X158567464Y-116332213D01*
X158567467Y-116332216D01*
X158647652Y-116421270D01*
X158671264Y-116459802D01*
X158679500Y-116504240D01*
X158679500Y-118165812D01*
X158665489Y-118223069D01*
X158626623Y-118267387D01*
X158465859Y-118379953D01*
X158304953Y-118540859D01*
X158174432Y-118727264D01*
X158078261Y-118933502D01*
X158039775Y-119077136D01*
X158007681Y-119132723D01*
X157952094Y-119164817D01*
X157887906Y-119164817D01*
X157832319Y-119132723D01*
X157800225Y-119077136D01*
X157783347Y-119014148D01*
X157761739Y-118933504D01*
X157665568Y-118727266D01*
X157635977Y-118685006D01*
X157535046Y-118540859D01*
X157374140Y-118379953D01*
X157187735Y-118249432D01*
X156981497Y-118153261D01*
X156761689Y-118094364D01*
X156535000Y-118074531D01*
X156308310Y-118094364D01*
X156088502Y-118153261D01*
X155882264Y-118249432D01*
X155695859Y-118379953D01*
X155534953Y-118540859D01*
X155404432Y-118727264D01*
X155308261Y-118933502D01*
X155269516Y-119078101D01*
X155237422Y-119133688D01*
X155181834Y-119165782D01*
X155117647Y-119165782D01*
X155062060Y-119133688D01*
X155029966Y-119078101D01*
X154991266Y-118933673D01*
X154895133Y-118727515D01*
X154844025Y-118654526D01*
X154118553Y-119380000D01*
X154118553Y-119380001D01*
X154844025Y-120105472D01*
X154895134Y-120032480D01*
X154991266Y-119826327D01*
X155029966Y-119681898D01*
X155062060Y-119626311D01*
X155117647Y-119594217D01*
X155181834Y-119594217D01*
X155237422Y-119626311D01*
X155269516Y-119681898D01*
X155308261Y-119826497D01*
X155404432Y-120032735D01*
X155534953Y-120219140D01*
X155695859Y-120380046D01*
X155882264Y-120510567D01*
X155882265Y-120510567D01*
X155882266Y-120510568D01*
X156088504Y-120606739D01*
X156308308Y-120665635D01*
X156535000Y-120685468D01*
X156761692Y-120665635D01*
X156981496Y-120606739D01*
X157187734Y-120510568D01*
X157374139Y-120380047D01*
X157535047Y-120219139D01*
X157665568Y-120032734D01*
X157761739Y-119826496D01*
X157800224Y-119682864D01*
X157832319Y-119627276D01*
X157887906Y-119595182D01*
X157952094Y-119595182D01*
X158007681Y-119627276D01*
X158039775Y-119682864D01*
X158078261Y-119826496D01*
X158174432Y-120032735D01*
X158304953Y-120219140D01*
X158465859Y-120380046D01*
X158652264Y-120510567D01*
X158652265Y-120510567D01*
X158652266Y-120510568D01*
X158858504Y-120606739D01*
X159078308Y-120665635D01*
X159305000Y-120685468D01*
X159531692Y-120665635D01*
X159751496Y-120606739D01*
X159957734Y-120510568D01*
X160144139Y-120380047D01*
X160305047Y-120219139D01*
X160435568Y-120032734D01*
X160531739Y-119826496D01*
X160531738Y-119826496D01*
X160536324Y-119816664D01*
X160537814Y-119817359D01*
X160559068Y-119778607D01*
X160608079Y-119745852D01*
X160666677Y-119739430D01*
X160721619Y-119760792D01*
X160760488Y-119805110D01*
X160774500Y-119862370D01*
X160774500Y-120227869D01*
X160780909Y-120287483D01*
X160831204Y-120422331D01*
X160917454Y-120537546D01*
X161032669Y-120623796D01*
X161167517Y-120674091D01*
X161227127Y-120680500D01*
X162922872Y-120680499D01*
X162982483Y-120674091D01*
X163117331Y-120623796D01*
X163232546Y-120537546D01*
X163318796Y-120422331D01*
X163369091Y-120287483D01*
X163375500Y-120227873D01*
X163375499Y-118861419D01*
X167444971Y-118861419D01*
X169030000Y-120446447D01*
X169030001Y-120446447D01*
X170615027Y-118861419D01*
X170615026Y-118861417D01*
X170372216Y-118685006D01*
X170096551Y-118533459D01*
X169804071Y-118417658D01*
X169499379Y-118339426D01*
X169187289Y-118300000D01*
X168872711Y-118300000D01*
X168560620Y-118339426D01*
X168255928Y-118417658D01*
X167963448Y-118533459D01*
X167687783Y-118685006D01*
X167444972Y-118861418D01*
X167444971Y-118861419D01*
X163375499Y-118861419D01*
X163375499Y-118532128D01*
X163369091Y-118472517D01*
X163318796Y-118337669D01*
X163232546Y-118222454D01*
X163117331Y-118136204D01*
X162982483Y-118085909D01*
X162922873Y-118079500D01*
X162922869Y-118079500D01*
X162824500Y-118079500D01*
X162762500Y-118062887D01*
X162717113Y-118017500D01*
X162700500Y-117955500D01*
X162700500Y-115357741D01*
X162702763Y-115337237D01*
X162700561Y-115267145D01*
X162700500Y-115263251D01*
X162700500Y-115235657D01*
X162700500Y-115235650D01*
X162699995Y-115231653D01*
X162699080Y-115220023D01*
X162697709Y-115176373D01*
X162692120Y-115157140D01*
X162688174Y-115138082D01*
X162685664Y-115118206D01*
X162669588Y-115077604D01*
X162665804Y-115066553D01*
X162659881Y-115046168D01*
X162653618Y-115024610D01*
X162643414Y-115007355D01*
X162634861Y-114989895D01*
X162623807Y-114961977D01*
X162610221Y-114933492D01*
X162608591Y-114912777D01*
X162606822Y-114912963D01*
X162605460Y-114900000D01*
X162585674Y-114711744D01*
X162527179Y-114531716D01*
X162527179Y-114531715D01*
X162432533Y-114367783D01*
X162305870Y-114227110D01*
X162153844Y-114116657D01*
X162112928Y-114065586D01*
X162103707Y-114000798D01*
X162128749Y-113940339D01*
X162181078Y-113901047D01*
X162197407Y-113894582D01*
X162208444Y-113890803D01*
X162250390Y-113878618D01*
X162267629Y-113868422D01*
X162285102Y-113859862D01*
X162303732Y-113852486D01*
X162339064Y-113826814D01*
X162348830Y-113820400D01*
X162386418Y-113798171D01*
X162386417Y-113798171D01*
X162386420Y-113798170D01*
X162400585Y-113784004D01*
X162415373Y-113771373D01*
X162431587Y-113759594D01*
X162459438Y-113725926D01*
X162467279Y-113717309D01*
X163184589Y-113000000D01*
X168694422Y-113000000D01*
X168714722Y-113387340D01*
X168775396Y-113770429D01*
X168875785Y-114145086D01*
X169014785Y-114507193D01*
X169190876Y-114852793D01*
X169402121Y-115178080D01*
X169402124Y-115178084D01*
X169646219Y-115479516D01*
X169920484Y-115753781D01*
X170221916Y-115997876D01*
X170221918Y-115997877D01*
X170221919Y-115997878D01*
X170547206Y-116209123D01*
X170892806Y-116385214D01*
X171254913Y-116524214D01*
X171629570Y-116624603D01*
X171821114Y-116654939D01*
X172012662Y-116685278D01*
X172400000Y-116705578D01*
X172787338Y-116685278D01*
X173036686Y-116645785D01*
X173170429Y-116624603D01*
X173170433Y-116624602D01*
X173545087Y-116524214D01*
X173907194Y-116385214D01*
X174252789Y-116209125D01*
X174252788Y-116209125D01*
X174252793Y-116209123D01*
X174415436Y-116103500D01*
X174578084Y-115997876D01*
X174879516Y-115753781D01*
X175153781Y-115479516D01*
X175397876Y-115178084D01*
X175532184Y-114971268D01*
X175609123Y-114852793D01*
X175772719Y-114531716D01*
X175785214Y-114507194D01*
X175924214Y-114145087D01*
X176024602Y-113770433D01*
X176024653Y-113770115D01*
X176045785Y-113636686D01*
X176085278Y-113387338D01*
X176105578Y-113000000D01*
X176085278Y-112612662D01*
X176054939Y-112421114D01*
X176024603Y-112229570D01*
X175924214Y-111854913D01*
X175785214Y-111492806D01*
X175609123Y-111147206D01*
X175397878Y-110821919D01*
X175397876Y-110821916D01*
X175153781Y-110520484D01*
X174879516Y-110246219D01*
X174578084Y-110002124D01*
X174578082Y-110002123D01*
X174578080Y-110002121D01*
X174252793Y-109790876D01*
X173907193Y-109614785D01*
X173545086Y-109475785D01*
X173170429Y-109375396D01*
X172787340Y-109314722D01*
X172400000Y-109294422D01*
X172012659Y-109314722D01*
X171629570Y-109375396D01*
X171254913Y-109475785D01*
X170892806Y-109614785D01*
X170547206Y-109790876D01*
X170221919Y-110002121D01*
X169920480Y-110246222D01*
X169646222Y-110520480D01*
X169402121Y-110821919D01*
X169190876Y-111147206D01*
X169014785Y-111492806D01*
X168875785Y-111854913D01*
X168775396Y-112229570D01*
X168714722Y-112612659D01*
X168694422Y-113000000D01*
X163184589Y-113000000D01*
X164522771Y-111661819D01*
X164563000Y-111634939D01*
X164610453Y-111625500D01*
X166717256Y-111625500D01*
X166737762Y-111627764D01*
X166740665Y-111627672D01*
X166740667Y-111627673D01*
X166807872Y-111625561D01*
X166811768Y-111625500D01*
X166839349Y-111625500D01*
X166839350Y-111625500D01*
X166843319Y-111624998D01*
X166854965Y-111624080D01*
X166898627Y-111622709D01*
X166917859Y-111617120D01*
X166936918Y-111613174D01*
X166943196Y-111612381D01*
X166956792Y-111610664D01*
X166997407Y-111594582D01*
X167008444Y-111590803D01*
X167050390Y-111578618D01*
X167067629Y-111568422D01*
X167085102Y-111559862D01*
X167103732Y-111552486D01*
X167139064Y-111526814D01*
X167148830Y-111520400D01*
X167186418Y-111498171D01*
X167186417Y-111498171D01*
X167186420Y-111498170D01*
X167200585Y-111484004D01*
X167215373Y-111471373D01*
X167231587Y-111459594D01*
X167259438Y-111425926D01*
X167267279Y-111417309D01*
X170683789Y-108000800D01*
X170699885Y-107987906D01*
X170701873Y-107985787D01*
X170701877Y-107985786D01*
X170747948Y-107936723D01*
X170750566Y-107934023D01*
X170770120Y-107914471D01*
X170772581Y-107911298D01*
X170780156Y-107902427D01*
X170810062Y-107870582D01*
X170819717Y-107853018D01*
X170830394Y-107836764D01*
X170842673Y-107820936D01*
X170860018Y-107780852D01*
X170865160Y-107770356D01*
X170886197Y-107732092D01*
X170891179Y-107712684D01*
X170897481Y-107694280D01*
X170905437Y-107675896D01*
X170912269Y-107632752D01*
X170914636Y-107621328D01*
X170924307Y-107583667D01*
X170925500Y-107579019D01*
X170925500Y-107579018D01*
X170926060Y-107576837D01*
X170953323Y-107525478D01*
X171001001Y-107492193D01*
X171058610Y-107484302D01*
X171113482Y-107503540D01*
X171153549Y-107545674D01*
X171191041Y-107610612D01*
X171349950Y-107809877D01*
X171536783Y-107983232D01*
X171747366Y-108126805D01*
X171976996Y-108237389D01*
X172220542Y-108312513D01*
X172472565Y-108350500D01*
X172727435Y-108350500D01*
X172979458Y-108312513D01*
X173223004Y-108237389D01*
X173452634Y-108126805D01*
X173663217Y-107983232D01*
X173850050Y-107809877D01*
X174008959Y-107610612D01*
X174136393Y-107389888D01*
X174229508Y-107152637D01*
X174286222Y-106904157D01*
X174305268Y-106650000D01*
X174286222Y-106395843D01*
X174229508Y-106147363D01*
X174136393Y-105910112D01*
X174008959Y-105689388D01*
X173850050Y-105490123D01*
X173663217Y-105316768D01*
X173452634Y-105173195D01*
X173223004Y-105062611D01*
X172979458Y-104987487D01*
X172727435Y-104949500D01*
X172472565Y-104949500D01*
X172220542Y-104987487D01*
X171976996Y-105062611D01*
X171747366Y-105173195D01*
X171642074Y-105244981D01*
X171536781Y-105316769D01*
X171349950Y-105490123D01*
X171191040Y-105689389D01*
X171156887Y-105748545D01*
X171111500Y-105793932D01*
X171049500Y-105810545D01*
X170987500Y-105793932D01*
X170942113Y-105748545D01*
X170925500Y-105686545D01*
X170925500Y-94912456D01*
X170942113Y-94850456D01*
X170987500Y-94805069D01*
X171049500Y-94788456D01*
X171111500Y-94805069D01*
X171156887Y-94850456D01*
X171191454Y-94910328D01*
X171350317Y-95109536D01*
X171537095Y-95282841D01*
X171747615Y-95426371D01*
X171977179Y-95536922D01*
X172220654Y-95612025D01*
X172350000Y-95631520D01*
X172350000Y-94200000D01*
X172850000Y-94200000D01*
X172850000Y-95631520D01*
X172979345Y-95612025D01*
X173222823Y-95536921D01*
X173452379Y-95426374D01*
X173662907Y-95282839D01*
X173849682Y-95109536D01*
X174008545Y-94910328D01*
X174135942Y-94689669D01*
X174229028Y-94452491D01*
X174285726Y-94204080D01*
X174286032Y-94200000D01*
X172850000Y-94200000D01*
X172350000Y-94200000D01*
X172350000Y-92268479D01*
X172850000Y-92268479D01*
X172850000Y-93700000D01*
X174286032Y-93700000D01*
X174286032Y-93699999D01*
X174285726Y-93695919D01*
X174229028Y-93447508D01*
X174135942Y-93210330D01*
X174008545Y-92989671D01*
X173849682Y-92790463D01*
X173662907Y-92617160D01*
X173452379Y-92473625D01*
X173222823Y-92363078D01*
X172979345Y-92287974D01*
X172850000Y-92268479D01*
X172350000Y-92268479D01*
X172220654Y-92287974D01*
X171977179Y-92363077D01*
X171747615Y-92473628D01*
X171537095Y-92617158D01*
X171350317Y-92790463D01*
X171191454Y-92989671D01*
X171156887Y-93049544D01*
X171111500Y-93094931D01*
X171049500Y-93111544D01*
X170987500Y-93094931D01*
X170942113Y-93049544D01*
X170925500Y-92987544D01*
X170925500Y-91163455D01*
X170942113Y-91101455D01*
X170987500Y-91056068D01*
X171049500Y-91039455D01*
X171111500Y-91056068D01*
X171156886Y-91101454D01*
X171191041Y-91160612D01*
X171349950Y-91359877D01*
X171536783Y-91533232D01*
X171747366Y-91676805D01*
X171976996Y-91787389D01*
X172220542Y-91862513D01*
X172472565Y-91900500D01*
X172727435Y-91900500D01*
X172979458Y-91862513D01*
X173223004Y-91787389D01*
X173452634Y-91676805D01*
X173663217Y-91533232D01*
X173850050Y-91359877D01*
X174008959Y-91160612D01*
X174136393Y-90939888D01*
X174229508Y-90702637D01*
X174286222Y-90454157D01*
X174305268Y-90200000D01*
X174286222Y-89945843D01*
X174229508Y-89697363D01*
X174136393Y-89460112D01*
X174118283Y-89428745D01*
X174043113Y-89298545D01*
X174008959Y-89239388D01*
X173850050Y-89040123D01*
X173663217Y-88866768D01*
X173452634Y-88723195D01*
X173223004Y-88612611D01*
X172979458Y-88537487D01*
X172727435Y-88499500D01*
X172472565Y-88499500D01*
X172220542Y-88537487D01*
X171976996Y-88612611D01*
X171747366Y-88723195D01*
X171642074Y-88794981D01*
X171536781Y-88866769D01*
X171349950Y-89040123D01*
X171191040Y-89239389D01*
X171156887Y-89298545D01*
X171111500Y-89343932D01*
X171049500Y-89360545D01*
X170987500Y-89343932D01*
X170942113Y-89298545D01*
X170925500Y-89236545D01*
X170925500Y-88110452D01*
X170934939Y-88062999D01*
X170961819Y-88022771D01*
X171317348Y-87667242D01*
X171715301Y-87269289D01*
X171772980Y-87236656D01*
X171839230Y-87238389D01*
X171882881Y-87266195D01*
X171883586Y-87265227D01*
X171894126Y-87272884D01*
X171894129Y-87272888D01*
X172047270Y-87384151D01*
X172047271Y-87384151D01*
X172047272Y-87384152D01*
X172220197Y-87461144D01*
X172405352Y-87500500D01*
X172405354Y-87500500D01*
X172594646Y-87500500D01*
X172594648Y-87500500D01*
X172769998Y-87463228D01*
X172779803Y-87461144D01*
X172952730Y-87384151D01*
X172981532Y-87363225D01*
X173105870Y-87272889D01*
X173138495Y-87236656D01*
X173232533Y-87132216D01*
X173327179Y-86968284D01*
X173385674Y-86788256D01*
X173405460Y-86600000D01*
X173385674Y-86411744D01*
X173346619Y-86291545D01*
X173327179Y-86231715D01*
X173232533Y-86067783D01*
X173105870Y-85927110D01*
X172999486Y-85849818D01*
X172960172Y-85802297D01*
X172948616Y-85741714D01*
X172967674Y-85683057D01*
X173012634Y-85640838D01*
X173072371Y-85625500D01*
X173389548Y-85625500D01*
X173437001Y-85634939D01*
X173477229Y-85661819D01*
X174538181Y-86722771D01*
X174565061Y-86762999D01*
X174574500Y-86810452D01*
X174574500Y-96201313D01*
X174566264Y-96245751D01*
X174542652Y-96284282D01*
X174509545Y-96321051D01*
X174467464Y-96367786D01*
X174372820Y-96531715D01*
X174314326Y-96711742D01*
X174294540Y-96899999D01*
X174314326Y-97088257D01*
X174372820Y-97268284D01*
X174467466Y-97432216D01*
X174594129Y-97572889D01*
X174747269Y-97684151D01*
X174920197Y-97761144D01*
X175105352Y-97800500D01*
X175105354Y-97800500D01*
X175294646Y-97800500D01*
X175294648Y-97800500D01*
X175463581Y-97764592D01*
X175479803Y-97761144D01*
X175652730Y-97684151D01*
X175805871Y-97572888D01*
X175932533Y-97432216D01*
X176027179Y-97268284D01*
X176085674Y-97088256D01*
X176105460Y-96900000D01*
X176085674Y-96711744D01*
X176029382Y-96538495D01*
X176027179Y-96531715D01*
X175932535Y-96367786D01*
X175919427Y-96353229D01*
X175857347Y-96284282D01*
X175833736Y-96245751D01*
X175825500Y-96201313D01*
X175825500Y-86582744D01*
X175827764Y-86562236D01*
X175825924Y-86503683D01*
X175825561Y-86492113D01*
X175825500Y-86488219D01*
X175825500Y-86460654D01*
X175825500Y-86460650D01*
X175824997Y-86456670D01*
X175824081Y-86445028D01*
X175824064Y-86444472D01*
X175822710Y-86401373D01*
X175817118Y-86382126D01*
X175813174Y-86363085D01*
X175810664Y-86343208D01*
X175794579Y-86302583D01*
X175790808Y-86291568D01*
X175778618Y-86249610D01*
X175768414Y-86232355D01*
X175759861Y-86214895D01*
X175752486Y-86196269D01*
X175752486Y-86196268D01*
X175726808Y-86160925D01*
X175720401Y-86151171D01*
X175698169Y-86113579D01*
X175684006Y-86099416D01*
X175671367Y-86084617D01*
X175659595Y-86068413D01*
X175625941Y-86040573D01*
X175617299Y-86032709D01*
X174200801Y-84616210D01*
X174187906Y-84600114D01*
X174136773Y-84552096D01*
X174133977Y-84549386D01*
X174104471Y-84519880D01*
X174097569Y-84514526D01*
X174088688Y-84506941D01*
X174070582Y-84489938D01*
X174070581Y-84489937D01*
X174062953Y-84485744D01*
X174046692Y-84475063D01*
X174010936Y-84447327D01*
X173987643Y-84437247D01*
X173865895Y-84384561D01*
X173709807Y-84359839D01*
X173560537Y-84373950D01*
X173548868Y-84374500D01*
X167203747Y-84374500D01*
X167153312Y-84363780D01*
X167111598Y-84333473D01*
X167105871Y-84327112D01*
X166952730Y-84215849D01*
X166952729Y-84215848D01*
X166952727Y-84215847D01*
X166779802Y-84138855D01*
X166594648Y-84099500D01*
X166594646Y-84099500D01*
X166405354Y-84099500D01*
X166405352Y-84099500D01*
X166220197Y-84138855D01*
X166047269Y-84215848D01*
X165894129Y-84327110D01*
X165767466Y-84467783D01*
X165672820Y-84631715D01*
X165614326Y-84811742D01*
X165594540Y-85000000D01*
X165614326Y-85188257D01*
X165672820Y-85368284D01*
X165767466Y-85532216D01*
X165894129Y-85672889D01*
X166047269Y-85784151D01*
X166220197Y-85861144D01*
X166405352Y-85900500D01*
X166405354Y-85900500D01*
X166594646Y-85900500D01*
X166594648Y-85900500D01*
X166718083Y-85874262D01*
X166779803Y-85861144D01*
X166952730Y-85784151D01*
X167105871Y-85672888D01*
X167111598Y-85666526D01*
X167153312Y-85636220D01*
X167203747Y-85625500D01*
X171927630Y-85625500D01*
X171987367Y-85640838D01*
X172032327Y-85683057D01*
X172051385Y-85741714D01*
X172039829Y-85802296D01*
X172000516Y-85849817D01*
X171987897Y-85858986D01*
X171894127Y-85927113D01*
X171890248Y-85931421D01*
X171888401Y-85933473D01*
X171846688Y-85963780D01*
X171796253Y-85974500D01*
X171582740Y-85974500D01*
X171562236Y-85972236D01*
X171492144Y-85974439D01*
X171488250Y-85974500D01*
X171460648Y-85974500D01*
X171456653Y-85975004D01*
X171445029Y-85975918D01*
X171401368Y-85977290D01*
X171382128Y-85982880D01*
X171363081Y-85986825D01*
X171343209Y-85989335D01*
X171302599Y-86005413D01*
X171291554Y-86009194D01*
X171249611Y-86021380D01*
X171232369Y-86031578D01*
X171214897Y-86040138D01*
X171196266Y-86047514D01*
X171160938Y-86073181D01*
X171151180Y-86079591D01*
X171113579Y-86101829D01*
X171099410Y-86115998D01*
X171084622Y-86128628D01*
X171068413Y-86140405D01*
X171040572Y-86174058D01*
X171032711Y-86182696D01*
X169916208Y-87299199D01*
X169900110Y-87312096D01*
X169852096Y-87363225D01*
X169849391Y-87366017D01*
X169829874Y-87385534D01*
X169827415Y-87388705D01*
X169819842Y-87397572D01*
X169789935Y-87429420D01*
X169780285Y-87446974D01*
X169769609Y-87463228D01*
X169757326Y-87479063D01*
X169739975Y-87519158D01*
X169734838Y-87529644D01*
X169713802Y-87567907D01*
X169708821Y-87587309D01*
X169702520Y-87605711D01*
X169694561Y-87624102D01*
X169687728Y-87667242D01*
X169685360Y-87678674D01*
X169674500Y-87720978D01*
X169674500Y-87741016D01*
X169672973Y-87760415D01*
X169669840Y-87780194D01*
X169673950Y-87823675D01*
X169674500Y-87835344D01*
X169674500Y-89067520D01*
X169659694Y-89126280D01*
X169618811Y-89171007D01*
X169561615Y-89191021D01*
X169501765Y-89181541D01*
X169453554Y-89144834D01*
X169370050Y-89040123D01*
X169183217Y-88866768D01*
X168972634Y-88723195D01*
X168743004Y-88612611D01*
X168499458Y-88537487D01*
X168247435Y-88499500D01*
X167992565Y-88499500D01*
X167740542Y-88537487D01*
X167496996Y-88612611D01*
X167267366Y-88723195D01*
X167162074Y-88794981D01*
X167056781Y-88866769D01*
X166903197Y-89009274D01*
X166869950Y-89040123D01*
X166790309Y-89139990D01*
X166711038Y-89239392D01*
X166583608Y-89460108D01*
X166490492Y-89697362D01*
X166433777Y-89945845D01*
X166414731Y-90199999D01*
X166433777Y-90454154D01*
X166490492Y-90702637D01*
X166583608Y-90939891D01*
X166648688Y-91052613D01*
X166711041Y-91160612D01*
X166869950Y-91359877D01*
X167056783Y-91533232D01*
X167267366Y-91676805D01*
X167496996Y-91787389D01*
X167740542Y-91862513D01*
X167992565Y-91900500D01*
X168247435Y-91900500D01*
X168499458Y-91862513D01*
X168743004Y-91787389D01*
X168972634Y-91676805D01*
X169183217Y-91533232D01*
X169370050Y-91359877D01*
X169453554Y-91255165D01*
X169501765Y-91218459D01*
X169561615Y-91208979D01*
X169618811Y-91228993D01*
X169659694Y-91273720D01*
X169674500Y-91332480D01*
X169674500Y-92818321D01*
X169659694Y-92877081D01*
X169618811Y-92921808D01*
X169561615Y-92941822D01*
X169501765Y-92932342D01*
X169453553Y-92895634D01*
X169369682Y-92790463D01*
X169182907Y-92617160D01*
X168972379Y-92473625D01*
X168742823Y-92363078D01*
X168499345Y-92287974D01*
X168370000Y-92268479D01*
X168370000Y-95631520D01*
X168499345Y-95612025D01*
X168742823Y-95536921D01*
X168972379Y-95426374D01*
X169182907Y-95282839D01*
X169369682Y-95109536D01*
X169453553Y-95004366D01*
X169501765Y-94967658D01*
X169561615Y-94958178D01*
X169618811Y-94978192D01*
X169659694Y-95022919D01*
X169674500Y-95081679D01*
X169674500Y-105517520D01*
X169659694Y-105576280D01*
X169618811Y-105621007D01*
X169561615Y-105641021D01*
X169501765Y-105631541D01*
X169453554Y-105594834D01*
X169370050Y-105490123D01*
X169183217Y-105316768D01*
X168972634Y-105173195D01*
X168743004Y-105062611D01*
X168499458Y-104987487D01*
X168247435Y-104949500D01*
X167992565Y-104949500D01*
X167740542Y-104987487D01*
X167496996Y-105062611D01*
X167267366Y-105173195D01*
X167162074Y-105244981D01*
X167056781Y-105316769D01*
X166869950Y-105490123D01*
X166711038Y-105689392D01*
X166583608Y-105910108D01*
X166573044Y-105937025D01*
X166565501Y-105956247D01*
X166564928Y-105957706D01*
X166523878Y-106011620D01*
X166460615Y-106035904D01*
X166394033Y-106023306D01*
X166344016Y-105977588D01*
X166325500Y-105912403D01*
X166325500Y-103482744D01*
X166327764Y-103462236D01*
X166325561Y-103392113D01*
X166325500Y-103388219D01*
X166325500Y-103360654D01*
X166325500Y-103360650D01*
X166324997Y-103356670D01*
X166324081Y-103345028D01*
X166322710Y-103301373D01*
X166317118Y-103282126D01*
X166313174Y-103263085D01*
X166310664Y-103243208D01*
X166294579Y-103202583D01*
X166290808Y-103191568D01*
X166278618Y-103149610D01*
X166268414Y-103132355D01*
X166259861Y-103114895D01*
X166252486Y-103096269D01*
X166252486Y-103096268D01*
X166226808Y-103060925D01*
X166220401Y-103051171D01*
X166198169Y-103013579D01*
X166184006Y-102999416D01*
X166171367Y-102984617D01*
X166159595Y-102968413D01*
X166125941Y-102940573D01*
X166117299Y-102932709D01*
X165361819Y-102177228D01*
X165334939Y-102137000D01*
X165325500Y-102089547D01*
X165325500Y-94200000D01*
X166433968Y-94200000D01*
X166434273Y-94204080D01*
X166490971Y-94452491D01*
X166584057Y-94689669D01*
X166711454Y-94910328D01*
X166870317Y-95109536D01*
X167057095Y-95282841D01*
X167267615Y-95426371D01*
X167497179Y-95536922D01*
X167740654Y-95612025D01*
X167870000Y-95631520D01*
X167870000Y-94200000D01*
X166433968Y-94200000D01*
X165325500Y-94200000D01*
X165325500Y-93699999D01*
X166433967Y-93699999D01*
X166433968Y-93700000D01*
X167870000Y-93700000D01*
X167870000Y-92268479D01*
X167740654Y-92287974D01*
X167497179Y-92363077D01*
X167267615Y-92473628D01*
X167057095Y-92617158D01*
X166870317Y-92790463D01*
X166711454Y-92989671D01*
X166584057Y-93210330D01*
X166490971Y-93447508D01*
X166434273Y-93695919D01*
X166433967Y-93699999D01*
X165325500Y-93699999D01*
X165325500Y-82890014D01*
X165344803Y-82823571D01*
X165396704Y-82777815D01*
X165465042Y-82766992D01*
X165528541Y-82794471D01*
X165567431Y-82851696D01*
X165572820Y-82868284D01*
X165667466Y-83032216D01*
X165794129Y-83172889D01*
X165947269Y-83284151D01*
X166120197Y-83361144D01*
X166305352Y-83400500D01*
X166305354Y-83400500D01*
X166494646Y-83400500D01*
X166494648Y-83400500D01*
X166618083Y-83374262D01*
X166679803Y-83361144D01*
X166852730Y-83284151D01*
X167005871Y-83172888D01*
X167011598Y-83166526D01*
X167053312Y-83136220D01*
X167103747Y-83125500D01*
X169696253Y-83125500D01*
X169746688Y-83136220D01*
X169788401Y-83166526D01*
X169794129Y-83172888D01*
X169947270Y-83284151D01*
X169947271Y-83284151D01*
X169947272Y-83284152D01*
X170120197Y-83361144D01*
X170305352Y-83400500D01*
X170305354Y-83400500D01*
X170494646Y-83400500D01*
X170494648Y-83400500D01*
X170618083Y-83374262D01*
X170679803Y-83361144D01*
X170852730Y-83284151D01*
X171005871Y-83172888D01*
X171132533Y-83032216D01*
X171227179Y-82868284D01*
X171285674Y-82688256D01*
X171305460Y-82500000D01*
X171285674Y-82311744D01*
X171227179Y-82131716D01*
X171227179Y-82131715D01*
X171132533Y-81967783D01*
X171005870Y-81827110D01*
X170852730Y-81715848D01*
X170679802Y-81638855D01*
X170494648Y-81599500D01*
X170494646Y-81599500D01*
X170305354Y-81599500D01*
X170305352Y-81599500D01*
X170120197Y-81638855D01*
X169947272Y-81715847D01*
X169937741Y-81722772D01*
X169794129Y-81827112D01*
X169788401Y-81833473D01*
X169746688Y-81863780D01*
X169696253Y-81874500D01*
X167103747Y-81874500D01*
X167053312Y-81863780D01*
X167011598Y-81833473D01*
X167005871Y-81827112D01*
X166852730Y-81715849D01*
X166852729Y-81715848D01*
X166852727Y-81715847D01*
X166679802Y-81638855D01*
X166494648Y-81599500D01*
X166494646Y-81599500D01*
X166305354Y-81599500D01*
X166305352Y-81599500D01*
X166120197Y-81638855D01*
X165947269Y-81715848D01*
X165794129Y-81827110D01*
X165667466Y-81967783D01*
X165572820Y-82131715D01*
X165567431Y-82148304D01*
X165528541Y-82205529D01*
X165465042Y-82233008D01*
X165396704Y-82222185D01*
X165344803Y-82176429D01*
X165325500Y-82109986D01*
X165325500Y-81582744D01*
X165327764Y-81562237D01*
X165326436Y-81519989D01*
X165325561Y-81492127D01*
X165325500Y-81488232D01*
X165325500Y-81460653D01*
X165324997Y-81456672D01*
X165324080Y-81445019D01*
X165323608Y-81430000D01*
X165322709Y-81401373D01*
X165317120Y-81382140D01*
X165313174Y-81363082D01*
X165310664Y-81343206D01*
X165294588Y-81302604D01*
X165290804Y-81291553D01*
X165281640Y-81260013D01*
X165278618Y-81249610D01*
X165268414Y-81232355D01*
X165259861Y-81214895D01*
X165252486Y-81196268D01*
X165226808Y-81160925D01*
X165220401Y-81151171D01*
X165198169Y-81113579D01*
X165184006Y-81099416D01*
X165171367Y-81084617D01*
X165159595Y-81068413D01*
X165125941Y-81040573D01*
X165117299Y-81032709D01*
X164838960Y-80754369D01*
X164814720Y-80720071D01*
X164803321Y-80679655D01*
X164785674Y-80511744D01*
X164727179Y-80331716D01*
X164727179Y-80331715D01*
X164632533Y-80167783D01*
X164505870Y-80027110D01*
X164352730Y-79915848D01*
X164179802Y-79838855D01*
X163994648Y-79799500D01*
X163994646Y-79799500D01*
X163805354Y-79799500D01*
X163805352Y-79799500D01*
X163620197Y-79838855D01*
X163447269Y-79915848D01*
X163294129Y-80027110D01*
X163167466Y-80167783D01*
X163072820Y-80331715D01*
X163014326Y-80511742D01*
X162996679Y-80679649D01*
X162994540Y-80700000D01*
X163000254Y-80754369D01*
X163014326Y-80888257D01*
X163072820Y-81068284D01*
X163167466Y-81232216D01*
X163294129Y-81372889D01*
X163447269Y-81484151D01*
X163620197Y-81561144D01*
X163805352Y-81600500D01*
X163805354Y-81600500D01*
X163864547Y-81600500D01*
X163912000Y-81609939D01*
X163952228Y-81636819D01*
X164038181Y-81722772D01*
X164065061Y-81763000D01*
X164074500Y-81810453D01*
X164074500Y-102317256D01*
X164072235Y-102337762D01*
X164074439Y-102407873D01*
X164074500Y-102411768D01*
X164074500Y-102439349D01*
X164075003Y-102443334D01*
X164075918Y-102454967D01*
X164077290Y-102498626D01*
X164082879Y-102517860D01*
X164086825Y-102536916D01*
X164089335Y-102556792D01*
X164105414Y-102597404D01*
X164109197Y-102608451D01*
X164121382Y-102650391D01*
X164131580Y-102667635D01*
X164140136Y-102685100D01*
X164147514Y-102703732D01*
X164147515Y-102703733D01*
X164173180Y-102739059D01*
X164179593Y-102748822D01*
X164201826Y-102786416D01*
X164201829Y-102786419D01*
X164201830Y-102786420D01*
X164215995Y-102800585D01*
X164228627Y-102815375D01*
X164240406Y-102831587D01*
X164274058Y-102859426D01*
X164282699Y-102867289D01*
X165038181Y-103622771D01*
X165065061Y-103662999D01*
X165074500Y-103710452D01*
X165074500Y-106933610D01*
X165056227Y-106998400D01*
X165006795Y-107044095D01*
X164940771Y-107057228D01*
X164877615Y-107033928D01*
X164852730Y-107015848D01*
X164679802Y-106938855D01*
X164494648Y-106899500D01*
X164494646Y-106899500D01*
X164305354Y-106899500D01*
X164305352Y-106899500D01*
X164120197Y-106938855D01*
X163947269Y-107015848D01*
X163794129Y-107127110D01*
X163743382Y-107183472D01*
X163701667Y-107213780D01*
X163651232Y-107224500D01*
X162559520Y-107224500D01*
X162502700Y-107210716D01*
X162458513Y-107172428D01*
X162446079Y-107154967D01*
X162425486Y-107126048D01*
X162273378Y-106981014D01*
X162241257Y-106960371D01*
X162096574Y-106867387D01*
X161902136Y-106789547D01*
X161901457Y-106789275D01*
X161901456Y-106789274D01*
X161901454Y-106789274D01*
X161695086Y-106749500D01*
X161695085Y-106749500D01*
X160737575Y-106749500D01*
X160639579Y-106758857D01*
X160580779Y-106764472D01*
X160379126Y-106823683D01*
X160192315Y-106919990D01*
X160027115Y-107049906D01*
X159889479Y-107208745D01*
X159784396Y-107390754D01*
X159715655Y-107589367D01*
X159686346Y-107793220D01*
X159661804Y-107851293D01*
X159611878Y-107889792D01*
X159549473Y-107898765D01*
X159490723Y-107875891D01*
X159288795Y-107729183D01*
X159034470Y-107589367D01*
X159024104Y-107583668D01*
X159024103Y-107583667D01*
X159024102Y-107583667D01*
X158743262Y-107472474D01*
X158450700Y-107397358D01*
X158151028Y-107359500D01*
X158151027Y-107359500D01*
X157848973Y-107359500D01*
X157848972Y-107359500D01*
X157549299Y-107397358D01*
X157256737Y-107472474D01*
X156975897Y-107583667D01*
X156711204Y-107729183D01*
X156466839Y-107906723D01*
X156246650Y-108113496D01*
X156054114Y-108346233D01*
X155892268Y-108601260D01*
X155763656Y-108874575D01*
X155763232Y-108875882D01*
X155762472Y-108877091D01*
X155760338Y-108881628D01*
X155759787Y-108881369D01*
X155731082Y-108927099D01*
X155678531Y-108957020D01*
X155618079Y-108958529D01*
X155564101Y-108931267D01*
X155481257Y-108859481D01*
X155299245Y-108754396D01*
X155100633Y-108685655D01*
X154892603Y-108655746D01*
X154892602Y-108655746D01*
X154787635Y-108660746D01*
X154682669Y-108665746D01*
X154478419Y-108715297D01*
X154287247Y-108802602D01*
X154116050Y-108924512D01*
X153971013Y-109076623D01*
X153857387Y-109253425D01*
X153779274Y-109448545D01*
X153759570Y-109550782D01*
X153739500Y-109654915D01*
X153739500Y-110612425D01*
X153744529Y-110665086D01*
X153754472Y-110769220D01*
X153813683Y-110970873D01*
X153909990Y-111157684D01*
X154039906Y-111322884D01*
X154198745Y-111460520D01*
X154377030Y-111563453D01*
X154380756Y-111565604D01*
X154453558Y-111590801D01*
X154579366Y-111634344D01*
X154614298Y-111639366D01*
X154787398Y-111664254D01*
X154997330Y-111654254D01*
X155201576Y-111604704D01*
X155299766Y-111559862D01*
X155392752Y-111517397D01*
X155449334Y-111477105D01*
X155563952Y-111395486D01*
X155708986Y-111243378D01*
X155799890Y-111101928D01*
X155844934Y-111060050D01*
X155904560Y-111044968D01*
X155964098Y-111060390D01*
X156008902Y-111102524D01*
X156054115Y-111173768D01*
X156175096Y-111320009D01*
X156246650Y-111406503D01*
X156466839Y-111613276D01*
X156711204Y-111790816D01*
X156827796Y-111854913D01*
X156975896Y-111936332D01*
X157116317Y-111991928D01*
X157256737Y-112047525D01*
X157411141Y-112087168D01*
X157549302Y-112122642D01*
X157798314Y-112154100D01*
X157848972Y-112160500D01*
X157848973Y-112160500D01*
X158151027Y-112160500D01*
X158151028Y-112160500D01*
X158194360Y-112155025D01*
X158450698Y-112122642D01*
X158743262Y-112047525D01*
X159024104Y-111936332D01*
X159288795Y-111790816D01*
X159462994Y-111664254D01*
X159533160Y-111613276D01*
X159597894Y-111552486D01*
X159753349Y-111406504D01*
X159892540Y-111238250D01*
X159947599Y-111200086D01*
X160014478Y-111196134D01*
X160073651Y-111227549D01*
X160102667Y-111255215D01*
X160106622Y-111258986D01*
X160183542Y-111308419D01*
X160283425Y-111372612D01*
X160322580Y-111388287D01*
X160478543Y-111450725D01*
X160585639Y-111471366D01*
X160684914Y-111490500D01*
X160684915Y-111490500D01*
X161642420Y-111490500D01*
X161642425Y-111490500D01*
X161799218Y-111475528D01*
X162000875Y-111416316D01*
X162187682Y-111320011D01*
X162352886Y-111190092D01*
X162490519Y-111031256D01*
X162595604Y-110849244D01*
X162664344Y-110650633D01*
X162694254Y-110442602D01*
X162684254Y-110232670D01*
X162634704Y-110028424D01*
X162634702Y-110028419D01*
X162547397Y-109837247D01*
X162425487Y-109666050D01*
X162425486Y-109666048D01*
X162273378Y-109521014D01*
X162241257Y-109500371D01*
X162096574Y-109407387D01*
X161940609Y-109344949D01*
X161901457Y-109329275D01*
X161901456Y-109329274D01*
X161901454Y-109329274D01*
X161695086Y-109289500D01*
X161695085Y-109289500D01*
X160737575Y-109289500D01*
X160659178Y-109296986D01*
X160580777Y-109304472D01*
X160499894Y-109328222D01*
X160431841Y-109328740D01*
X160373764Y-109293264D01*
X160343156Y-109232480D01*
X160342956Y-109231432D01*
X160329681Y-109161840D01*
X160295462Y-109056527D01*
X160293319Y-108987260D01*
X160328682Y-108927658D01*
X160390506Y-108896342D01*
X160459479Y-108903093D01*
X160478543Y-108910725D01*
X160645139Y-108942833D01*
X160684914Y-108950500D01*
X160684915Y-108950500D01*
X161642420Y-108950500D01*
X161642425Y-108950500D01*
X161799218Y-108935528D01*
X162000875Y-108876316D01*
X162187682Y-108780011D01*
X162352886Y-108650092D01*
X162467088Y-108518295D01*
X162509289Y-108486706D01*
X162560800Y-108475500D01*
X163757434Y-108475500D01*
X163795752Y-108481569D01*
X163830319Y-108499182D01*
X163947269Y-108584151D01*
X164120197Y-108661144D01*
X164305352Y-108700500D01*
X164305354Y-108700500D01*
X164494646Y-108700500D01*
X164494648Y-108700500D01*
X164618084Y-108674262D01*
X164679803Y-108661144D01*
X164852730Y-108584151D01*
X164866772Y-108573949D01*
X164891410Y-108556049D01*
X164950688Y-108533115D01*
X165013541Y-108542564D01*
X165063456Y-108581912D01*
X165087318Y-108640822D01*
X165089335Y-108656792D01*
X165105414Y-108697404D01*
X165109197Y-108708451D01*
X165121382Y-108750391D01*
X165131580Y-108767635D01*
X165140136Y-108785100D01*
X165147514Y-108803732D01*
X165147515Y-108803733D01*
X165173180Y-108839059D01*
X165179593Y-108848822D01*
X165201826Y-108886416D01*
X165201829Y-108886419D01*
X165201830Y-108886420D01*
X165215995Y-108900585D01*
X165228627Y-108915375D01*
X165240406Y-108931587D01*
X165274058Y-108959426D01*
X165282699Y-108967289D01*
X165561038Y-109245629D01*
X165585277Y-109279926D01*
X165596678Y-109320348D01*
X165614326Y-109488257D01*
X165672820Y-109668284D01*
X165767466Y-109832216D01*
X165894129Y-109972889D01*
X166047269Y-110084151D01*
X166166464Y-110137221D01*
X166217851Y-110179732D01*
X166239783Y-110242714D01*
X166225917Y-110307949D01*
X166180263Y-110356565D01*
X166116028Y-110374500D01*
X164382740Y-110374500D01*
X164362236Y-110372236D01*
X164292144Y-110374439D01*
X164288250Y-110374500D01*
X164260648Y-110374500D01*
X164256653Y-110375004D01*
X164245029Y-110375918D01*
X164201368Y-110377290D01*
X164182128Y-110382880D01*
X164163081Y-110386825D01*
X164143209Y-110389335D01*
X164102599Y-110405413D01*
X164091554Y-110409194D01*
X164049611Y-110421380D01*
X164032369Y-110431578D01*
X164014897Y-110440138D01*
X163996266Y-110447514D01*
X163960938Y-110473181D01*
X163951180Y-110479591D01*
X163913579Y-110501829D01*
X163899410Y-110515998D01*
X163884622Y-110528628D01*
X163868413Y-110540405D01*
X163840572Y-110574058D01*
X163832711Y-110582696D01*
X161777228Y-112638181D01*
X161737000Y-112665061D01*
X161689547Y-112674500D01*
X141110452Y-112674500D01*
X141062999Y-112665061D01*
X141022771Y-112638181D01*
X138721989Y-110337398D01*
X141905746Y-110337398D01*
X141908220Y-110389335D01*
X141915746Y-110547330D01*
X141965297Y-110751580D01*
X142052602Y-110942752D01*
X142139026Y-111064116D01*
X142174514Y-111113952D01*
X142326622Y-111258986D01*
X142398964Y-111305478D01*
X142503425Y-111372612D01*
X142542580Y-111388287D01*
X142698543Y-111450725D01*
X142805639Y-111471366D01*
X142904914Y-111490500D01*
X142904915Y-111490500D01*
X143862420Y-111490500D01*
X143862425Y-111490500D01*
X144019218Y-111475528D01*
X144220875Y-111416316D01*
X144407682Y-111320011D01*
X144535192Y-111219734D01*
X144593184Y-111194617D01*
X144656024Y-111201342D01*
X144707388Y-111238164D01*
X144846653Y-111406507D01*
X145066839Y-111613276D01*
X145311204Y-111790816D01*
X145427796Y-111854913D01*
X145575896Y-111936332D01*
X145716317Y-111991928D01*
X145856737Y-112047525D01*
X146011141Y-112087168D01*
X146149302Y-112122642D01*
X146398314Y-112154100D01*
X146448972Y-112160500D01*
X146448973Y-112160500D01*
X146751027Y-112160500D01*
X146751028Y-112160500D01*
X146794360Y-112155025D01*
X147050698Y-112122642D01*
X147343262Y-112047525D01*
X147624104Y-111936332D01*
X147888795Y-111790816D01*
X148062994Y-111664254D01*
X148133160Y-111613276D01*
X148197894Y-111552486D01*
X148353349Y-111406504D01*
X148545885Y-111173768D01*
X148591378Y-111102082D01*
X148638780Y-111058556D01*
X148701618Y-111044651D01*
X148762963Y-111064116D01*
X148806286Y-111111705D01*
X148807445Y-111113952D01*
X148829990Y-111157684D01*
X148959906Y-111322884D01*
X149118745Y-111460520D01*
X149297030Y-111563453D01*
X149300756Y-111565604D01*
X149373558Y-111590801D01*
X149499366Y-111634344D01*
X149534298Y-111639366D01*
X149707398Y-111664254D01*
X149917330Y-111654254D01*
X150121576Y-111604704D01*
X150219766Y-111559862D01*
X150312752Y-111517397D01*
X150369334Y-111477105D01*
X150483952Y-111395486D01*
X150628986Y-111243378D01*
X150742613Y-111066572D01*
X150820725Y-110871457D01*
X150860500Y-110665085D01*
X150860500Y-110612425D01*
X151199500Y-110612425D01*
X151204529Y-110665086D01*
X151214472Y-110769220D01*
X151273683Y-110970873D01*
X151369990Y-111157684D01*
X151499906Y-111322884D01*
X151658745Y-111460520D01*
X151837030Y-111563453D01*
X151840756Y-111565604D01*
X151913558Y-111590801D01*
X152039366Y-111634344D01*
X152074298Y-111639366D01*
X152247398Y-111664254D01*
X152457330Y-111654254D01*
X152661576Y-111604704D01*
X152759766Y-111559862D01*
X152852752Y-111517397D01*
X152909334Y-111477105D01*
X153023952Y-111395486D01*
X153168986Y-111243378D01*
X153282613Y-111066572D01*
X153360725Y-110871457D01*
X153400500Y-110665085D01*
X153400500Y-109707575D01*
X153385528Y-109550782D01*
X153326316Y-109349125D01*
X153230011Y-109162318D01*
X153229637Y-109161843D01*
X153100093Y-108997115D01*
X152941254Y-108859479D01*
X152759245Y-108754396D01*
X152560633Y-108685655D01*
X152352603Y-108655746D01*
X152352602Y-108655746D01*
X152247635Y-108660746D01*
X152142669Y-108665746D01*
X151938419Y-108715297D01*
X151747247Y-108802602D01*
X151576050Y-108924512D01*
X151431013Y-109076623D01*
X151317387Y-109253425D01*
X151239274Y-109448545D01*
X151219570Y-109550782D01*
X151199500Y-109654915D01*
X151199500Y-110612425D01*
X150860500Y-110612425D01*
X150860500Y-109707575D01*
X150845528Y-109550782D01*
X150786316Y-109349125D01*
X150690011Y-109162318D01*
X150689637Y-109161843D01*
X150560093Y-108997115D01*
X150401254Y-108859479D01*
X150219245Y-108754396D01*
X150020633Y-108685655D01*
X149812603Y-108655746D01*
X149812602Y-108655746D01*
X149707635Y-108660746D01*
X149602669Y-108665746D01*
X149398419Y-108715297D01*
X149207247Y-108802602D01*
X149026403Y-108931382D01*
X149024519Y-108928736D01*
X148988654Y-108950761D01*
X148925364Y-108952932D01*
X148869256Y-108923570D01*
X148841640Y-108880697D01*
X148839662Y-108881628D01*
X148829240Y-108859481D01*
X148707733Y-108601264D01*
X148707732Y-108601263D01*
X148707731Y-108601260D01*
X148619570Y-108462341D01*
X148545885Y-108346232D01*
X148353349Y-108113496D01*
X148310248Y-108073021D01*
X148133160Y-107906723D01*
X147888795Y-107729183D01*
X147634470Y-107589367D01*
X147624104Y-107583668D01*
X147624103Y-107583667D01*
X147624102Y-107583667D01*
X147343262Y-107472474D01*
X147050700Y-107397358D01*
X146751028Y-107359500D01*
X146751027Y-107359500D01*
X146448973Y-107359500D01*
X146448972Y-107359500D01*
X146149299Y-107397358D01*
X145856737Y-107472474D01*
X145575897Y-107583667D01*
X145311204Y-107729183D01*
X145105364Y-107878734D01*
X145043678Y-107901909D01*
X144978829Y-107890209D01*
X144929131Y-107846938D01*
X144908619Y-107784317D01*
X144904254Y-107692670D01*
X144854704Y-107488424D01*
X144852822Y-107484302D01*
X144767397Y-107297247D01*
X144664420Y-107152637D01*
X144645486Y-107126048D01*
X144493378Y-106981014D01*
X144461257Y-106960371D01*
X144316574Y-106867387D01*
X144122136Y-106789547D01*
X144121457Y-106789275D01*
X144121456Y-106789274D01*
X144121454Y-106789274D01*
X143915086Y-106749500D01*
X143915085Y-106749500D01*
X142957575Y-106749500D01*
X142859579Y-106758857D01*
X142800779Y-106764472D01*
X142599126Y-106823683D01*
X142412315Y-106919990D01*
X142247115Y-107049906D01*
X142109479Y-107208745D01*
X142004396Y-107390754D01*
X141935655Y-107589366D01*
X141905746Y-107797396D01*
X141905746Y-107797398D01*
X141908106Y-107846938D01*
X141915746Y-108007330D01*
X141965297Y-108211580D01*
X142052602Y-108402752D01*
X142140403Y-108526050D01*
X142174514Y-108573952D01*
X142326622Y-108718986D01*
X142375489Y-108750391D01*
X142503425Y-108832612D01*
X142519529Y-108839059D01*
X142698543Y-108910725D01*
X142827228Y-108935527D01*
X142904914Y-108950500D01*
X142904915Y-108950500D01*
X143862420Y-108950500D01*
X143862425Y-108950500D01*
X144019218Y-108935528D01*
X144152604Y-108896361D01*
X144219061Y-108895413D01*
X144276462Y-108928918D01*
X144308315Y-108987253D01*
X144305469Y-109053657D01*
X144270317Y-109161843D01*
X144257511Y-109228975D01*
X144229524Y-109286823D01*
X144176339Y-109322893D01*
X144112241Y-109327498D01*
X143915087Y-109289500D01*
X143915085Y-109289500D01*
X142957575Y-109289500D01*
X142859579Y-109298857D01*
X142800779Y-109304472D01*
X142599126Y-109363683D01*
X142412315Y-109459990D01*
X142247115Y-109589906D01*
X142109479Y-109748745D01*
X142004396Y-109930754D01*
X141935655Y-110129366D01*
X141909980Y-110307949D01*
X141905746Y-110337398D01*
X138721989Y-110337398D01*
X137109619Y-108725028D01*
X137109610Y-108725020D01*
X135900802Y-107516211D01*
X135887906Y-107500113D01*
X135836775Y-107452098D01*
X135833978Y-107449387D01*
X135814470Y-107429879D01*
X135811290Y-107427412D01*
X135802424Y-107419839D01*
X135770582Y-107389938D01*
X135753024Y-107380285D01*
X135736764Y-107369604D01*
X135720936Y-107357327D01*
X135680851Y-107339980D01*
X135670361Y-107334841D01*
X135632091Y-107313802D01*
X135612691Y-107308821D01*
X135594284Y-107302519D01*
X135575897Y-107294562D01*
X135532758Y-107287729D01*
X135521324Y-107285361D01*
X135479019Y-107274500D01*
X135458984Y-107274500D01*
X135439586Y-107272973D01*
X135432162Y-107271797D01*
X135419805Y-107269840D01*
X135419804Y-107269840D01*
X135386751Y-107272964D01*
X135376325Y-107273950D01*
X135364656Y-107274500D01*
X131210452Y-107274500D01*
X131162999Y-107265061D01*
X131122771Y-107238181D01*
X130761819Y-106877228D01*
X130734939Y-106837000D01*
X130725500Y-106789547D01*
X130725500Y-106370990D01*
X142702560Y-106370990D01*
X142904962Y-106410000D01*
X143862399Y-106410000D01*
X144019126Y-106395034D01*
X144101013Y-106370990D01*
X160482560Y-106370990D01*
X160684962Y-106410000D01*
X161642399Y-106410000D01*
X161799126Y-106395034D01*
X161893709Y-106367262D01*
X161893709Y-106367261D01*
X161190000Y-105663553D01*
X160482560Y-106370990D01*
X144101013Y-106370990D01*
X144113709Y-106367262D01*
X144113709Y-106367261D01*
X143410000Y-105663553D01*
X142702560Y-106370990D01*
X130725500Y-106370990D01*
X130725500Y-104599999D01*
X138294540Y-104599999D01*
X138314326Y-104788257D01*
X138372820Y-104968284D01*
X138467466Y-105132216D01*
X138594129Y-105272889D01*
X138747269Y-105384151D01*
X138920197Y-105461144D01*
X139105352Y-105500500D01*
X139105354Y-105500500D01*
X139294646Y-105500500D01*
X139294648Y-105500500D01*
X139418083Y-105474262D01*
X139479803Y-105461144D01*
X139652730Y-105384151D01*
X139652730Y-105384150D01*
X139805870Y-105272889D01*
X139819798Y-105257420D01*
X141906248Y-105257420D01*
X141916243Y-105467258D01*
X141965770Y-105671410D01*
X142053039Y-105862505D01*
X142174892Y-106033621D01*
X142255738Y-106110707D01*
X143056447Y-105310001D01*
X143056447Y-105310000D01*
X143763553Y-105310000D01*
X144567356Y-106113803D01*
X144567357Y-106113803D01*
X144572538Y-106109730D01*
X144710111Y-105950963D01*
X144815146Y-105769036D01*
X144883856Y-105570515D01*
X144913751Y-105362579D01*
X144908742Y-105257420D01*
X159686248Y-105257420D01*
X159696243Y-105467258D01*
X159745770Y-105671410D01*
X159833039Y-105862505D01*
X159954892Y-106033621D01*
X160035738Y-106110707D01*
X160836447Y-105310001D01*
X161543553Y-105310001D01*
X162347356Y-106113803D01*
X162347357Y-106113803D01*
X162352538Y-106109730D01*
X162490111Y-105950963D01*
X162595146Y-105769036D01*
X162663856Y-105570515D01*
X162693751Y-105362579D01*
X162683756Y-105152741D01*
X162634229Y-104948589D01*
X162546960Y-104757494D01*
X162425107Y-104586378D01*
X162344260Y-104509291D01*
X161543553Y-105310000D01*
X161543553Y-105310001D01*
X160836447Y-105310001D01*
X160836447Y-105310000D01*
X160032641Y-104506194D01*
X160027461Y-104510269D01*
X159889888Y-104669036D01*
X159784853Y-104850963D01*
X159716143Y-105049484D01*
X159686248Y-105257420D01*
X144908742Y-105257420D01*
X144903756Y-105152741D01*
X144854229Y-104948589D01*
X144766960Y-104757494D01*
X144645107Y-104586378D01*
X144564260Y-104509291D01*
X143763553Y-105310000D01*
X143056447Y-105310000D01*
X142252641Y-104506194D01*
X142247461Y-104510269D01*
X142109888Y-104669036D01*
X142004853Y-104850963D01*
X141936143Y-105049484D01*
X141906248Y-105257420D01*
X139819798Y-105257420D01*
X139932533Y-105132216D01*
X140027179Y-104968284D01*
X140065299Y-104850963D01*
X140085674Y-104788256D01*
X140105460Y-104600000D01*
X140085674Y-104411744D01*
X140034009Y-104252737D01*
X142706290Y-104252737D01*
X143410000Y-104956447D01*
X143410001Y-104956447D01*
X144113708Y-104252737D01*
X160486290Y-104252737D01*
X161190000Y-104956447D01*
X161190001Y-104956447D01*
X161897438Y-104249007D01*
X161695039Y-104210000D01*
X160737601Y-104210000D01*
X160580876Y-104224965D01*
X160486290Y-104252737D01*
X144113708Y-104252737D01*
X144117438Y-104249007D01*
X143915039Y-104210000D01*
X142957601Y-104210000D01*
X142800876Y-104224965D01*
X142706290Y-104252737D01*
X140034009Y-104252737D01*
X140027179Y-104231716D01*
X140027179Y-104231715D01*
X139932535Y-104067786D01*
X139919427Y-104053229D01*
X139857347Y-103984282D01*
X139833736Y-103945751D01*
X139825500Y-103901313D01*
X139825500Y-102717398D01*
X141905746Y-102717398D01*
X141907243Y-102748822D01*
X141915746Y-102927330D01*
X141965297Y-103131580D01*
X142052602Y-103322752D01*
X142149862Y-103459333D01*
X142174514Y-103493952D01*
X142326622Y-103638986D01*
X142363987Y-103662999D01*
X142503425Y-103752612D01*
X142542580Y-103768287D01*
X142698543Y-103830725D01*
X142827228Y-103855527D01*
X142904914Y-103870500D01*
X142904915Y-103870500D01*
X143862420Y-103870500D01*
X143862425Y-103870500D01*
X144019218Y-103855528D01*
X144220875Y-103796316D01*
X144407682Y-103700011D01*
X144572886Y-103570092D01*
X144710519Y-103411256D01*
X144815604Y-103229244D01*
X144884344Y-103030633D01*
X144914254Y-102822602D01*
X144909243Y-102717398D01*
X159685746Y-102717398D01*
X159687243Y-102748822D01*
X159695746Y-102927330D01*
X159745297Y-103131580D01*
X159832602Y-103322752D01*
X159929862Y-103459333D01*
X159954514Y-103493952D01*
X160106622Y-103638986D01*
X160143987Y-103662999D01*
X160283425Y-103752612D01*
X160322580Y-103768287D01*
X160478543Y-103830725D01*
X160607228Y-103855527D01*
X160684914Y-103870500D01*
X160684915Y-103870500D01*
X161642420Y-103870500D01*
X161642425Y-103870500D01*
X161799218Y-103855528D01*
X162000875Y-103796316D01*
X162187682Y-103700011D01*
X162352886Y-103570092D01*
X162490519Y-103411256D01*
X162595604Y-103229244D01*
X162664344Y-103030633D01*
X162694254Y-102822602D01*
X162684254Y-102612670D01*
X162634704Y-102408424D01*
X162634702Y-102408419D01*
X162547397Y-102217247D01*
X162425487Y-102046050D01*
X162425486Y-102046048D01*
X162273378Y-101901014D01*
X162241257Y-101880371D01*
X162096574Y-101787387D01*
X161940609Y-101724949D01*
X161901457Y-101709275D01*
X161901456Y-101709274D01*
X161901454Y-101709274D01*
X161695086Y-101669500D01*
X161695085Y-101669500D01*
X160737575Y-101669500D01*
X160639579Y-101678857D01*
X160580779Y-101684472D01*
X160379126Y-101743683D01*
X160192315Y-101839990D01*
X160027115Y-101969906D01*
X159889479Y-102128745D01*
X159784396Y-102310754D01*
X159715655Y-102509366D01*
X159685746Y-102717396D01*
X159685746Y-102717398D01*
X144909243Y-102717398D01*
X144904254Y-102612670D01*
X144854704Y-102408424D01*
X144854702Y-102408419D01*
X144767397Y-102217247D01*
X144645487Y-102046050D01*
X144645486Y-102046048D01*
X144493378Y-101901014D01*
X144461257Y-101880371D01*
X144316574Y-101787387D01*
X144160609Y-101724949D01*
X144121457Y-101709275D01*
X144121456Y-101709274D01*
X144121454Y-101709274D01*
X143915086Y-101669500D01*
X143915085Y-101669500D01*
X142957575Y-101669500D01*
X142859579Y-101678857D01*
X142800779Y-101684472D01*
X142599126Y-101743683D01*
X142412315Y-101839990D01*
X142247115Y-101969906D01*
X142109479Y-102128745D01*
X142004396Y-102310754D01*
X141935655Y-102509366D01*
X141905746Y-102717396D01*
X141905746Y-102717398D01*
X139825500Y-102717398D01*
X139825500Y-100698687D01*
X139833736Y-100654249D01*
X139857347Y-100615717D01*
X139932533Y-100532216D01*
X140027179Y-100368284D01*
X140085674Y-100188256D01*
X140086815Y-100177396D01*
X141905746Y-100177396D01*
X141915746Y-100387330D01*
X141965297Y-100591580D01*
X142052602Y-100782752D01*
X142162846Y-100937566D01*
X142174514Y-100953952D01*
X142326622Y-101098986D01*
X142398964Y-101145478D01*
X142503425Y-101212612D01*
X142542580Y-101228287D01*
X142698543Y-101290725D01*
X142827228Y-101315527D01*
X142904914Y-101330500D01*
X142904915Y-101330500D01*
X143862420Y-101330500D01*
X143862425Y-101330500D01*
X144019218Y-101315528D01*
X144220875Y-101256316D01*
X144407682Y-101160011D01*
X144572886Y-101030092D01*
X144710519Y-100871256D01*
X144815604Y-100689244D01*
X144884344Y-100490633D01*
X144914254Y-100282602D01*
X144909243Y-100177396D01*
X159685746Y-100177396D01*
X159695746Y-100387330D01*
X159745297Y-100591580D01*
X159832602Y-100782752D01*
X159942846Y-100937566D01*
X159954514Y-100953952D01*
X160106622Y-101098986D01*
X160178964Y-101145478D01*
X160283425Y-101212612D01*
X160322580Y-101228287D01*
X160478543Y-101290725D01*
X160607228Y-101315527D01*
X160684914Y-101330500D01*
X160684915Y-101330500D01*
X161642420Y-101330500D01*
X161642425Y-101330500D01*
X161799218Y-101315528D01*
X162000875Y-101256316D01*
X162187682Y-101160011D01*
X162352886Y-101030092D01*
X162490519Y-100871256D01*
X162595604Y-100689244D01*
X162664344Y-100490633D01*
X162694254Y-100282602D01*
X162684254Y-100072670D01*
X162634704Y-99868424D01*
X162634702Y-99868419D01*
X162547397Y-99677247D01*
X162425487Y-99506050D01*
X162425486Y-99506048D01*
X162273378Y-99361014D01*
X162189781Y-99307289D01*
X162096574Y-99247387D01*
X161940609Y-99184949D01*
X161901457Y-99169275D01*
X161901456Y-99169274D01*
X161901454Y-99169274D01*
X161695086Y-99129500D01*
X161695085Y-99129500D01*
X160737575Y-99129500D01*
X160639606Y-99138855D01*
X160580779Y-99144472D01*
X160379126Y-99203683D01*
X160192315Y-99299990D01*
X160027115Y-99429906D01*
X159889479Y-99588745D01*
X159784396Y-99770754D01*
X159715655Y-99969366D01*
X159685746Y-100177396D01*
X144909243Y-100177396D01*
X144904254Y-100072670D01*
X144854704Y-99868424D01*
X144854702Y-99868419D01*
X144767397Y-99677247D01*
X144645487Y-99506050D01*
X144645486Y-99506048D01*
X144493378Y-99361014D01*
X144409781Y-99307289D01*
X144316574Y-99247387D01*
X144160609Y-99184949D01*
X144121457Y-99169275D01*
X144121456Y-99169274D01*
X144121454Y-99169274D01*
X143915086Y-99129500D01*
X143915085Y-99129500D01*
X142957575Y-99129500D01*
X142859606Y-99138855D01*
X142800779Y-99144472D01*
X142599126Y-99203683D01*
X142412315Y-99299990D01*
X142247115Y-99429906D01*
X142109479Y-99588745D01*
X142004396Y-99770754D01*
X141935655Y-99969366D01*
X141905746Y-100177396D01*
X140086815Y-100177396D01*
X140105460Y-100000000D01*
X140085674Y-99811744D01*
X140027179Y-99631716D01*
X140027179Y-99631715D01*
X139932533Y-99467783D01*
X139805870Y-99327110D01*
X139652730Y-99215848D01*
X139479802Y-99138855D01*
X139294648Y-99099500D01*
X139294646Y-99099500D01*
X139105354Y-99099500D01*
X139105352Y-99099500D01*
X138920197Y-99138855D01*
X138747269Y-99215848D01*
X138594129Y-99327110D01*
X138467466Y-99467783D01*
X138372820Y-99631715D01*
X138314326Y-99811742D01*
X138294540Y-100000000D01*
X138314326Y-100188257D01*
X138372820Y-100368284D01*
X138467464Y-100532213D01*
X138467467Y-100532216D01*
X138542652Y-100615717D01*
X138566264Y-100654249D01*
X138574500Y-100698687D01*
X138574500Y-103901313D01*
X138566264Y-103945751D01*
X138542652Y-103984282D01*
X138509545Y-104021051D01*
X138467464Y-104067786D01*
X138372820Y-104231715D01*
X138314326Y-104411742D01*
X138294540Y-104599999D01*
X130725500Y-104599999D01*
X130725500Y-96510452D01*
X130734939Y-96462999D01*
X130761816Y-96422773D01*
X130770120Y-96414470D01*
X130770119Y-96414470D01*
X133340042Y-93844546D01*
X133385310Y-93815707D01*
X133438527Y-93808701D01*
X133489719Y-93824841D01*
X133529294Y-93861103D01*
X133536505Y-93871401D01*
X133703598Y-94038494D01*
X133860596Y-94148425D01*
X133899462Y-94192743D01*
X133913473Y-94250000D01*
X133899462Y-94307257D01*
X133860596Y-94351575D01*
X133703598Y-94461505D01*
X133536508Y-94628595D01*
X133536505Y-94628598D01*
X133536505Y-94628599D01*
X133412940Y-94805069D01*
X133400964Y-94822172D01*
X133301097Y-95036337D01*
X133239936Y-95264592D01*
X133219340Y-95499999D01*
X133239936Y-95735407D01*
X133272122Y-95855525D01*
X133301097Y-95963663D01*
X133400965Y-96177829D01*
X133536505Y-96371401D01*
X133703599Y-96538495D01*
X133833245Y-96629274D01*
X133860596Y-96648425D01*
X133899462Y-96692743D01*
X133913473Y-96750000D01*
X133899462Y-96807257D01*
X133860596Y-96851575D01*
X133703598Y-96961505D01*
X133536508Y-97128595D01*
X133536505Y-97128598D01*
X133536505Y-97128599D01*
X133438697Y-97268284D01*
X133400964Y-97322172D01*
X133301097Y-97536337D01*
X133239936Y-97764592D01*
X133219340Y-97999999D01*
X133239936Y-98235407D01*
X133301097Y-98463663D01*
X133400965Y-98677829D01*
X133536505Y-98871401D01*
X133683705Y-99018601D01*
X133713150Y-99065571D01*
X133719186Y-99120678D01*
X133700604Y-99172907D01*
X133661121Y-99211821D01*
X133506341Y-99307289D01*
X133382288Y-99431342D01*
X133290186Y-99580665D01*
X133235000Y-99747202D01*
X133224500Y-99849990D01*
X133224500Y-101150008D01*
X133235000Y-101252796D01*
X133290186Y-101419334D01*
X133382288Y-101568657D01*
X133506342Y-101692711D01*
X133506344Y-101692712D01*
X133655666Y-101784814D01*
X133767017Y-101821712D01*
X133822202Y-101839999D01*
X133832703Y-101841071D01*
X133924991Y-101850500D01*
X135475008Y-101850499D01*
X135577797Y-101839999D01*
X135744334Y-101784814D01*
X135893656Y-101692712D01*
X136017712Y-101568656D01*
X136109814Y-101419334D01*
X136164999Y-101252797D01*
X136175500Y-101150009D01*
X136175499Y-99849992D01*
X136164999Y-99747203D01*
X136109814Y-99580666D01*
X136017712Y-99431344D01*
X136017711Y-99431342D01*
X135893657Y-99307288D01*
X135738879Y-99211821D01*
X135699395Y-99172908D01*
X135680813Y-99120678D01*
X135686849Y-99065571D01*
X135716290Y-99018605D01*
X135863495Y-98871401D01*
X135999035Y-98677830D01*
X136098903Y-98463663D01*
X136160063Y-98235408D01*
X136180659Y-98000000D01*
X136160063Y-97764592D01*
X136125981Y-97637396D01*
X141905746Y-97637396D01*
X141915746Y-97847330D01*
X141965297Y-98051580D01*
X142052602Y-98242752D01*
X142162845Y-98397566D01*
X142174514Y-98413952D01*
X142326622Y-98558986D01*
X142398964Y-98605478D01*
X142503425Y-98672612D01*
X142516452Y-98677827D01*
X142698543Y-98750725D01*
X142827228Y-98775527D01*
X142904914Y-98790500D01*
X142904915Y-98790500D01*
X143862420Y-98790500D01*
X143862425Y-98790500D01*
X144019218Y-98775528D01*
X144220875Y-98716316D01*
X144407682Y-98620011D01*
X144572886Y-98490092D01*
X144710519Y-98331256D01*
X144815604Y-98149244D01*
X144884344Y-97950633D01*
X144914254Y-97742602D01*
X144909243Y-97637396D01*
X159685746Y-97637396D01*
X159695746Y-97847330D01*
X159745297Y-98051580D01*
X159832602Y-98242752D01*
X159942845Y-98397566D01*
X159954514Y-98413952D01*
X160106622Y-98558986D01*
X160178964Y-98605478D01*
X160283425Y-98672612D01*
X160296452Y-98677827D01*
X160478543Y-98750725D01*
X160607228Y-98775527D01*
X160684914Y-98790500D01*
X160684915Y-98790500D01*
X161642420Y-98790500D01*
X161642425Y-98790500D01*
X161799218Y-98775528D01*
X162000875Y-98716316D01*
X162187682Y-98620011D01*
X162352886Y-98490092D01*
X162490519Y-98331256D01*
X162595604Y-98149244D01*
X162664344Y-97950633D01*
X162694254Y-97742602D01*
X162684254Y-97532670D01*
X162634704Y-97328424D01*
X162631849Y-97322172D01*
X162547397Y-97137247D01*
X162425487Y-96966050D01*
X162425486Y-96966048D01*
X162273378Y-96821014D01*
X162241257Y-96800371D01*
X162096574Y-96707387D01*
X161940609Y-96644949D01*
X161901457Y-96629275D01*
X161901456Y-96629274D01*
X161901454Y-96629274D01*
X161695086Y-96589500D01*
X161695085Y-96589500D01*
X160737575Y-96589500D01*
X160639579Y-96598857D01*
X160580779Y-96604472D01*
X160379126Y-96663683D01*
X160192315Y-96759990D01*
X160027115Y-96889906D01*
X159889479Y-97048745D01*
X159784396Y-97230754D01*
X159715655Y-97429366D01*
X159685746Y-97637396D01*
X144909243Y-97637396D01*
X144904254Y-97532670D01*
X144854704Y-97328424D01*
X144851849Y-97322172D01*
X144767397Y-97137247D01*
X144645487Y-96966050D01*
X144645486Y-96966048D01*
X144493378Y-96821014D01*
X144461257Y-96800371D01*
X144316574Y-96707387D01*
X144160609Y-96644949D01*
X144121457Y-96629275D01*
X144121456Y-96629274D01*
X144121454Y-96629274D01*
X143915086Y-96589500D01*
X143915085Y-96589500D01*
X142957575Y-96589500D01*
X142859579Y-96598857D01*
X142800779Y-96604472D01*
X142599126Y-96663683D01*
X142412315Y-96759990D01*
X142247115Y-96889906D01*
X142109479Y-97048745D01*
X142004396Y-97230754D01*
X141935655Y-97429366D01*
X141905746Y-97637396D01*
X136125981Y-97637396D01*
X136098903Y-97536337D01*
X135999035Y-97322171D01*
X135863495Y-97128599D01*
X135696401Y-96961505D01*
X135539401Y-96851573D01*
X135500537Y-96807257D01*
X135486526Y-96750000D01*
X135500537Y-96692743D01*
X135539401Y-96648426D01*
X135696401Y-96538495D01*
X135863495Y-96371401D01*
X135999035Y-96177830D01*
X136098903Y-95963663D01*
X136160063Y-95735408D01*
X136180659Y-95500000D01*
X136160063Y-95264592D01*
X136115264Y-95097396D01*
X141905746Y-95097396D01*
X141915746Y-95307330D01*
X141965297Y-95511580D01*
X142052602Y-95702752D01*
X142142803Y-95829420D01*
X142174514Y-95873952D01*
X142326622Y-96018986D01*
X142398964Y-96065478D01*
X142503425Y-96132612D01*
X142524418Y-96141016D01*
X142698543Y-96210725D01*
X142826278Y-96235344D01*
X142904914Y-96250500D01*
X142904915Y-96250500D01*
X143862420Y-96250500D01*
X143862425Y-96250500D01*
X144019218Y-96235528D01*
X144220875Y-96176316D01*
X144407682Y-96080011D01*
X144572886Y-95950092D01*
X144710519Y-95791256D01*
X144815604Y-95609244D01*
X144884344Y-95410633D01*
X144914254Y-95202602D01*
X144909243Y-95097396D01*
X159685746Y-95097396D01*
X159695746Y-95307330D01*
X159745297Y-95511580D01*
X159832602Y-95702752D01*
X159922803Y-95829420D01*
X159954514Y-95873952D01*
X160106622Y-96018986D01*
X160178964Y-96065478D01*
X160283425Y-96132612D01*
X160304418Y-96141016D01*
X160478543Y-96210725D01*
X160606278Y-96235344D01*
X160684914Y-96250500D01*
X160684915Y-96250500D01*
X161642420Y-96250500D01*
X161642425Y-96250500D01*
X161799218Y-96235528D01*
X162000875Y-96176316D01*
X162187682Y-96080011D01*
X162352886Y-95950092D01*
X162490519Y-95791256D01*
X162595604Y-95609244D01*
X162664344Y-95410633D01*
X162694254Y-95202602D01*
X162684254Y-94992670D01*
X162634704Y-94788424D01*
X162634702Y-94788419D01*
X162547397Y-94597247D01*
X162425487Y-94426050D01*
X162425486Y-94426048D01*
X162273378Y-94281014D01*
X162225118Y-94249999D01*
X162096574Y-94167387D01*
X161940609Y-94104949D01*
X161901457Y-94089275D01*
X161901456Y-94089274D01*
X161901454Y-94089274D01*
X161695086Y-94049500D01*
X161695085Y-94049500D01*
X160737575Y-94049500D01*
X160639579Y-94058857D01*
X160580779Y-94064472D01*
X160379126Y-94123683D01*
X160192315Y-94219990D01*
X160027115Y-94349906D01*
X159889479Y-94508745D01*
X159784396Y-94690754D01*
X159715655Y-94889366D01*
X159685746Y-95097396D01*
X144909243Y-95097396D01*
X144904254Y-94992670D01*
X144854704Y-94788424D01*
X144854702Y-94788419D01*
X144767397Y-94597247D01*
X144645487Y-94426050D01*
X144645486Y-94426048D01*
X144493378Y-94281014D01*
X144445118Y-94249999D01*
X144316574Y-94167387D01*
X144160609Y-94104949D01*
X144121457Y-94089275D01*
X144121456Y-94089274D01*
X144121454Y-94089274D01*
X143915086Y-94049500D01*
X143915085Y-94049500D01*
X142957575Y-94049500D01*
X142859579Y-94058857D01*
X142800779Y-94064472D01*
X142599126Y-94123683D01*
X142412315Y-94219990D01*
X142247115Y-94349906D01*
X142109479Y-94508745D01*
X142004396Y-94690754D01*
X141935655Y-94889366D01*
X141905746Y-95097396D01*
X136115264Y-95097396D01*
X136098903Y-95036337D01*
X135999035Y-94822171D01*
X135863495Y-94628599D01*
X135696401Y-94461505D01*
X135539403Y-94351574D01*
X135500538Y-94307257D01*
X135486527Y-94250000D01*
X135500538Y-94192743D01*
X135539404Y-94148425D01*
X135623879Y-94089275D01*
X135696401Y-94038495D01*
X135863495Y-93871401D01*
X135999035Y-93677830D01*
X136002225Y-93670990D01*
X142702560Y-93670990D01*
X142904962Y-93710000D01*
X143862399Y-93710000D01*
X144019126Y-93695034D01*
X144101013Y-93670990D01*
X160482560Y-93670990D01*
X160684962Y-93710000D01*
X161642399Y-93710000D01*
X161799126Y-93695034D01*
X161893709Y-93667262D01*
X161893709Y-93667261D01*
X161190000Y-92963553D01*
X160482560Y-93670990D01*
X144101013Y-93670990D01*
X144113709Y-93667262D01*
X144113709Y-93667261D01*
X143410000Y-92963553D01*
X142702560Y-93670990D01*
X136002225Y-93670990D01*
X136098903Y-93463663D01*
X136160063Y-93235408D01*
X136180659Y-93000000D01*
X136160063Y-92764592D01*
X136104552Y-92557420D01*
X141906248Y-92557420D01*
X141916243Y-92767258D01*
X141965770Y-92971410D01*
X142053039Y-93162505D01*
X142174892Y-93333621D01*
X142255738Y-93410707D01*
X143056447Y-92610001D01*
X143056447Y-92610000D01*
X143763553Y-92610000D01*
X144567356Y-93413803D01*
X144567357Y-93413803D01*
X144572538Y-93409730D01*
X144710111Y-93250963D01*
X144815146Y-93069036D01*
X144883856Y-92870515D01*
X144913751Y-92662579D01*
X144908742Y-92557420D01*
X159686248Y-92557420D01*
X159696243Y-92767258D01*
X159745770Y-92971410D01*
X159833039Y-93162505D01*
X159954892Y-93333621D01*
X160035738Y-93410707D01*
X160836447Y-92610001D01*
X161543553Y-92610001D01*
X162347356Y-93413803D01*
X162347357Y-93413803D01*
X162352538Y-93409730D01*
X162490111Y-93250963D01*
X162595146Y-93069036D01*
X162663856Y-92870515D01*
X162693751Y-92662579D01*
X162683756Y-92452741D01*
X162634229Y-92248589D01*
X162546960Y-92057494D01*
X162425107Y-91886378D01*
X162344260Y-91809291D01*
X161543553Y-92610000D01*
X161543553Y-92610001D01*
X160836447Y-92610001D01*
X160836447Y-92610000D01*
X160032641Y-91806194D01*
X160027461Y-91810269D01*
X159889888Y-91969036D01*
X159784853Y-92150963D01*
X159716143Y-92349484D01*
X159686248Y-92557420D01*
X144908742Y-92557420D01*
X144903756Y-92452741D01*
X144854229Y-92248589D01*
X144766960Y-92057494D01*
X144645107Y-91886378D01*
X144564260Y-91809291D01*
X143763553Y-92610000D01*
X143056447Y-92610000D01*
X142252641Y-91806194D01*
X142247461Y-91810269D01*
X142109888Y-91969036D01*
X142004853Y-92150963D01*
X141936143Y-92349484D01*
X141906248Y-92557420D01*
X136104552Y-92557420D01*
X136098903Y-92536337D01*
X135999035Y-92322171D01*
X135863495Y-92128599D01*
X135696401Y-91961505D01*
X135502829Y-91825965D01*
X135288663Y-91726097D01*
X135060407Y-91664936D01*
X134883968Y-91649500D01*
X134883966Y-91649500D01*
X134516034Y-91649500D01*
X134516032Y-91649500D01*
X134339592Y-91664936D01*
X134111336Y-91726097D01*
X133897170Y-91825965D01*
X133703598Y-91961505D01*
X133536504Y-92128599D01*
X133401606Y-92321252D01*
X133359013Y-92359203D01*
X133303935Y-92374067D01*
X133295880Y-92374320D01*
X133292105Y-92374439D01*
X133288219Y-92374500D01*
X133260650Y-92374500D01*
X133256671Y-92375002D01*
X133245041Y-92375917D01*
X133201372Y-92377289D01*
X133182128Y-92382880D01*
X133163084Y-92386824D01*
X133143208Y-92389335D01*
X133102600Y-92405413D01*
X133091554Y-92409194D01*
X133049610Y-92421382D01*
X133049607Y-92421383D01*
X133032365Y-92431579D01*
X133014904Y-92440133D01*
X132996267Y-92447512D01*
X132960931Y-92473185D01*
X132951174Y-92479595D01*
X132913580Y-92501829D01*
X132899413Y-92515996D01*
X132884624Y-92528626D01*
X132868413Y-92540404D01*
X132840572Y-92574058D01*
X132832711Y-92582697D01*
X129829880Y-95585529D01*
X129829877Y-95585532D01*
X129829874Y-95585533D01*
X129716203Y-95699203D01*
X129700109Y-95712098D01*
X129652096Y-95763225D01*
X129649391Y-95766017D01*
X129629874Y-95785534D01*
X129627415Y-95788705D01*
X129619842Y-95797572D01*
X129589935Y-95829420D01*
X129580285Y-95846974D01*
X129569609Y-95863228D01*
X129557326Y-95879063D01*
X129539975Y-95919158D01*
X129534838Y-95929644D01*
X129513802Y-95967907D01*
X129508821Y-95987309D01*
X129502520Y-96005711D01*
X129494561Y-96024102D01*
X129487728Y-96067242D01*
X129485360Y-96078674D01*
X129474500Y-96120978D01*
X129474500Y-96141016D01*
X129472973Y-96160415D01*
X129469840Y-96180194D01*
X127400500Y-96180194D01*
X127400500Y-91552737D01*
X142706290Y-91552737D01*
X143410000Y-92256447D01*
X143410001Y-92256447D01*
X144113708Y-91552737D01*
X160486290Y-91552737D01*
X161190000Y-92256447D01*
X161190001Y-92256447D01*
X161897438Y-91549007D01*
X161695039Y-91510000D01*
X160737601Y-91510000D01*
X160580876Y-91524965D01*
X160486290Y-91552737D01*
X144113708Y-91552737D01*
X144117438Y-91549007D01*
X143915039Y-91510000D01*
X142957601Y-91510000D01*
X142800876Y-91524965D01*
X142706290Y-91552737D01*
X127400500Y-91552737D01*
X127400500Y-90017396D01*
X141905746Y-90017396D01*
X141915746Y-90227330D01*
X141965297Y-90431580D01*
X142052602Y-90622752D01*
X142162846Y-90777566D01*
X142174514Y-90793952D01*
X142326622Y-90938986D01*
X142398964Y-90985478D01*
X142503425Y-91052612D01*
X142512058Y-91056068D01*
X142698543Y-91130725D01*
X142827228Y-91155527D01*
X142904914Y-91170500D01*
X142904915Y-91170500D01*
X143862420Y-91170500D01*
X143862425Y-91170500D01*
X144019218Y-91155528D01*
X144220875Y-91096316D01*
X144407682Y-91000011D01*
X144572886Y-90870092D01*
X144710519Y-90711256D01*
X144815604Y-90529244D01*
X144884344Y-90330633D01*
X144914254Y-90122602D01*
X144909243Y-90017396D01*
X159685746Y-90017396D01*
X159695746Y-90227330D01*
X159745297Y-90431580D01*
X159832602Y-90622752D01*
X159942846Y-90777566D01*
X159954514Y-90793952D01*
X160106622Y-90938986D01*
X160178964Y-90985478D01*
X160283425Y-91052612D01*
X160292058Y-91056068D01*
X160478543Y-91130725D01*
X160607228Y-91155527D01*
X160684914Y-91170500D01*
X160684915Y-91170500D01*
X161642420Y-91170500D01*
X161642425Y-91170500D01*
X161799218Y-91155528D01*
X162000875Y-91096316D01*
X162187682Y-91000011D01*
X162352886Y-90870092D01*
X162490519Y-90711256D01*
X162595604Y-90529244D01*
X162664344Y-90330633D01*
X162694254Y-90122602D01*
X162684254Y-89912670D01*
X162634704Y-89708424D01*
X162629652Y-89697362D01*
X162547397Y-89517247D01*
X162425487Y-89346050D01*
X162425486Y-89346048D01*
X162273378Y-89201014D01*
X162241257Y-89180371D01*
X162096574Y-89087387D01*
X161940609Y-89024949D01*
X161901457Y-89009275D01*
X161901456Y-89009274D01*
X161901454Y-89009274D01*
X161695086Y-88969500D01*
X161695085Y-88969500D01*
X160737575Y-88969500D01*
X160639579Y-88978857D01*
X160580779Y-88984472D01*
X160379126Y-89043683D01*
X160192315Y-89139990D01*
X160027115Y-89269906D01*
X159889479Y-89428745D01*
X159784396Y-89610754D01*
X159715655Y-89809366D01*
X159685746Y-90017396D01*
X144909243Y-90017396D01*
X144904254Y-89912670D01*
X144854704Y-89708424D01*
X144849652Y-89697362D01*
X144767397Y-89517247D01*
X144645487Y-89346050D01*
X144645486Y-89346048D01*
X144493378Y-89201014D01*
X144461257Y-89180371D01*
X144316574Y-89087387D01*
X144160609Y-89024949D01*
X144121457Y-89009275D01*
X144121456Y-89009274D01*
X144121454Y-89009274D01*
X143915086Y-88969500D01*
X143915085Y-88969500D01*
X142957575Y-88969500D01*
X142859579Y-88978857D01*
X142800779Y-88984472D01*
X142599126Y-89043683D01*
X142412315Y-89139990D01*
X142247115Y-89269906D01*
X142109479Y-89428745D01*
X142004396Y-89610754D01*
X141935655Y-89809366D01*
X141905746Y-90017396D01*
X127400500Y-90017396D01*
X127400500Y-87477398D01*
X141905746Y-87477398D01*
X141907735Y-87519158D01*
X141915746Y-87687330D01*
X141965297Y-87891580D01*
X142052602Y-88082752D01*
X142162845Y-88237566D01*
X142174514Y-88253952D01*
X142326622Y-88398986D01*
X142398964Y-88445478D01*
X142503425Y-88512612D01*
X142542580Y-88528287D01*
X142698543Y-88590725D01*
X142827228Y-88615527D01*
X142904914Y-88630500D01*
X142904915Y-88630500D01*
X143862420Y-88630500D01*
X143862425Y-88630500D01*
X144019218Y-88615528D01*
X144220875Y-88556316D01*
X144407682Y-88460011D01*
X144572886Y-88330092D01*
X144710519Y-88171256D01*
X144815604Y-87989244D01*
X144884344Y-87790633D01*
X144914254Y-87582602D01*
X144909243Y-87477398D01*
X159685746Y-87477398D01*
X159687735Y-87519158D01*
X159695746Y-87687330D01*
X159745297Y-87891580D01*
X159832602Y-88082752D01*
X159942845Y-88237566D01*
X159954514Y-88253952D01*
X160106622Y-88398986D01*
X160178964Y-88445478D01*
X160283425Y-88512612D01*
X160322580Y-88528287D01*
X160478543Y-88590725D01*
X160607228Y-88615527D01*
X160684914Y-88630500D01*
X160684915Y-88630500D01*
X161642420Y-88630500D01*
X161642425Y-88630500D01*
X161799218Y-88615528D01*
X162000875Y-88556316D01*
X162187682Y-88460011D01*
X162352886Y-88330092D01*
X162490519Y-88171256D01*
X162595604Y-87989244D01*
X162664344Y-87790633D01*
X162694254Y-87582602D01*
X162684254Y-87372670D01*
X162634704Y-87168424D01*
X162634702Y-87168419D01*
X162547397Y-86977247D01*
X162425487Y-86806050D01*
X162425486Y-86806048D01*
X162273378Y-86661014D01*
X162241257Y-86640371D01*
X162096574Y-86547387D01*
X161940609Y-86484949D01*
X161901457Y-86469275D01*
X161901456Y-86469274D01*
X161901454Y-86469274D01*
X161695086Y-86429500D01*
X161695085Y-86429500D01*
X160737575Y-86429500D01*
X160639579Y-86438857D01*
X160580779Y-86444472D01*
X160379126Y-86503683D01*
X160192315Y-86599990D01*
X160027115Y-86729906D01*
X159889479Y-86888745D01*
X159784396Y-87070754D01*
X159715655Y-87269366D01*
X159688083Y-87461144D01*
X159685746Y-87477398D01*
X144909243Y-87477398D01*
X144904254Y-87372670D01*
X144854704Y-87168424D01*
X144854702Y-87168419D01*
X144767397Y-86977247D01*
X144645487Y-86806050D01*
X144645486Y-86806048D01*
X144493378Y-86661014D01*
X144461257Y-86640371D01*
X144316574Y-86547387D01*
X144160609Y-86484949D01*
X144121457Y-86469275D01*
X144121456Y-86469274D01*
X144121454Y-86469274D01*
X143915086Y-86429500D01*
X143915085Y-86429500D01*
X142957575Y-86429500D01*
X142859579Y-86438857D01*
X142800779Y-86444472D01*
X142599126Y-86503683D01*
X142412315Y-86599990D01*
X142247115Y-86729906D01*
X142109479Y-86888745D01*
X142004396Y-87070754D01*
X141935655Y-87269366D01*
X141908083Y-87461144D01*
X141905746Y-87477398D01*
X127400500Y-87477398D01*
X127400500Y-85490000D01*
X133850000Y-85490000D01*
X133850000Y-86137824D01*
X133856402Y-86197375D01*
X133906647Y-86332089D01*
X133992811Y-86447188D01*
X134107910Y-86533352D01*
X134242624Y-86583597D01*
X134302176Y-86590000D01*
X134950000Y-86590000D01*
X134950000Y-85490000D01*
X135450000Y-85490000D01*
X135450000Y-86590000D01*
X136097824Y-86590000D01*
X136157375Y-86583597D01*
X136292089Y-86533352D01*
X136407188Y-86447188D01*
X136493352Y-86332089D01*
X136543597Y-86197375D01*
X136550000Y-86137824D01*
X136550000Y-85490000D01*
X135450000Y-85490000D01*
X134950000Y-85490000D01*
X133850000Y-85490000D01*
X127400500Y-85490000D01*
X127400500Y-82700000D01*
X133844340Y-82700000D01*
X133864936Y-82935407D01*
X133890876Y-83032216D01*
X133926097Y-83163663D01*
X134025965Y-83377830D01*
X134161505Y-83571401D01*
X134161508Y-83571404D01*
X134283818Y-83693714D01*
X134315114Y-83746460D01*
X134317303Y-83807753D01*
X134289850Y-83862597D01*
X134239472Y-83897576D01*
X134107913Y-83946646D01*
X133992811Y-84032811D01*
X133906647Y-84147910D01*
X133856402Y-84282624D01*
X133850000Y-84342176D01*
X133850000Y-84990000D01*
X136550000Y-84990000D01*
X136550000Y-84937396D01*
X141905746Y-84937396D01*
X141915746Y-85147330D01*
X141965297Y-85351580D01*
X142052602Y-85542752D01*
X142145273Y-85672889D01*
X142174514Y-85713952D01*
X142326622Y-85858986D01*
X142391219Y-85900500D01*
X142503425Y-85972612D01*
X142515113Y-85977291D01*
X142698543Y-86050725D01*
X142815056Y-86073181D01*
X142904914Y-86090500D01*
X142904915Y-86090500D01*
X143862420Y-86090500D01*
X143862425Y-86090500D01*
X144019218Y-86075528D01*
X144220875Y-86016316D01*
X144407682Y-85920011D01*
X144572886Y-85790092D01*
X144710519Y-85631256D01*
X144815604Y-85449244D01*
X144884344Y-85250633D01*
X144914254Y-85042602D01*
X144909243Y-84937396D01*
X159685746Y-84937396D01*
X159695746Y-85147330D01*
X159745297Y-85351580D01*
X159832602Y-85542752D01*
X159925273Y-85672889D01*
X159954514Y-85713952D01*
X160106622Y-85858986D01*
X160171219Y-85900500D01*
X160283425Y-85972612D01*
X160295113Y-85977291D01*
X160478543Y-86050725D01*
X160595056Y-86073181D01*
X160684914Y-86090500D01*
X160684915Y-86090500D01*
X161642420Y-86090500D01*
X161642425Y-86090500D01*
X161799218Y-86075528D01*
X162000875Y-86016316D01*
X162187682Y-85920011D01*
X162352886Y-85790092D01*
X162490519Y-85631256D01*
X162595604Y-85449244D01*
X162664344Y-85250633D01*
X162694254Y-85042602D01*
X162684254Y-84832670D01*
X162634704Y-84628424D01*
X162629126Y-84616210D01*
X162547397Y-84437247D01*
X162461797Y-84317040D01*
X162425486Y-84266048D01*
X162273378Y-84121014D01*
X162239902Y-84099500D01*
X162096574Y-84007387D01*
X161940609Y-83944949D01*
X161901457Y-83929275D01*
X161901456Y-83929274D01*
X161901454Y-83929274D01*
X161695086Y-83889500D01*
X161695085Y-83889500D01*
X160737575Y-83889500D01*
X160639579Y-83898857D01*
X160580779Y-83904472D01*
X160379126Y-83963683D01*
X160192315Y-84059990D01*
X160027115Y-84189906D01*
X159889479Y-84348745D01*
X159784396Y-84530754D01*
X159715655Y-84729366D01*
X159685746Y-84937396D01*
X144909243Y-84937396D01*
X144904254Y-84832670D01*
X144854704Y-84628424D01*
X144849126Y-84616210D01*
X144767397Y-84437247D01*
X144681797Y-84317040D01*
X144645486Y-84266048D01*
X144493378Y-84121014D01*
X144459902Y-84099500D01*
X144316574Y-84007387D01*
X144160609Y-83944949D01*
X144121457Y-83929275D01*
X144121456Y-83929274D01*
X144121454Y-83929274D01*
X143915086Y-83889500D01*
X143915085Y-83889500D01*
X142957575Y-83889500D01*
X142859579Y-83898857D01*
X142800779Y-83904472D01*
X142599126Y-83963683D01*
X142412315Y-84059990D01*
X142247115Y-84189906D01*
X142109479Y-84348745D01*
X142004396Y-84530754D01*
X141935655Y-84729366D01*
X141905746Y-84937396D01*
X136550000Y-84937396D01*
X136550000Y-84342176D01*
X136543597Y-84282624D01*
X136493352Y-84147910D01*
X136407188Y-84032811D01*
X136292088Y-83946647D01*
X136160528Y-83897577D01*
X136110149Y-83862597D01*
X136082696Y-83807752D01*
X136084885Y-83746460D01*
X136116178Y-83693717D01*
X136238495Y-83571401D01*
X136374035Y-83377830D01*
X136473903Y-83163663D01*
X136535063Y-82935408D01*
X136555659Y-82700000D01*
X136535063Y-82464592D01*
X136517058Y-82397396D01*
X141905746Y-82397396D01*
X141915746Y-82607330D01*
X141965297Y-82811580D01*
X142052602Y-83002752D01*
X142147645Y-83136220D01*
X142174514Y-83173952D01*
X142326622Y-83318986D01*
X142392221Y-83361144D01*
X142503425Y-83432612D01*
X142542580Y-83448287D01*
X142698543Y-83510725D01*
X142827228Y-83535527D01*
X142904914Y-83550500D01*
X142904915Y-83550500D01*
X143862420Y-83550500D01*
X143862425Y-83550500D01*
X144019218Y-83535528D01*
X144220875Y-83476316D01*
X144407682Y-83380011D01*
X144572886Y-83250092D01*
X144710519Y-83091256D01*
X144815604Y-82909244D01*
X144884344Y-82710633D01*
X144914254Y-82502602D01*
X144909243Y-82397396D01*
X159685746Y-82397396D01*
X159695746Y-82607330D01*
X159745297Y-82811580D01*
X159832602Y-83002752D01*
X159927645Y-83136220D01*
X159954514Y-83173952D01*
X160106622Y-83318986D01*
X160172221Y-83361144D01*
X160283425Y-83432612D01*
X160322580Y-83448287D01*
X160478543Y-83510725D01*
X160607228Y-83535527D01*
X160684914Y-83550500D01*
X160684915Y-83550500D01*
X161642420Y-83550500D01*
X161642425Y-83550500D01*
X161799218Y-83535528D01*
X162000875Y-83476316D01*
X162187682Y-83380011D01*
X162352886Y-83250092D01*
X162490519Y-83091256D01*
X162595604Y-82909244D01*
X162664344Y-82710633D01*
X162694254Y-82502602D01*
X162684254Y-82292670D01*
X162634704Y-82088424D01*
X162634702Y-82088419D01*
X162547397Y-81897247D01*
X162425487Y-81726050D01*
X162425486Y-81726048D01*
X162273378Y-81581014D01*
X162187721Y-81525965D01*
X162096574Y-81467387D01*
X161931676Y-81401373D01*
X161901457Y-81389275D01*
X161901456Y-81389274D01*
X161901454Y-81389274D01*
X161695086Y-81349500D01*
X161695085Y-81349500D01*
X160737575Y-81349500D01*
X160639579Y-81358857D01*
X160580779Y-81364472D01*
X160379126Y-81423683D01*
X160192315Y-81519990D01*
X160027115Y-81649906D01*
X159889479Y-81808745D01*
X159784396Y-81990754D01*
X159715655Y-82189366D01*
X159685746Y-82397396D01*
X144909243Y-82397396D01*
X144904254Y-82292670D01*
X144854704Y-82088424D01*
X144854702Y-82088419D01*
X144767397Y-81897247D01*
X144645487Y-81726050D01*
X144645486Y-81726048D01*
X144493378Y-81581014D01*
X144407721Y-81525965D01*
X144316574Y-81467387D01*
X144151676Y-81401373D01*
X144121457Y-81389275D01*
X144121456Y-81389274D01*
X144121454Y-81389274D01*
X143915086Y-81349500D01*
X143915085Y-81349500D01*
X142957575Y-81349500D01*
X142859579Y-81358857D01*
X142800779Y-81364472D01*
X142599126Y-81423683D01*
X142412315Y-81519990D01*
X142247115Y-81649906D01*
X142109479Y-81808745D01*
X142004396Y-81990754D01*
X141935655Y-82189366D01*
X141905746Y-82397396D01*
X136517058Y-82397396D01*
X136473903Y-82236337D01*
X136374035Y-82022171D01*
X136238495Y-81828599D01*
X136071401Y-81661505D01*
X135885839Y-81531573D01*
X135846975Y-81487257D01*
X135832964Y-81430000D01*
X135846975Y-81372743D01*
X135885839Y-81328426D01*
X136071401Y-81198495D01*
X136238495Y-81031401D01*
X136280795Y-80970990D01*
X142702560Y-80970990D01*
X142904962Y-81010000D01*
X143862399Y-81010000D01*
X144019126Y-80995034D01*
X144101013Y-80970990D01*
X160482560Y-80970990D01*
X160684962Y-81010000D01*
X161642399Y-81010000D01*
X161799126Y-80995034D01*
X161893709Y-80967262D01*
X161893709Y-80967261D01*
X161190000Y-80263553D01*
X160482560Y-80970990D01*
X144101013Y-80970990D01*
X144113709Y-80967262D01*
X144113709Y-80967261D01*
X143410000Y-80263553D01*
X142702560Y-80970990D01*
X136280795Y-80970990D01*
X136374035Y-80837830D01*
X136473903Y-80623663D01*
X136535063Y-80395408D01*
X136555659Y-80160000D01*
X136535063Y-79924592D01*
X136517065Y-79857420D01*
X141906248Y-79857420D01*
X141916243Y-80067258D01*
X141965770Y-80271410D01*
X142053039Y-80462505D01*
X142174892Y-80633621D01*
X142255738Y-80710707D01*
X143056447Y-79910001D01*
X143056447Y-79910000D01*
X143763553Y-79910000D01*
X144567356Y-80713803D01*
X144567357Y-80713803D01*
X144572538Y-80709730D01*
X144710111Y-80550963D01*
X144815146Y-80369036D01*
X144883856Y-80170515D01*
X144913751Y-79962579D01*
X144908742Y-79857420D01*
X159686248Y-79857420D01*
X159696243Y-80067258D01*
X159745770Y-80271410D01*
X159833039Y-80462505D01*
X159954892Y-80633621D01*
X160035738Y-80710707D01*
X160836447Y-79910001D01*
X161543553Y-79910001D01*
X162347356Y-80713803D01*
X162347357Y-80713803D01*
X162352538Y-80709730D01*
X162490111Y-80550963D01*
X162595146Y-80369036D01*
X162663856Y-80170515D01*
X162693751Y-79962579D01*
X162683756Y-79752741D01*
X162634229Y-79548589D01*
X162546960Y-79357494D01*
X162425107Y-79186378D01*
X162344260Y-79109291D01*
X161543553Y-79910000D01*
X161543553Y-79910001D01*
X160836447Y-79910001D01*
X160836447Y-79910000D01*
X160032641Y-79106194D01*
X160027461Y-79110269D01*
X159889888Y-79269036D01*
X159784853Y-79450963D01*
X159716143Y-79649484D01*
X159686248Y-79857420D01*
X144908742Y-79857420D01*
X144903756Y-79752741D01*
X144854229Y-79548589D01*
X144766960Y-79357494D01*
X144645107Y-79186378D01*
X144564260Y-79109291D01*
X143763553Y-79910000D01*
X143056447Y-79910000D01*
X142252641Y-79106194D01*
X142247461Y-79110269D01*
X142109888Y-79269036D01*
X142004853Y-79450963D01*
X141936143Y-79649484D01*
X141906248Y-79857420D01*
X136517065Y-79857420D01*
X136473903Y-79696337D01*
X136374035Y-79482171D01*
X136238495Y-79288599D01*
X136071401Y-79121505D01*
X135885839Y-78991573D01*
X135846974Y-78947255D01*
X135832964Y-78889999D01*
X135842082Y-78852737D01*
X142706290Y-78852737D01*
X143410000Y-79556447D01*
X143410001Y-79556447D01*
X144113708Y-78852737D01*
X160486290Y-78852737D01*
X161190000Y-79556447D01*
X161190001Y-79556447D01*
X161897438Y-78849007D01*
X161695039Y-78810000D01*
X160737601Y-78810000D01*
X160580876Y-78824965D01*
X160486290Y-78852737D01*
X144113708Y-78852737D01*
X144117438Y-78849007D01*
X143915039Y-78810000D01*
X142957601Y-78810000D01*
X142800876Y-78824965D01*
X142706290Y-78852737D01*
X135842082Y-78852737D01*
X135846975Y-78832742D01*
X135885837Y-78788428D01*
X136071401Y-78658495D01*
X136129896Y-78600000D01*
X164394540Y-78600000D01*
X164400688Y-78658493D01*
X164414326Y-78788257D01*
X164472820Y-78968284D01*
X164567466Y-79132216D01*
X164694129Y-79272889D01*
X164847269Y-79384151D01*
X165020197Y-79461144D01*
X165205352Y-79500500D01*
X165205354Y-79500500D01*
X165264548Y-79500500D01*
X165312001Y-79509939D01*
X165352229Y-79536819D01*
X166899196Y-81083787D01*
X166912096Y-81099888D01*
X166963223Y-81147900D01*
X166966019Y-81150610D01*
X166985529Y-81170120D01*
X166988711Y-81172588D01*
X166997571Y-81180155D01*
X167029417Y-81210061D01*
X167029418Y-81210062D01*
X167046970Y-81219711D01*
X167063238Y-81230397D01*
X167079064Y-81242673D01*
X167119146Y-81260017D01*
X167129633Y-81265155D01*
X167167907Y-81286197D01*
X167176410Y-81288379D01*
X167187308Y-81291178D01*
X167205713Y-81297478D01*
X167224104Y-81305437D01*
X167267250Y-81312270D01*
X167278668Y-81314635D01*
X167320981Y-81325500D01*
X167341016Y-81325500D01*
X167360415Y-81327027D01*
X167380196Y-81330160D01*
X167423674Y-81326050D01*
X167435344Y-81325500D01*
X171796253Y-81325500D01*
X171846688Y-81336220D01*
X171888401Y-81366526D01*
X171894129Y-81372888D01*
X172047270Y-81484151D01*
X172047271Y-81484151D01*
X172047272Y-81484152D01*
X172220197Y-81561144D01*
X172405352Y-81600500D01*
X172405354Y-81600500D01*
X172594646Y-81600500D01*
X172594648Y-81600500D01*
X172742589Y-81569054D01*
X172779803Y-81561144D01*
X172952730Y-81484151D01*
X172985072Y-81460653D01*
X173105870Y-81372889D01*
X173106002Y-81372743D01*
X173232533Y-81232216D01*
X173327179Y-81068284D01*
X173385674Y-80888256D01*
X173405460Y-80700000D01*
X173385674Y-80511744D01*
X173327179Y-80331716D01*
X173327179Y-80331715D01*
X173232533Y-80167783D01*
X173105870Y-80027110D01*
X172952730Y-79915848D01*
X172779802Y-79838855D01*
X172594648Y-79799500D01*
X172594646Y-79799500D01*
X172405354Y-79799500D01*
X172405352Y-79799500D01*
X172220197Y-79838855D01*
X172047272Y-79915847D01*
X172035236Y-79924592D01*
X171894129Y-80027112D01*
X171888401Y-80033473D01*
X171846688Y-80063780D01*
X171796253Y-80074500D01*
X167710453Y-80074500D01*
X167663000Y-80065061D01*
X167622772Y-80038181D01*
X166238960Y-78654369D01*
X166214720Y-78620071D01*
X166203321Y-78579655D01*
X166185674Y-78411744D01*
X166148660Y-78297827D01*
X166127179Y-78231715D01*
X166032533Y-78067783D01*
X165905870Y-77927110D01*
X165752730Y-77815848D01*
X165579802Y-77738855D01*
X165394648Y-77699500D01*
X165394646Y-77699500D01*
X165205354Y-77699500D01*
X165205352Y-77699500D01*
X165020197Y-77738855D01*
X164847269Y-77815848D01*
X164694129Y-77927110D01*
X164567466Y-78067783D01*
X164472820Y-78231715D01*
X164414326Y-78411742D01*
X164396679Y-78579649D01*
X164394540Y-78600000D01*
X136129896Y-78600000D01*
X136238495Y-78491401D01*
X136374035Y-78297830D01*
X136473903Y-78083663D01*
X136535063Y-77855408D01*
X136555659Y-77620000D01*
X136535063Y-77384592D01*
X136517058Y-77317396D01*
X141905746Y-77317396D01*
X141915746Y-77527330D01*
X141965297Y-77731580D01*
X142052602Y-77922752D01*
X142155879Y-78067783D01*
X142174514Y-78093952D01*
X142326622Y-78238986D01*
X142398964Y-78285478D01*
X142503425Y-78352612D01*
X142542580Y-78368287D01*
X142698543Y-78430725D01*
X142827228Y-78455527D01*
X142904914Y-78470500D01*
X142904915Y-78470500D01*
X143862420Y-78470500D01*
X143862425Y-78470500D01*
X144019218Y-78455528D01*
X144220875Y-78396316D01*
X144407682Y-78300011D01*
X144572886Y-78170092D01*
X144710519Y-78011256D01*
X144815604Y-77829244D01*
X144884344Y-77630633D01*
X144914254Y-77422602D01*
X144909243Y-77317396D01*
X159685746Y-77317396D01*
X159695746Y-77527330D01*
X159745297Y-77731580D01*
X159832602Y-77922752D01*
X159935879Y-78067783D01*
X159954514Y-78093952D01*
X160106622Y-78238986D01*
X160178964Y-78285478D01*
X160283425Y-78352612D01*
X160322580Y-78368287D01*
X160478543Y-78430725D01*
X160607228Y-78455527D01*
X160684914Y-78470500D01*
X160684915Y-78470500D01*
X161642420Y-78470500D01*
X161642425Y-78470500D01*
X161799218Y-78455528D01*
X162000875Y-78396316D01*
X162187682Y-78300011D01*
X162352886Y-78170092D01*
X162490519Y-78011256D01*
X162595604Y-77829244D01*
X162664344Y-77630633D01*
X162683126Y-77499999D01*
X166414731Y-77499999D01*
X166433777Y-77754154D01*
X166490492Y-78002637D01*
X166583608Y-78239891D01*
X166648688Y-78352613D01*
X166711041Y-78460612D01*
X166869950Y-78659877D01*
X167056783Y-78833232D01*
X167267366Y-78976805D01*
X167496996Y-79087389D01*
X167740542Y-79162513D01*
X167992565Y-79200500D01*
X168247435Y-79200500D01*
X168499458Y-79162513D01*
X168743004Y-79087389D01*
X168972634Y-78976805D01*
X169183217Y-78833232D01*
X169370050Y-78659877D01*
X169528959Y-78460612D01*
X169656393Y-78239888D01*
X169749508Y-78002637D01*
X169806222Y-77754157D01*
X169825268Y-77500000D01*
X169825268Y-77499999D01*
X170894731Y-77499999D01*
X170913777Y-77754154D01*
X170970492Y-78002637D01*
X171063608Y-78239891D01*
X171128688Y-78352613D01*
X171191041Y-78460612D01*
X171349950Y-78659877D01*
X171536783Y-78833232D01*
X171747366Y-78976805D01*
X171976996Y-79087389D01*
X172220542Y-79162513D01*
X172472565Y-79200500D01*
X172727435Y-79200500D01*
X172979458Y-79162513D01*
X173223004Y-79087389D01*
X173452634Y-78976805D01*
X173663217Y-78833232D01*
X173850050Y-78659877D01*
X174008959Y-78460612D01*
X174136393Y-78239888D01*
X174229508Y-78002637D01*
X174286222Y-77754157D01*
X174305268Y-77500000D01*
X174286222Y-77245843D01*
X174229508Y-76997363D01*
X174136393Y-76760112D01*
X174129745Y-76748598D01*
X174033275Y-76581505D01*
X174008959Y-76539388D01*
X173850050Y-76340123D01*
X173663217Y-76166768D01*
X173452634Y-76023195D01*
X173223004Y-75912611D01*
X172979458Y-75837487D01*
X172727435Y-75799500D01*
X172472565Y-75799500D01*
X172220542Y-75837487D01*
X171976996Y-75912611D01*
X171896442Y-75951404D01*
X171747366Y-76023195D01*
X171642074Y-76094981D01*
X171536781Y-76166769D01*
X171383197Y-76309274D01*
X171349950Y-76340123D01*
X171270309Y-76439990D01*
X171191038Y-76539392D01*
X171063608Y-76760108D01*
X170970492Y-76997362D01*
X170913777Y-77245845D01*
X170894731Y-77499999D01*
X169825268Y-77499999D01*
X169806222Y-77245843D01*
X169749508Y-76997363D01*
X169656393Y-76760112D01*
X169649745Y-76748598D01*
X169553275Y-76581505D01*
X169528959Y-76539388D01*
X169370050Y-76340123D01*
X169183217Y-76166768D01*
X168972634Y-76023195D01*
X168743004Y-75912611D01*
X168499458Y-75837487D01*
X168247435Y-75799500D01*
X167992565Y-75799500D01*
X167740542Y-75837487D01*
X167496996Y-75912611D01*
X167416442Y-75951404D01*
X167267366Y-76023195D01*
X167162074Y-76094981D01*
X167056781Y-76166769D01*
X166903197Y-76309274D01*
X166869950Y-76340123D01*
X166790309Y-76439990D01*
X166711038Y-76539392D01*
X166583608Y-76760108D01*
X166490492Y-76997362D01*
X166433777Y-77245845D01*
X166414731Y-77499999D01*
X162683126Y-77499999D01*
X162694254Y-77422602D01*
X162684254Y-77212670D01*
X162634704Y-77008424D01*
X162629652Y-76997362D01*
X162547397Y-76817247D01*
X162425487Y-76646050D01*
X162425486Y-76646048D01*
X162273378Y-76501014D01*
X162187721Y-76445965D01*
X162096574Y-76387387D01*
X161940609Y-76324949D01*
X161901457Y-76309275D01*
X161901456Y-76309274D01*
X161901454Y-76309274D01*
X161695086Y-76269500D01*
X161695085Y-76269500D01*
X160737575Y-76269500D01*
X160639579Y-76278857D01*
X160580779Y-76284472D01*
X160379126Y-76343683D01*
X160192315Y-76439990D01*
X160027115Y-76569906D01*
X159889479Y-76728745D01*
X159784396Y-76910754D01*
X159715655Y-77109366D01*
X159685746Y-77317396D01*
X144909243Y-77317396D01*
X144904254Y-77212670D01*
X144854704Y-77008424D01*
X144849652Y-76997362D01*
X144767397Y-76817247D01*
X144645487Y-76646050D01*
X144645486Y-76646048D01*
X144493378Y-76501014D01*
X144407721Y-76445965D01*
X144316574Y-76387387D01*
X144160609Y-76324949D01*
X144121457Y-76309275D01*
X144121456Y-76309274D01*
X144121454Y-76309274D01*
X143915086Y-76269500D01*
X143915085Y-76269500D01*
X142957575Y-76269500D01*
X142859579Y-76278857D01*
X142800779Y-76284472D01*
X142599126Y-76343683D01*
X142412315Y-76439990D01*
X142247115Y-76569906D01*
X142109479Y-76728745D01*
X142004396Y-76910754D01*
X141935655Y-77109366D01*
X141905746Y-77317396D01*
X136517058Y-77317396D01*
X136473903Y-77156337D01*
X136374035Y-76942171D01*
X136238495Y-76748599D01*
X136071401Y-76581505D01*
X135885839Y-76451573D01*
X135846975Y-76407257D01*
X135832964Y-76350000D01*
X135846975Y-76292743D01*
X135885839Y-76248426D01*
X136071401Y-76118495D01*
X136238495Y-75951401D01*
X136374035Y-75757830D01*
X136473903Y-75543663D01*
X136535063Y-75315408D01*
X136555659Y-75080000D01*
X136535063Y-74844592D01*
X136517058Y-74777396D01*
X141905746Y-74777396D01*
X141915746Y-74987330D01*
X141965297Y-75191580D01*
X142052602Y-75382752D01*
X142162846Y-75537566D01*
X142174514Y-75553952D01*
X142326622Y-75698986D01*
X142398964Y-75745478D01*
X142503425Y-75812612D01*
X142542580Y-75828287D01*
X142698543Y-75890725D01*
X142827228Y-75915527D01*
X142904914Y-75930500D01*
X142904915Y-75930500D01*
X143862420Y-75930500D01*
X143862425Y-75930500D01*
X144019218Y-75915528D01*
X144220875Y-75856316D01*
X144407682Y-75760011D01*
X144572886Y-75630092D01*
X144710519Y-75471256D01*
X144815604Y-75289244D01*
X144884344Y-75090633D01*
X144914254Y-74882602D01*
X144909243Y-74777396D01*
X159685746Y-74777396D01*
X159695746Y-74987330D01*
X159745297Y-75191580D01*
X159832602Y-75382752D01*
X159942846Y-75537566D01*
X159954514Y-75553952D01*
X160106622Y-75698986D01*
X160178964Y-75745478D01*
X160283425Y-75812612D01*
X160322580Y-75828287D01*
X160478543Y-75890725D01*
X160607228Y-75915527D01*
X160684914Y-75930500D01*
X160684915Y-75930500D01*
X161642420Y-75930500D01*
X161642425Y-75930500D01*
X161799218Y-75915528D01*
X162000875Y-75856316D01*
X162187682Y-75760011D01*
X162352886Y-75630092D01*
X162490519Y-75471256D01*
X162595604Y-75289244D01*
X162664344Y-75090633D01*
X162694254Y-74882602D01*
X162684254Y-74672670D01*
X162634704Y-74468424D01*
X162634702Y-74468419D01*
X162547397Y-74277247D01*
X162461797Y-74157040D01*
X162425486Y-74106048D01*
X162273378Y-73961014D01*
X162241257Y-73940371D01*
X162096574Y-73847387D01*
X161940609Y-73784949D01*
X161901457Y-73769275D01*
X161901456Y-73769274D01*
X161901454Y-73769274D01*
X161697680Y-73730000D01*
X166814531Y-73730000D01*
X166834364Y-73956689D01*
X166893261Y-74176497D01*
X166989432Y-74382735D01*
X167119953Y-74569140D01*
X167280859Y-74730046D01*
X167467264Y-74860567D01*
X167467265Y-74860567D01*
X167467266Y-74860568D01*
X167673504Y-74956739D01*
X167893308Y-75015635D01*
X168120000Y-75035468D01*
X168346692Y-75015635D01*
X168566496Y-74956739D01*
X168772734Y-74860568D01*
X168959139Y-74730047D01*
X169120047Y-74569139D01*
X169250568Y-74382734D01*
X169346739Y-74176496D01*
X169405635Y-73956692D01*
X169425468Y-73730000D01*
X169422843Y-73700000D01*
X171294531Y-73700000D01*
X171314364Y-73926689D01*
X171373261Y-74146497D01*
X171469432Y-74352735D01*
X171599953Y-74539140D01*
X171760859Y-74700046D01*
X171947264Y-74830567D01*
X171947265Y-74830567D01*
X171947266Y-74830568D01*
X172153504Y-74926739D01*
X172373308Y-74985635D01*
X172600000Y-75005468D01*
X172826692Y-74985635D01*
X173046496Y-74926739D01*
X173252734Y-74830568D01*
X173439139Y-74700047D01*
X173600047Y-74539139D01*
X173730568Y-74352734D01*
X173826739Y-74146496D01*
X173885635Y-73926692D01*
X173905468Y-73700000D01*
X173885635Y-73473308D01*
X173826739Y-73253504D01*
X173730568Y-73047266D01*
X173707241Y-73013952D01*
X173600046Y-72860859D01*
X173439140Y-72699953D01*
X173252735Y-72569432D01*
X173237023Y-72562106D01*
X173184847Y-72516348D01*
X173165428Y-72449722D01*
X173184849Y-72383097D01*
X173237026Y-72337340D01*
X173252484Y-72330131D01*
X173325472Y-72279025D01*
X172600001Y-71553553D01*
X172600000Y-71553553D01*
X171874526Y-72279025D01*
X171874526Y-72279026D01*
X171947515Y-72330133D01*
X171962975Y-72337342D01*
X172015150Y-72383098D01*
X172034570Y-72449722D01*
X172015152Y-72516347D01*
X171962978Y-72562104D01*
X171947268Y-72569429D01*
X171760859Y-72699953D01*
X171599953Y-72860859D01*
X171469432Y-73047264D01*
X171373261Y-73253502D01*
X171314364Y-73473310D01*
X171294531Y-73700000D01*
X169422843Y-73700000D01*
X169405635Y-73503308D01*
X169346739Y-73283504D01*
X169250568Y-73077266D01*
X169206235Y-73013952D01*
X169120046Y-72890859D01*
X168959140Y-72729953D01*
X168772735Y-72599432D01*
X168757023Y-72592106D01*
X168704847Y-72546348D01*
X168685428Y-72479722D01*
X168704849Y-72413097D01*
X168757026Y-72367340D01*
X168772484Y-72360131D01*
X168845472Y-72309025D01*
X168120001Y-71583553D01*
X168120000Y-71583553D01*
X167394526Y-72309025D01*
X167394526Y-72309026D01*
X167467515Y-72360133D01*
X167482975Y-72367342D01*
X167535150Y-72413098D01*
X167554570Y-72479722D01*
X167535152Y-72546347D01*
X167482978Y-72592104D01*
X167467268Y-72599429D01*
X167280859Y-72729953D01*
X167119953Y-72890859D01*
X166989432Y-73077264D01*
X166893261Y-73283502D01*
X166834364Y-73503310D01*
X166814531Y-73730000D01*
X161697680Y-73730000D01*
X161695086Y-73729500D01*
X161695085Y-73729500D01*
X160737575Y-73729500D01*
X160639579Y-73738857D01*
X160580779Y-73744472D01*
X160379126Y-73803683D01*
X160192315Y-73899990D01*
X160027115Y-74029906D01*
X159889479Y-74188745D01*
X159784396Y-74370754D01*
X159715655Y-74569366D01*
X159685746Y-74777396D01*
X144909243Y-74777396D01*
X144904254Y-74672670D01*
X144854704Y-74468424D01*
X144854702Y-74468419D01*
X144767397Y-74277247D01*
X144681797Y-74157040D01*
X144645486Y-74106048D01*
X144493378Y-73961014D01*
X144461257Y-73940371D01*
X144316574Y-73847387D01*
X144160609Y-73784949D01*
X144121457Y-73769275D01*
X144121456Y-73769274D01*
X144121454Y-73769274D01*
X143915086Y-73729500D01*
X143915085Y-73729500D01*
X142957575Y-73729500D01*
X142859579Y-73738857D01*
X142800779Y-73744472D01*
X142599126Y-73803683D01*
X142412315Y-73899990D01*
X142247115Y-74029906D01*
X142109479Y-74188745D01*
X142004396Y-74370754D01*
X141935655Y-74569366D01*
X141905746Y-74777396D01*
X136517058Y-74777396D01*
X136473903Y-74616337D01*
X136374035Y-74402171D01*
X136238495Y-74208599D01*
X136071401Y-74041505D01*
X135885839Y-73911573D01*
X135846974Y-73867255D01*
X135832964Y-73809999D01*
X135846975Y-73752742D01*
X135885837Y-73708428D01*
X136071401Y-73578495D01*
X136238495Y-73411401D01*
X136374035Y-73217830D01*
X136473903Y-73003663D01*
X136535063Y-72775408D01*
X136555659Y-72540000D01*
X136535063Y-72304592D01*
X136517059Y-72237398D01*
X141905746Y-72237398D01*
X141915746Y-72447330D01*
X141932489Y-72516347D01*
X141965297Y-72651580D01*
X142052602Y-72842752D01*
X142162846Y-72997566D01*
X142174514Y-73013952D01*
X142326622Y-73158986D01*
X142398964Y-73205478D01*
X142503425Y-73272612D01*
X142530627Y-73283502D01*
X142698543Y-73350725D01*
X142827228Y-73375527D01*
X142904914Y-73390500D01*
X142904915Y-73390500D01*
X143862420Y-73390500D01*
X143862425Y-73390500D01*
X144019218Y-73375528D01*
X144220875Y-73316316D01*
X144407682Y-73220011D01*
X144572886Y-73090092D01*
X144710519Y-72931256D01*
X144815604Y-72749244D01*
X144884344Y-72550633D01*
X144914254Y-72342602D01*
X144909243Y-72237398D01*
X159685746Y-72237398D01*
X159695746Y-72447330D01*
X159712489Y-72516347D01*
X159745297Y-72651580D01*
X159832602Y-72842752D01*
X159942846Y-72997566D01*
X159954514Y-73013952D01*
X160106622Y-73158986D01*
X160178964Y-73205478D01*
X160283425Y-73272612D01*
X160310627Y-73283502D01*
X160478543Y-73350725D01*
X160607228Y-73375527D01*
X160684914Y-73390500D01*
X160684915Y-73390500D01*
X161642420Y-73390500D01*
X161642425Y-73390500D01*
X161799218Y-73375528D01*
X162000875Y-73316316D01*
X162187682Y-73220011D01*
X162352886Y-73090092D01*
X162490519Y-72931256D01*
X162595604Y-72749244D01*
X162664344Y-72550633D01*
X162694254Y-72342602D01*
X162684254Y-72132670D01*
X162634704Y-71928424D01*
X162633356Y-71925472D01*
X162547397Y-71737247D01*
X162425487Y-71566050D01*
X162425486Y-71566048D01*
X162273378Y-71421014D01*
X162187721Y-71365965D01*
X162096574Y-71307387D01*
X161903270Y-71230001D01*
X161903265Y-71229999D01*
X166815033Y-71229999D01*
X166834858Y-71456602D01*
X166893733Y-71676326D01*
X166989866Y-71882484D01*
X167040972Y-71955471D01*
X167040974Y-71955472D01*
X167766446Y-71230001D01*
X168473553Y-71230001D01*
X169199025Y-71955472D01*
X169250134Y-71882480D01*
X169346266Y-71676326D01*
X169405141Y-71456602D01*
X169424966Y-71229999D01*
X169422341Y-71200000D01*
X171295033Y-71200000D01*
X171314858Y-71426602D01*
X171373733Y-71646326D01*
X171469866Y-71852484D01*
X171520972Y-71925471D01*
X171520973Y-71925472D01*
X172246446Y-71200000D01*
X172246446Y-71199999D01*
X172953553Y-71199999D01*
X173679025Y-71925472D01*
X173730134Y-71852480D01*
X173826266Y-71646326D01*
X173885141Y-71426602D01*
X173904966Y-71200000D01*
X173885141Y-70973397D01*
X173826266Y-70753673D01*
X173730133Y-70547515D01*
X173679025Y-70474526D01*
X172953553Y-71199998D01*
X172953553Y-71199999D01*
X172246446Y-71199999D01*
X172246446Y-71199998D01*
X171520973Y-70474527D01*
X171469865Y-70547516D01*
X171373733Y-70753672D01*
X171314858Y-70973397D01*
X171295033Y-71200000D01*
X169422341Y-71200000D01*
X169405141Y-71003397D01*
X169346266Y-70783673D01*
X169250133Y-70577515D01*
X169199025Y-70504526D01*
X168473553Y-71230000D01*
X168473553Y-71230001D01*
X167766446Y-71230001D01*
X167766446Y-71230000D01*
X167040973Y-70504526D01*
X167040973Y-70504527D01*
X166989865Y-70577516D01*
X166893733Y-70783672D01*
X166834858Y-71003397D01*
X166815033Y-71229999D01*
X161903265Y-71229999D01*
X161901457Y-71229275D01*
X161901456Y-71229274D01*
X161901454Y-71229274D01*
X161695086Y-71189500D01*
X161695085Y-71189500D01*
X160737575Y-71189500D01*
X160639579Y-71198857D01*
X160580779Y-71204472D01*
X160379126Y-71263683D01*
X160192315Y-71359990D01*
X160027115Y-71489906D01*
X159889479Y-71648745D01*
X159784396Y-71830754D01*
X159715655Y-72029366D01*
X159700803Y-72132670D01*
X159685746Y-72237398D01*
X144909243Y-72237398D01*
X144904254Y-72132670D01*
X144854704Y-71928424D01*
X144853356Y-71925472D01*
X144767397Y-71737247D01*
X144645487Y-71566050D01*
X144645486Y-71566048D01*
X144493378Y-71421014D01*
X144407721Y-71365965D01*
X144316574Y-71307387D01*
X144123270Y-71230001D01*
X144121457Y-71229275D01*
X144121456Y-71229274D01*
X144121454Y-71229274D01*
X143915086Y-71189500D01*
X143915085Y-71189500D01*
X142957575Y-71189500D01*
X142859579Y-71198857D01*
X142800779Y-71204472D01*
X142599126Y-71263683D01*
X142412315Y-71359990D01*
X142247115Y-71489906D01*
X142109479Y-71648745D01*
X142004396Y-71830754D01*
X141935655Y-72029366D01*
X141920803Y-72132670D01*
X141905746Y-72237398D01*
X136517059Y-72237398D01*
X136473903Y-72076337D01*
X136374035Y-71862171D01*
X136238495Y-71668599D01*
X136071401Y-71501505D01*
X135877830Y-71365965D01*
X135663663Y-71266097D01*
X135602502Y-71249709D01*
X135435407Y-71204936D01*
X135200000Y-71184340D01*
X134964592Y-71204936D01*
X134736336Y-71266097D01*
X134522170Y-71365965D01*
X134328598Y-71501505D01*
X134161505Y-71668598D01*
X134025965Y-71862170D01*
X133926097Y-72076336D01*
X133864936Y-72304592D01*
X133844340Y-72540000D01*
X133864936Y-72775407D01*
X133895872Y-72890861D01*
X133926097Y-73003663D01*
X134025965Y-73217830D01*
X134161505Y-73411401D01*
X134328599Y-73578495D01*
X134514160Y-73708426D01*
X134553024Y-73752743D01*
X134567035Y-73810000D01*
X134553024Y-73867257D01*
X134514160Y-73911574D01*
X134345162Y-74029908D01*
X134328595Y-74041508D01*
X134161505Y-74208598D01*
X134025965Y-74402170D01*
X133926097Y-74616336D01*
X133864936Y-74844592D01*
X133844340Y-75080000D01*
X133864936Y-75315407D01*
X133906695Y-75471254D01*
X133926097Y-75543663D01*
X134025965Y-75757830D01*
X134161505Y-75951401D01*
X134328599Y-76118495D01*
X134514160Y-76248426D01*
X134553024Y-76292743D01*
X134567035Y-76350000D01*
X134553024Y-76407257D01*
X134514158Y-76451575D01*
X134345162Y-76569908D01*
X134328595Y-76581508D01*
X134161505Y-76748598D01*
X134025965Y-76942170D01*
X133926097Y-77156336D01*
X133864936Y-77384592D01*
X133844340Y-77619999D01*
X133864936Y-77855407D01*
X133904386Y-78002637D01*
X133926097Y-78083663D01*
X134025965Y-78297830D01*
X134161505Y-78491401D01*
X134328599Y-78658495D01*
X134514160Y-78788426D01*
X134553024Y-78832743D01*
X134567035Y-78890000D01*
X134553024Y-78947257D01*
X134514160Y-78991574D01*
X134346043Y-79109291D01*
X134328595Y-79121508D01*
X134161505Y-79288598D01*
X134025965Y-79482170D01*
X133926097Y-79696336D01*
X133864936Y-79924592D01*
X133844340Y-80159999D01*
X133864936Y-80395407D01*
X133882915Y-80462505D01*
X133926097Y-80623663D01*
X134025965Y-80837830D01*
X134161505Y-81031401D01*
X134328599Y-81198495D01*
X134514160Y-81328426D01*
X134553024Y-81372743D01*
X134567035Y-81430000D01*
X134553024Y-81487257D01*
X134514158Y-81531575D01*
X134345162Y-81649908D01*
X134328595Y-81661508D01*
X134161505Y-81828598D01*
X134025965Y-82022170D01*
X133926097Y-82236336D01*
X133864936Y-82464592D01*
X133844340Y-82700000D01*
X127400500Y-82700000D01*
X127400500Y-69697396D01*
X141905746Y-69697396D01*
X141915746Y-69907330D01*
X141965297Y-70111580D01*
X142052602Y-70302752D01*
X142162845Y-70457566D01*
X142174514Y-70473952D01*
X142326622Y-70618986D01*
X142398964Y-70665478D01*
X142503425Y-70732612D01*
X142542580Y-70748287D01*
X142698543Y-70810725D01*
X142827228Y-70835527D01*
X142904914Y-70850500D01*
X142904915Y-70850500D01*
X143862420Y-70850500D01*
X143862425Y-70850500D01*
X144019218Y-70835528D01*
X144220875Y-70776316D01*
X144407682Y-70680011D01*
X144572886Y-70550092D01*
X144710519Y-70391256D01*
X144815604Y-70209244D01*
X144884344Y-70010633D01*
X144914254Y-69802602D01*
X144909243Y-69697396D01*
X159685746Y-69697396D01*
X159695746Y-69907330D01*
X159745297Y-70111580D01*
X159832602Y-70302752D01*
X159942845Y-70457566D01*
X159954514Y-70473952D01*
X160106622Y-70618986D01*
X160178964Y-70665478D01*
X160283425Y-70732612D01*
X160322580Y-70748287D01*
X160478543Y-70810725D01*
X160607228Y-70835527D01*
X160684914Y-70850500D01*
X160684915Y-70850500D01*
X161642420Y-70850500D01*
X161642425Y-70850500D01*
X161799218Y-70835528D01*
X162000875Y-70776316D01*
X162187682Y-70680011D01*
X162352886Y-70550092D01*
X162490519Y-70391256D01*
X162595604Y-70209244D01*
X162615772Y-70150973D01*
X167394526Y-70150973D01*
X168120000Y-70876446D01*
X168120001Y-70876446D01*
X168845472Y-70150974D01*
X168845471Y-70150972D01*
X168802628Y-70120973D01*
X171874526Y-70120973D01*
X172600000Y-70846446D01*
X172600001Y-70846446D01*
X173325472Y-70120974D01*
X173325471Y-70120972D01*
X173252484Y-70069866D01*
X173046326Y-69973733D01*
X172826602Y-69914858D01*
X172600000Y-69895033D01*
X172373397Y-69914858D01*
X172153672Y-69973733D01*
X171947516Y-70069865D01*
X171874527Y-70120973D01*
X171874526Y-70120973D01*
X168802628Y-70120973D01*
X168772484Y-70099866D01*
X168566326Y-70003733D01*
X168346602Y-69944858D01*
X168120000Y-69925033D01*
X167893397Y-69944858D01*
X167673672Y-70003733D01*
X167467516Y-70099865D01*
X167394527Y-70150973D01*
X167394526Y-70150973D01*
X162615772Y-70150973D01*
X162664344Y-70010633D01*
X162694254Y-69802602D01*
X162684254Y-69592670D01*
X162634704Y-69388424D01*
X162634702Y-69388419D01*
X162547397Y-69197247D01*
X162425487Y-69026050D01*
X162425486Y-69026048D01*
X162273378Y-68881014D01*
X162241257Y-68860371D01*
X162096574Y-68767387D01*
X161940609Y-68704949D01*
X161901457Y-68689275D01*
X161901456Y-68689274D01*
X161901454Y-68689274D01*
X161695086Y-68649500D01*
X161695085Y-68649500D01*
X160737575Y-68649500D01*
X160639579Y-68658857D01*
X160580779Y-68664472D01*
X160379126Y-68723683D01*
X160192315Y-68819990D01*
X160027115Y-68949906D01*
X159889479Y-69108745D01*
X159784396Y-69290754D01*
X159715655Y-69489366D01*
X159685746Y-69697396D01*
X144909243Y-69697396D01*
X144904254Y-69592670D01*
X144854704Y-69388424D01*
X144854702Y-69388419D01*
X144767397Y-69197247D01*
X144645487Y-69026050D01*
X144645486Y-69026048D01*
X144493378Y-68881014D01*
X144461257Y-68860371D01*
X144316574Y-68767387D01*
X144160609Y-68704949D01*
X144121457Y-68689275D01*
X144121456Y-68689274D01*
X144121454Y-68689274D01*
X143915086Y-68649500D01*
X143915085Y-68649500D01*
X142957575Y-68649500D01*
X142859579Y-68658857D01*
X142800779Y-68664472D01*
X142599126Y-68723683D01*
X142412315Y-68819990D01*
X142247115Y-68949906D01*
X142109479Y-69108745D01*
X142004396Y-69290754D01*
X141935655Y-69489366D01*
X141905746Y-69697396D01*
X127400500Y-69697396D01*
X127400500Y-65000000D01*
X128694422Y-65000000D01*
X128714722Y-65387340D01*
X128775396Y-65770429D01*
X128875785Y-66145086D01*
X129014785Y-66507193D01*
X129190876Y-66852793D01*
X129402121Y-67178080D01*
X129402124Y-67178084D01*
X129646219Y-67479516D01*
X129920484Y-67753781D01*
X130221916Y-67997876D01*
X130221918Y-67997877D01*
X130221919Y-67997878D01*
X130547206Y-68209123D01*
X130892806Y-68385214D01*
X131254913Y-68524214D01*
X131629570Y-68624603D01*
X131821114Y-68654939D01*
X132012662Y-68685278D01*
X132400000Y-68705578D01*
X132787338Y-68685278D01*
X133036686Y-68645785D01*
X133170429Y-68624603D01*
X133170433Y-68624602D01*
X133545087Y-68524214D01*
X133907194Y-68385214D01*
X134131372Y-68270990D01*
X142702560Y-68270990D01*
X142904962Y-68310000D01*
X143862399Y-68310000D01*
X144019126Y-68295034D01*
X144101013Y-68270990D01*
X160482560Y-68270990D01*
X160684962Y-68310000D01*
X161642399Y-68310000D01*
X161799126Y-68295034D01*
X161893709Y-68267262D01*
X161893709Y-68267261D01*
X161190000Y-67563553D01*
X160482560Y-68270990D01*
X144101013Y-68270990D01*
X144113709Y-68267262D01*
X144113709Y-68267261D01*
X143410000Y-67563553D01*
X142702560Y-68270990D01*
X134131372Y-68270990D01*
X134252789Y-68209125D01*
X134252788Y-68209125D01*
X134252793Y-68209123D01*
X134415436Y-68103500D01*
X134578084Y-67997876D01*
X134879516Y-67753781D01*
X135153781Y-67479516D01*
X135397876Y-67178084D01*
X135411295Y-67157420D01*
X141906248Y-67157420D01*
X141916243Y-67367258D01*
X141965770Y-67571410D01*
X142053039Y-67762505D01*
X142174892Y-67933621D01*
X142255738Y-68010707D01*
X143056447Y-67210001D01*
X143763553Y-67210001D01*
X144567356Y-68013803D01*
X144567357Y-68013803D01*
X144572538Y-68009730D01*
X144710111Y-67850963D01*
X144815146Y-67669036D01*
X144883856Y-67470515D01*
X144913751Y-67262579D01*
X144908742Y-67157420D01*
X159686248Y-67157420D01*
X159696243Y-67367258D01*
X159745770Y-67571410D01*
X159833039Y-67762505D01*
X159954892Y-67933621D01*
X160035738Y-68010707D01*
X160836447Y-67210001D01*
X161543553Y-67210001D01*
X162347356Y-68013803D01*
X162347357Y-68013803D01*
X162352538Y-68009730D01*
X162490111Y-67850963D01*
X162595146Y-67669036D01*
X162663856Y-67470515D01*
X162693751Y-67262579D01*
X162683756Y-67052741D01*
X162634229Y-66848589D01*
X162546960Y-66657494D01*
X162425107Y-66486378D01*
X162344260Y-66409291D01*
X161543553Y-67210000D01*
X161543553Y-67210001D01*
X160836447Y-67210001D01*
X160836447Y-67210000D01*
X160032641Y-66406194D01*
X160027461Y-66410269D01*
X159889888Y-66569036D01*
X159784853Y-66750963D01*
X159716143Y-66949484D01*
X159686248Y-67157420D01*
X144908742Y-67157420D01*
X144903756Y-67052741D01*
X144854229Y-66848589D01*
X144766960Y-66657494D01*
X144645107Y-66486378D01*
X144564260Y-66409291D01*
X143763553Y-67210000D01*
X143763553Y-67210001D01*
X143056447Y-67210001D01*
X143056447Y-67210000D01*
X142252641Y-66406194D01*
X142247461Y-66410269D01*
X142109888Y-66569036D01*
X142004853Y-66750963D01*
X141936143Y-66949484D01*
X141906248Y-67157420D01*
X135411295Y-67157420D01*
X135546331Y-66949484D01*
X135609123Y-66852793D01*
X135661008Y-66750963D01*
X135785214Y-66507194D01*
X135921277Y-66152737D01*
X142706290Y-66152737D01*
X143410000Y-66856447D01*
X143410001Y-66856447D01*
X144113708Y-66152737D01*
X160486290Y-66152737D01*
X161190000Y-66856447D01*
X161190001Y-66856447D01*
X161897438Y-66149007D01*
X161695039Y-66110000D01*
X160737601Y-66110000D01*
X160580876Y-66124965D01*
X160486290Y-66152737D01*
X144113708Y-66152737D01*
X144117438Y-66149007D01*
X143915039Y-66110000D01*
X142957601Y-66110000D01*
X142800876Y-66124965D01*
X142706290Y-66152737D01*
X135921277Y-66152737D01*
X135924214Y-66145087D01*
X136024602Y-65770433D01*
X136085278Y-65387338D01*
X136105578Y-65000000D01*
X136085526Y-64617396D01*
X141905746Y-64617396D01*
X141915746Y-64827330D01*
X141965297Y-65031580D01*
X142052602Y-65222752D01*
X142162845Y-65377566D01*
X142174514Y-65393952D01*
X142326622Y-65538986D01*
X142398964Y-65585478D01*
X142503425Y-65652612D01*
X142542580Y-65668287D01*
X142698543Y-65730725D01*
X142827228Y-65755527D01*
X142904914Y-65770500D01*
X142904915Y-65770500D01*
X143862420Y-65770500D01*
X143862425Y-65770500D01*
X144019218Y-65755528D01*
X144220875Y-65696316D01*
X144407682Y-65600011D01*
X144572886Y-65470092D01*
X144710519Y-65311256D01*
X144815604Y-65129244D01*
X144884344Y-64930633D01*
X144913653Y-64726777D01*
X144938195Y-64668706D01*
X144988121Y-64630207D01*
X145050525Y-64621234D01*
X145109276Y-64644108D01*
X145311204Y-64790816D01*
X145377612Y-64827324D01*
X145575896Y-64936332D01*
X145716317Y-64991928D01*
X145856737Y-65047525D01*
X146011141Y-65087168D01*
X146149302Y-65122642D01*
X146398314Y-65154100D01*
X146448972Y-65160500D01*
X146448973Y-65160500D01*
X146751027Y-65160500D01*
X146751028Y-65160500D01*
X146794360Y-65155025D01*
X147050698Y-65122642D01*
X147343262Y-65047525D01*
X147624104Y-64936332D01*
X147888795Y-64790816D01*
X147982684Y-64722602D01*
X148133160Y-64613276D01*
X148240295Y-64512669D01*
X148353349Y-64406504D01*
X148545885Y-64173768D01*
X148707733Y-63918736D01*
X148836341Y-63645430D01*
X148929681Y-63358160D01*
X148986280Y-63061457D01*
X149005246Y-62760000D01*
X155594753Y-62760000D01*
X155613719Y-63061452D01*
X155670319Y-63358163D01*
X155763658Y-63645428D01*
X155892268Y-63918739D01*
X156016968Y-64115234D01*
X156054115Y-64173768D01*
X156165508Y-64308419D01*
X156246650Y-64406503D01*
X156466839Y-64613276D01*
X156711204Y-64790816D01*
X156777612Y-64827324D01*
X156975896Y-64936332D01*
X157116317Y-64991928D01*
X157256737Y-65047525D01*
X157411141Y-65087168D01*
X157549302Y-65122642D01*
X157798314Y-65154100D01*
X157848972Y-65160500D01*
X157848973Y-65160500D01*
X158151027Y-65160500D01*
X158151028Y-65160500D01*
X158194360Y-65155025D01*
X158450698Y-65122642D01*
X158743262Y-65047525D01*
X159024104Y-64936332D01*
X159288795Y-64790816D01*
X159494635Y-64641264D01*
X159556320Y-64618090D01*
X159621169Y-64629790D01*
X159670867Y-64673060D01*
X159691379Y-64735682D01*
X159695745Y-64827324D01*
X159695745Y-64827327D01*
X159695746Y-64827330D01*
X159737636Y-65000000D01*
X159745297Y-65031580D01*
X159832602Y-65222752D01*
X159942845Y-65377566D01*
X159954514Y-65393952D01*
X160106622Y-65538986D01*
X160178964Y-65585478D01*
X160283425Y-65652612D01*
X160322580Y-65668287D01*
X160478543Y-65730725D01*
X160607228Y-65755527D01*
X160684914Y-65770500D01*
X160684915Y-65770500D01*
X161642420Y-65770500D01*
X161642425Y-65770500D01*
X161799218Y-65755528D01*
X162000875Y-65696316D01*
X162187682Y-65600011D01*
X162352886Y-65470092D01*
X162490519Y-65311256D01*
X162595604Y-65129244D01*
X162640336Y-64999999D01*
X168694422Y-64999999D01*
X168714722Y-65387340D01*
X168775396Y-65770429D01*
X168875785Y-66145086D01*
X169014785Y-66507193D01*
X169190876Y-66852793D01*
X169402121Y-67178080D01*
X169402124Y-67178084D01*
X169646219Y-67479516D01*
X169920484Y-67753781D01*
X170221916Y-67997876D01*
X170221918Y-67997877D01*
X170221919Y-67997878D01*
X170547206Y-68209123D01*
X170892806Y-68385214D01*
X171254913Y-68524214D01*
X171629570Y-68624603D01*
X171821114Y-68654939D01*
X172012662Y-68685278D01*
X172400000Y-68705578D01*
X172787338Y-68685278D01*
X173036686Y-68645785D01*
X173170429Y-68624603D01*
X173170433Y-68624602D01*
X173545087Y-68524214D01*
X173907194Y-68385214D01*
X174252789Y-68209125D01*
X174252788Y-68209125D01*
X174252793Y-68209123D01*
X174415436Y-68103500D01*
X174578084Y-67997876D01*
X174879516Y-67753781D01*
X175153781Y-67479516D01*
X175397876Y-67178084D01*
X175546331Y-66949484D01*
X175609123Y-66852793D01*
X175661008Y-66750963D01*
X175785214Y-66507194D01*
X175924214Y-66145087D01*
X176024602Y-65770433D01*
X176085278Y-65387338D01*
X176105578Y-65000000D01*
X176085278Y-64612662D01*
X176037091Y-64308419D01*
X176024603Y-64229570D01*
X175924214Y-63854913D01*
X175785214Y-63492806D01*
X175609123Y-63147206D01*
X175397878Y-62821919D01*
X175356852Y-62771256D01*
X175153781Y-62520484D01*
X174879516Y-62246219D01*
X174578084Y-62002124D01*
X174578082Y-62002123D01*
X174578080Y-62002121D01*
X174252793Y-61790876D01*
X173907193Y-61614785D01*
X173545086Y-61475785D01*
X173170429Y-61375396D01*
X172787340Y-61314722D01*
X172400000Y-61294422D01*
X172012659Y-61314722D01*
X171629570Y-61375396D01*
X171254913Y-61475785D01*
X170892806Y-61614785D01*
X170547206Y-61790876D01*
X170221919Y-62002121D01*
X169920480Y-62246222D01*
X169646222Y-62520480D01*
X169402121Y-62821919D01*
X169190876Y-63147206D01*
X169014785Y-63492806D01*
X168875785Y-63854913D01*
X168775396Y-64229570D01*
X168714722Y-64612659D01*
X168694422Y-64999999D01*
X162640336Y-64999999D01*
X162664344Y-64930633D01*
X162694254Y-64722602D01*
X162684254Y-64512670D01*
X162634704Y-64308424D01*
X162634702Y-64308419D01*
X162547397Y-64117247D01*
X162425487Y-63946050D01*
X162425486Y-63946048D01*
X162273378Y-63801014D01*
X162241257Y-63780371D01*
X162096574Y-63687387D01*
X161920521Y-63616907D01*
X161901457Y-63609275D01*
X161901456Y-63609274D01*
X161901454Y-63609274D01*
X161695086Y-63569500D01*
X161695085Y-63569500D01*
X160737575Y-63569500D01*
X160659178Y-63576986D01*
X160580777Y-63584472D01*
X160447395Y-63623637D01*
X160380937Y-63624586D01*
X160323536Y-63591080D01*
X160291683Y-63532745D01*
X160294529Y-63466343D01*
X160329681Y-63358160D01*
X160342487Y-63291023D01*
X160370475Y-63233177D01*
X160423660Y-63197106D01*
X160487758Y-63192501D01*
X160684914Y-63230500D01*
X160684915Y-63230500D01*
X161642420Y-63230500D01*
X161642425Y-63230500D01*
X161799218Y-63215528D01*
X162000875Y-63156316D01*
X162187682Y-63060011D01*
X162352886Y-62930092D01*
X162490519Y-62771256D01*
X162595604Y-62589244D01*
X162664344Y-62390633D01*
X162694254Y-62182602D01*
X162684254Y-61972670D01*
X162634704Y-61768424D01*
X162634702Y-61768419D01*
X162547397Y-61577247D01*
X162425487Y-61406050D01*
X162425486Y-61406048D01*
X162273378Y-61261014D01*
X162241257Y-61240371D01*
X162096574Y-61147387D01*
X161940609Y-61084949D01*
X161901457Y-61069275D01*
X161901456Y-61069274D01*
X161901454Y-61069274D01*
X161695086Y-61029500D01*
X161695085Y-61029500D01*
X160737575Y-61029500D01*
X160639579Y-61038857D01*
X160580779Y-61044472D01*
X160379126Y-61103683D01*
X160192315Y-61199990D01*
X160064807Y-61300265D01*
X160006814Y-61325383D01*
X159943975Y-61318657D01*
X159892611Y-61281835D01*
X159875386Y-61261014D01*
X159753349Y-61113496D01*
X159706259Y-61069275D01*
X159533160Y-60906723D01*
X159288795Y-60729183D01*
X159024102Y-60583667D01*
X158743262Y-60472474D01*
X158450700Y-60397358D01*
X158151028Y-60359500D01*
X158151027Y-60359500D01*
X157848973Y-60359500D01*
X157848972Y-60359500D01*
X157549299Y-60397358D01*
X157256737Y-60472474D01*
X156975897Y-60583667D01*
X156711204Y-60729183D01*
X156466839Y-60906723D01*
X156246650Y-61113496D01*
X156054114Y-61346233D01*
X155892268Y-61601260D01*
X155763658Y-61874571D01*
X155670319Y-62161836D01*
X155613719Y-62458547D01*
X155594753Y-62760000D01*
X149005246Y-62760000D01*
X148986280Y-62458543D01*
X148929681Y-62161840D01*
X148902243Y-62077396D01*
X148836341Y-61874571D01*
X148833892Y-61869367D01*
X148707733Y-61601264D01*
X148707732Y-61601263D01*
X148707731Y-61601260D01*
X148628102Y-61475785D01*
X148545885Y-61346232D01*
X148353349Y-61113496D01*
X148306259Y-61069275D01*
X148133160Y-60906723D01*
X147888795Y-60729183D01*
X147624102Y-60583667D01*
X147343262Y-60472474D01*
X147050700Y-60397358D01*
X146751028Y-60359500D01*
X146751027Y-60359500D01*
X146448973Y-60359500D01*
X146448972Y-60359500D01*
X146149299Y-60397358D01*
X145856737Y-60472474D01*
X145575897Y-60583667D01*
X145311204Y-60729183D01*
X145066839Y-60906723D01*
X144846653Y-61113492D01*
X144707461Y-61281748D01*
X144652399Y-61319913D01*
X144585521Y-61323865D01*
X144526348Y-61292450D01*
X144493379Y-61261015D01*
X144493378Y-61261014D01*
X144454917Y-61236297D01*
X144316574Y-61147387D01*
X144160609Y-61084949D01*
X144121457Y-61069275D01*
X144121456Y-61069274D01*
X144121454Y-61069274D01*
X143915086Y-61029500D01*
X143915085Y-61029500D01*
X142957575Y-61029500D01*
X142859579Y-61038857D01*
X142800779Y-61044472D01*
X142599126Y-61103683D01*
X142412315Y-61199990D01*
X142247115Y-61329906D01*
X142109479Y-61488745D01*
X142004396Y-61670754D01*
X141935655Y-61869366D01*
X141905746Y-62077396D01*
X141915746Y-62287330D01*
X141965297Y-62491580D01*
X142052602Y-62682752D01*
X142151701Y-62821916D01*
X142174514Y-62853952D01*
X142326622Y-62998986D01*
X142398964Y-63045478D01*
X142503425Y-63112612D01*
X142542580Y-63128287D01*
X142698543Y-63190725D01*
X142827228Y-63215527D01*
X142904914Y-63230500D01*
X142904915Y-63230500D01*
X143862420Y-63230500D01*
X143862425Y-63230500D01*
X144019218Y-63215528D01*
X144100106Y-63191776D01*
X144168157Y-63191258D01*
X144226234Y-63226734D01*
X144256842Y-63287518D01*
X144270317Y-63358156D01*
X144304536Y-63463470D01*
X144306680Y-63532739D01*
X144271318Y-63592341D01*
X144209494Y-63623657D01*
X144140522Y-63616907D01*
X144121457Y-63609275D01*
X143915086Y-63569500D01*
X143915085Y-63569500D01*
X142957575Y-63569500D01*
X142859579Y-63578857D01*
X142800779Y-63584472D01*
X142599126Y-63643683D01*
X142412315Y-63739990D01*
X142247115Y-63869906D01*
X142109479Y-64028745D01*
X142004396Y-64210754D01*
X141935655Y-64409366D01*
X141905746Y-64617396D01*
X136085526Y-64617396D01*
X136085278Y-64612662D01*
X136037091Y-64308419D01*
X136024603Y-64229570D01*
X135924214Y-63854913D01*
X135785214Y-63492806D01*
X135609123Y-63147206D01*
X135397878Y-62821919D01*
X135356852Y-62771256D01*
X135153781Y-62520484D01*
X134879516Y-62246219D01*
X134578084Y-62002124D01*
X134578082Y-62002123D01*
X134578080Y-62002121D01*
X134252793Y-61790876D01*
X133907193Y-61614785D01*
X133545086Y-61475785D01*
X133170429Y-61375396D01*
X132787340Y-61314722D01*
X132400000Y-61294422D01*
X132012659Y-61314722D01*
X131629570Y-61375396D01*
X131254913Y-61475785D01*
X130892806Y-61614785D01*
X130547206Y-61790876D01*
X130221919Y-62002121D01*
X129920480Y-62246222D01*
X129646222Y-62520480D01*
X129402121Y-62821919D01*
X129190876Y-63147206D01*
X129014785Y-63492806D01*
X128875785Y-63854913D01*
X128775396Y-64229570D01*
X128714722Y-64612659D01*
X128694422Y-65000000D01*
X127400500Y-65000000D01*
X127400500Y-60124500D01*
X127417113Y-60062500D01*
X127462500Y-60017113D01*
X127524500Y-60000500D01*
X177275500Y-60000500D01*
X177337500Y-60017113D01*
G37*
%TD.AperFunction*%
%TD*%
M02*
