%TF.GenerationSoftware,KiCad,Pcbnew,7.0.1*%
%TF.CreationDate,2023-04-10T15:25:16+01:00*%
%TF.ProjectId,pico-joystick,7069636f-2d6a-46f7-9973-7469636b2e6b,rev?*%
%TF.SameCoordinates,Original*%
%TF.FileFunction,Copper,L2,Bot*%
%TF.FilePolarity,Positive*%
%FSLAX46Y46*%
G04 Gerber Fmt 4.6, Leading zero omitted, Abs format (unit mm)*
G04 Created by KiCad (PCBNEW 7.0.1) date 2023-04-10 15:25:16*
%MOMM*%
%LPD*%
G01*
G04 APERTURE LIST*
G04 Aperture macros list*
%AMRoundRect*
0 Rectangle with rounded corners*
0 $1 Rounding radius*
0 $2 $3 $4 $5 $6 $7 $8 $9 X,Y pos of 4 corners*
0 Add a 4 corners polygon primitive as box body*
4,1,4,$2,$3,$4,$5,$6,$7,$8,$9,$2,$3,0*
0 Add four circle primitives for the rounded corners*
1,1,$1+$1,$2,$3*
1,1,$1+$1,$4,$5*
1,1,$1+$1,$6,$7*
1,1,$1+$1,$8,$9*
0 Add four rect primitives between the rounded corners*
20,1,$1+$1,$2,$3,$4,$5,0*
20,1,$1+$1,$4,$5,$6,$7,0*
20,1,$1+$1,$6,$7,$8,$9,0*
20,1,$1+$1,$8,$9,$2,$3,0*%
G04 Aperture macros list end*
%TA.AperFunction,ComponentPad*%
%ADD10C,6.400000*%
%TD*%
%TA.AperFunction,WasherPad*%
%ADD11C,3.800000*%
%TD*%
%TA.AperFunction,ComponentPad*%
%ADD12O,2.000000X1.200000*%
%TD*%
%TA.AperFunction,ComponentPad*%
%ADD13O,1.200000X2.000000*%
%TD*%
%TA.AperFunction,ComponentPad*%
%ADD14C,2.400000*%
%TD*%
%TA.AperFunction,ComponentPad*%
%ADD15O,2.400000X2.400000*%
%TD*%
%TA.AperFunction,ComponentPad*%
%ADD16RoundRect,0.250000X-0.725000X0.600000X-0.725000X-0.600000X0.725000X-0.600000X0.725000X0.600000X0*%
%TD*%
%TA.AperFunction,ComponentPad*%
%ADD17O,1.950000X1.700000*%
%TD*%
%TA.AperFunction,ComponentPad*%
%ADD18R,1.700000X1.700000*%
%TD*%
%TA.AperFunction,ComponentPad*%
%ADD19O,1.700000X1.700000*%
%TD*%
%TA.AperFunction,ComponentPad*%
%ADD20C,1.600000*%
%TD*%
%TA.AperFunction,ComponentPad*%
%ADD21R,1.600000X1.600000*%
%TD*%
%TA.AperFunction,ComponentPad*%
%ADD22C,4.000000*%
%TD*%
%TA.AperFunction,ViaPad*%
%ADD23C,0.800000*%
%TD*%
%TA.AperFunction,Conductor*%
%ADD24C,0.250000*%
%TD*%
G04 APERTURE END LIST*
D10*
%TO.P,REF\u002A\u002A,1*%
%TO.N,N/C*%
X172400000Y-113000000D03*
%TD*%
%TO.P,REF\u002A\u002A,1*%
%TO.N,N/C*%
X132400000Y-113000000D03*
%TD*%
%TO.P,REF\u002A\u002A,1*%
%TO.N,N/C*%
X132400000Y-65000000D03*
%TD*%
%TO.P,REF\u002A\u002A,1*%
%TO.N,N/C*%
X172400000Y-65000000D03*
%TD*%
D11*
%TO.P,U1,*%
%TO.N,*%
X158000000Y-109760000D03*
X158000000Y-62760000D03*
X146600000Y-109760000D03*
X146600000Y-62760000D03*
D12*
%TO.P,U1,1,GP0*%
%TO.N,Net-(J3-Pin_5)*%
X161190000Y-110390000D03*
%TO.P,U1,2,GP1*%
%TO.N,Net-(J3-Pin_4)*%
X161190000Y-107850000D03*
%TO.P,U1,3,GND*%
%TO.N,unconnected-(U1-GND-Pad3)*%
X161190000Y-105310000D03*
%TO.P,U1,4,GP2*%
%TO.N,unconnected-(U1-GP2-Pad4)*%
X161190000Y-102770000D03*
%TO.P,U1,5,GP3*%
%TO.N,unconnected-(U1-GP3-Pad5)*%
X161190000Y-100230000D03*
%TO.P,U1,6,GP4*%
%TO.N,unconnected-(U1-GP4-Pad6)*%
X161190000Y-97690000D03*
%TO.P,U1,7,GP5*%
%TO.N,unconnected-(U1-GP5-Pad7)*%
X161190000Y-95150000D03*
%TO.P,U1,8,GND*%
%TO.N,unconnected-(U1-GND-Pad8)*%
X161190000Y-92610000D03*
%TO.P,U1,9,GP6*%
%TO.N,unconnected-(U1-GP6-Pad9)*%
X161190000Y-90070000D03*
%TO.P,U1,10,GP7*%
%TO.N,unconnected-(U1-GP7-Pad10)*%
X161190000Y-87530000D03*
%TO.P,U1,11,GP8*%
%TO.N,unconnected-(U1-GP8-Pad11)*%
X161190000Y-84990000D03*
%TO.P,U1,12,GP9*%
%TO.N,unconnected-(U1-GP9-Pad12)*%
X161190000Y-82450000D03*
%TO.P,U1,13,GND*%
%TO.N,unconnected-(U1-GND-Pad13)*%
X161190000Y-79910000D03*
%TO.P,U1,14,GP10*%
%TO.N,unconnected-(U1-GP10-Pad14)*%
X161190000Y-77370000D03*
%TO.P,U1,15,GP11*%
%TO.N,unconnected-(U1-GP11-Pad15)*%
X161190000Y-74830000D03*
%TO.P,U1,16,GP12*%
%TO.N,unconnected-(U1-GP12-Pad16)*%
X161190000Y-72290000D03*
%TO.P,U1,17,GP13*%
%TO.N,unconnected-(U1-GP13-Pad17)*%
X161190000Y-69750000D03*
%TO.P,U1,18,GND*%
%TO.N,unconnected-(U1-GND-Pad18)*%
X161190000Y-67210000D03*
%TO.P,U1,19,GP14*%
%TO.N,unconnected-(U1-GP14-Pad19)*%
X161190000Y-64670000D03*
%TO.P,U1,20,GP15*%
%TO.N,unconnected-(U1-GP15-Pad20)*%
X161190000Y-62130000D03*
%TO.P,U1,21,GP16*%
%TO.N,Net-(U1-GP16)*%
X143410000Y-62130000D03*
%TO.P,U1,22,GP17*%
%TO.N,Net-(U1-GP17)*%
X143410000Y-64670000D03*
%TO.P,U1,23,GND*%
%TO.N,unconnected-(U1-GND-Pad23)*%
X143410000Y-67210000D03*
%TO.P,U1,24,GP18*%
%TO.N,unconnected-(U1-GP18-Pad24)*%
X143410000Y-69750000D03*
%TO.P,U1,25,GP19*%
%TO.N,unconnected-(U1-GP19-Pad25)*%
X143410000Y-72290000D03*
%TO.P,U1,26,GP20*%
%TO.N,unconnected-(U1-GP20-Pad26)*%
X143410000Y-74830000D03*
%TO.P,U1,27,GP21*%
%TO.N,unconnected-(U1-GP21-Pad27)*%
X143410000Y-77370000D03*
%TO.P,U1,28,GND*%
%TO.N,unconnected-(U1-GND-Pad28)*%
X143410000Y-79910000D03*
%TO.P,U1,29,GP22*%
%TO.N,unconnected-(U1-GP22-Pad29)*%
X143410000Y-82450000D03*
%TO.P,U1,30,RUN*%
%TO.N,unconnected-(U1-RUN-Pad30)*%
X143410000Y-84990000D03*
%TO.P,U1,31,GP26*%
%TO.N,Net-(U1-GP26)*%
X143410000Y-87530000D03*
%TO.P,U1,32,GP27*%
%TO.N,Net-(U1-GP27)*%
X143410000Y-90070000D03*
%TO.P,U1,33,GND*%
%TO.N,unconnected-(U1-GND-Pad33)*%
X143410000Y-92610000D03*
%TO.P,U1,34,GP28*%
%TO.N,unconnected-(U1-GP28-Pad34)*%
X143410000Y-95150000D03*
%TO.P,U1,35,ADC_VREF*%
%TO.N,unconnected-(U1-ADC_VREF-Pad35)*%
X143410000Y-97690000D03*
%TO.P,U1,36,3V3(OUT)*%
%TO.N,+3V3*%
X143410000Y-100230000D03*
%TO.P,U1,37,3V3_EN*%
%TO.N,unconnected-(U1-3V3_EN-Pad37)*%
X143410000Y-102770000D03*
%TO.P,U1,38,GND*%
%TO.N,GND*%
X143410000Y-105310000D03*
%TO.P,U1,39,VSYS*%
%TO.N,Net-(J4-Pin_4)*%
X143410000Y-107850000D03*
%TO.P,U1,40,VBUS*%
%TO.N,unconnected-(U1-VBUS-Pad40)*%
X143410000Y-110390000D03*
D13*
%TO.P,U1,41,SWCLK*%
%TO.N,Net-(J4-Pin_1)*%
X154840000Y-62360000D03*
%TO.P,U1,42,GND*%
%TO.N,Net-(J4-Pin_2)*%
X152300000Y-62360000D03*
%TO.P,U1,43,SWDIO*%
%TO.N,Net-(J4-Pin_3)*%
X149760000Y-62360000D03*
%TD*%
D14*
%TO.P,R4,1*%
%TO.N,Net-(J1-Pad7)*%
X137160000Y-89600000D03*
D15*
%TO.P,R4,2*%
%TO.N,Net-(U1-GP17)*%
X137160000Y-76900000D03*
%TD*%
%TO.P,R3,2*%
%TO.N,Net-(U1-GP16)*%
X132080000Y-76900000D03*
D14*
%TO.P,R3,1*%
%TO.N,Net-(J1-Pad2)*%
X132080000Y-89600000D03*
%TD*%
%TO.P,R2,1*%
%TO.N,Net-(U1-GP27)*%
X132080000Y-106110000D03*
D15*
%TO.P,R2,2*%
%TO.N,GND*%
X132080000Y-93410000D03*
%TD*%
D14*
%TO.P,R1,1*%
%TO.N,Net-(U1-GP26)*%
X137160000Y-106110000D03*
D15*
%TO.P,R1,2*%
%TO.N,GND*%
X137160000Y-93410000D03*
%TD*%
D16*
%TO.P,J4,1,Pin_1*%
%TO.N,Net-(J4-Pin_1)*%
X170180000Y-73780000D03*
D17*
%TO.P,J4,2,Pin_2*%
%TO.N,Net-(J4-Pin_2)*%
X170180000Y-76280000D03*
%TO.P,J4,3,Pin_3*%
%TO.N,Net-(J4-Pin_3)*%
X170180000Y-78780000D03*
%TO.P,J4,4,Pin_4*%
%TO.N,Net-(J4-Pin_4)*%
X170180000Y-81280000D03*
%TD*%
D18*
%TO.P,J3,1,Pin_1*%
%TO.N,GND*%
X170180000Y-88900000D03*
D19*
%TO.P,J3,2,Pin_2*%
%TO.N,unconnected-(J3-Pin_2-Pad2)*%
X170180000Y-91440000D03*
%TO.P,J3,3,Pin_3*%
%TO.N,unconnected-(J3-Pin_3-Pad3)*%
X170180000Y-93980000D03*
%TO.P,J3,4,Pin_4*%
%TO.N,Net-(J3-Pin_4)*%
X170180000Y-96520000D03*
%TO.P,J3,5,Pin_5*%
%TO.N,Net-(J3-Pin_5)*%
X170180000Y-99060000D03*
%TO.P,J3,6,Pin_6*%
%TO.N,unconnected-(J3-Pin_6-Pad6)*%
X170180000Y-101600000D03*
%TD*%
D20*
%TO.P,J1,15,P15*%
%TO.N,unconnected-(J1-P15-Pad15)*%
X144070000Y-122220000D03*
%TO.P,J1,14,P14*%
%TO.N,unconnected-(J1-P14-Pad14)*%
X146840000Y-122220000D03*
%TO.P,J1,13,P13*%
%TO.N,unconnected-(J1-P13-Pad13)*%
X149610000Y-122220000D03*
%TO.P,J1,12,P12*%
%TO.N,unconnected-(J1-P12-Pad12)*%
X152380000Y-122220000D03*
%TO.P,J1,11,P111*%
%TO.N,unconnected-(J1-P111-Pad11)*%
X155150000Y-122220000D03*
%TO.P,J1,10,P10*%
%TO.N,unconnected-(J1-P10-Pad10)*%
X157920000Y-122220000D03*
%TO.P,J1,9,P9*%
%TO.N,unconnected-(J1-P9-Pad9)*%
X160690000Y-122220000D03*
%TO.P,J1,8,8*%
%TO.N,unconnected-(J1-Pad8)*%
X142685000Y-119380000D03*
%TO.P,J1,7,7*%
%TO.N,Net-(J1-Pad7)*%
X145455000Y-119380000D03*
%TO.P,J1,6,6*%
%TO.N,Net-(U1-GP27)*%
X148225000Y-119380000D03*
%TO.P,J1,5,5*%
%TO.N,unconnected-(J1-Pad5)*%
X150995000Y-119380000D03*
%TO.P,J1,4,4*%
%TO.N,GND*%
X153765000Y-119380000D03*
%TO.P,J1,3,3*%
%TO.N,Net-(U1-GP26)*%
X156535000Y-119380000D03*
%TO.P,J1,2,2*%
%TO.N,Net-(J1-Pad2)*%
X159305000Y-119380000D03*
D21*
%TO.P,J1,1,1*%
%TO.N,+3V3*%
X162075000Y-119380000D03*
D22*
%TO.P,J1,0*%
%TO.N,N/C*%
X135730000Y-120800000D03*
X169030000Y-120800000D03*
%TD*%
D20*
%TO.P,C2,1*%
%TO.N,Net-(U1-GP17)*%
X137160000Y-73090000D03*
%TO.P,C2,2*%
%TO.N,GND*%
X137160000Y-70590000D03*
%TD*%
%TO.P,C1,2*%
%TO.N,GND*%
X132080000Y-70630000D03*
%TO.P,C1,1*%
%TO.N,Net-(U1-GP16)*%
X132080000Y-73130000D03*
%TD*%
D23*
%TO.N,Net-(J1-Pad7)*%
X134620000Y-108545000D03*
%TO.N,Net-(U1-GP27)*%
X137160000Y-99060000D03*
%TO.N,Net-(J1-Pad7)*%
X134620000Y-101600000D03*
%TO.N,Net-(J4-Pin_4)*%
X147320000Y-101600000D03*
%TD*%
D24*
%TO.N,+3V3*%
X143410000Y-100230000D02*
X143410000Y-100715000D01*
X143410000Y-100715000D02*
X162075000Y-119380000D01*
%TO.N,Net-(J1-Pad2)*%
X159305000Y-119380000D02*
X154225000Y-114300000D01*
X142240000Y-114300000D02*
X138685000Y-110745000D01*
X138685000Y-110745000D02*
X138685000Y-103125000D01*
X134620000Y-92140000D02*
X132080000Y-89600000D01*
X154225000Y-114300000D02*
X142240000Y-114300000D01*
X138685000Y-103125000D02*
X134620000Y-99060000D01*
X134620000Y-99060000D02*
X134620000Y-92140000D01*
%TO.N,Net-(U1-GP27)*%
X137160000Y-96320000D02*
X137160000Y-99060000D01*
X143410000Y-90070000D02*
X137160000Y-96320000D01*
%TO.N,Net-(J1-Pad7)*%
X134620000Y-108545000D02*
X134620000Y-101600000D01*
%TO.N,Net-(J4-Pin_4)*%
X163005000Y-88455000D02*
X170180000Y-81280000D01*
X147320000Y-101600000D02*
X160465000Y-88455000D01*
X160465000Y-88455000D02*
X163005000Y-88455000D01*
%TD*%
%TA.AperFunction,Conductor*%
%TO.N,GND*%
G36*
X177337500Y-60017113D02*
G01*
X177382887Y-60062500D01*
X177399500Y-60124500D01*
X177399500Y-129875500D01*
X177382887Y-129937500D01*
X177337500Y-129982887D01*
X177275500Y-129999500D01*
X127524500Y-129999500D01*
X127462500Y-129982887D01*
X127417113Y-129937500D01*
X127400500Y-129875500D01*
X127400500Y-120800000D01*
X133224555Y-120800000D01*
X133244311Y-121114010D01*
X133303269Y-121423082D01*
X133400495Y-121722310D01*
X133534463Y-122007007D01*
X133703053Y-122272663D01*
X133903612Y-122515097D01*
X134132971Y-122730480D01*
X134387515Y-122915416D01*
X134525375Y-122991205D01*
X134663234Y-123066994D01*
X134809504Y-123124906D01*
X134955774Y-123182819D01*
X135061051Y-123209849D01*
X135260527Y-123261066D01*
X135493811Y-123290536D01*
X135572680Y-123300500D01*
X135572682Y-123300500D01*
X135887318Y-123300500D01*
X135887320Y-123300500D01*
X135957341Y-123291653D01*
X136199473Y-123261066D01*
X136504225Y-123182819D01*
X136796766Y-123066994D01*
X137072484Y-122915416D01*
X137131231Y-122872734D01*
X137327028Y-122730480D01*
X137556387Y-122515097D01*
X137556387Y-122515096D01*
X137556390Y-122515094D01*
X137756947Y-122272663D01*
X137790369Y-122219999D01*
X142764531Y-122219999D01*
X142784364Y-122446689D01*
X142843261Y-122666497D01*
X142939432Y-122872735D01*
X143069953Y-123059140D01*
X143230859Y-123220046D01*
X143417264Y-123350567D01*
X143417265Y-123350567D01*
X143417266Y-123350568D01*
X143623504Y-123446739D01*
X143843308Y-123505635D01*
X144070000Y-123525468D01*
X144296692Y-123505635D01*
X144516496Y-123446739D01*
X144722734Y-123350568D01*
X144909139Y-123220047D01*
X145070047Y-123059139D01*
X145200568Y-122872734D01*
X145296739Y-122666496D01*
X145335224Y-122522864D01*
X145367319Y-122467276D01*
X145422906Y-122435182D01*
X145487094Y-122435182D01*
X145542681Y-122467276D01*
X145574775Y-122522864D01*
X145613261Y-122666496D01*
X145709432Y-122872735D01*
X145839953Y-123059140D01*
X146000859Y-123220046D01*
X146187264Y-123350567D01*
X146187265Y-123350567D01*
X146187266Y-123350568D01*
X146393504Y-123446739D01*
X146613308Y-123505635D01*
X146840000Y-123525468D01*
X147066692Y-123505635D01*
X147286496Y-123446739D01*
X147492734Y-123350568D01*
X147679139Y-123220047D01*
X147840047Y-123059139D01*
X147970568Y-122872734D01*
X148066739Y-122666496D01*
X148105224Y-122522864D01*
X148137319Y-122467276D01*
X148192906Y-122435182D01*
X148257094Y-122435182D01*
X148312681Y-122467276D01*
X148344775Y-122522864D01*
X148383261Y-122666496D01*
X148479432Y-122872735D01*
X148609953Y-123059140D01*
X148770859Y-123220046D01*
X148957264Y-123350567D01*
X148957265Y-123350567D01*
X148957266Y-123350568D01*
X149163504Y-123446739D01*
X149383308Y-123505635D01*
X149610000Y-123525468D01*
X149836692Y-123505635D01*
X150056496Y-123446739D01*
X150262734Y-123350568D01*
X150449139Y-123220047D01*
X150610047Y-123059139D01*
X150740568Y-122872734D01*
X150836739Y-122666496D01*
X150875224Y-122522864D01*
X150907319Y-122467276D01*
X150962906Y-122435182D01*
X151027094Y-122435182D01*
X151082681Y-122467276D01*
X151114775Y-122522864D01*
X151153261Y-122666496D01*
X151249432Y-122872735D01*
X151379953Y-123059140D01*
X151540859Y-123220046D01*
X151727264Y-123350567D01*
X151727265Y-123350567D01*
X151727266Y-123350568D01*
X151933504Y-123446739D01*
X152153308Y-123505635D01*
X152380000Y-123525468D01*
X152606692Y-123505635D01*
X152826496Y-123446739D01*
X153032734Y-123350568D01*
X153219139Y-123220047D01*
X153380047Y-123059139D01*
X153510568Y-122872734D01*
X153606739Y-122666496D01*
X153645224Y-122522864D01*
X153677319Y-122467276D01*
X153732906Y-122435182D01*
X153797094Y-122435182D01*
X153852681Y-122467276D01*
X153884775Y-122522864D01*
X153923261Y-122666496D01*
X154019432Y-122872735D01*
X154149953Y-123059140D01*
X154310859Y-123220046D01*
X154497264Y-123350567D01*
X154497265Y-123350567D01*
X154497266Y-123350568D01*
X154703504Y-123446739D01*
X154923308Y-123505635D01*
X155150000Y-123525468D01*
X155376692Y-123505635D01*
X155596496Y-123446739D01*
X155802734Y-123350568D01*
X155989139Y-123220047D01*
X156150047Y-123059139D01*
X156280568Y-122872734D01*
X156376739Y-122666496D01*
X156415224Y-122522864D01*
X156447319Y-122467276D01*
X156502906Y-122435182D01*
X156567094Y-122435182D01*
X156622681Y-122467276D01*
X156654775Y-122522864D01*
X156693261Y-122666496D01*
X156789432Y-122872735D01*
X156919953Y-123059140D01*
X157080859Y-123220046D01*
X157267264Y-123350567D01*
X157267265Y-123350567D01*
X157267266Y-123350568D01*
X157473504Y-123446739D01*
X157693308Y-123505635D01*
X157920000Y-123525468D01*
X158146692Y-123505635D01*
X158366496Y-123446739D01*
X158572734Y-123350568D01*
X158759139Y-123220047D01*
X158920047Y-123059139D01*
X159050568Y-122872734D01*
X159146739Y-122666496D01*
X159185224Y-122522864D01*
X159217319Y-122467276D01*
X159272906Y-122435182D01*
X159337094Y-122435182D01*
X159392681Y-122467276D01*
X159424775Y-122522864D01*
X159463261Y-122666496D01*
X159559432Y-122872735D01*
X159689953Y-123059140D01*
X159850859Y-123220046D01*
X160037264Y-123350567D01*
X160037265Y-123350567D01*
X160037266Y-123350568D01*
X160243504Y-123446739D01*
X160463308Y-123505635D01*
X160690000Y-123525468D01*
X160916692Y-123505635D01*
X161136496Y-123446739D01*
X161342734Y-123350568D01*
X161529139Y-123220047D01*
X161690047Y-123059139D01*
X161820568Y-122872734D01*
X161916739Y-122666496D01*
X161975635Y-122446692D01*
X161995468Y-122220000D01*
X161975635Y-121993308D01*
X161916739Y-121773504D01*
X161820568Y-121567266D01*
X161719610Y-121423082D01*
X161690046Y-121380859D01*
X161529140Y-121219953D01*
X161342735Y-121089432D01*
X161136497Y-120993261D01*
X160916689Y-120934364D01*
X160690000Y-120914531D01*
X160463310Y-120934364D01*
X160243502Y-120993261D01*
X160037264Y-121089432D01*
X159850859Y-121219953D01*
X159689953Y-121380859D01*
X159559432Y-121567264D01*
X159463261Y-121773502D01*
X159424775Y-121917136D01*
X159392681Y-121972723D01*
X159337094Y-122004817D01*
X159272906Y-122004817D01*
X159217319Y-121972723D01*
X159185225Y-121917136D01*
X159146738Y-121773502D01*
X159050567Y-121567264D01*
X158920046Y-121380859D01*
X158759140Y-121219953D01*
X158572735Y-121089432D01*
X158366497Y-120993261D01*
X158146689Y-120934364D01*
X157920000Y-120914531D01*
X157693310Y-120934364D01*
X157473502Y-120993261D01*
X157267264Y-121089432D01*
X157080859Y-121219953D01*
X156919953Y-121380859D01*
X156789432Y-121567264D01*
X156693261Y-121773502D01*
X156654775Y-121917136D01*
X156622681Y-121972723D01*
X156567094Y-122004817D01*
X156502906Y-122004817D01*
X156447319Y-121972723D01*
X156415225Y-121917136D01*
X156376738Y-121773502D01*
X156280567Y-121567264D01*
X156150046Y-121380859D01*
X155989140Y-121219953D01*
X155802735Y-121089432D01*
X155596497Y-120993261D01*
X155376689Y-120934364D01*
X155150000Y-120914531D01*
X154923310Y-120934364D01*
X154703502Y-120993261D01*
X154497264Y-121089432D01*
X154310859Y-121219953D01*
X154149953Y-121380859D01*
X154019432Y-121567264D01*
X153923261Y-121773502D01*
X153884775Y-121917136D01*
X153852681Y-121972723D01*
X153797094Y-122004817D01*
X153732906Y-122004817D01*
X153677319Y-121972723D01*
X153645225Y-121917136D01*
X153606738Y-121773502D01*
X153510567Y-121567264D01*
X153380046Y-121380859D01*
X153219140Y-121219953D01*
X153032735Y-121089432D01*
X152826497Y-120993261D01*
X152606689Y-120934364D01*
X152380000Y-120914531D01*
X152153310Y-120934364D01*
X151933502Y-120993261D01*
X151727264Y-121089432D01*
X151540859Y-121219953D01*
X151379953Y-121380859D01*
X151249432Y-121567264D01*
X151153261Y-121773502D01*
X151114775Y-121917136D01*
X151082681Y-121972723D01*
X151027094Y-122004817D01*
X150962906Y-122004817D01*
X150907319Y-121972723D01*
X150875225Y-121917136D01*
X150836738Y-121773502D01*
X150740567Y-121567264D01*
X150610046Y-121380859D01*
X150449140Y-121219953D01*
X150262735Y-121089432D01*
X150056497Y-120993261D01*
X149836689Y-120934364D01*
X149610000Y-120914531D01*
X149383310Y-120934364D01*
X149163502Y-120993261D01*
X148957264Y-121089432D01*
X148770859Y-121219953D01*
X148609953Y-121380859D01*
X148479432Y-121567264D01*
X148383261Y-121773502D01*
X148344775Y-121917136D01*
X148312681Y-121972723D01*
X148257094Y-122004817D01*
X148192906Y-122004817D01*
X148137319Y-121972723D01*
X148105225Y-121917136D01*
X148066738Y-121773502D01*
X147970567Y-121567264D01*
X147840046Y-121380859D01*
X147679140Y-121219953D01*
X147492735Y-121089432D01*
X147286497Y-120993261D01*
X147066689Y-120934364D01*
X146840000Y-120914531D01*
X146613310Y-120934364D01*
X146393502Y-120993261D01*
X146187264Y-121089432D01*
X146000859Y-121219953D01*
X145839953Y-121380859D01*
X145709432Y-121567264D01*
X145613261Y-121773502D01*
X145574775Y-121917136D01*
X145542681Y-121972723D01*
X145487094Y-122004817D01*
X145422906Y-122004817D01*
X145367319Y-121972723D01*
X145335225Y-121917136D01*
X145296738Y-121773502D01*
X145200567Y-121567264D01*
X145070046Y-121380859D01*
X144909140Y-121219953D01*
X144722735Y-121089432D01*
X144516497Y-120993261D01*
X144296689Y-120934364D01*
X144070000Y-120914531D01*
X143843310Y-120934364D01*
X143623502Y-120993261D01*
X143417264Y-121089432D01*
X143230859Y-121219953D01*
X143069953Y-121380859D01*
X142939432Y-121567264D01*
X142843261Y-121773502D01*
X142784364Y-121993310D01*
X142764531Y-122219999D01*
X137790369Y-122219999D01*
X137925537Y-122007007D01*
X138059503Y-121722315D01*
X138156731Y-121423079D01*
X138215688Y-121114015D01*
X138235444Y-120800000D01*
X138235444Y-120799999D01*
X166524555Y-120799999D01*
X166544311Y-121114010D01*
X166603269Y-121423082D01*
X166700495Y-121722310D01*
X166834463Y-122007007D01*
X167003053Y-122272663D01*
X167203612Y-122515097D01*
X167432971Y-122730480D01*
X167687515Y-122915416D01*
X167825375Y-122991205D01*
X167963234Y-123066994D01*
X168109504Y-123124906D01*
X168255774Y-123182819D01*
X168361051Y-123209849D01*
X168560527Y-123261066D01*
X168793811Y-123290536D01*
X168872680Y-123300500D01*
X168872682Y-123300500D01*
X169187318Y-123300500D01*
X169187320Y-123300500D01*
X169257341Y-123291653D01*
X169499473Y-123261066D01*
X169804225Y-123182819D01*
X170096766Y-123066994D01*
X170372484Y-122915416D01*
X170431231Y-122872734D01*
X170627028Y-122730480D01*
X170856387Y-122515097D01*
X170856387Y-122515096D01*
X170856390Y-122515094D01*
X171056947Y-122272663D01*
X171225537Y-122007007D01*
X171359503Y-121722315D01*
X171456731Y-121423079D01*
X171515688Y-121114015D01*
X171535444Y-120800000D01*
X171515688Y-120485985D01*
X171456731Y-120176921D01*
X171433515Y-120105471D01*
X171359504Y-119877689D01*
X171359503Y-119877685D01*
X171225537Y-119592993D01*
X171056947Y-119327337D01*
X170856390Y-119084906D01*
X170856387Y-119084902D01*
X170627028Y-118869519D01*
X170372484Y-118684583D01*
X170096764Y-118533005D01*
X169804225Y-118417180D01*
X169499474Y-118338934D01*
X169187320Y-118299500D01*
X169187318Y-118299500D01*
X168872682Y-118299500D01*
X168872680Y-118299500D01*
X168560525Y-118338934D01*
X168255774Y-118417180D01*
X167963235Y-118533005D01*
X167687515Y-118684583D01*
X167432971Y-118869519D01*
X167203612Y-119084902D01*
X167003053Y-119327336D01*
X166834463Y-119592992D01*
X166700495Y-119877689D01*
X166603269Y-120176917D01*
X166544311Y-120485989D01*
X166524555Y-120799999D01*
X138235444Y-120799999D01*
X138215688Y-120485985D01*
X138156731Y-120176921D01*
X138133515Y-120105471D01*
X138059504Y-119877689D01*
X138059503Y-119877685D01*
X137925537Y-119592993D01*
X137790367Y-119379999D01*
X141379531Y-119379999D01*
X141399364Y-119606689D01*
X141458261Y-119826497D01*
X141554432Y-120032735D01*
X141684953Y-120219140D01*
X141845859Y-120380046D01*
X142032264Y-120510567D01*
X142032265Y-120510567D01*
X142032266Y-120510568D01*
X142238504Y-120606739D01*
X142458308Y-120665635D01*
X142685000Y-120685468D01*
X142911692Y-120665635D01*
X143131496Y-120606739D01*
X143337734Y-120510568D01*
X143524139Y-120380047D01*
X143685047Y-120219139D01*
X143815568Y-120032734D01*
X143911739Y-119826496D01*
X143950224Y-119682864D01*
X143982319Y-119627276D01*
X144037906Y-119595182D01*
X144102094Y-119595182D01*
X144157681Y-119627276D01*
X144189775Y-119682864D01*
X144228261Y-119826496D01*
X144324432Y-120032735D01*
X144454953Y-120219140D01*
X144615859Y-120380046D01*
X144802264Y-120510567D01*
X144802265Y-120510567D01*
X144802266Y-120510568D01*
X145008504Y-120606739D01*
X145228308Y-120665635D01*
X145455000Y-120685468D01*
X145681692Y-120665635D01*
X145901496Y-120606739D01*
X146107734Y-120510568D01*
X146294139Y-120380047D01*
X146455047Y-120219139D01*
X146585568Y-120032734D01*
X146681739Y-119826496D01*
X146720224Y-119682864D01*
X146752319Y-119627276D01*
X146807906Y-119595182D01*
X146872094Y-119595182D01*
X146927681Y-119627276D01*
X146959775Y-119682864D01*
X146998261Y-119826496D01*
X147094432Y-120032735D01*
X147224953Y-120219140D01*
X147385859Y-120380046D01*
X147572264Y-120510567D01*
X147572265Y-120510567D01*
X147572266Y-120510568D01*
X147778504Y-120606739D01*
X147998308Y-120665635D01*
X148225000Y-120685468D01*
X148451692Y-120665635D01*
X148671496Y-120606739D01*
X148877734Y-120510568D01*
X149064139Y-120380047D01*
X149225047Y-120219139D01*
X149355568Y-120032734D01*
X149451739Y-119826496D01*
X149490224Y-119682864D01*
X149522319Y-119627276D01*
X149577906Y-119595182D01*
X149642094Y-119595182D01*
X149697681Y-119627276D01*
X149729775Y-119682864D01*
X149768261Y-119826496D01*
X149864432Y-120032735D01*
X149994953Y-120219140D01*
X150155859Y-120380046D01*
X150342264Y-120510567D01*
X150342265Y-120510567D01*
X150342266Y-120510568D01*
X150548504Y-120606739D01*
X150768308Y-120665635D01*
X150995000Y-120685468D01*
X151221692Y-120665635D01*
X151441496Y-120606739D01*
X151647734Y-120510568D01*
X151721344Y-120459026D01*
X153039526Y-120459026D01*
X153112515Y-120510133D01*
X153318673Y-120606266D01*
X153538397Y-120665141D01*
X153765000Y-120684966D01*
X153991602Y-120665141D01*
X154211326Y-120606266D01*
X154417480Y-120510134D01*
X154490472Y-120459025D01*
X153765001Y-119733553D01*
X153765000Y-119733553D01*
X153039526Y-120459025D01*
X153039526Y-120459026D01*
X151721344Y-120459026D01*
X151834139Y-120380047D01*
X151995047Y-120219139D01*
X152125568Y-120032734D01*
X152221739Y-119826496D01*
X152260483Y-119681897D01*
X152292576Y-119626311D01*
X152348164Y-119594217D01*
X152412351Y-119594217D01*
X152467939Y-119626310D01*
X152500033Y-119681898D01*
X152538733Y-119826326D01*
X152634866Y-120032484D01*
X152685972Y-120105471D01*
X152685974Y-120105472D01*
X153411446Y-119380001D01*
X153411446Y-119380000D01*
X152685973Y-118654526D01*
X152685973Y-118654527D01*
X152634865Y-118727516D01*
X152538734Y-118933671D01*
X152500033Y-119078102D01*
X152467939Y-119133689D01*
X152412351Y-119165782D01*
X152348164Y-119165782D01*
X152292576Y-119133688D01*
X152260483Y-119078100D01*
X152260225Y-119077136D01*
X152221739Y-118933504D01*
X152125568Y-118727266D01*
X152095681Y-118684583D01*
X151995046Y-118540859D01*
X151834140Y-118379953D01*
X151721344Y-118300973D01*
X153039526Y-118300973D01*
X153765000Y-119026446D01*
X153765001Y-119026446D01*
X154490472Y-118300974D01*
X154490471Y-118300972D01*
X154417484Y-118249866D01*
X154211326Y-118153733D01*
X153991602Y-118094858D01*
X153765000Y-118075033D01*
X153538397Y-118094858D01*
X153318672Y-118153733D01*
X153112516Y-118249865D01*
X153039527Y-118300973D01*
X153039526Y-118300973D01*
X151721344Y-118300973D01*
X151647735Y-118249432D01*
X151441497Y-118153261D01*
X151221689Y-118094364D01*
X150995000Y-118074531D01*
X150768310Y-118094364D01*
X150548502Y-118153261D01*
X150342264Y-118249432D01*
X150155859Y-118379953D01*
X149994953Y-118540859D01*
X149864432Y-118727264D01*
X149768261Y-118933502D01*
X149729775Y-119077136D01*
X149697681Y-119132723D01*
X149642094Y-119164817D01*
X149577906Y-119164817D01*
X149522319Y-119132723D01*
X149490225Y-119077136D01*
X149473790Y-119015800D01*
X149451739Y-118933504D01*
X149355568Y-118727266D01*
X149325681Y-118684583D01*
X149225046Y-118540859D01*
X149064140Y-118379953D01*
X148877735Y-118249432D01*
X148671497Y-118153261D01*
X148451689Y-118094364D01*
X148225000Y-118074531D01*
X147998310Y-118094364D01*
X147778502Y-118153261D01*
X147572264Y-118249432D01*
X147385859Y-118379953D01*
X147224953Y-118540859D01*
X147094432Y-118727264D01*
X146998261Y-118933502D01*
X146959775Y-119077136D01*
X146927681Y-119132723D01*
X146872094Y-119164817D01*
X146807906Y-119164817D01*
X146752319Y-119132723D01*
X146720225Y-119077136D01*
X146703790Y-119015800D01*
X146681739Y-118933504D01*
X146585568Y-118727266D01*
X146555681Y-118684583D01*
X146455046Y-118540859D01*
X146294140Y-118379953D01*
X146107735Y-118249432D01*
X145901497Y-118153261D01*
X145681689Y-118094364D01*
X145455000Y-118074531D01*
X145228310Y-118094364D01*
X145008502Y-118153261D01*
X144802264Y-118249432D01*
X144615859Y-118379953D01*
X144454953Y-118540859D01*
X144324432Y-118727264D01*
X144228261Y-118933502D01*
X144189775Y-119077136D01*
X144157681Y-119132723D01*
X144102094Y-119164817D01*
X144037906Y-119164817D01*
X143982319Y-119132723D01*
X143950225Y-119077136D01*
X143933790Y-119015800D01*
X143911739Y-118933504D01*
X143815568Y-118727266D01*
X143785681Y-118684583D01*
X143685046Y-118540859D01*
X143524140Y-118379953D01*
X143337735Y-118249432D01*
X143131497Y-118153261D01*
X142911689Y-118094364D01*
X142685000Y-118074531D01*
X142458310Y-118094364D01*
X142238502Y-118153261D01*
X142032264Y-118249432D01*
X141845859Y-118379953D01*
X141684953Y-118540859D01*
X141554432Y-118727264D01*
X141458261Y-118933502D01*
X141399364Y-119153310D01*
X141379531Y-119379999D01*
X137790367Y-119379999D01*
X137756947Y-119327337D01*
X137556390Y-119084906D01*
X137556387Y-119084902D01*
X137327028Y-118869519D01*
X137072484Y-118684583D01*
X136796764Y-118533005D01*
X136504225Y-118417180D01*
X136199474Y-118338934D01*
X135887320Y-118299500D01*
X135887318Y-118299500D01*
X135572682Y-118299500D01*
X135572680Y-118299500D01*
X135260525Y-118338934D01*
X134955774Y-118417180D01*
X134663235Y-118533005D01*
X134387515Y-118684583D01*
X134132971Y-118869519D01*
X133903612Y-119084902D01*
X133703053Y-119327336D01*
X133534463Y-119592992D01*
X133400495Y-119877689D01*
X133303269Y-120176917D01*
X133244311Y-120485989D01*
X133224555Y-120800000D01*
X127400500Y-120800000D01*
X127400500Y-113000000D01*
X128694422Y-113000000D01*
X128714722Y-113387340D01*
X128775396Y-113770429D01*
X128875785Y-114145086D01*
X129014785Y-114507193D01*
X129190876Y-114852793D01*
X129402121Y-115178080D01*
X129402124Y-115178084D01*
X129646219Y-115479516D01*
X129920484Y-115753781D01*
X130221916Y-115997876D01*
X130221918Y-115997877D01*
X130221919Y-115997878D01*
X130547206Y-116209123D01*
X130892806Y-116385214D01*
X131254913Y-116524214D01*
X131629570Y-116624603D01*
X131821114Y-116654939D01*
X132012662Y-116685278D01*
X132400000Y-116705578D01*
X132787338Y-116685278D01*
X133036686Y-116645785D01*
X133170429Y-116624603D01*
X133170433Y-116624602D01*
X133545087Y-116524214D01*
X133907194Y-116385214D01*
X134252789Y-116209125D01*
X134252788Y-116209125D01*
X134252793Y-116209123D01*
X134415436Y-116103500D01*
X134578084Y-115997876D01*
X134879516Y-115753781D01*
X135153781Y-115479516D01*
X135397876Y-115178084D01*
X135558880Y-114930160D01*
X135609123Y-114852793D01*
X135690302Y-114693469D01*
X135785214Y-114507194D01*
X135924214Y-114145087D01*
X136024602Y-113770433D01*
X136024734Y-113769604D01*
X136045785Y-113636686D01*
X136085278Y-113387338D01*
X136105578Y-113000000D01*
X136085278Y-112612662D01*
X136054939Y-112421114D01*
X136024603Y-112229570D01*
X135924214Y-111854913D01*
X135785214Y-111492806D01*
X135609123Y-111147206D01*
X135397878Y-110821919D01*
X135375375Y-110794130D01*
X135153781Y-110520484D01*
X134879516Y-110246219D01*
X134578084Y-110002124D01*
X134578082Y-110002123D01*
X134578080Y-110002121D01*
X134252793Y-109790876D01*
X133907193Y-109614785D01*
X133545086Y-109475785D01*
X133170429Y-109375396D01*
X132787340Y-109314722D01*
X132400000Y-109294422D01*
X132012659Y-109314722D01*
X131629570Y-109375396D01*
X131254913Y-109475785D01*
X130892806Y-109614785D01*
X130547206Y-109790876D01*
X130221919Y-110002121D01*
X129920480Y-110246222D01*
X129646222Y-110520480D01*
X129402121Y-110821919D01*
X129190876Y-111147206D01*
X129014785Y-111492806D01*
X128875785Y-111854913D01*
X128775396Y-112229570D01*
X128714722Y-112612659D01*
X128694422Y-113000000D01*
X127400500Y-113000000D01*
X127400500Y-106109999D01*
X130374731Y-106109999D01*
X130393777Y-106364154D01*
X130450492Y-106612637D01*
X130543608Y-106849891D01*
X130671038Y-107070607D01*
X130671041Y-107070612D01*
X130829950Y-107269877D01*
X131016783Y-107443232D01*
X131227366Y-107586805D01*
X131456996Y-107697389D01*
X131700542Y-107772513D01*
X131952565Y-107810500D01*
X132207435Y-107810500D01*
X132459458Y-107772513D01*
X132703004Y-107697389D01*
X132932634Y-107586805D01*
X133143217Y-107443232D01*
X133330050Y-107269877D01*
X133488959Y-107070612D01*
X133616393Y-106849888D01*
X133709508Y-106612637D01*
X133749609Y-106436942D01*
X133776512Y-106383652D01*
X133825198Y-106349108D01*
X133884384Y-106341316D01*
X133940352Y-106362082D01*
X133980130Y-106406595D01*
X133994500Y-106464536D01*
X133994500Y-107846313D01*
X133986264Y-107890751D01*
X133962652Y-107929282D01*
X133929545Y-107966051D01*
X133887464Y-108012786D01*
X133792820Y-108176715D01*
X133734326Y-108356742D01*
X133714540Y-108545000D01*
X133734326Y-108733257D01*
X133792820Y-108913284D01*
X133887466Y-109077216D01*
X134014129Y-109217889D01*
X134167269Y-109329151D01*
X134340197Y-109406144D01*
X134525352Y-109445500D01*
X134525354Y-109445500D01*
X134714646Y-109445500D01*
X134714648Y-109445500D01*
X134838083Y-109419262D01*
X134899803Y-109406144D01*
X135072730Y-109329151D01*
X135120531Y-109294422D01*
X135225870Y-109217889D01*
X135352533Y-109077216D01*
X135447179Y-108913284D01*
X135459758Y-108874570D01*
X135505674Y-108733256D01*
X135525460Y-108545000D01*
X135505674Y-108356744D01*
X135447179Y-108176716D01*
X135447179Y-108176715D01*
X135352535Y-108012786D01*
X135339427Y-107998229D01*
X135277347Y-107929282D01*
X135253736Y-107890751D01*
X135245500Y-107846313D01*
X135245500Y-106464536D01*
X135259870Y-106406595D01*
X135299648Y-106362082D01*
X135355616Y-106341316D01*
X135414802Y-106349108D01*
X135463488Y-106383652D01*
X135490391Y-106436943D01*
X135530492Y-106612637D01*
X135623608Y-106849891D01*
X135751038Y-107070607D01*
X135751041Y-107070612D01*
X135909950Y-107269877D01*
X136096783Y-107443232D01*
X136307366Y-107586805D01*
X136536996Y-107697389D01*
X136780542Y-107772513D01*
X137032565Y-107810500D01*
X137287435Y-107810500D01*
X137539458Y-107772513D01*
X137783004Y-107697389D01*
X137881699Y-107649859D01*
X137942453Y-107637775D01*
X138001472Y-107656586D01*
X138044028Y-107701599D01*
X138059500Y-107761580D01*
X138059500Y-110662256D01*
X138057235Y-110682762D01*
X138059439Y-110752873D01*
X138059500Y-110756768D01*
X138059500Y-110784349D01*
X138060003Y-110788334D01*
X138060918Y-110799967D01*
X138062290Y-110843626D01*
X138067879Y-110862860D01*
X138071825Y-110881916D01*
X138074335Y-110901792D01*
X138090414Y-110942404D01*
X138094197Y-110953451D01*
X138106382Y-110995391D01*
X138116580Y-111012635D01*
X138125136Y-111030100D01*
X138132514Y-111048732D01*
X138132515Y-111048733D01*
X138158180Y-111084059D01*
X138164593Y-111093822D01*
X138186826Y-111131416D01*
X138186829Y-111131419D01*
X138186830Y-111131420D01*
X138200995Y-111145585D01*
X138213627Y-111160375D01*
X138225406Y-111176587D01*
X138259058Y-111204426D01*
X138267699Y-111212289D01*
X141739196Y-114683787D01*
X141752096Y-114699888D01*
X141803223Y-114747900D01*
X141806020Y-114750611D01*
X141825529Y-114770120D01*
X141828711Y-114772588D01*
X141837571Y-114780155D01*
X141869418Y-114810062D01*
X141886970Y-114819711D01*
X141903238Y-114830397D01*
X141919064Y-114842673D01*
X141959146Y-114860017D01*
X141969633Y-114865155D01*
X142007907Y-114886197D01*
X142016410Y-114888379D01*
X142027308Y-114891178D01*
X142045713Y-114897478D01*
X142064104Y-114905437D01*
X142107250Y-114912270D01*
X142118668Y-114914635D01*
X142160981Y-114925500D01*
X142181016Y-114925500D01*
X142200415Y-114927027D01*
X142220196Y-114930160D01*
X142263674Y-114926050D01*
X142275344Y-114925500D01*
X153914548Y-114925500D01*
X153962001Y-114934939D01*
X154002229Y-114961819D01*
X156944100Y-117903691D01*
X156976194Y-117959278D01*
X156976194Y-118023465D01*
X156944100Y-118079053D01*
X156888513Y-118111147D01*
X156824326Y-118111147D01*
X156761691Y-118094364D01*
X156535000Y-118074531D01*
X156308310Y-118094364D01*
X156088502Y-118153261D01*
X155882264Y-118249432D01*
X155695859Y-118379953D01*
X155534953Y-118540859D01*
X155404432Y-118727264D01*
X155308261Y-118933502D01*
X155269516Y-119078101D01*
X155237422Y-119133688D01*
X155181834Y-119165782D01*
X155117647Y-119165782D01*
X155062060Y-119133688D01*
X155029966Y-119078101D01*
X154991266Y-118933673D01*
X154895133Y-118727515D01*
X154844025Y-118654526D01*
X154118553Y-119380000D01*
X154118553Y-119380001D01*
X154844025Y-120105472D01*
X154895134Y-120032480D01*
X154991266Y-119826327D01*
X155029966Y-119681898D01*
X155062060Y-119626311D01*
X155117647Y-119594217D01*
X155181834Y-119594217D01*
X155237422Y-119626311D01*
X155269516Y-119681898D01*
X155308261Y-119826497D01*
X155404432Y-120032735D01*
X155534953Y-120219140D01*
X155695859Y-120380046D01*
X155882264Y-120510567D01*
X155882265Y-120510567D01*
X155882266Y-120510568D01*
X156088504Y-120606739D01*
X156308308Y-120665635D01*
X156535000Y-120685468D01*
X156761692Y-120665635D01*
X156981496Y-120606739D01*
X157187734Y-120510568D01*
X157374139Y-120380047D01*
X157535047Y-120219139D01*
X157665568Y-120032734D01*
X157761739Y-119826496D01*
X157800224Y-119682864D01*
X157832319Y-119627276D01*
X157887906Y-119595182D01*
X157952094Y-119595182D01*
X158007681Y-119627276D01*
X158039775Y-119682864D01*
X158078261Y-119826496D01*
X158174432Y-120032735D01*
X158304953Y-120219140D01*
X158465859Y-120380046D01*
X158652264Y-120510567D01*
X158652265Y-120510567D01*
X158652266Y-120510568D01*
X158858504Y-120606739D01*
X159078308Y-120665635D01*
X159305000Y-120685468D01*
X159531692Y-120665635D01*
X159751496Y-120606739D01*
X159957734Y-120510568D01*
X160144139Y-120380047D01*
X160305047Y-120219139D01*
X160435568Y-120032734D01*
X160531739Y-119826496D01*
X160531738Y-119826496D01*
X160536324Y-119816664D01*
X160537814Y-119817359D01*
X160559071Y-119778606D01*
X160608082Y-119745852D01*
X160666679Y-119739431D01*
X160721620Y-119760794D01*
X160760488Y-119805112D01*
X160774500Y-119862371D01*
X160774500Y-120227869D01*
X160780909Y-120287483D01*
X160831204Y-120422331D01*
X160917454Y-120537546D01*
X161032669Y-120623796D01*
X161167517Y-120674091D01*
X161227127Y-120680500D01*
X162922872Y-120680499D01*
X162982483Y-120674091D01*
X163117331Y-120623796D01*
X163232546Y-120537546D01*
X163318796Y-120422331D01*
X163369091Y-120287483D01*
X163375500Y-120227873D01*
X163375499Y-118532128D01*
X163369091Y-118472517D01*
X163318796Y-118337669D01*
X163232546Y-118222454D01*
X163117331Y-118136204D01*
X162982483Y-118085909D01*
X162922873Y-118079500D01*
X162922869Y-118079500D01*
X161710453Y-118079500D01*
X161663000Y-118070061D01*
X161622772Y-118043181D01*
X156579591Y-113000000D01*
X168694422Y-113000000D01*
X168714722Y-113387340D01*
X168775396Y-113770429D01*
X168875785Y-114145086D01*
X169014785Y-114507193D01*
X169190876Y-114852793D01*
X169402121Y-115178080D01*
X169402124Y-115178084D01*
X169646219Y-115479516D01*
X169920484Y-115753781D01*
X170221916Y-115997876D01*
X170221918Y-115997877D01*
X170221919Y-115997878D01*
X170547206Y-116209123D01*
X170892806Y-116385214D01*
X171254913Y-116524214D01*
X171629570Y-116624603D01*
X171821114Y-116654939D01*
X172012662Y-116685278D01*
X172400000Y-116705578D01*
X172787338Y-116685278D01*
X173036686Y-116645785D01*
X173170429Y-116624603D01*
X173170433Y-116624602D01*
X173545087Y-116524214D01*
X173907194Y-116385214D01*
X174252789Y-116209125D01*
X174252788Y-116209125D01*
X174252793Y-116209123D01*
X174415436Y-116103500D01*
X174578084Y-115997876D01*
X174879516Y-115753781D01*
X175153781Y-115479516D01*
X175397876Y-115178084D01*
X175558880Y-114930160D01*
X175609123Y-114852793D01*
X175690302Y-114693469D01*
X175785214Y-114507194D01*
X175924214Y-114145087D01*
X176024602Y-113770433D01*
X176024734Y-113769604D01*
X176045785Y-113636686D01*
X176085278Y-113387338D01*
X176105578Y-113000000D01*
X176085278Y-112612662D01*
X176054939Y-112421114D01*
X176024603Y-112229570D01*
X175924214Y-111854913D01*
X175785214Y-111492806D01*
X175609123Y-111147206D01*
X175397878Y-110821919D01*
X175375375Y-110794130D01*
X175153781Y-110520484D01*
X174879516Y-110246219D01*
X174578084Y-110002124D01*
X174578082Y-110002123D01*
X174578080Y-110002121D01*
X174252793Y-109790876D01*
X173907193Y-109614785D01*
X173545086Y-109475785D01*
X173170429Y-109375396D01*
X172787340Y-109314722D01*
X172400000Y-109294422D01*
X172012659Y-109314722D01*
X171629570Y-109375396D01*
X171254913Y-109475785D01*
X170892806Y-109614785D01*
X170547206Y-109790876D01*
X170221919Y-110002121D01*
X169920480Y-110246222D01*
X169646222Y-110520480D01*
X169402121Y-110821919D01*
X169190876Y-111147206D01*
X169014785Y-111492806D01*
X168875785Y-111854913D01*
X168775396Y-112229570D01*
X168714722Y-112612659D01*
X168694422Y-113000000D01*
X156579591Y-113000000D01*
X153339591Y-109760000D01*
X155594753Y-109760000D01*
X155613719Y-110061452D01*
X155670319Y-110358163D01*
X155763658Y-110645428D01*
X155892268Y-110918739D01*
X155962941Y-111030101D01*
X156054115Y-111173768D01*
X156175096Y-111320009D01*
X156246650Y-111406503D01*
X156466839Y-111613276D01*
X156711204Y-111790816D01*
X156827796Y-111854913D01*
X156975896Y-111936332D01*
X157116317Y-111991928D01*
X157256737Y-112047525D01*
X157411141Y-112087168D01*
X157549302Y-112122642D01*
X157798314Y-112154100D01*
X157848972Y-112160500D01*
X157848973Y-112160500D01*
X158151027Y-112160500D01*
X158151028Y-112160500D01*
X158194360Y-112155025D01*
X158450698Y-112122642D01*
X158743262Y-112047525D01*
X159024104Y-111936332D01*
X159288795Y-111790816D01*
X159288795Y-111790815D01*
X159533160Y-111613276D01*
X159557079Y-111590814D01*
X159753349Y-111406504D01*
X159892540Y-111238250D01*
X159947599Y-111200086D01*
X160014478Y-111196134D01*
X160073651Y-111227549D01*
X160102667Y-111255215D01*
X160106622Y-111258986D01*
X160183542Y-111308419D01*
X160283425Y-111372612D01*
X160322580Y-111388287D01*
X160478543Y-111450725D01*
X160607228Y-111475527D01*
X160684914Y-111490500D01*
X160684915Y-111490500D01*
X161642420Y-111490500D01*
X161642425Y-111490500D01*
X161799218Y-111475528D01*
X162000875Y-111416316D01*
X162187682Y-111320011D01*
X162352886Y-111190092D01*
X162490519Y-111031256D01*
X162595604Y-110849244D01*
X162664344Y-110650633D01*
X162694254Y-110442602D01*
X162684254Y-110232670D01*
X162634704Y-110028424D01*
X162634702Y-110028419D01*
X162547397Y-109837247D01*
X162425487Y-109666050D01*
X162425486Y-109666048D01*
X162273378Y-109521014D01*
X162241257Y-109500371D01*
X162096574Y-109407387D01*
X161940609Y-109344949D01*
X161901457Y-109329275D01*
X161901456Y-109329274D01*
X161901454Y-109329274D01*
X161695086Y-109289500D01*
X161695085Y-109289500D01*
X160737575Y-109289500D01*
X160659178Y-109296986D01*
X160580777Y-109304472D01*
X160499894Y-109328222D01*
X160431841Y-109328740D01*
X160373764Y-109293264D01*
X160343156Y-109232480D01*
X160329681Y-109161840D01*
X160295462Y-109056527D01*
X160293319Y-108987260D01*
X160328682Y-108927658D01*
X160390506Y-108896342D01*
X160459479Y-108903093D01*
X160478543Y-108910725D01*
X160645139Y-108942833D01*
X160684914Y-108950500D01*
X160684915Y-108950500D01*
X161642420Y-108950500D01*
X161642425Y-108950500D01*
X161799218Y-108935528D01*
X162000875Y-108876316D01*
X162187682Y-108780011D01*
X162352886Y-108650092D01*
X162490519Y-108491256D01*
X162595604Y-108309244D01*
X162664344Y-108110633D01*
X162694254Y-107902602D01*
X162684254Y-107692670D01*
X162634704Y-107488424D01*
X162634702Y-107488419D01*
X162547397Y-107297247D01*
X162425487Y-107126050D01*
X162425486Y-107126048D01*
X162273378Y-106981014D01*
X162241257Y-106960371D01*
X162096574Y-106867387D01*
X161940609Y-106804949D01*
X161901457Y-106789275D01*
X161901456Y-106789274D01*
X161901454Y-106789274D01*
X161695086Y-106749500D01*
X161695085Y-106749500D01*
X160737575Y-106749500D01*
X160639579Y-106758857D01*
X160580779Y-106764472D01*
X160379126Y-106823683D01*
X160192315Y-106919990D01*
X160027115Y-107049906D01*
X159889479Y-107208745D01*
X159784396Y-107390754D01*
X159715655Y-107589367D01*
X159686346Y-107793220D01*
X159661804Y-107851293D01*
X159611878Y-107889792D01*
X159549473Y-107898765D01*
X159490723Y-107875891D01*
X159288795Y-107729183D01*
X159034470Y-107589367D01*
X159024104Y-107583668D01*
X159024103Y-107583667D01*
X159024102Y-107583667D01*
X158743262Y-107472474D01*
X158450700Y-107397358D01*
X158151028Y-107359500D01*
X158151027Y-107359500D01*
X157848973Y-107359500D01*
X157848972Y-107359500D01*
X157549299Y-107397358D01*
X157256737Y-107472474D01*
X156975897Y-107583667D01*
X156711204Y-107729183D01*
X156466839Y-107906723D01*
X156246650Y-108113496D01*
X156054114Y-108346233D01*
X155892268Y-108601260D01*
X155763658Y-108874571D01*
X155670319Y-109161836D01*
X155613719Y-109458547D01*
X155594753Y-109760000D01*
X153339591Y-109760000D01*
X148836987Y-105257396D01*
X159685746Y-105257396D01*
X159695746Y-105467330D01*
X159745297Y-105671580D01*
X159832602Y-105862752D01*
X159942846Y-106017566D01*
X159954514Y-106033952D01*
X160106622Y-106178986D01*
X160178964Y-106225478D01*
X160283425Y-106292612D01*
X160322580Y-106308287D01*
X160478543Y-106370725D01*
X160604670Y-106395034D01*
X160684914Y-106410500D01*
X160684915Y-106410500D01*
X161642420Y-106410500D01*
X161642425Y-106410500D01*
X161799218Y-106395528D01*
X162000875Y-106336316D01*
X162187682Y-106240011D01*
X162352886Y-106110092D01*
X162490519Y-105951256D01*
X162595604Y-105769244D01*
X162664344Y-105570633D01*
X162694254Y-105362602D01*
X162684254Y-105152670D01*
X162634704Y-104948424D01*
X162634702Y-104948419D01*
X162547397Y-104757247D01*
X162425487Y-104586050D01*
X162425486Y-104586048D01*
X162273378Y-104441014D01*
X162224342Y-104409500D01*
X162096574Y-104327387D01*
X161940609Y-104264949D01*
X161901457Y-104249275D01*
X161901456Y-104249274D01*
X161901454Y-104249274D01*
X161695086Y-104209500D01*
X161695085Y-104209500D01*
X160737575Y-104209500D01*
X160639579Y-104218857D01*
X160580779Y-104224472D01*
X160379126Y-104283683D01*
X160192315Y-104379990D01*
X160027115Y-104509906D01*
X159889479Y-104668745D01*
X159784396Y-104850754D01*
X159715655Y-105049366D01*
X159685746Y-105257396D01*
X148836987Y-105257396D01*
X146296989Y-102717398D01*
X159685746Y-102717398D01*
X159689011Y-102785937D01*
X159695746Y-102927330D01*
X159745297Y-103131580D01*
X159832602Y-103322752D01*
X159912857Y-103435453D01*
X159954514Y-103493952D01*
X160106622Y-103638986D01*
X160178964Y-103685478D01*
X160283425Y-103752612D01*
X160322580Y-103768287D01*
X160478543Y-103830725D01*
X160607228Y-103855527D01*
X160684914Y-103870500D01*
X160684915Y-103870500D01*
X161642420Y-103870500D01*
X161642425Y-103870500D01*
X161799218Y-103855528D01*
X162000875Y-103796316D01*
X162187682Y-103700011D01*
X162352886Y-103570092D01*
X162490519Y-103411256D01*
X162595604Y-103229244D01*
X162664344Y-103030633D01*
X162694254Y-102822602D01*
X162684254Y-102612670D01*
X162634704Y-102408424D01*
X162623619Y-102384151D01*
X162547397Y-102217247D01*
X162461797Y-102097040D01*
X162425486Y-102046048D01*
X162273378Y-101901014D01*
X162241257Y-101880371D01*
X162096574Y-101787387D01*
X161940609Y-101724949D01*
X161901457Y-101709275D01*
X161901456Y-101709274D01*
X161901454Y-101709274D01*
X161695086Y-101669500D01*
X161695085Y-101669500D01*
X160737575Y-101669500D01*
X160639579Y-101678857D01*
X160580779Y-101684472D01*
X160379126Y-101743683D01*
X160192315Y-101839990D01*
X160027115Y-101969906D01*
X159889479Y-102128745D01*
X159784396Y-102310754D01*
X159715655Y-102509366D01*
X159689194Y-102693413D01*
X159685746Y-102717398D01*
X146296989Y-102717398D01*
X145179590Y-101599999D01*
X146414540Y-101599999D01*
X146434326Y-101788257D01*
X146492820Y-101968284D01*
X146587466Y-102132216D01*
X146714129Y-102272889D01*
X146867269Y-102384151D01*
X147040197Y-102461144D01*
X147225352Y-102500500D01*
X147225354Y-102500500D01*
X147414646Y-102500500D01*
X147414648Y-102500500D01*
X147551547Y-102471401D01*
X147599803Y-102461144D01*
X147772730Y-102384151D01*
X147925871Y-102272888D01*
X148052533Y-102132216D01*
X148147179Y-101968284D01*
X148205674Y-101788256D01*
X148223321Y-101620344D01*
X148229059Y-101600000D01*
X168824340Y-101600000D01*
X168844936Y-101835407D01*
X168880975Y-101969906D01*
X168906097Y-102063663D01*
X169005965Y-102277830D01*
X169141505Y-102471401D01*
X169308599Y-102638495D01*
X169502170Y-102774035D01*
X169716337Y-102873903D01*
X169944592Y-102935063D01*
X170180000Y-102955659D01*
X170415408Y-102935063D01*
X170643663Y-102873903D01*
X170857830Y-102774035D01*
X171051401Y-102638495D01*
X171218495Y-102471401D01*
X171354035Y-102277830D01*
X171453903Y-102063663D01*
X171515063Y-101835408D01*
X171535659Y-101600000D01*
X171515063Y-101364592D01*
X171453903Y-101136337D01*
X171354035Y-100922171D01*
X171218495Y-100728599D01*
X171051401Y-100561505D01*
X170865839Y-100431573D01*
X170826974Y-100387255D01*
X170812964Y-100329999D01*
X170826975Y-100272742D01*
X170865837Y-100228428D01*
X171051401Y-100098495D01*
X171218495Y-99931401D01*
X171354035Y-99737830D01*
X171453903Y-99523663D01*
X171515063Y-99295408D01*
X171535659Y-99060000D01*
X171515063Y-98824592D01*
X171453903Y-98596337D01*
X171354035Y-98382171D01*
X171218495Y-98188599D01*
X171051401Y-98021505D01*
X170865839Y-97891573D01*
X170826976Y-97847257D01*
X170812965Y-97790000D01*
X170826976Y-97732743D01*
X170865839Y-97688426D01*
X171051401Y-97558495D01*
X171218495Y-97391401D01*
X171354035Y-97197830D01*
X171453903Y-96983663D01*
X171515063Y-96755408D01*
X171535659Y-96520000D01*
X171515063Y-96284592D01*
X171453903Y-96056337D01*
X171354035Y-95842171D01*
X171218495Y-95648599D01*
X171051401Y-95481505D01*
X170865839Y-95351573D01*
X170826975Y-95307257D01*
X170812964Y-95250000D01*
X170826975Y-95192743D01*
X170865839Y-95148426D01*
X171051401Y-95018495D01*
X171218495Y-94851401D01*
X171354035Y-94657830D01*
X171453903Y-94443663D01*
X171515063Y-94215408D01*
X171535659Y-93980000D01*
X171515063Y-93744592D01*
X171453903Y-93516337D01*
X171354035Y-93302171D01*
X171218495Y-93108599D01*
X171051401Y-92941505D01*
X170865839Y-92811573D01*
X170826974Y-92767255D01*
X170812964Y-92709999D01*
X170826975Y-92652742D01*
X170865837Y-92608428D01*
X171051401Y-92478495D01*
X171218495Y-92311401D01*
X171354035Y-92117830D01*
X171453903Y-91903663D01*
X171515063Y-91675408D01*
X171535659Y-91440000D01*
X171523219Y-91297819D01*
X171515063Y-91204592D01*
X171510815Y-91188738D01*
X171453903Y-90976337D01*
X171354035Y-90762171D01*
X171218495Y-90568599D01*
X171096181Y-90446285D01*
X171064885Y-90393539D01*
X171062696Y-90332246D01*
X171090149Y-90277401D01*
X171140528Y-90242422D01*
X171272089Y-90193352D01*
X171387188Y-90107188D01*
X171473352Y-89992089D01*
X171523597Y-89857375D01*
X171530000Y-89797824D01*
X171530000Y-89150000D01*
X168830000Y-89150000D01*
X168830000Y-89797824D01*
X168836402Y-89857375D01*
X168886647Y-89992089D01*
X168972811Y-90107188D01*
X169087911Y-90193352D01*
X169219471Y-90242422D01*
X169269850Y-90277401D01*
X169297303Y-90332246D01*
X169295114Y-90393539D01*
X169263819Y-90446285D01*
X169141503Y-90568601D01*
X169005965Y-90762170D01*
X168906097Y-90976336D01*
X168844936Y-91204592D01*
X168824340Y-91439999D01*
X168844936Y-91675407D01*
X168888039Y-91836268D01*
X168906097Y-91903663D01*
X169005965Y-92117830D01*
X169141505Y-92311401D01*
X169308599Y-92478495D01*
X169494160Y-92608426D01*
X169533024Y-92652743D01*
X169547035Y-92710000D01*
X169533024Y-92767257D01*
X169494159Y-92811575D01*
X169308595Y-92941508D01*
X169141505Y-93108598D01*
X169005965Y-93302170D01*
X168906097Y-93516336D01*
X168844936Y-93744592D01*
X168824340Y-93980000D01*
X168844936Y-94215407D01*
X168880975Y-94349906D01*
X168906097Y-94443663D01*
X169005965Y-94657830D01*
X169141505Y-94851401D01*
X169308599Y-95018495D01*
X169494160Y-95148426D01*
X169533024Y-95192743D01*
X169547035Y-95250000D01*
X169533024Y-95307257D01*
X169494159Y-95351575D01*
X169308595Y-95481508D01*
X169141505Y-95648598D01*
X169005965Y-95842170D01*
X168906097Y-96056336D01*
X168844936Y-96284592D01*
X168824340Y-96519999D01*
X168844936Y-96755407D01*
X168880975Y-96889906D01*
X168906097Y-96983663D01*
X169005965Y-97197830D01*
X169141505Y-97391401D01*
X169308599Y-97558495D01*
X169494160Y-97688426D01*
X169533024Y-97732743D01*
X169547035Y-97790000D01*
X169533024Y-97847257D01*
X169494159Y-97891575D01*
X169308595Y-98021508D01*
X169141505Y-98188598D01*
X169005965Y-98382170D01*
X168906097Y-98596336D01*
X168844936Y-98824592D01*
X168824340Y-99060000D01*
X168844936Y-99295407D01*
X168880975Y-99429906D01*
X168906097Y-99523663D01*
X169005965Y-99737830D01*
X169141505Y-99931401D01*
X169308599Y-100098495D01*
X169494160Y-100228426D01*
X169533024Y-100272743D01*
X169547035Y-100330000D01*
X169533024Y-100387257D01*
X169494159Y-100431575D01*
X169308595Y-100561508D01*
X169141505Y-100728598D01*
X169005965Y-100922170D01*
X168906097Y-101136336D01*
X168844936Y-101364592D01*
X168824340Y-101600000D01*
X148229059Y-101600000D01*
X148234721Y-101579925D01*
X148258958Y-101545630D01*
X149627192Y-100177396D01*
X159685746Y-100177396D01*
X159695746Y-100387330D01*
X159745297Y-100591580D01*
X159832602Y-100782752D01*
X159931882Y-100922170D01*
X159954514Y-100953952D01*
X160106622Y-101098986D01*
X160164741Y-101136337D01*
X160283425Y-101212612D01*
X160322580Y-101228287D01*
X160478543Y-101290725D01*
X160607228Y-101315527D01*
X160684914Y-101330500D01*
X160684915Y-101330500D01*
X161642420Y-101330500D01*
X161642425Y-101330500D01*
X161799218Y-101315528D01*
X162000875Y-101256316D01*
X162187682Y-101160011D01*
X162352886Y-101030092D01*
X162490519Y-100871256D01*
X162595604Y-100689244D01*
X162664344Y-100490633D01*
X162694254Y-100282602D01*
X162684254Y-100072670D01*
X162634704Y-99868424D01*
X162623619Y-99844151D01*
X162547397Y-99677247D01*
X162461797Y-99557040D01*
X162425486Y-99506048D01*
X162273378Y-99361014D01*
X162241257Y-99340371D01*
X162096574Y-99247387D01*
X161922901Y-99177860D01*
X161901457Y-99169275D01*
X161901456Y-99169274D01*
X161901454Y-99169274D01*
X161695086Y-99129500D01*
X161695085Y-99129500D01*
X160737575Y-99129500D01*
X160639579Y-99138857D01*
X160580779Y-99144472D01*
X160379126Y-99203683D01*
X160192315Y-99299990D01*
X160027115Y-99429906D01*
X159889479Y-99588745D01*
X159784396Y-99770754D01*
X159715655Y-99969366D01*
X159685746Y-100177396D01*
X149627192Y-100177396D01*
X152167193Y-97637396D01*
X159685746Y-97637396D01*
X159695746Y-97847330D01*
X159745297Y-98051580D01*
X159832602Y-98242752D01*
X159917030Y-98361313D01*
X159954514Y-98413952D01*
X160106622Y-98558986D01*
X160164741Y-98596337D01*
X160283425Y-98672612D01*
X160322580Y-98688287D01*
X160478543Y-98750725D01*
X160607228Y-98775527D01*
X160684914Y-98790500D01*
X160684915Y-98790500D01*
X161642420Y-98790500D01*
X161642425Y-98790500D01*
X161799218Y-98775528D01*
X162000875Y-98716316D01*
X162187682Y-98620011D01*
X162352886Y-98490092D01*
X162490519Y-98331256D01*
X162595604Y-98149244D01*
X162664344Y-97950633D01*
X162694254Y-97742602D01*
X162684254Y-97532670D01*
X162634704Y-97328424D01*
X162634702Y-97328419D01*
X162547397Y-97137247D01*
X162461797Y-97017040D01*
X162425486Y-96966048D01*
X162273378Y-96821014D01*
X162241257Y-96800371D01*
X162096574Y-96707387D01*
X161904397Y-96630452D01*
X161901457Y-96629275D01*
X161901456Y-96629274D01*
X161901454Y-96629274D01*
X161695086Y-96589500D01*
X161695085Y-96589500D01*
X160737575Y-96589500D01*
X160639579Y-96598857D01*
X160580779Y-96604472D01*
X160379126Y-96663683D01*
X160192315Y-96759990D01*
X160027115Y-96889906D01*
X159889479Y-97048745D01*
X159784396Y-97230754D01*
X159715655Y-97429366D01*
X159685746Y-97637396D01*
X152167193Y-97637396D01*
X154707193Y-95097396D01*
X159685746Y-95097396D01*
X159695746Y-95307330D01*
X159745297Y-95511580D01*
X159832602Y-95702752D01*
X159926217Y-95834214D01*
X159954514Y-95873952D01*
X160106622Y-96018986D01*
X160164741Y-96056337D01*
X160283425Y-96132612D01*
X160312126Y-96144102D01*
X160478543Y-96210725D01*
X160607228Y-96235527D01*
X160684914Y-96250500D01*
X160684915Y-96250500D01*
X161642420Y-96250500D01*
X161642425Y-96250500D01*
X161799218Y-96235528D01*
X162000875Y-96176316D01*
X162187682Y-96080011D01*
X162352886Y-95950092D01*
X162490519Y-95791256D01*
X162595604Y-95609244D01*
X162664344Y-95410633D01*
X162694254Y-95202602D01*
X162684254Y-94992670D01*
X162634704Y-94788424D01*
X162613886Y-94742839D01*
X162547397Y-94597247D01*
X162461797Y-94477040D01*
X162425486Y-94426048D01*
X162273378Y-94281014D01*
X162241257Y-94260371D01*
X162096574Y-94167387D01*
X161940609Y-94104949D01*
X161901457Y-94089275D01*
X161901456Y-94089274D01*
X161901454Y-94089274D01*
X161695086Y-94049500D01*
X161695085Y-94049500D01*
X160737575Y-94049500D01*
X160639579Y-94058857D01*
X160580779Y-94064472D01*
X160379126Y-94123683D01*
X160192315Y-94219990D01*
X160027115Y-94349906D01*
X159889479Y-94508745D01*
X159784396Y-94690754D01*
X159715655Y-94889366D01*
X159685746Y-95097396D01*
X154707193Y-95097396D01*
X157247191Y-92557398D01*
X159685746Y-92557398D01*
X159692003Y-92688747D01*
X159695746Y-92767330D01*
X159745297Y-92971580D01*
X159832602Y-93162752D01*
X159931882Y-93302170D01*
X159954514Y-93333952D01*
X160106622Y-93478986D01*
X160164741Y-93516337D01*
X160283425Y-93592612D01*
X160322580Y-93608287D01*
X160478543Y-93670725D01*
X160607228Y-93695527D01*
X160684914Y-93710500D01*
X160684915Y-93710500D01*
X161642420Y-93710500D01*
X161642425Y-93710500D01*
X161799218Y-93695528D01*
X162000875Y-93636316D01*
X162187682Y-93540011D01*
X162352886Y-93410092D01*
X162490519Y-93251256D01*
X162595604Y-93069244D01*
X162664344Y-92870633D01*
X162694254Y-92662602D01*
X162684254Y-92452670D01*
X162634704Y-92248424D01*
X162634702Y-92248419D01*
X162547397Y-92057247D01*
X162457881Y-91931540D01*
X162425486Y-91886048D01*
X162273378Y-91741014D01*
X162222650Y-91708413D01*
X162096574Y-91627387D01*
X161940609Y-91564949D01*
X161901457Y-91549275D01*
X161901456Y-91549274D01*
X161901454Y-91549274D01*
X161695086Y-91509500D01*
X161695085Y-91509500D01*
X160737575Y-91509500D01*
X160639579Y-91518857D01*
X160580779Y-91524472D01*
X160379126Y-91583683D01*
X160192315Y-91679990D01*
X160027115Y-91809906D01*
X159889479Y-91968745D01*
X159784396Y-92150754D01*
X159715655Y-92349366D01*
X159697090Y-92478495D01*
X159685746Y-92557398D01*
X157247191Y-92557398D01*
X159516485Y-90288104D01*
X159572783Y-90255823D01*
X159637680Y-90256402D01*
X159693396Y-90289684D01*
X159724668Y-90346552D01*
X159745295Y-90431576D01*
X159832602Y-90622752D01*
X159930249Y-90759877D01*
X159954514Y-90793952D01*
X160106622Y-90938986D01*
X160164741Y-90976337D01*
X160283425Y-91052612D01*
X160322580Y-91068287D01*
X160478543Y-91130725D01*
X160607228Y-91155527D01*
X160684914Y-91170500D01*
X160684915Y-91170500D01*
X161642420Y-91170500D01*
X161642425Y-91170500D01*
X161799218Y-91155528D01*
X162000875Y-91096316D01*
X162187682Y-91000011D01*
X162352886Y-90870092D01*
X162490519Y-90711256D01*
X162595604Y-90529244D01*
X162664344Y-90330633D01*
X162694254Y-90122602D01*
X162684254Y-89912670D01*
X162634704Y-89708424D01*
X162634702Y-89708419D01*
X162547397Y-89517247D01*
X162425487Y-89346050D01*
X162425486Y-89346048D01*
X162371153Y-89294242D01*
X162339544Y-89245056D01*
X162333986Y-89186853D01*
X162355717Y-89132573D01*
X162399904Y-89094284D01*
X162456724Y-89080500D01*
X162922256Y-89080500D01*
X162942762Y-89082764D01*
X162945665Y-89082672D01*
X162945667Y-89082673D01*
X163012872Y-89080561D01*
X163016768Y-89080500D01*
X163044349Y-89080500D01*
X163044350Y-89080500D01*
X163048319Y-89079998D01*
X163059965Y-89079080D01*
X163103627Y-89077709D01*
X163122859Y-89072120D01*
X163141918Y-89068174D01*
X163148196Y-89067381D01*
X163161792Y-89065664D01*
X163202407Y-89049582D01*
X163213444Y-89045803D01*
X163255390Y-89033618D01*
X163272629Y-89023422D01*
X163290102Y-89014862D01*
X163308732Y-89007486D01*
X163344064Y-88981814D01*
X163353830Y-88975400D01*
X163391418Y-88953171D01*
X163391417Y-88953171D01*
X163391420Y-88953170D01*
X163405585Y-88939004D01*
X163420373Y-88926373D01*
X163436587Y-88914594D01*
X163464438Y-88880926D01*
X163472279Y-88872309D01*
X163694588Y-88650000D01*
X168830000Y-88650000D01*
X169930000Y-88650000D01*
X169930000Y-87550000D01*
X170430000Y-87550000D01*
X170430000Y-88650000D01*
X171530000Y-88650000D01*
X171530000Y-88002176D01*
X171523597Y-87942624D01*
X171473352Y-87807910D01*
X171387188Y-87692811D01*
X171272089Y-87606647D01*
X171137375Y-87556402D01*
X171077824Y-87550000D01*
X170430000Y-87550000D01*
X169930000Y-87550000D01*
X169282176Y-87550000D01*
X169222624Y-87556402D01*
X169087910Y-87606647D01*
X168972811Y-87692811D01*
X168886647Y-87807910D01*
X168836402Y-87942624D01*
X168830000Y-88002176D01*
X168830000Y-88650000D01*
X163694588Y-88650000D01*
X169697938Y-82646651D01*
X169753524Y-82614559D01*
X169808745Y-82614559D01*
X169808784Y-82614118D01*
X169813835Y-82614559D01*
X169817712Y-82614560D01*
X169819590Y-82615063D01*
X169996032Y-82630500D01*
X169996034Y-82630500D01*
X170363966Y-82630500D01*
X170363968Y-82630500D01*
X170481594Y-82620208D01*
X170540408Y-82615063D01*
X170768663Y-82553903D01*
X170982829Y-82454035D01*
X171176401Y-82318495D01*
X171343495Y-82151401D01*
X171479035Y-81957830D01*
X171578903Y-81743663D01*
X171640063Y-81515408D01*
X171660659Y-81280000D01*
X171640063Y-81044592D01*
X171578903Y-80816337D01*
X171479035Y-80602171D01*
X171343495Y-80408599D01*
X171176401Y-80241505D01*
X171019401Y-80131573D01*
X170980537Y-80087257D01*
X170966526Y-80030000D01*
X170980537Y-79972743D01*
X171019401Y-79928426D01*
X171176401Y-79818495D01*
X171343495Y-79651401D01*
X171479035Y-79457830D01*
X171578903Y-79243663D01*
X171640063Y-79015408D01*
X171660659Y-78780000D01*
X171640063Y-78544592D01*
X171578903Y-78316337D01*
X171479035Y-78102171D01*
X171343495Y-77908599D01*
X171176401Y-77741505D01*
X171019401Y-77631573D01*
X170980537Y-77587257D01*
X170966526Y-77530000D01*
X170980537Y-77472743D01*
X171019401Y-77428426D01*
X171176401Y-77318495D01*
X171343495Y-77151401D01*
X171479035Y-76957830D01*
X171578903Y-76743663D01*
X171640063Y-76515408D01*
X171660659Y-76280000D01*
X171640063Y-76044592D01*
X171578903Y-75816337D01*
X171479035Y-75602171D01*
X171343495Y-75408599D01*
X171196294Y-75261398D01*
X171166849Y-75214428D01*
X171160814Y-75159321D01*
X171179395Y-75107091D01*
X171218879Y-75068178D01*
X171224331Y-75064814D01*
X171224334Y-75064814D01*
X171373656Y-74972712D01*
X171497712Y-74848656D01*
X171589814Y-74699334D01*
X171644999Y-74532797D01*
X171655500Y-74430009D01*
X171655499Y-73129992D01*
X171644999Y-73027203D01*
X171589814Y-72860666D01*
X171497712Y-72711344D01*
X171497711Y-72711342D01*
X171373657Y-72587288D01*
X171224334Y-72495186D01*
X171057797Y-72440000D01*
X170955009Y-72429500D01*
X169404991Y-72429500D01*
X169302203Y-72440000D01*
X169135665Y-72495186D01*
X168986342Y-72587288D01*
X168862288Y-72711342D01*
X168770186Y-72860665D01*
X168715000Y-73027202D01*
X168704500Y-73129990D01*
X168704500Y-74430008D01*
X168715000Y-74532796D01*
X168770186Y-74699334D01*
X168862288Y-74848657D01*
X168986342Y-74972711D01*
X169141120Y-75068178D01*
X169180604Y-75107091D01*
X169199185Y-75159321D01*
X169193151Y-75214428D01*
X169163705Y-75261398D01*
X169016505Y-75408599D01*
X168972634Y-75471254D01*
X168880964Y-75602172D01*
X168781097Y-75816337D01*
X168719936Y-76044592D01*
X168699340Y-76280000D01*
X168719936Y-76515407D01*
X168781097Y-76743663D01*
X168880965Y-76957829D01*
X169016505Y-77151401D01*
X169183598Y-77318494D01*
X169340596Y-77428425D01*
X169379462Y-77472743D01*
X169393473Y-77530000D01*
X169379462Y-77587257D01*
X169340596Y-77631575D01*
X169183598Y-77741505D01*
X169016508Y-77908595D01*
X169016505Y-77908598D01*
X169016505Y-77908599D01*
X168886720Y-78093952D01*
X168880964Y-78102172D01*
X168781097Y-78316337D01*
X168719936Y-78544592D01*
X168699340Y-78779999D01*
X168719936Y-79015407D01*
X168765659Y-79186048D01*
X168781097Y-79243663D01*
X168880965Y-79457829D01*
X169016505Y-79651401D01*
X169183599Y-79818495D01*
X169340596Y-79928425D01*
X169379462Y-79972743D01*
X169393473Y-80030000D01*
X169379462Y-80087257D01*
X169340596Y-80131575D01*
X169183598Y-80241505D01*
X169016508Y-80408595D01*
X169016505Y-80408598D01*
X169016505Y-80408599D01*
X168916616Y-80551256D01*
X168880964Y-80602172D01*
X168781097Y-80816337D01*
X168719936Y-81044592D01*
X168699340Y-81280000D01*
X168719936Y-81515407D01*
X168773271Y-81714456D01*
X168773271Y-81778643D01*
X168741177Y-81834230D01*
X162906032Y-87669376D01*
X162857790Y-87699256D01*
X162801288Y-87704515D01*
X162748360Y-87684053D01*
X162710089Y-87642155D01*
X162694491Y-87587595D01*
X162694253Y-87582606D01*
X162694254Y-87582602D01*
X162684254Y-87372670D01*
X162634704Y-87168424D01*
X162634702Y-87168419D01*
X162547397Y-86977247D01*
X162425487Y-86806050D01*
X162425486Y-86806048D01*
X162273378Y-86661014D01*
X162241257Y-86640371D01*
X162096574Y-86547387D01*
X161940609Y-86484949D01*
X161901457Y-86469275D01*
X161901456Y-86469274D01*
X161901454Y-86469274D01*
X161695086Y-86429500D01*
X161695085Y-86429500D01*
X160737575Y-86429500D01*
X160639579Y-86438857D01*
X160580779Y-86444472D01*
X160379126Y-86503683D01*
X160192315Y-86599990D01*
X160027115Y-86729906D01*
X159889479Y-86888745D01*
X159784396Y-87070754D01*
X159715655Y-87269366D01*
X159685746Y-87477396D01*
X159695746Y-87687330D01*
X159745296Y-87891577D01*
X159834476Y-88086851D01*
X159845647Y-88135412D01*
X159836800Y-88184449D01*
X159809363Y-88226044D01*
X147372228Y-100663181D01*
X147332000Y-100690061D01*
X147284547Y-100699500D01*
X147225352Y-100699500D01*
X147040197Y-100738855D01*
X146867269Y-100815848D01*
X146714129Y-100927110D01*
X146587466Y-101067783D01*
X146492820Y-101231715D01*
X146434326Y-101411742D01*
X146414540Y-101599999D01*
X145179590Y-101599999D01*
X144671602Y-101092011D01*
X144640306Y-101039264D01*
X144638117Y-100977970D01*
X144665569Y-100923129D01*
X144710519Y-100871256D01*
X144815604Y-100689244D01*
X144884344Y-100490633D01*
X144914254Y-100282602D01*
X144904254Y-100072670D01*
X144854704Y-99868424D01*
X144843619Y-99844151D01*
X144767397Y-99677247D01*
X144681797Y-99557040D01*
X144645486Y-99506048D01*
X144493378Y-99361014D01*
X144461257Y-99340371D01*
X144316574Y-99247387D01*
X144142901Y-99177860D01*
X144121457Y-99169275D01*
X144121456Y-99169274D01*
X144121454Y-99169274D01*
X143915086Y-99129500D01*
X143915085Y-99129500D01*
X142957575Y-99129500D01*
X142859579Y-99138857D01*
X142800779Y-99144472D01*
X142599126Y-99203683D01*
X142412315Y-99299990D01*
X142247115Y-99429906D01*
X142109479Y-99588745D01*
X142004396Y-99770754D01*
X141935655Y-99969366D01*
X141905746Y-100177396D01*
X141915746Y-100387330D01*
X141965297Y-100591580D01*
X142052602Y-100782752D01*
X142151882Y-100922170D01*
X142174514Y-100953952D01*
X142326622Y-101098986D01*
X142384741Y-101136337D01*
X142503425Y-101212612D01*
X142542580Y-101228287D01*
X142698543Y-101290725D01*
X142827228Y-101315527D01*
X142904914Y-101330500D01*
X142904915Y-101330500D01*
X143089548Y-101330500D01*
X143137001Y-101339939D01*
X143177229Y-101366819D01*
X143268229Y-101457819D01*
X143298479Y-101507182D01*
X143303021Y-101564898D01*
X143280866Y-101618385D01*
X143236843Y-101655985D01*
X143180548Y-101669500D01*
X142957575Y-101669500D01*
X142859579Y-101678857D01*
X142800779Y-101684472D01*
X142599126Y-101743683D01*
X142412315Y-101839990D01*
X142247115Y-101969906D01*
X142109479Y-102128745D01*
X142004396Y-102310754D01*
X141935655Y-102509366D01*
X141909194Y-102693413D01*
X141905746Y-102717398D01*
X141909011Y-102785937D01*
X141915746Y-102927330D01*
X141965297Y-103131580D01*
X142052602Y-103322752D01*
X142132857Y-103435453D01*
X142174514Y-103493952D01*
X142326622Y-103638986D01*
X142398964Y-103685478D01*
X142503425Y-103752612D01*
X142542580Y-103768287D01*
X142698543Y-103830725D01*
X142827228Y-103855527D01*
X142904914Y-103870500D01*
X142904915Y-103870500D01*
X143862420Y-103870500D01*
X143862425Y-103870500D01*
X144019218Y-103855528D01*
X144220875Y-103796316D01*
X144407682Y-103700011D01*
X144572886Y-103570092D01*
X144710519Y-103411256D01*
X144815604Y-103229244D01*
X144815604Y-103229242D01*
X144816812Y-103227151D01*
X144855308Y-103186049D01*
X144908014Y-103166212D01*
X144964057Y-103171732D01*
X145011880Y-103201470D01*
X159714100Y-117903691D01*
X159746194Y-117959278D01*
X159746194Y-118023465D01*
X159714100Y-118079053D01*
X159658513Y-118111147D01*
X159594326Y-118111147D01*
X159531691Y-118094364D01*
X159305000Y-118074531D01*
X159078307Y-118094364D01*
X159009950Y-118112680D01*
X158945764Y-118112680D01*
X158890177Y-118080586D01*
X154725802Y-113916211D01*
X154712906Y-113900113D01*
X154661775Y-113852098D01*
X154658978Y-113849387D01*
X154639470Y-113829879D01*
X154636290Y-113827412D01*
X154627424Y-113819839D01*
X154595582Y-113789938D01*
X154578024Y-113780285D01*
X154561764Y-113769604D01*
X154545936Y-113757327D01*
X154505851Y-113739980D01*
X154495361Y-113734841D01*
X154457091Y-113713802D01*
X154437691Y-113708821D01*
X154419284Y-113702519D01*
X154400897Y-113694562D01*
X154357758Y-113687729D01*
X154346324Y-113685361D01*
X154304019Y-113674500D01*
X154283984Y-113674500D01*
X154264586Y-113672973D01*
X154257162Y-113671797D01*
X154244805Y-113669840D01*
X154244804Y-113669840D01*
X154211751Y-113672964D01*
X154201325Y-113673950D01*
X154189656Y-113674500D01*
X142550453Y-113674500D01*
X142503000Y-113665061D01*
X142462772Y-113638181D01*
X139346819Y-110522228D01*
X139319939Y-110482000D01*
X139310500Y-110434547D01*
X139310500Y-110337396D01*
X141905746Y-110337396D01*
X141915746Y-110547330D01*
X141965297Y-110751580D01*
X142052602Y-110942752D01*
X142162845Y-111097566D01*
X142174514Y-111113952D01*
X142326622Y-111258986D01*
X142398964Y-111305478D01*
X142503425Y-111372612D01*
X142542580Y-111388287D01*
X142698543Y-111450725D01*
X142827228Y-111475527D01*
X142904914Y-111490500D01*
X142904915Y-111490500D01*
X143862420Y-111490500D01*
X143862425Y-111490500D01*
X144019218Y-111475528D01*
X144220875Y-111416316D01*
X144407682Y-111320011D01*
X144535192Y-111219734D01*
X144593184Y-111194617D01*
X144656024Y-111201342D01*
X144707388Y-111238164D01*
X144846653Y-111406507D01*
X145066839Y-111613276D01*
X145311204Y-111790816D01*
X145427796Y-111854913D01*
X145575896Y-111936332D01*
X145716317Y-111991928D01*
X145856737Y-112047525D01*
X146011141Y-112087168D01*
X146149302Y-112122642D01*
X146398314Y-112154100D01*
X146448972Y-112160500D01*
X146448973Y-112160500D01*
X146751027Y-112160500D01*
X146751028Y-112160500D01*
X146794360Y-112155025D01*
X147050698Y-112122642D01*
X147343262Y-112047525D01*
X147624104Y-111936332D01*
X147888795Y-111790816D01*
X147888795Y-111790815D01*
X148133160Y-111613276D01*
X148157079Y-111590814D01*
X148353349Y-111406504D01*
X148545885Y-111173768D01*
X148707733Y-110918736D01*
X148836341Y-110645430D01*
X148929681Y-110358160D01*
X148986280Y-110061457D01*
X149005246Y-109760000D01*
X148986280Y-109458543D01*
X148929681Y-109161840D01*
X148836341Y-108874570D01*
X148707733Y-108601264D01*
X148707732Y-108601263D01*
X148707731Y-108601260D01*
X148581754Y-108402753D01*
X148545885Y-108346232D01*
X148353349Y-108113496D01*
X148310248Y-108073021D01*
X148133160Y-107906723D01*
X147888795Y-107729183D01*
X147634470Y-107589367D01*
X147624104Y-107583668D01*
X147624103Y-107583667D01*
X147624102Y-107583667D01*
X147343262Y-107472474D01*
X147050700Y-107397358D01*
X146751028Y-107359500D01*
X146751027Y-107359500D01*
X146448973Y-107359500D01*
X146448972Y-107359500D01*
X146149299Y-107397358D01*
X145856737Y-107472474D01*
X145575897Y-107583667D01*
X145311204Y-107729183D01*
X145105364Y-107878734D01*
X145043678Y-107901909D01*
X144978829Y-107890209D01*
X144929131Y-107846938D01*
X144908619Y-107784317D01*
X144904254Y-107692670D01*
X144854704Y-107488424D01*
X144854702Y-107488419D01*
X144767397Y-107297247D01*
X144645487Y-107126050D01*
X144645486Y-107126048D01*
X144493378Y-106981014D01*
X144461257Y-106960371D01*
X144316574Y-106867387D01*
X144160609Y-106804949D01*
X144121457Y-106789275D01*
X144121456Y-106789274D01*
X144121454Y-106789274D01*
X143915086Y-106749500D01*
X143915085Y-106749500D01*
X142957575Y-106749500D01*
X142859579Y-106758857D01*
X142800779Y-106764472D01*
X142599126Y-106823683D01*
X142412315Y-106919990D01*
X142247115Y-107049906D01*
X142109479Y-107208745D01*
X142004396Y-107390754D01*
X141935655Y-107589366D01*
X141905746Y-107797396D01*
X141915746Y-108007330D01*
X141965297Y-108211580D01*
X142052602Y-108402752D01*
X142153897Y-108545000D01*
X142174514Y-108573952D01*
X142326622Y-108718986D01*
X142398964Y-108765478D01*
X142503425Y-108832612D01*
X142542580Y-108848287D01*
X142698543Y-108910725D01*
X142827228Y-108935527D01*
X142904914Y-108950500D01*
X142904915Y-108950500D01*
X143862420Y-108950500D01*
X143862425Y-108950500D01*
X144019218Y-108935528D01*
X144152604Y-108896361D01*
X144219061Y-108895413D01*
X144276462Y-108928918D01*
X144308315Y-108987253D01*
X144305469Y-109053657D01*
X144270317Y-109161843D01*
X144257511Y-109228975D01*
X144229524Y-109286823D01*
X144176339Y-109322893D01*
X144112241Y-109327498D01*
X143915087Y-109289500D01*
X143915085Y-109289500D01*
X142957575Y-109289500D01*
X142859579Y-109298857D01*
X142800779Y-109304472D01*
X142599126Y-109363683D01*
X142412315Y-109459990D01*
X142247115Y-109589906D01*
X142109479Y-109748745D01*
X142004396Y-109930754D01*
X141935655Y-110129366D01*
X141905746Y-110337396D01*
X139310500Y-110337396D01*
X139310500Y-106370990D01*
X142702560Y-106370990D01*
X142904962Y-106410000D01*
X143862399Y-106410000D01*
X144019126Y-106395034D01*
X144113709Y-106367262D01*
X144113709Y-106367261D01*
X143410000Y-105663553D01*
X142702560Y-106370990D01*
X139310500Y-106370990D01*
X139310500Y-105257420D01*
X141906248Y-105257420D01*
X141916243Y-105467258D01*
X141965770Y-105671410D01*
X142053039Y-105862505D01*
X142174892Y-106033621D01*
X142255738Y-106110707D01*
X143056447Y-105310001D01*
X143056447Y-105310000D01*
X143763553Y-105310000D01*
X144567356Y-106113803D01*
X144567357Y-106113803D01*
X144572538Y-106109730D01*
X144710111Y-105950963D01*
X144815146Y-105769036D01*
X144883856Y-105570515D01*
X144913751Y-105362579D01*
X144903756Y-105152741D01*
X144854229Y-104948589D01*
X144766960Y-104757494D01*
X144645107Y-104586378D01*
X144564260Y-104509291D01*
X143763553Y-105310000D01*
X143056447Y-105310000D01*
X142252641Y-104506194D01*
X142247461Y-104510269D01*
X142109888Y-104669036D01*
X142004853Y-104850963D01*
X141936143Y-105049484D01*
X141906248Y-105257420D01*
X139310500Y-105257420D01*
X139310500Y-104252737D01*
X142706290Y-104252737D01*
X143410000Y-104956447D01*
X143410001Y-104956447D01*
X144117438Y-104249007D01*
X143915039Y-104210000D01*
X142957601Y-104210000D01*
X142800876Y-104224965D01*
X142706290Y-104252737D01*
X139310500Y-104252737D01*
X139310500Y-103207741D01*
X139312763Y-103187237D01*
X139312102Y-103166212D01*
X139310561Y-103117145D01*
X139310500Y-103113251D01*
X139310500Y-103085657D01*
X139310500Y-103085650D01*
X139309995Y-103081653D01*
X139309080Y-103070023D01*
X139308853Y-103062800D01*
X139307709Y-103026373D01*
X139302120Y-103007140D01*
X139298174Y-102988082D01*
X139295664Y-102968208D01*
X139279588Y-102927606D01*
X139275804Y-102916552D01*
X139263619Y-102874613D01*
X139263618Y-102874612D01*
X139263618Y-102874610D01*
X139253417Y-102857361D01*
X139244860Y-102839895D01*
X139237486Y-102821268D01*
X139211813Y-102785932D01*
X139205402Y-102776172D01*
X139183169Y-102738578D01*
X139169006Y-102724415D01*
X139156369Y-102709620D01*
X139144595Y-102693414D01*
X139144594Y-102693413D01*
X139110935Y-102665568D01*
X139102305Y-102657714D01*
X135504591Y-99060000D01*
X136254540Y-99060000D01*
X136259704Y-99109130D01*
X136274326Y-99248257D01*
X136332820Y-99428284D01*
X136427466Y-99592216D01*
X136554129Y-99732889D01*
X136707269Y-99844151D01*
X136880197Y-99921144D01*
X137065352Y-99960500D01*
X137065354Y-99960500D01*
X137254646Y-99960500D01*
X137254648Y-99960500D01*
X137391547Y-99931401D01*
X137439803Y-99921144D01*
X137612730Y-99844151D01*
X137765871Y-99732888D01*
X137892533Y-99592216D01*
X137987179Y-99428284D01*
X138045674Y-99248256D01*
X138065460Y-99060000D01*
X138045674Y-98871744D01*
X137987179Y-98691716D01*
X137987179Y-98691715D01*
X137892535Y-98527786D01*
X137858595Y-98490092D01*
X137817347Y-98444282D01*
X137793736Y-98405751D01*
X137785500Y-98361313D01*
X137785500Y-97637396D01*
X141905746Y-97637396D01*
X141915746Y-97847330D01*
X141965297Y-98051580D01*
X142052602Y-98242752D01*
X142137030Y-98361313D01*
X142174514Y-98413952D01*
X142326622Y-98558986D01*
X142384741Y-98596337D01*
X142503425Y-98672612D01*
X142542580Y-98688287D01*
X142698543Y-98750725D01*
X142827228Y-98775527D01*
X142904914Y-98790500D01*
X142904915Y-98790500D01*
X143862420Y-98790500D01*
X143862425Y-98790500D01*
X144019218Y-98775528D01*
X144220875Y-98716316D01*
X144407682Y-98620011D01*
X144572886Y-98490092D01*
X144710519Y-98331256D01*
X144815604Y-98149244D01*
X144884344Y-97950633D01*
X144914254Y-97742602D01*
X144904254Y-97532670D01*
X144854704Y-97328424D01*
X144854702Y-97328419D01*
X144767397Y-97137247D01*
X144681797Y-97017040D01*
X144645486Y-96966048D01*
X144493378Y-96821014D01*
X144461257Y-96800371D01*
X144316574Y-96707387D01*
X144124397Y-96630452D01*
X144121457Y-96629275D01*
X144121456Y-96629274D01*
X144121454Y-96629274D01*
X143915086Y-96589500D01*
X143915085Y-96589500D01*
X142957575Y-96589500D01*
X142859579Y-96598857D01*
X142800779Y-96604472D01*
X142599126Y-96663683D01*
X142412315Y-96759990D01*
X142247115Y-96889906D01*
X142109479Y-97048745D01*
X142004396Y-97230754D01*
X141935655Y-97429366D01*
X141905746Y-97637396D01*
X137785500Y-97637396D01*
X137785500Y-96630452D01*
X137794939Y-96582999D01*
X137821819Y-96542771D01*
X138755346Y-95609244D01*
X139267194Y-95097396D01*
X141905746Y-95097396D01*
X141915746Y-95307330D01*
X141965297Y-95511580D01*
X142052602Y-95702752D01*
X142146217Y-95834214D01*
X142174514Y-95873952D01*
X142326622Y-96018986D01*
X142384741Y-96056337D01*
X142503425Y-96132612D01*
X142532126Y-96144102D01*
X142698543Y-96210725D01*
X142827228Y-96235527D01*
X142904914Y-96250500D01*
X142904915Y-96250500D01*
X143862420Y-96250500D01*
X143862425Y-96250500D01*
X144019218Y-96235528D01*
X144220875Y-96176316D01*
X144407682Y-96080011D01*
X144572886Y-95950092D01*
X144710519Y-95791256D01*
X144815604Y-95609244D01*
X144884344Y-95410633D01*
X144914254Y-95202602D01*
X144904254Y-94992670D01*
X144854704Y-94788424D01*
X144833886Y-94742839D01*
X144767397Y-94597247D01*
X144681797Y-94477040D01*
X144645486Y-94426048D01*
X144493378Y-94281014D01*
X144461257Y-94260371D01*
X144316574Y-94167387D01*
X144160609Y-94104949D01*
X144121457Y-94089275D01*
X144121456Y-94089274D01*
X144121454Y-94089274D01*
X143915086Y-94049500D01*
X143915085Y-94049500D01*
X142957575Y-94049500D01*
X142859579Y-94058857D01*
X142800779Y-94064472D01*
X142599126Y-94123683D01*
X142412315Y-94219990D01*
X142247115Y-94349906D01*
X142109479Y-94508745D01*
X142004396Y-94690754D01*
X141935655Y-94889366D01*
X141905746Y-95097396D01*
X139267194Y-95097396D01*
X141703063Y-92661525D01*
X141751303Y-92631647D01*
X141807804Y-92626387D01*
X141860732Y-92646849D01*
X141899003Y-92688747D01*
X141914602Y-92743307D01*
X141915746Y-92767329D01*
X141965297Y-92971580D01*
X142052602Y-93162752D01*
X142151882Y-93302170D01*
X142174514Y-93333952D01*
X142326622Y-93478986D01*
X142384741Y-93516337D01*
X142503425Y-93592612D01*
X142542580Y-93608287D01*
X142698543Y-93670725D01*
X142827228Y-93695527D01*
X142904914Y-93710500D01*
X142904915Y-93710500D01*
X143862420Y-93710500D01*
X143862425Y-93710500D01*
X144019218Y-93695528D01*
X144220875Y-93636316D01*
X144407682Y-93540011D01*
X144572886Y-93410092D01*
X144710519Y-93251256D01*
X144815604Y-93069244D01*
X144884344Y-92870633D01*
X144914254Y-92662602D01*
X144904254Y-92452670D01*
X144854704Y-92248424D01*
X144854702Y-92248419D01*
X144767397Y-92057247D01*
X144677881Y-91931540D01*
X144645486Y-91886048D01*
X144493378Y-91741014D01*
X144442650Y-91708413D01*
X144316574Y-91627387D01*
X144160609Y-91564949D01*
X144121457Y-91549275D01*
X144121456Y-91549274D01*
X144121454Y-91549274D01*
X143915086Y-91509500D01*
X143915085Y-91509500D01*
X143154452Y-91509500D01*
X143098157Y-91495985D01*
X143054134Y-91458385D01*
X143031979Y-91404898D01*
X143036521Y-91347182D01*
X143066771Y-91297819D01*
X143157771Y-91206819D01*
X143197999Y-91179939D01*
X143245452Y-91170500D01*
X143862420Y-91170500D01*
X143862425Y-91170500D01*
X144019218Y-91155528D01*
X144220875Y-91096316D01*
X144407682Y-91000011D01*
X144572886Y-90870092D01*
X144710519Y-90711256D01*
X144815604Y-90529244D01*
X144884344Y-90330633D01*
X144914254Y-90122602D01*
X144904254Y-89912670D01*
X144854704Y-89708424D01*
X144854702Y-89708419D01*
X144767397Y-89517247D01*
X144645487Y-89346050D01*
X144645486Y-89346048D01*
X144493378Y-89201014D01*
X144461257Y-89180371D01*
X144316574Y-89087387D01*
X144156802Y-89023425D01*
X144121457Y-89009275D01*
X144121456Y-89009274D01*
X144121454Y-89009274D01*
X143915086Y-88969500D01*
X143915085Y-88969500D01*
X142957575Y-88969500D01*
X142859579Y-88978857D01*
X142800779Y-88984472D01*
X142599126Y-89043683D01*
X142412315Y-89139990D01*
X142247115Y-89269906D01*
X142109479Y-89428745D01*
X142004396Y-89610754D01*
X141935655Y-89809366D01*
X141905746Y-90017396D01*
X141915746Y-90227330D01*
X141965296Y-90431577D01*
X141991774Y-90489554D01*
X142002945Y-90538115D01*
X141994098Y-90587152D01*
X141966661Y-90628747D01*
X138971727Y-93623681D01*
X138931499Y-93650561D01*
X138884046Y-93660000D01*
X137410000Y-93660000D01*
X137410000Y-95134046D01*
X137400561Y-95181499D01*
X137373681Y-95221727D01*
X136776208Y-95819199D01*
X136760110Y-95832096D01*
X136712096Y-95883225D01*
X136709391Y-95886017D01*
X136689874Y-95905534D01*
X136687415Y-95908705D01*
X136679842Y-95917572D01*
X136649935Y-95949420D01*
X136640285Y-95966974D01*
X136629609Y-95983228D01*
X136617326Y-95999063D01*
X136599975Y-96039158D01*
X136594838Y-96049644D01*
X136573802Y-96087907D01*
X136568821Y-96107309D01*
X136562520Y-96125711D01*
X136554561Y-96144102D01*
X136547728Y-96187242D01*
X136545360Y-96198674D01*
X136534500Y-96240978D01*
X136534500Y-96261016D01*
X136532973Y-96280415D01*
X136529840Y-96300194D01*
X136533950Y-96343675D01*
X136534500Y-96355344D01*
X136534500Y-98361313D01*
X136526264Y-98405751D01*
X136502652Y-98444282D01*
X136469545Y-98481051D01*
X136427464Y-98527786D01*
X136332820Y-98691715D01*
X136274326Y-98871742D01*
X136261798Y-98990946D01*
X136254540Y-99060000D01*
X135504591Y-99060000D01*
X135281819Y-98837228D01*
X135254939Y-98797000D01*
X135245500Y-98749547D01*
X135245500Y-93762288D01*
X135259870Y-93704347D01*
X135299648Y-93659834D01*
X135355616Y-93639068D01*
X135414802Y-93646860D01*
X135463488Y-93681404D01*
X135490391Y-93734695D01*
X135530971Y-93912491D01*
X135624057Y-94149669D01*
X135751454Y-94370328D01*
X135910317Y-94569536D01*
X136097095Y-94742841D01*
X136307615Y-94886371D01*
X136537179Y-94996922D01*
X136780654Y-95072025D01*
X136910000Y-95091520D01*
X136910000Y-91728479D01*
X137410000Y-91728479D01*
X137410000Y-93160000D01*
X138846032Y-93160000D01*
X138846032Y-93159999D01*
X138845726Y-93155919D01*
X138789028Y-92907508D01*
X138695942Y-92670330D01*
X138568545Y-92449671D01*
X138409682Y-92250463D01*
X138222907Y-92077160D01*
X138012379Y-91933625D01*
X137782823Y-91823078D01*
X137539345Y-91747974D01*
X137410000Y-91728479D01*
X136910000Y-91728479D01*
X136780654Y-91747974D01*
X136537179Y-91823077D01*
X136307615Y-91933628D01*
X136097095Y-92077158D01*
X135910317Y-92250463D01*
X135751454Y-92449671D01*
X135624057Y-92670330D01*
X135530971Y-92907508D01*
X135490391Y-93085305D01*
X135463488Y-93138596D01*
X135414802Y-93173140D01*
X135355616Y-93180932D01*
X135299648Y-93160166D01*
X135259870Y-93115653D01*
X135245500Y-93057712D01*
X135245500Y-92222740D01*
X135247763Y-92202236D01*
X135245561Y-92132144D01*
X135245500Y-92128250D01*
X135245500Y-92100657D01*
X135245500Y-92100650D01*
X135244995Y-92096653D01*
X135244080Y-92085023D01*
X135243833Y-92077158D01*
X135242709Y-92041372D01*
X135237119Y-92022134D01*
X135233174Y-92003082D01*
X135230664Y-91983208D01*
X135230663Y-91983207D01*
X135214578Y-91942581D01*
X135210805Y-91931560D01*
X135198617Y-91889610D01*
X135188421Y-91872369D01*
X135179863Y-91854902D01*
X135172486Y-91836268D01*
X135146798Y-91800912D01*
X135140409Y-91791184D01*
X135118170Y-91753579D01*
X135104006Y-91739414D01*
X135091369Y-91724620D01*
X135079595Y-91708414D01*
X135079594Y-91708413D01*
X135045935Y-91680568D01*
X135037305Y-91672714D01*
X133698628Y-90334037D01*
X133672046Y-90294522D01*
X133662319Y-90247901D01*
X133670879Y-90201058D01*
X133709508Y-90102637D01*
X133766222Y-89854157D01*
X133785268Y-89600000D01*
X135454731Y-89600000D01*
X135473777Y-89854154D01*
X135530492Y-90102637D01*
X135623608Y-90339891D01*
X135710016Y-90489554D01*
X135751041Y-90560612D01*
X135909950Y-90759877D01*
X136096783Y-90933232D01*
X136307366Y-91076805D01*
X136536996Y-91187389D01*
X136780542Y-91262513D01*
X137032565Y-91300500D01*
X137287435Y-91300500D01*
X137539458Y-91262513D01*
X137783004Y-91187389D01*
X138012634Y-91076805D01*
X138223217Y-90933232D01*
X138410050Y-90759877D01*
X138568959Y-90560612D01*
X138696393Y-90339888D01*
X138789508Y-90102637D01*
X138846222Y-89854157D01*
X138865268Y-89600000D01*
X138846222Y-89345843D01*
X138789508Y-89097363D01*
X138696393Y-88860112D01*
X138568959Y-88639388D01*
X138410050Y-88440123D01*
X138223217Y-88266768D01*
X138012634Y-88123195D01*
X137783004Y-88012611D01*
X137539458Y-87937487D01*
X137287435Y-87899500D01*
X137032565Y-87899500D01*
X136780542Y-87937487D01*
X136536996Y-88012611D01*
X136307366Y-88123195D01*
X136217523Y-88184449D01*
X136096781Y-88266769D01*
X135909950Y-88440123D01*
X135751038Y-88639392D01*
X135623608Y-88860108D01*
X135530492Y-89097362D01*
X135473777Y-89345845D01*
X135454731Y-89600000D01*
X133785268Y-89600000D01*
X133766222Y-89345843D01*
X133709508Y-89097363D01*
X133616393Y-88860112D01*
X133488959Y-88639388D01*
X133330050Y-88440123D01*
X133143217Y-88266768D01*
X132932634Y-88123195D01*
X132703004Y-88012611D01*
X132459458Y-87937487D01*
X132207435Y-87899500D01*
X131952565Y-87899500D01*
X131700542Y-87937487D01*
X131456996Y-88012611D01*
X131227366Y-88123195D01*
X131137523Y-88184449D01*
X131016781Y-88266769D01*
X130829950Y-88440123D01*
X130671038Y-88639392D01*
X130543608Y-88860108D01*
X130450492Y-89097362D01*
X130393777Y-89345845D01*
X130374731Y-89600000D01*
X130393777Y-89854154D01*
X130450492Y-90102637D01*
X130543608Y-90339891D01*
X130630016Y-90489554D01*
X130671041Y-90560612D01*
X130829950Y-90759877D01*
X131016783Y-90933232D01*
X131227366Y-91076805D01*
X131456996Y-91187389D01*
X131700542Y-91262513D01*
X131952565Y-91300500D01*
X132207435Y-91300500D01*
X132459458Y-91262513D01*
X132692591Y-91190600D01*
X132758987Y-91188738D01*
X132816820Y-91221411D01*
X133958181Y-92362772D01*
X133985061Y-92403000D01*
X133994500Y-92450453D01*
X133994500Y-93057712D01*
X133980130Y-93115653D01*
X133940352Y-93160166D01*
X133884384Y-93180932D01*
X133825198Y-93173140D01*
X133776512Y-93138596D01*
X133749609Y-93085305D01*
X133709028Y-92907508D01*
X133615942Y-92670330D01*
X133488545Y-92449671D01*
X133329682Y-92250463D01*
X133142907Y-92077160D01*
X132932379Y-91933625D01*
X132702823Y-91823078D01*
X132459345Y-91747974D01*
X132330000Y-91728479D01*
X132330000Y-95091520D01*
X132459345Y-95072025D01*
X132702823Y-94996921D01*
X132932379Y-94886374D01*
X133142907Y-94742839D01*
X133329682Y-94569536D01*
X133488545Y-94370328D01*
X133615942Y-94149669D01*
X133709028Y-93912491D01*
X133749609Y-93734695D01*
X133776512Y-93681404D01*
X133825198Y-93646860D01*
X133884384Y-93639068D01*
X133940352Y-93659834D01*
X133980130Y-93704347D01*
X133994500Y-93762288D01*
X133994500Y-98977256D01*
X133992235Y-98997762D01*
X133994439Y-99067873D01*
X133994500Y-99071768D01*
X133994500Y-99099349D01*
X133995003Y-99103334D01*
X133995918Y-99114967D01*
X133997290Y-99158626D01*
X134002879Y-99177860D01*
X134006825Y-99196916D01*
X134009335Y-99216792D01*
X134025414Y-99257404D01*
X134029197Y-99268451D01*
X134041382Y-99310391D01*
X134051580Y-99327635D01*
X134060136Y-99345100D01*
X134067514Y-99363732D01*
X134067515Y-99363733D01*
X134093180Y-99399059D01*
X134099593Y-99408822D01*
X134121826Y-99446416D01*
X134121829Y-99446419D01*
X134121830Y-99446420D01*
X134135995Y-99460585D01*
X134148627Y-99475375D01*
X134160406Y-99491587D01*
X134194058Y-99519426D01*
X134202699Y-99527289D01*
X138023181Y-103347772D01*
X138050061Y-103388000D01*
X138059500Y-103435453D01*
X138059500Y-104458420D01*
X138044028Y-104518401D01*
X138001472Y-104563414D01*
X137942453Y-104582225D01*
X137881699Y-104570140D01*
X137783004Y-104522611D01*
X137539458Y-104447487D01*
X137287435Y-104409500D01*
X137032565Y-104409500D01*
X136780542Y-104447487D01*
X136536996Y-104522611D01*
X136307366Y-104633195D01*
X136260500Y-104665148D01*
X136096781Y-104776769D01*
X135909950Y-104950123D01*
X135751038Y-105149392D01*
X135623608Y-105370108D01*
X135530492Y-105607362D01*
X135490391Y-105783057D01*
X135463488Y-105836348D01*
X135414802Y-105870892D01*
X135355616Y-105878684D01*
X135299648Y-105857918D01*
X135259870Y-105813405D01*
X135245500Y-105755464D01*
X135245500Y-102298687D01*
X135253736Y-102254249D01*
X135277347Y-102215717D01*
X135352533Y-102132216D01*
X135447179Y-101968284D01*
X135505674Y-101788256D01*
X135525460Y-101600000D01*
X135505674Y-101411744D01*
X135447179Y-101231716D01*
X135447179Y-101231715D01*
X135352533Y-101067783D01*
X135225870Y-100927110D01*
X135072730Y-100815848D01*
X134899802Y-100738855D01*
X134714648Y-100699500D01*
X134714646Y-100699500D01*
X134525354Y-100699500D01*
X134525352Y-100699500D01*
X134340197Y-100738855D01*
X134167269Y-100815848D01*
X134014129Y-100927110D01*
X133887466Y-101067783D01*
X133792820Y-101231715D01*
X133734326Y-101411742D01*
X133714540Y-101599999D01*
X133734326Y-101788257D01*
X133792820Y-101968284D01*
X133887464Y-102132213D01*
X133887467Y-102132216D01*
X133962652Y-102215717D01*
X133986264Y-102254249D01*
X133994500Y-102298687D01*
X133994500Y-105755464D01*
X133980130Y-105813405D01*
X133940352Y-105857918D01*
X133884384Y-105878684D01*
X133825198Y-105870892D01*
X133776512Y-105836348D01*
X133749609Y-105783057D01*
X133709508Y-105607363D01*
X133616393Y-105370112D01*
X133488959Y-105149388D01*
X133330050Y-104950123D01*
X133143217Y-104776768D01*
X132932634Y-104633195D01*
X132703004Y-104522611D01*
X132459458Y-104447487D01*
X132207435Y-104409500D01*
X131952565Y-104409500D01*
X131700542Y-104447487D01*
X131456996Y-104522611D01*
X131227366Y-104633195D01*
X131180500Y-104665148D01*
X131016781Y-104776769D01*
X130829950Y-104950123D01*
X130671038Y-105149392D01*
X130543608Y-105370108D01*
X130450492Y-105607362D01*
X130393777Y-105855845D01*
X130374731Y-106109999D01*
X127400500Y-106109999D01*
X127400500Y-93660000D01*
X130393968Y-93660000D01*
X130394273Y-93664080D01*
X130450971Y-93912491D01*
X130544057Y-94149669D01*
X130671454Y-94370328D01*
X130830317Y-94569536D01*
X131017095Y-94742841D01*
X131227615Y-94886371D01*
X131457179Y-94996922D01*
X131700654Y-95072025D01*
X131830000Y-95091520D01*
X131830000Y-93660000D01*
X130393968Y-93660000D01*
X127400500Y-93660000D01*
X127400500Y-93159999D01*
X130393967Y-93159999D01*
X130393968Y-93160000D01*
X131830000Y-93160000D01*
X131830000Y-91728479D01*
X131700654Y-91747974D01*
X131457179Y-91823077D01*
X131227615Y-91933628D01*
X131017095Y-92077158D01*
X130830317Y-92250463D01*
X130671454Y-92449671D01*
X130544057Y-92670330D01*
X130450971Y-92907508D01*
X130394273Y-93155919D01*
X130393967Y-93159999D01*
X127400500Y-93159999D01*
X127400500Y-87477396D01*
X141905746Y-87477396D01*
X141915746Y-87687330D01*
X141965297Y-87891580D01*
X142052602Y-88082752D01*
X142125021Y-88184449D01*
X142174514Y-88253952D01*
X142326622Y-88398986D01*
X142390632Y-88440123D01*
X142503425Y-88512612D01*
X142542580Y-88528287D01*
X142698543Y-88590725D01*
X142827228Y-88615527D01*
X142904914Y-88630500D01*
X142904915Y-88630500D01*
X143862420Y-88630500D01*
X143862425Y-88630500D01*
X144019218Y-88615528D01*
X144220875Y-88556316D01*
X144407682Y-88460011D01*
X144572886Y-88330092D01*
X144710519Y-88171256D01*
X144815604Y-87989244D01*
X144884344Y-87790633D01*
X144914254Y-87582602D01*
X144904254Y-87372670D01*
X144854704Y-87168424D01*
X144854702Y-87168419D01*
X144767397Y-86977247D01*
X144645487Y-86806050D01*
X144645486Y-86806048D01*
X144493378Y-86661014D01*
X144461257Y-86640371D01*
X144316574Y-86547387D01*
X144160609Y-86484949D01*
X144121457Y-86469275D01*
X144121456Y-86469274D01*
X144121454Y-86469274D01*
X143915086Y-86429500D01*
X143915085Y-86429500D01*
X142957575Y-86429500D01*
X142859579Y-86438857D01*
X142800779Y-86444472D01*
X142599126Y-86503683D01*
X142412315Y-86599990D01*
X142247115Y-86729906D01*
X142109479Y-86888745D01*
X142004396Y-87070754D01*
X141935655Y-87269366D01*
X141905746Y-87477396D01*
X127400500Y-87477396D01*
X127400500Y-84937396D01*
X141905746Y-84937396D01*
X141915746Y-85147330D01*
X141965297Y-85351580D01*
X142052602Y-85542752D01*
X142162845Y-85697566D01*
X142174514Y-85713952D01*
X142326622Y-85858986D01*
X142398964Y-85905478D01*
X142503425Y-85972612D01*
X142542580Y-85988287D01*
X142698543Y-86050725D01*
X142827228Y-86075527D01*
X142904914Y-86090500D01*
X142904915Y-86090500D01*
X143862420Y-86090500D01*
X143862425Y-86090500D01*
X144019218Y-86075528D01*
X144220875Y-86016316D01*
X144407682Y-85920011D01*
X144572886Y-85790092D01*
X144710519Y-85631256D01*
X144815604Y-85449244D01*
X144884344Y-85250633D01*
X144914254Y-85042602D01*
X144909243Y-84937396D01*
X159685746Y-84937396D01*
X159695746Y-85147330D01*
X159745297Y-85351580D01*
X159832602Y-85542752D01*
X159942845Y-85697566D01*
X159954514Y-85713952D01*
X160106622Y-85858986D01*
X160178964Y-85905478D01*
X160283425Y-85972612D01*
X160322580Y-85988287D01*
X160478543Y-86050725D01*
X160607228Y-86075527D01*
X160684914Y-86090500D01*
X160684915Y-86090500D01*
X161642420Y-86090500D01*
X161642425Y-86090500D01*
X161799218Y-86075528D01*
X162000875Y-86016316D01*
X162187682Y-85920011D01*
X162352886Y-85790092D01*
X162490519Y-85631256D01*
X162595604Y-85449244D01*
X162664344Y-85250633D01*
X162694254Y-85042602D01*
X162684254Y-84832670D01*
X162634704Y-84628424D01*
X162634702Y-84628419D01*
X162547397Y-84437247D01*
X162425487Y-84266050D01*
X162425486Y-84266048D01*
X162273378Y-84121014D01*
X162241257Y-84100371D01*
X162096574Y-84007387D01*
X161940609Y-83944949D01*
X161901457Y-83929275D01*
X161901456Y-83929274D01*
X161901454Y-83929274D01*
X161695086Y-83889500D01*
X161695085Y-83889500D01*
X160737575Y-83889500D01*
X160639579Y-83898857D01*
X160580779Y-83904472D01*
X160379126Y-83963683D01*
X160192315Y-84059990D01*
X160027115Y-84189906D01*
X159889479Y-84348745D01*
X159784396Y-84530754D01*
X159715655Y-84729366D01*
X159685746Y-84937396D01*
X144909243Y-84937396D01*
X144904254Y-84832670D01*
X144854704Y-84628424D01*
X144854702Y-84628419D01*
X144767397Y-84437247D01*
X144645487Y-84266050D01*
X144645486Y-84266048D01*
X144493378Y-84121014D01*
X144461257Y-84100371D01*
X144316574Y-84007387D01*
X144160609Y-83944949D01*
X144121457Y-83929275D01*
X144121456Y-83929274D01*
X144121454Y-83929274D01*
X143915086Y-83889500D01*
X143915085Y-83889500D01*
X142957575Y-83889500D01*
X142859579Y-83898857D01*
X142800779Y-83904472D01*
X142599126Y-83963683D01*
X142412315Y-84059990D01*
X142247115Y-84189906D01*
X142109479Y-84348745D01*
X142004396Y-84530754D01*
X141935655Y-84729366D01*
X141905746Y-84937396D01*
X127400500Y-84937396D01*
X127400500Y-82397396D01*
X141905746Y-82397396D01*
X141915746Y-82607330D01*
X141965297Y-82811580D01*
X142052602Y-83002752D01*
X142162845Y-83157566D01*
X142174514Y-83173952D01*
X142326622Y-83318986D01*
X142398964Y-83365478D01*
X142503425Y-83432612D01*
X142542580Y-83448287D01*
X142698543Y-83510725D01*
X142827228Y-83535527D01*
X142904914Y-83550500D01*
X142904915Y-83550500D01*
X143862420Y-83550500D01*
X143862425Y-83550500D01*
X144019218Y-83535528D01*
X144220875Y-83476316D01*
X144407682Y-83380011D01*
X144572886Y-83250092D01*
X144710519Y-83091256D01*
X144815604Y-82909244D01*
X144884344Y-82710633D01*
X144914254Y-82502602D01*
X144909243Y-82397396D01*
X159685746Y-82397396D01*
X159695746Y-82607330D01*
X159745297Y-82811580D01*
X159832602Y-83002752D01*
X159942845Y-83157566D01*
X159954514Y-83173952D01*
X160106622Y-83318986D01*
X160178964Y-83365478D01*
X160283425Y-83432612D01*
X160322580Y-83448287D01*
X160478543Y-83510725D01*
X160607228Y-83535527D01*
X160684914Y-83550500D01*
X160684915Y-83550500D01*
X161642420Y-83550500D01*
X161642425Y-83550500D01*
X161799218Y-83535528D01*
X162000875Y-83476316D01*
X162187682Y-83380011D01*
X162352886Y-83250092D01*
X162490519Y-83091256D01*
X162595604Y-82909244D01*
X162664344Y-82710633D01*
X162694254Y-82502602D01*
X162684254Y-82292670D01*
X162634704Y-82088424D01*
X162634702Y-82088419D01*
X162547397Y-81897247D01*
X162461797Y-81777040D01*
X162425486Y-81726048D01*
X162273378Y-81581014D01*
X162241257Y-81560371D01*
X162096574Y-81467387D01*
X161940609Y-81404949D01*
X161901457Y-81389275D01*
X161901456Y-81389274D01*
X161901454Y-81389274D01*
X161695086Y-81349500D01*
X161695085Y-81349500D01*
X160737575Y-81349500D01*
X160639579Y-81358857D01*
X160580779Y-81364472D01*
X160379126Y-81423683D01*
X160192315Y-81519990D01*
X160027115Y-81649906D01*
X159889479Y-81808745D01*
X159784396Y-81990754D01*
X159715655Y-82189366D01*
X159685746Y-82397396D01*
X144909243Y-82397396D01*
X144904254Y-82292670D01*
X144854704Y-82088424D01*
X144854702Y-82088419D01*
X144767397Y-81897247D01*
X144681797Y-81777040D01*
X144645486Y-81726048D01*
X144493378Y-81581014D01*
X144461257Y-81560371D01*
X144316574Y-81467387D01*
X144160609Y-81404949D01*
X144121457Y-81389275D01*
X144121456Y-81389274D01*
X144121454Y-81389274D01*
X143915086Y-81349500D01*
X143915085Y-81349500D01*
X142957575Y-81349500D01*
X142859579Y-81358857D01*
X142800779Y-81364472D01*
X142599126Y-81423683D01*
X142412315Y-81519990D01*
X142247115Y-81649906D01*
X142109479Y-81808745D01*
X142004396Y-81990754D01*
X141935655Y-82189366D01*
X141905746Y-82397396D01*
X127400500Y-82397396D01*
X127400500Y-79857396D01*
X141905746Y-79857396D01*
X141915746Y-80067330D01*
X141965297Y-80271580D01*
X142052602Y-80462752D01*
X142162846Y-80617566D01*
X142174514Y-80633952D01*
X142326622Y-80778986D01*
X142384741Y-80816337D01*
X142503425Y-80892612D01*
X142542580Y-80908287D01*
X142698543Y-80970725D01*
X142827228Y-80995527D01*
X142904914Y-81010500D01*
X142904915Y-81010500D01*
X143862420Y-81010500D01*
X143862425Y-81010500D01*
X144019218Y-80995528D01*
X144220875Y-80936316D01*
X144407682Y-80840011D01*
X144572886Y-80710092D01*
X144710519Y-80551256D01*
X144815604Y-80369244D01*
X144884344Y-80170633D01*
X144914254Y-79962602D01*
X144909243Y-79857396D01*
X159685746Y-79857396D01*
X159695746Y-80067330D01*
X159745297Y-80271580D01*
X159832602Y-80462752D01*
X159942846Y-80617566D01*
X159954514Y-80633952D01*
X160106622Y-80778986D01*
X160164741Y-80816337D01*
X160283425Y-80892612D01*
X160322580Y-80908287D01*
X160478543Y-80970725D01*
X160607228Y-80995527D01*
X160684914Y-81010500D01*
X160684915Y-81010500D01*
X161642420Y-81010500D01*
X161642425Y-81010500D01*
X161799218Y-80995528D01*
X162000875Y-80936316D01*
X162187682Y-80840011D01*
X162352886Y-80710092D01*
X162490519Y-80551256D01*
X162595604Y-80369244D01*
X162664344Y-80170633D01*
X162694254Y-79962602D01*
X162684254Y-79752670D01*
X162634704Y-79548424D01*
X162634702Y-79548419D01*
X162547397Y-79357247D01*
X162425487Y-79186050D01*
X162425486Y-79186048D01*
X162273378Y-79041014D01*
X162233533Y-79015407D01*
X162096574Y-78927387D01*
X161940609Y-78864949D01*
X161901457Y-78849275D01*
X161901456Y-78849274D01*
X161901454Y-78849274D01*
X161695086Y-78809500D01*
X161695085Y-78809500D01*
X160737575Y-78809500D01*
X160639579Y-78818857D01*
X160580779Y-78824472D01*
X160379126Y-78883683D01*
X160192315Y-78979990D01*
X160027115Y-79109906D01*
X159889479Y-79268745D01*
X159784396Y-79450754D01*
X159715655Y-79649366D01*
X159685746Y-79857396D01*
X144909243Y-79857396D01*
X144904254Y-79752670D01*
X144854704Y-79548424D01*
X144854702Y-79548419D01*
X144767397Y-79357247D01*
X144645487Y-79186050D01*
X144645486Y-79186048D01*
X144493378Y-79041014D01*
X144453533Y-79015407D01*
X144316574Y-78927387D01*
X144160609Y-78864949D01*
X144121457Y-78849275D01*
X144121456Y-78849274D01*
X144121454Y-78849274D01*
X143915086Y-78809500D01*
X143915085Y-78809500D01*
X142957575Y-78809500D01*
X142859579Y-78818857D01*
X142800779Y-78824472D01*
X142599126Y-78883683D01*
X142412315Y-78979990D01*
X142247115Y-79109906D01*
X142109479Y-79268745D01*
X142004396Y-79450754D01*
X141935655Y-79649366D01*
X141905746Y-79857396D01*
X127400500Y-79857396D01*
X127400500Y-76899999D01*
X130374731Y-76899999D01*
X130393777Y-77154154D01*
X130450492Y-77402637D01*
X130543608Y-77639891D01*
X130652931Y-77829244D01*
X130671041Y-77860612D01*
X130829950Y-78059877D01*
X131016783Y-78233232D01*
X131227366Y-78376805D01*
X131456996Y-78487389D01*
X131700542Y-78562513D01*
X131952565Y-78600500D01*
X132207435Y-78600500D01*
X132459458Y-78562513D01*
X132703004Y-78487389D01*
X132932634Y-78376805D01*
X133143217Y-78233232D01*
X133330050Y-78059877D01*
X133488959Y-77860612D01*
X133616393Y-77639888D01*
X133709508Y-77402637D01*
X133766222Y-77154157D01*
X133785268Y-76900000D01*
X133785268Y-76899999D01*
X135454731Y-76899999D01*
X135473777Y-77154154D01*
X135530492Y-77402637D01*
X135623608Y-77639891D01*
X135732931Y-77829244D01*
X135751041Y-77860612D01*
X135909950Y-78059877D01*
X136096783Y-78233232D01*
X136307366Y-78376805D01*
X136536996Y-78487389D01*
X136780542Y-78562513D01*
X137032565Y-78600500D01*
X137287435Y-78600500D01*
X137539458Y-78562513D01*
X137783004Y-78487389D01*
X138012634Y-78376805D01*
X138223217Y-78233232D01*
X138410050Y-78059877D01*
X138568959Y-77860612D01*
X138696393Y-77639888D01*
X138789508Y-77402637D01*
X138808964Y-77317396D01*
X141905746Y-77317396D01*
X141915746Y-77527330D01*
X141965297Y-77731580D01*
X142052602Y-77922752D01*
X142150249Y-78059877D01*
X142174514Y-78093952D01*
X142326622Y-78238986D01*
X142398964Y-78285478D01*
X142503425Y-78352612D01*
X142542580Y-78368287D01*
X142698543Y-78430725D01*
X142827228Y-78455527D01*
X142904914Y-78470500D01*
X142904915Y-78470500D01*
X143862420Y-78470500D01*
X143862425Y-78470500D01*
X144019218Y-78455528D01*
X144220875Y-78396316D01*
X144407682Y-78300011D01*
X144572886Y-78170092D01*
X144710519Y-78011256D01*
X144815604Y-77829244D01*
X144884344Y-77630633D01*
X144914254Y-77422602D01*
X144909243Y-77317396D01*
X159685746Y-77317396D01*
X159695746Y-77527330D01*
X159745297Y-77731580D01*
X159832602Y-77922752D01*
X159930249Y-78059877D01*
X159954514Y-78093952D01*
X160106622Y-78238986D01*
X160178964Y-78285478D01*
X160283425Y-78352612D01*
X160322580Y-78368287D01*
X160478543Y-78430725D01*
X160607228Y-78455527D01*
X160684914Y-78470500D01*
X160684915Y-78470500D01*
X161642420Y-78470500D01*
X161642425Y-78470500D01*
X161799218Y-78455528D01*
X162000875Y-78396316D01*
X162187682Y-78300011D01*
X162352886Y-78170092D01*
X162490519Y-78011256D01*
X162595604Y-77829244D01*
X162664344Y-77630633D01*
X162694254Y-77422602D01*
X162684254Y-77212670D01*
X162634704Y-77008424D01*
X162634702Y-77008419D01*
X162547397Y-76817247D01*
X162425487Y-76646050D01*
X162425486Y-76646048D01*
X162273378Y-76501014D01*
X162241257Y-76480371D01*
X162096574Y-76387387D01*
X161940609Y-76324949D01*
X161901457Y-76309275D01*
X161901456Y-76309274D01*
X161901454Y-76309274D01*
X161695086Y-76269500D01*
X161695085Y-76269500D01*
X160737575Y-76269500D01*
X160639579Y-76278857D01*
X160580779Y-76284472D01*
X160379126Y-76343683D01*
X160192315Y-76439990D01*
X160027115Y-76569906D01*
X159889479Y-76728745D01*
X159784396Y-76910754D01*
X159715655Y-77109366D01*
X159685746Y-77317396D01*
X144909243Y-77317396D01*
X144904254Y-77212670D01*
X144854704Y-77008424D01*
X144854702Y-77008419D01*
X144767397Y-76817247D01*
X144645487Y-76646050D01*
X144645486Y-76646048D01*
X144493378Y-76501014D01*
X144461257Y-76480371D01*
X144316574Y-76387387D01*
X144160609Y-76324949D01*
X144121457Y-76309275D01*
X144121456Y-76309274D01*
X144121454Y-76309274D01*
X143915086Y-76269500D01*
X143915085Y-76269500D01*
X142957575Y-76269500D01*
X142859579Y-76278857D01*
X142800779Y-76284472D01*
X142599126Y-76343683D01*
X142412315Y-76439990D01*
X142247115Y-76569906D01*
X142109479Y-76728745D01*
X142004396Y-76910754D01*
X141935655Y-77109366D01*
X141905746Y-77317396D01*
X138808964Y-77317396D01*
X138846222Y-77154157D01*
X138865268Y-76900000D01*
X138846222Y-76645843D01*
X138789508Y-76397363D01*
X138696393Y-76160112D01*
X138568959Y-75939388D01*
X138410050Y-75740123D01*
X138223217Y-75566768D01*
X138012634Y-75423195D01*
X137783004Y-75312611D01*
X137539458Y-75237487D01*
X137287435Y-75199500D01*
X137032565Y-75199500D01*
X136780542Y-75237487D01*
X136536996Y-75312611D01*
X136307366Y-75423195D01*
X136202074Y-75494981D01*
X136096781Y-75566769D01*
X135909950Y-75740123D01*
X135751038Y-75939392D01*
X135623608Y-76160108D01*
X135530492Y-76397362D01*
X135473777Y-76645845D01*
X135454731Y-76899999D01*
X133785268Y-76899999D01*
X133766222Y-76645843D01*
X133709508Y-76397363D01*
X133616393Y-76160112D01*
X133488959Y-75939388D01*
X133330050Y-75740123D01*
X133143217Y-75566768D01*
X132932634Y-75423195D01*
X132703004Y-75312611D01*
X132459458Y-75237487D01*
X132207435Y-75199500D01*
X131952565Y-75199500D01*
X131700542Y-75237487D01*
X131456996Y-75312611D01*
X131227366Y-75423195D01*
X131122074Y-75494981D01*
X131016781Y-75566769D01*
X130829950Y-75740123D01*
X130671038Y-75939392D01*
X130543608Y-76160108D01*
X130450492Y-76397362D01*
X130393777Y-76645845D01*
X130374731Y-76899999D01*
X127400500Y-76899999D01*
X127400500Y-74777396D01*
X141905746Y-74777396D01*
X141915746Y-74987330D01*
X141965297Y-75191580D01*
X142052602Y-75382752D01*
X142162846Y-75537566D01*
X142174514Y-75553952D01*
X142326622Y-75698986D01*
X142390632Y-75740123D01*
X142503425Y-75812612D01*
X142512730Y-75816337D01*
X142698543Y-75890725D01*
X142827228Y-75915527D01*
X142904914Y-75930500D01*
X142904915Y-75930500D01*
X143862420Y-75930500D01*
X143862425Y-75930500D01*
X144019218Y-75915528D01*
X144220875Y-75856316D01*
X144407682Y-75760011D01*
X144572886Y-75630092D01*
X144710519Y-75471256D01*
X144815604Y-75289244D01*
X144884344Y-75090633D01*
X144914254Y-74882602D01*
X144909243Y-74777396D01*
X159685746Y-74777396D01*
X159695746Y-74987330D01*
X159745297Y-75191580D01*
X159832602Y-75382752D01*
X159942846Y-75537566D01*
X159954514Y-75553952D01*
X160106622Y-75698986D01*
X160170632Y-75740123D01*
X160283425Y-75812612D01*
X160292730Y-75816337D01*
X160478543Y-75890725D01*
X160607228Y-75915527D01*
X160684914Y-75930500D01*
X160684915Y-75930500D01*
X161642420Y-75930500D01*
X161642425Y-75930500D01*
X161799218Y-75915528D01*
X162000875Y-75856316D01*
X162187682Y-75760011D01*
X162352886Y-75630092D01*
X162490519Y-75471256D01*
X162595604Y-75289244D01*
X162664344Y-75090633D01*
X162694254Y-74882602D01*
X162684254Y-74672670D01*
X162634704Y-74468424D01*
X162634702Y-74468419D01*
X162547397Y-74277247D01*
X162461797Y-74157040D01*
X162425486Y-74106048D01*
X162273378Y-73961014D01*
X162241257Y-73940371D01*
X162096574Y-73847387D01*
X161940609Y-73784949D01*
X161901457Y-73769275D01*
X161901456Y-73769274D01*
X161901454Y-73769274D01*
X161695086Y-73729500D01*
X161695085Y-73729500D01*
X160737575Y-73729500D01*
X160639579Y-73738857D01*
X160580779Y-73744472D01*
X160379126Y-73803683D01*
X160192315Y-73899990D01*
X160027115Y-74029906D01*
X159889479Y-74188745D01*
X159784396Y-74370754D01*
X159715655Y-74569366D01*
X159685746Y-74777396D01*
X144909243Y-74777396D01*
X144904254Y-74672670D01*
X144854704Y-74468424D01*
X144854702Y-74468419D01*
X144767397Y-74277247D01*
X144681797Y-74157040D01*
X144645486Y-74106048D01*
X144493378Y-73961014D01*
X144461257Y-73940371D01*
X144316574Y-73847387D01*
X144160609Y-73784949D01*
X144121457Y-73769275D01*
X144121456Y-73769274D01*
X144121454Y-73769274D01*
X143915086Y-73729500D01*
X143915085Y-73729500D01*
X142957575Y-73729500D01*
X142859579Y-73738857D01*
X142800779Y-73744472D01*
X142599126Y-73803683D01*
X142412315Y-73899990D01*
X142247115Y-74029906D01*
X142109479Y-74188745D01*
X142004396Y-74370754D01*
X141935655Y-74569366D01*
X141905746Y-74777396D01*
X127400500Y-74777396D01*
X127400500Y-73130000D01*
X130774531Y-73130000D01*
X130794364Y-73356689D01*
X130853261Y-73576497D01*
X130949432Y-73782735D01*
X131079953Y-73969140D01*
X131240859Y-74130046D01*
X131427264Y-74260567D01*
X131427265Y-74260567D01*
X131427266Y-74260568D01*
X131633504Y-74356739D01*
X131853308Y-74415635D01*
X132080000Y-74435468D01*
X132306692Y-74415635D01*
X132526496Y-74356739D01*
X132732734Y-74260568D01*
X132919139Y-74130047D01*
X133080047Y-73969139D01*
X133210568Y-73782734D01*
X133306739Y-73576496D01*
X133365635Y-73356692D01*
X133385468Y-73130000D01*
X133381976Y-73090092D01*
X133381968Y-73090000D01*
X135854531Y-73090000D01*
X135874364Y-73316689D01*
X135933261Y-73536497D01*
X136029432Y-73742735D01*
X136159953Y-73929140D01*
X136320859Y-74090046D01*
X136507264Y-74220567D01*
X136507265Y-74220567D01*
X136507266Y-74220568D01*
X136713504Y-74316739D01*
X136933308Y-74375635D01*
X137160000Y-74395468D01*
X137386692Y-74375635D01*
X137606496Y-74316739D01*
X137812734Y-74220568D01*
X137999139Y-74090047D01*
X138160047Y-73929139D01*
X138290568Y-73742734D01*
X138386739Y-73536496D01*
X138445635Y-73316692D01*
X138465468Y-73090000D01*
X138445635Y-72863308D01*
X138386739Y-72643504D01*
X138290568Y-72437266D01*
X138285130Y-72429500D01*
X138160046Y-72250859D01*
X138146583Y-72237396D01*
X141905746Y-72237396D01*
X141915746Y-72447330D01*
X141965297Y-72651580D01*
X142052602Y-72842752D01*
X142162846Y-72997566D01*
X142174514Y-73013952D01*
X142326622Y-73158986D01*
X142398964Y-73205478D01*
X142503425Y-73272612D01*
X142542580Y-73288287D01*
X142698543Y-73350725D01*
X142827228Y-73375527D01*
X142904914Y-73390500D01*
X142904915Y-73390500D01*
X143862420Y-73390500D01*
X143862425Y-73390500D01*
X144019218Y-73375528D01*
X144220875Y-73316316D01*
X144407682Y-73220011D01*
X144572886Y-73090092D01*
X144710519Y-72931256D01*
X144815604Y-72749244D01*
X144884344Y-72550633D01*
X144914254Y-72342602D01*
X144909243Y-72237396D01*
X159685746Y-72237396D01*
X159695746Y-72447330D01*
X159745297Y-72651580D01*
X159832602Y-72842752D01*
X159942846Y-72997566D01*
X159954514Y-73013952D01*
X160106622Y-73158986D01*
X160178964Y-73205478D01*
X160283425Y-73272612D01*
X160322580Y-73288287D01*
X160478543Y-73350725D01*
X160607228Y-73375527D01*
X160684914Y-73390500D01*
X160684915Y-73390500D01*
X161642420Y-73390500D01*
X161642425Y-73390500D01*
X161799218Y-73375528D01*
X162000875Y-73316316D01*
X162187682Y-73220011D01*
X162352886Y-73090092D01*
X162490519Y-72931256D01*
X162595604Y-72749244D01*
X162664344Y-72550633D01*
X162694254Y-72342602D01*
X162684254Y-72132670D01*
X162634704Y-71928424D01*
X162634702Y-71928419D01*
X162547397Y-71737247D01*
X162425487Y-71566050D01*
X162425486Y-71566048D01*
X162273378Y-71421014D01*
X162241257Y-71400371D01*
X162096574Y-71307387D01*
X161934442Y-71242480D01*
X161901457Y-71229275D01*
X161901456Y-71229274D01*
X161901454Y-71229274D01*
X161695086Y-71189500D01*
X161695085Y-71189500D01*
X160737575Y-71189500D01*
X160639579Y-71198857D01*
X160580779Y-71204472D01*
X160379126Y-71263683D01*
X160192315Y-71359990D01*
X160027115Y-71489906D01*
X159889479Y-71648745D01*
X159784396Y-71830754D01*
X159715655Y-72029366D01*
X159685746Y-72237396D01*
X144909243Y-72237396D01*
X144904254Y-72132670D01*
X144854704Y-71928424D01*
X144854702Y-71928419D01*
X144767397Y-71737247D01*
X144645487Y-71566050D01*
X144645486Y-71566048D01*
X144493378Y-71421014D01*
X144461257Y-71400371D01*
X144316574Y-71307387D01*
X144154442Y-71242480D01*
X144121457Y-71229275D01*
X144121456Y-71229274D01*
X144121454Y-71229274D01*
X143915086Y-71189500D01*
X143915085Y-71189500D01*
X142957575Y-71189500D01*
X142859579Y-71198857D01*
X142800779Y-71204472D01*
X142599126Y-71263683D01*
X142412315Y-71359990D01*
X142247115Y-71489906D01*
X142109479Y-71648745D01*
X142004396Y-71830754D01*
X141935655Y-72029366D01*
X141905746Y-72237396D01*
X138146583Y-72237396D01*
X137999140Y-72089953D01*
X137812735Y-71959432D01*
X137797023Y-71952106D01*
X137744847Y-71906348D01*
X137725428Y-71839722D01*
X137744849Y-71773097D01*
X137797026Y-71727340D01*
X137812484Y-71720131D01*
X137885472Y-71669025D01*
X137160001Y-70943553D01*
X137160000Y-70943553D01*
X136434526Y-71669025D01*
X136434526Y-71669026D01*
X136507515Y-71720133D01*
X136522975Y-71727342D01*
X136575150Y-71773098D01*
X136594570Y-71839722D01*
X136575152Y-71906347D01*
X136522978Y-71952104D01*
X136507268Y-71959429D01*
X136320859Y-72089953D01*
X136159953Y-72250859D01*
X136029432Y-72437264D01*
X135933261Y-72643502D01*
X135874364Y-72863310D01*
X135854531Y-73090000D01*
X133381968Y-73090000D01*
X133365635Y-72903310D01*
X133365635Y-72903308D01*
X133306739Y-72683504D01*
X133210568Y-72477266D01*
X133184474Y-72440000D01*
X133080046Y-72290859D01*
X132919140Y-72129953D01*
X132732735Y-71999432D01*
X132717023Y-71992106D01*
X132664847Y-71946348D01*
X132645428Y-71879722D01*
X132664849Y-71813097D01*
X132717026Y-71767340D01*
X132732484Y-71760131D01*
X132805472Y-71709025D01*
X132080001Y-70983553D01*
X132080000Y-70983553D01*
X131354526Y-71709025D01*
X131354526Y-71709026D01*
X131427515Y-71760133D01*
X131442975Y-71767342D01*
X131495150Y-71813098D01*
X131514570Y-71879722D01*
X131495152Y-71946347D01*
X131442978Y-71992104D01*
X131427268Y-71999429D01*
X131240859Y-72129953D01*
X131079953Y-72290859D01*
X130949432Y-72477264D01*
X130853261Y-72683502D01*
X130794364Y-72903310D01*
X130774531Y-73130000D01*
X127400500Y-73130000D01*
X127400500Y-70630000D01*
X130775033Y-70630000D01*
X130794858Y-70856602D01*
X130853733Y-71076326D01*
X130949866Y-71282484D01*
X131000972Y-71355471D01*
X131000974Y-71355472D01*
X131726446Y-70630001D01*
X132433553Y-70630001D01*
X133159025Y-71355472D01*
X133210134Y-71282480D01*
X133306266Y-71076326D01*
X133365141Y-70856602D01*
X133384966Y-70629999D01*
X133381467Y-70590000D01*
X135855033Y-70590000D01*
X135874858Y-70816602D01*
X135933733Y-71036326D01*
X136029866Y-71242484D01*
X136080972Y-71315471D01*
X136080974Y-71315472D01*
X136806446Y-70590001D01*
X137513553Y-70590001D01*
X138239025Y-71315472D01*
X138290134Y-71242480D01*
X138386266Y-71036326D01*
X138445141Y-70816602D01*
X138464966Y-70589999D01*
X138445141Y-70363397D01*
X138386266Y-70143673D01*
X138290133Y-69937515D01*
X138239025Y-69864526D01*
X137513553Y-70590000D01*
X137513553Y-70590001D01*
X136806446Y-70590001D01*
X136806446Y-70590000D01*
X136080973Y-69864526D01*
X136080973Y-69864527D01*
X136029865Y-69937516D01*
X135933733Y-70143672D01*
X135874858Y-70363397D01*
X135855033Y-70590000D01*
X133381467Y-70590000D01*
X133365141Y-70403397D01*
X133306266Y-70183673D01*
X133210133Y-69977515D01*
X133159025Y-69904526D01*
X132433553Y-70630000D01*
X132433553Y-70630001D01*
X131726446Y-70630001D01*
X131726446Y-70630000D01*
X131000973Y-69904526D01*
X131000973Y-69904527D01*
X130949865Y-69977516D01*
X130853733Y-70183672D01*
X130794858Y-70403397D01*
X130775033Y-70630000D01*
X127400500Y-70630000D01*
X127400500Y-69550973D01*
X131354526Y-69550973D01*
X132079998Y-70276446D01*
X132079999Y-70276446D01*
X132805472Y-69550973D01*
X132805471Y-69550972D01*
X132748346Y-69510973D01*
X136434526Y-69510973D01*
X137160000Y-70236446D01*
X137160001Y-70236446D01*
X137699050Y-69697396D01*
X141905746Y-69697396D01*
X141915746Y-69907330D01*
X141965297Y-70111580D01*
X142052602Y-70302752D01*
X142124272Y-70403397D01*
X142174514Y-70473952D01*
X142326622Y-70618986D01*
X142343762Y-70630001D01*
X142503425Y-70732612D01*
X142542580Y-70748287D01*
X142698543Y-70810725D01*
X142827228Y-70835527D01*
X142904914Y-70850500D01*
X142904915Y-70850500D01*
X143862420Y-70850500D01*
X143862425Y-70850500D01*
X144019218Y-70835528D01*
X144220875Y-70776316D01*
X144407682Y-70680011D01*
X144572886Y-70550092D01*
X144710519Y-70391256D01*
X144815604Y-70209244D01*
X144884344Y-70010633D01*
X144914254Y-69802602D01*
X144909243Y-69697396D01*
X159685746Y-69697396D01*
X159695746Y-69907330D01*
X159745297Y-70111580D01*
X159832602Y-70302752D01*
X159904272Y-70403397D01*
X159954514Y-70473952D01*
X160106622Y-70618986D01*
X160123762Y-70630001D01*
X160283425Y-70732612D01*
X160322580Y-70748287D01*
X160478543Y-70810725D01*
X160607228Y-70835527D01*
X160684914Y-70850500D01*
X160684915Y-70850500D01*
X161642420Y-70850500D01*
X161642425Y-70850500D01*
X161799218Y-70835528D01*
X162000875Y-70776316D01*
X162187682Y-70680011D01*
X162352886Y-70550092D01*
X162490519Y-70391256D01*
X162595604Y-70209244D01*
X162664344Y-70010633D01*
X162694254Y-69802602D01*
X162684254Y-69592670D01*
X162634704Y-69388424D01*
X162614808Y-69344858D01*
X162547397Y-69197247D01*
X162425487Y-69026050D01*
X162425486Y-69026048D01*
X162273378Y-68881014D01*
X162241257Y-68860371D01*
X162096574Y-68767387D01*
X161940609Y-68704949D01*
X161901457Y-68689275D01*
X161901456Y-68689274D01*
X161901454Y-68689274D01*
X161695086Y-68649500D01*
X161695085Y-68649500D01*
X160737575Y-68649500D01*
X160639579Y-68658857D01*
X160580779Y-68664472D01*
X160379126Y-68723683D01*
X160192315Y-68819990D01*
X160027115Y-68949906D01*
X159889479Y-69108745D01*
X159784396Y-69290754D01*
X159715655Y-69489366D01*
X159685746Y-69697396D01*
X144909243Y-69697396D01*
X144904254Y-69592670D01*
X144854704Y-69388424D01*
X144834808Y-69344858D01*
X144767397Y-69197247D01*
X144645487Y-69026050D01*
X144645486Y-69026048D01*
X144493378Y-68881014D01*
X144461257Y-68860371D01*
X144316574Y-68767387D01*
X144160609Y-68704949D01*
X144121457Y-68689275D01*
X144121456Y-68689274D01*
X144121454Y-68689274D01*
X143915086Y-68649500D01*
X143915085Y-68649500D01*
X142957575Y-68649500D01*
X142859579Y-68658857D01*
X142800779Y-68664472D01*
X142599126Y-68723683D01*
X142412315Y-68819990D01*
X142247115Y-68949906D01*
X142109479Y-69108745D01*
X142004396Y-69290754D01*
X141935655Y-69489366D01*
X141905746Y-69697396D01*
X137699050Y-69697396D01*
X137885472Y-69510974D01*
X137885471Y-69510972D01*
X137812484Y-69459866D01*
X137606326Y-69363733D01*
X137386602Y-69304858D01*
X137160000Y-69285033D01*
X136933397Y-69304858D01*
X136713672Y-69363733D01*
X136507516Y-69459865D01*
X136434527Y-69510973D01*
X136434526Y-69510973D01*
X132748346Y-69510973D01*
X132732484Y-69499866D01*
X132526326Y-69403733D01*
X132306602Y-69344858D01*
X132080000Y-69325033D01*
X131853397Y-69344858D01*
X131633672Y-69403733D01*
X131427516Y-69499865D01*
X131354526Y-69550973D01*
X127400500Y-69550973D01*
X127400500Y-65000000D01*
X128694422Y-65000000D01*
X128714722Y-65387340D01*
X128775396Y-65770429D01*
X128875785Y-66145086D01*
X129014785Y-66507193D01*
X129190876Y-66852793D01*
X129388689Y-67157396D01*
X129402124Y-67178084D01*
X129646219Y-67479516D01*
X129920484Y-67753781D01*
X130221916Y-67997876D01*
X130221918Y-67997877D01*
X130221919Y-67997878D01*
X130547206Y-68209123D01*
X130892806Y-68385214D01*
X131254913Y-68524214D01*
X131629570Y-68624603D01*
X131821114Y-68654939D01*
X132012662Y-68685278D01*
X132400000Y-68705578D01*
X132787338Y-68685278D01*
X133036686Y-68645785D01*
X133170429Y-68624603D01*
X133170433Y-68624602D01*
X133545087Y-68524214D01*
X133907194Y-68385214D01*
X134252789Y-68209125D01*
X134252788Y-68209125D01*
X134252793Y-68209123D01*
X134415436Y-68103500D01*
X134578084Y-67997876D01*
X134879516Y-67753781D01*
X135153781Y-67479516D01*
X135397876Y-67178084D01*
X135411311Y-67157396D01*
X141905746Y-67157396D01*
X141915746Y-67367330D01*
X141965297Y-67571580D01*
X142052602Y-67762752D01*
X142162846Y-67917566D01*
X142174514Y-67933952D01*
X142326622Y-68078986D01*
X142398964Y-68125478D01*
X142503425Y-68192612D01*
X142542580Y-68208287D01*
X142698543Y-68270725D01*
X142827228Y-68295527D01*
X142904914Y-68310500D01*
X142904915Y-68310500D01*
X143862420Y-68310500D01*
X143862425Y-68310500D01*
X144019218Y-68295528D01*
X144220875Y-68236316D01*
X144407682Y-68140011D01*
X144572886Y-68010092D01*
X144710519Y-67851256D01*
X144815604Y-67669244D01*
X144884344Y-67470633D01*
X144914254Y-67262602D01*
X144909243Y-67157396D01*
X159685746Y-67157396D01*
X159695746Y-67367330D01*
X159745297Y-67571580D01*
X159832602Y-67762752D01*
X159942846Y-67917566D01*
X159954514Y-67933952D01*
X160106622Y-68078986D01*
X160178964Y-68125478D01*
X160283425Y-68192612D01*
X160322580Y-68208287D01*
X160478543Y-68270725D01*
X160607228Y-68295527D01*
X160684914Y-68310500D01*
X160684915Y-68310500D01*
X161642420Y-68310500D01*
X161642425Y-68310500D01*
X161799218Y-68295528D01*
X162000875Y-68236316D01*
X162187682Y-68140011D01*
X162352886Y-68010092D01*
X162490519Y-67851256D01*
X162595604Y-67669244D01*
X162664344Y-67470633D01*
X162694254Y-67262602D01*
X162684254Y-67052670D01*
X162634704Y-66848424D01*
X162634702Y-66848419D01*
X162547397Y-66657247D01*
X162425487Y-66486050D01*
X162425486Y-66486048D01*
X162273378Y-66341014D01*
X162241257Y-66320371D01*
X162096574Y-66227387D01*
X161940609Y-66164949D01*
X161901457Y-66149275D01*
X161901456Y-66149274D01*
X161901454Y-66149274D01*
X161695086Y-66109500D01*
X161695085Y-66109500D01*
X160737575Y-66109500D01*
X160639579Y-66118857D01*
X160580779Y-66124472D01*
X160379126Y-66183683D01*
X160192315Y-66279990D01*
X160027115Y-66409906D01*
X159889479Y-66568745D01*
X159784396Y-66750754D01*
X159715655Y-66949366D01*
X159685746Y-67157396D01*
X144909243Y-67157396D01*
X144904254Y-67052670D01*
X144854704Y-66848424D01*
X144854702Y-66848419D01*
X144767397Y-66657247D01*
X144645487Y-66486050D01*
X144645486Y-66486048D01*
X144493378Y-66341014D01*
X144461257Y-66320371D01*
X144316574Y-66227387D01*
X144160609Y-66164949D01*
X144121457Y-66149275D01*
X144121456Y-66149274D01*
X144121454Y-66149274D01*
X143915086Y-66109500D01*
X143915085Y-66109500D01*
X142957575Y-66109500D01*
X142859579Y-66118857D01*
X142800779Y-66124472D01*
X142599126Y-66183683D01*
X142412315Y-66279990D01*
X142247115Y-66409906D01*
X142109479Y-66568745D01*
X142004396Y-66750754D01*
X141935655Y-66949366D01*
X141905746Y-67157396D01*
X135411311Y-67157396D01*
X135546407Y-66949366D01*
X135609123Y-66852793D01*
X135753852Y-66568745D01*
X135785214Y-66507194D01*
X135924214Y-66145087D01*
X136024602Y-65770433D01*
X136085278Y-65387338D01*
X136105578Y-65000000D01*
X136085526Y-64617396D01*
X141905746Y-64617396D01*
X141915746Y-64827330D01*
X141965297Y-65031580D01*
X142052602Y-65222752D01*
X142162845Y-65377566D01*
X142174514Y-65393952D01*
X142326622Y-65538986D01*
X142398964Y-65585478D01*
X142503425Y-65652612D01*
X142542580Y-65668287D01*
X142698543Y-65730725D01*
X142827228Y-65755527D01*
X142904914Y-65770500D01*
X142904915Y-65770500D01*
X143862420Y-65770500D01*
X143862425Y-65770500D01*
X144019218Y-65755528D01*
X144220875Y-65696316D01*
X144407682Y-65600011D01*
X144572886Y-65470092D01*
X144710519Y-65311256D01*
X144815604Y-65129244D01*
X144884344Y-64930633D01*
X144913653Y-64726777D01*
X144938195Y-64668706D01*
X144988121Y-64630207D01*
X145050525Y-64621234D01*
X145109276Y-64644108D01*
X145311204Y-64790816D01*
X145377612Y-64827324D01*
X145575896Y-64936332D01*
X145716317Y-64991928D01*
X145856737Y-65047525D01*
X146011141Y-65087168D01*
X146149302Y-65122642D01*
X146398314Y-65154100D01*
X146448972Y-65160500D01*
X146448973Y-65160500D01*
X146751027Y-65160500D01*
X146751028Y-65160500D01*
X146794360Y-65155025D01*
X147050698Y-65122642D01*
X147343262Y-65047525D01*
X147624104Y-64936332D01*
X147888795Y-64790816D01*
X147982684Y-64722602D01*
X148133160Y-64613276D01*
X148240295Y-64512669D01*
X148353349Y-64406504D01*
X148545885Y-64173768D01*
X148707733Y-63918736D01*
X148836341Y-63645430D01*
X148836762Y-63644131D01*
X148837517Y-63642928D01*
X148839662Y-63638372D01*
X148840214Y-63638631D01*
X148868908Y-63592909D01*
X148921459Y-63562981D01*
X148981916Y-63561469D01*
X149035898Y-63588732D01*
X149118742Y-63660518D01*
X149257411Y-63740579D01*
X149300756Y-63765604D01*
X149394241Y-63797959D01*
X149499366Y-63834344D01*
X149534298Y-63839366D01*
X149707398Y-63864254D01*
X149917330Y-63854254D01*
X150121576Y-63804704D01*
X150261990Y-63740579D01*
X150312752Y-63717397D01*
X150392624Y-63660520D01*
X150483952Y-63595486D01*
X150628986Y-63443378D01*
X150742613Y-63266572D01*
X150820725Y-63071457D01*
X150860500Y-62865085D01*
X150860500Y-62812425D01*
X151199500Y-62812425D01*
X151204529Y-62865086D01*
X151214472Y-62969220D01*
X151273683Y-63170873D01*
X151369990Y-63357684D01*
X151499906Y-63522884D01*
X151658745Y-63660520D01*
X151811919Y-63748955D01*
X151840756Y-63765604D01*
X151934241Y-63797959D01*
X152039366Y-63834344D01*
X152074298Y-63839366D01*
X152247398Y-63864254D01*
X152457330Y-63854254D01*
X152661576Y-63804704D01*
X152801990Y-63740579D01*
X152852752Y-63717397D01*
X152932624Y-63660520D01*
X153023952Y-63595486D01*
X153168986Y-63443378D01*
X153282613Y-63266572D01*
X153360725Y-63071457D01*
X153400500Y-62865085D01*
X153400500Y-62812425D01*
X153739500Y-62812425D01*
X153744529Y-62865086D01*
X153754472Y-62969220D01*
X153813683Y-63170873D01*
X153909990Y-63357684D01*
X154039906Y-63522884D01*
X154198745Y-63660520D01*
X154351919Y-63748955D01*
X154380756Y-63765604D01*
X154474241Y-63797959D01*
X154579366Y-63834344D01*
X154614298Y-63839366D01*
X154787398Y-63864254D01*
X154997330Y-63854254D01*
X155201576Y-63804704D01*
X155341990Y-63740579D01*
X155392752Y-63717397D01*
X155573597Y-63588618D01*
X155575484Y-63591268D01*
X155611284Y-63569256D01*
X155674586Y-63567056D01*
X155730716Y-63596405D01*
X155758362Y-63639301D01*
X155760338Y-63638372D01*
X155763658Y-63645428D01*
X155763659Y-63645430D01*
X155797524Y-63717396D01*
X155892268Y-63918739D01*
X156016968Y-64115234D01*
X156054115Y-64173768D01*
X156165508Y-64308419D01*
X156246650Y-64406503D01*
X156466839Y-64613276D01*
X156711204Y-64790816D01*
X156777612Y-64827324D01*
X156975896Y-64936332D01*
X157116317Y-64991928D01*
X157256737Y-65047525D01*
X157411141Y-65087168D01*
X157549302Y-65122642D01*
X157798314Y-65154100D01*
X157848972Y-65160500D01*
X157848973Y-65160500D01*
X158151027Y-65160500D01*
X158151028Y-65160500D01*
X158194360Y-65155025D01*
X158450698Y-65122642D01*
X158743262Y-65047525D01*
X159024104Y-64936332D01*
X159288795Y-64790816D01*
X159494635Y-64641264D01*
X159556320Y-64618090D01*
X159621169Y-64629790D01*
X159670867Y-64673060D01*
X159691379Y-64735682D01*
X159695745Y-64827324D01*
X159695745Y-64827327D01*
X159695746Y-64827330D01*
X159737636Y-65000000D01*
X159745297Y-65031580D01*
X159832602Y-65222752D01*
X159942845Y-65377566D01*
X159954514Y-65393952D01*
X160106622Y-65538986D01*
X160178964Y-65585478D01*
X160283425Y-65652612D01*
X160322580Y-65668287D01*
X160478543Y-65730725D01*
X160607228Y-65755527D01*
X160684914Y-65770500D01*
X160684915Y-65770500D01*
X161642420Y-65770500D01*
X161642425Y-65770500D01*
X161799218Y-65755528D01*
X162000875Y-65696316D01*
X162187682Y-65600011D01*
X162352886Y-65470092D01*
X162490519Y-65311256D01*
X162595604Y-65129244D01*
X162640336Y-64999999D01*
X168694422Y-64999999D01*
X168714722Y-65387340D01*
X168775396Y-65770429D01*
X168875785Y-66145086D01*
X169014785Y-66507193D01*
X169190876Y-66852793D01*
X169388689Y-67157396D01*
X169402124Y-67178084D01*
X169646219Y-67479516D01*
X169920484Y-67753781D01*
X170221916Y-67997876D01*
X170221918Y-67997877D01*
X170221919Y-67997878D01*
X170547206Y-68209123D01*
X170892806Y-68385214D01*
X171254913Y-68524214D01*
X171629570Y-68624603D01*
X171821114Y-68654939D01*
X172012662Y-68685278D01*
X172400000Y-68705578D01*
X172787338Y-68685278D01*
X173036686Y-68645785D01*
X173170429Y-68624603D01*
X173170433Y-68624602D01*
X173545087Y-68524214D01*
X173907194Y-68385214D01*
X174252789Y-68209125D01*
X174252788Y-68209125D01*
X174252793Y-68209123D01*
X174415436Y-68103500D01*
X174578084Y-67997876D01*
X174879516Y-67753781D01*
X175153781Y-67479516D01*
X175397876Y-67178084D01*
X175546407Y-66949366D01*
X175609123Y-66852793D01*
X175753852Y-66568745D01*
X175785214Y-66507194D01*
X175924214Y-66145087D01*
X176024602Y-65770433D01*
X176085278Y-65387338D01*
X176105578Y-65000000D01*
X176085278Y-64612662D01*
X176037091Y-64308419D01*
X176024603Y-64229570D01*
X175924214Y-63854913D01*
X175785214Y-63492806D01*
X175609123Y-63147206D01*
X175397878Y-62821919D01*
X175356852Y-62771256D01*
X175153781Y-62520484D01*
X174879516Y-62246219D01*
X174578084Y-62002124D01*
X174578082Y-62002123D01*
X174578080Y-62002121D01*
X174252793Y-61790876D01*
X173907193Y-61614785D01*
X173545086Y-61475785D01*
X173170429Y-61375396D01*
X172787340Y-61314722D01*
X172400000Y-61294422D01*
X172012659Y-61314722D01*
X171629570Y-61375396D01*
X171254913Y-61475785D01*
X170892806Y-61614785D01*
X170547206Y-61790876D01*
X170221919Y-62002121D01*
X169920480Y-62246222D01*
X169646222Y-62520480D01*
X169402121Y-62821919D01*
X169190876Y-63147206D01*
X169014785Y-63492806D01*
X168875785Y-63854913D01*
X168775396Y-64229570D01*
X168714722Y-64612659D01*
X168694422Y-64999999D01*
X162640336Y-64999999D01*
X162664344Y-64930633D01*
X162694254Y-64722602D01*
X162684254Y-64512670D01*
X162634704Y-64308424D01*
X162634702Y-64308419D01*
X162547397Y-64117247D01*
X162425487Y-63946050D01*
X162425486Y-63946048D01*
X162273378Y-63801014D01*
X162241257Y-63780371D01*
X162096574Y-63687387D01*
X161920521Y-63616907D01*
X161901457Y-63609275D01*
X161901456Y-63609274D01*
X161901454Y-63609274D01*
X161695086Y-63569500D01*
X161695085Y-63569500D01*
X160737575Y-63569500D01*
X160659178Y-63576986D01*
X160580777Y-63584472D01*
X160447395Y-63623637D01*
X160380937Y-63624586D01*
X160323536Y-63591080D01*
X160291683Y-63532745D01*
X160294529Y-63466343D01*
X160329681Y-63358160D01*
X160342487Y-63291023D01*
X160370475Y-63233177D01*
X160423660Y-63197106D01*
X160487758Y-63192501D01*
X160684914Y-63230500D01*
X160684915Y-63230500D01*
X161642420Y-63230500D01*
X161642425Y-63230500D01*
X161799218Y-63215528D01*
X162000875Y-63156316D01*
X162187682Y-63060011D01*
X162352886Y-62930092D01*
X162490519Y-62771256D01*
X162595604Y-62589244D01*
X162664344Y-62390633D01*
X162694254Y-62182602D01*
X162684254Y-61972670D01*
X162634704Y-61768424D01*
X162626646Y-61750779D01*
X162547397Y-61577247D01*
X162425487Y-61406050D01*
X162425486Y-61406048D01*
X162273378Y-61261014D01*
X162241257Y-61240371D01*
X162096574Y-61147387D01*
X161940609Y-61084949D01*
X161901457Y-61069275D01*
X161901456Y-61069274D01*
X161901454Y-61069274D01*
X161695086Y-61029500D01*
X161695085Y-61029500D01*
X160737575Y-61029500D01*
X160639579Y-61038857D01*
X160580779Y-61044472D01*
X160379126Y-61103683D01*
X160192315Y-61199990D01*
X160064807Y-61300265D01*
X160006814Y-61325383D01*
X159943975Y-61318657D01*
X159892611Y-61281835D01*
X159888298Y-61276622D01*
X159753349Y-61113496D01*
X159706259Y-61069275D01*
X159533160Y-60906723D01*
X159288795Y-60729183D01*
X159024102Y-60583667D01*
X158743262Y-60472474D01*
X158450700Y-60397358D01*
X158151028Y-60359500D01*
X158151027Y-60359500D01*
X157848973Y-60359500D01*
X157848972Y-60359500D01*
X157549299Y-60397358D01*
X157256737Y-60472474D01*
X156975897Y-60583667D01*
X156711204Y-60729183D01*
X156466839Y-60906723D01*
X156246650Y-61113496D01*
X156175097Y-61199990D01*
X156054115Y-61346232D01*
X156054114Y-61346234D01*
X156008623Y-61417915D01*
X155961218Y-61461444D01*
X155898379Y-61475348D01*
X155837036Y-61455882D01*
X155793712Y-61408292D01*
X155770011Y-61362318D01*
X155640092Y-61197114D01*
X155481256Y-61059481D01*
X155481254Y-61059479D01*
X155299245Y-60954396D01*
X155100633Y-60885655D01*
X154892603Y-60855746D01*
X154892602Y-60855746D01*
X154787636Y-60860745D01*
X154682669Y-60865746D01*
X154478419Y-60915297D01*
X154287247Y-61002602D01*
X154116050Y-61124512D01*
X153971013Y-61276623D01*
X153857387Y-61453425D01*
X153779274Y-61648545D01*
X153739500Y-61854914D01*
X153739500Y-61854915D01*
X153739500Y-62812425D01*
X153400500Y-62812425D01*
X153400500Y-61907575D01*
X153385528Y-61750782D01*
X153326316Y-61549125D01*
X153230011Y-61362318D01*
X153217362Y-61346234D01*
X153100093Y-61197115D01*
X152941254Y-61059479D01*
X152759245Y-60954396D01*
X152560633Y-60885655D01*
X152352603Y-60855746D01*
X152352602Y-60855746D01*
X152247636Y-60860745D01*
X152142669Y-60865746D01*
X151938419Y-60915297D01*
X151747247Y-61002602D01*
X151576050Y-61124512D01*
X151431013Y-61276623D01*
X151317387Y-61453425D01*
X151239274Y-61648545D01*
X151199500Y-61854914D01*
X151199500Y-61854915D01*
X151199500Y-62812425D01*
X150860500Y-62812425D01*
X150860500Y-61907575D01*
X150845528Y-61750782D01*
X150786316Y-61549125D01*
X150690011Y-61362318D01*
X150677362Y-61346234D01*
X150560093Y-61197115D01*
X150401254Y-61059479D01*
X150219245Y-60954396D01*
X150020633Y-60885655D01*
X149812603Y-60855746D01*
X149812602Y-60855746D01*
X149707636Y-60860745D01*
X149602669Y-60865746D01*
X149398419Y-60915297D01*
X149207247Y-61002602D01*
X149036050Y-61124512D01*
X148891013Y-61276623D01*
X148800108Y-61418072D01*
X148755064Y-61459949D01*
X148695438Y-61475031D01*
X148635900Y-61459609D01*
X148591098Y-61417477D01*
X148545885Y-61346232D01*
X148353349Y-61113496D01*
X148306259Y-61069275D01*
X148133160Y-60906723D01*
X147888795Y-60729183D01*
X147624102Y-60583667D01*
X147343262Y-60472474D01*
X147050700Y-60397358D01*
X146751028Y-60359500D01*
X146751027Y-60359500D01*
X146448973Y-60359500D01*
X146448972Y-60359500D01*
X146149299Y-60397358D01*
X145856737Y-60472474D01*
X145575897Y-60583667D01*
X145311204Y-60729183D01*
X145066839Y-60906723D01*
X144846653Y-61113492D01*
X144724757Y-61260839D01*
X144711702Y-61276622D01*
X144707461Y-61281748D01*
X144652399Y-61319913D01*
X144585521Y-61323865D01*
X144526348Y-61292450D01*
X144493379Y-61261015D01*
X144493378Y-61261014D01*
X144454917Y-61236297D01*
X144316574Y-61147387D01*
X144160609Y-61084949D01*
X144121457Y-61069275D01*
X144121456Y-61069274D01*
X144121454Y-61069274D01*
X143915086Y-61029500D01*
X143915085Y-61029500D01*
X142957575Y-61029500D01*
X142859579Y-61038857D01*
X142800779Y-61044472D01*
X142599126Y-61103683D01*
X142412315Y-61199990D01*
X142247115Y-61329906D01*
X142109479Y-61488745D01*
X142004396Y-61670754D01*
X141935655Y-61869366D01*
X141905746Y-62077396D01*
X141915746Y-62287330D01*
X141965297Y-62491580D01*
X142052602Y-62682752D01*
X142144939Y-62812420D01*
X142174514Y-62853952D01*
X142326622Y-62998986D01*
X142398964Y-63045478D01*
X142503425Y-63112612D01*
X142542580Y-63128287D01*
X142698543Y-63190725D01*
X142827228Y-63215527D01*
X142904914Y-63230500D01*
X142904915Y-63230500D01*
X143862420Y-63230500D01*
X143862425Y-63230500D01*
X144019218Y-63215528D01*
X144100106Y-63191776D01*
X144168157Y-63191258D01*
X144226234Y-63226734D01*
X144256842Y-63287518D01*
X144270317Y-63358156D01*
X144304536Y-63463470D01*
X144306680Y-63532739D01*
X144271318Y-63592341D01*
X144209494Y-63623657D01*
X144140522Y-63616907D01*
X144121457Y-63609275D01*
X143915086Y-63569500D01*
X143915085Y-63569500D01*
X142957575Y-63569500D01*
X142859579Y-63578857D01*
X142800779Y-63584472D01*
X142599126Y-63643683D01*
X142412315Y-63739990D01*
X142247115Y-63869906D01*
X142109479Y-64028745D01*
X142004396Y-64210754D01*
X141935655Y-64409366D01*
X141905746Y-64617396D01*
X136085526Y-64617396D01*
X136085278Y-64612662D01*
X136037091Y-64308419D01*
X136024603Y-64229570D01*
X135924214Y-63854913D01*
X135785214Y-63492806D01*
X135609123Y-63147206D01*
X135397878Y-62821919D01*
X135356852Y-62771256D01*
X135153781Y-62520484D01*
X134879516Y-62246219D01*
X134578084Y-62002124D01*
X134578082Y-62002123D01*
X134578080Y-62002121D01*
X134252793Y-61790876D01*
X133907193Y-61614785D01*
X133545086Y-61475785D01*
X133170429Y-61375396D01*
X132787340Y-61314722D01*
X132400000Y-61294422D01*
X132012659Y-61314722D01*
X131629570Y-61375396D01*
X131254913Y-61475785D01*
X130892806Y-61614785D01*
X130547206Y-61790876D01*
X130221919Y-62002121D01*
X129920480Y-62246222D01*
X129646222Y-62520480D01*
X129402121Y-62821919D01*
X129190876Y-63147206D01*
X129014785Y-63492806D01*
X128875785Y-63854913D01*
X128775396Y-64229570D01*
X128714722Y-64612659D01*
X128694422Y-65000000D01*
X127400500Y-65000000D01*
X127400500Y-60124500D01*
X127417113Y-60062500D01*
X127462500Y-60017113D01*
X127524500Y-60000500D01*
X177275500Y-60000500D01*
X177337500Y-60017113D01*
G37*
%TD.AperFunction*%
%TD*%
M02*
