M48
; DRILL file {KiCad 7.0.1} date Mon 10 Apr 2023 15:25:26 BST
; FORMAT={-:-/ absolute / inch / decimal}
; #@! TF.CreationDate,2023-04-10T15:25:26+01:00
; #@! TF.GenerationSoftware,Kicad,Pcbnew,7.0.1
; #@! TF.FileFunction,Plated,1,2,PTH
FMAT,2
INCH
; #@! TA.AperFunction,Plated,PTH,ViaDrill
T1C0.0157
; #@! TA.AperFunction,Plated,PTH,ComponentDrill
T2C0.0315
; #@! TA.AperFunction,Plated,PTH,ComponentDrill
T3C0.0374
; #@! TA.AperFunction,Plated,PTH,ComponentDrill
T4C0.0394
; #@! TA.AperFunction,Plated,PTH,ComponentDrill
T5C0.0472
; #@! TA.AperFunction,Plated,PTH,ComponentDrill
T6C0.1260
%
G90
G05
T1
X5.3Y-4.0
X5.3Y-4.2734
X5.4Y-3.9
X5.8Y-4.0
T2
X5.2Y-2.7807
X5.2Y-2.8791
X5.4Y-2.7791
X5.4Y-2.8776
X5.6461Y-2.4461
X5.6461Y-2.5461
X5.6461Y-2.6461
X5.6461Y-2.7461
X5.6461Y-2.8461
X5.6461Y-2.9461
X5.6461Y-3.0461
X5.6461Y-3.1461
X5.6461Y-3.2461
X5.6461Y-3.3461
X5.6461Y-3.4461
X5.6461Y-3.5461
X5.6461Y-3.6461
X5.6461Y-3.7461
X5.6461Y-3.8461
X5.6461Y-3.9461
X5.6461Y-4.0461
X5.6461Y-4.1461
X5.6461Y-4.2461
X5.6461Y-4.3461
X5.8961Y-2.4551
X5.9961Y-2.4551
X6.0961Y-2.4551
X6.3461Y-2.4461
X6.3461Y-2.5461
X6.3461Y-2.6461
X6.3461Y-2.7461
X6.3461Y-2.8461
X6.3461Y-2.9461
X6.3461Y-3.0461
X6.3461Y-3.1461
X6.3461Y-3.2461
X6.3461Y-3.3461
X6.3461Y-3.4461
X6.3461Y-3.5461
X6.3461Y-3.6461
X6.3461Y-3.7461
X6.3461Y-3.8461
X6.3461Y-3.9461
X6.3461Y-4.0461
X6.3461Y-4.1461
X6.3461Y-4.2461
X6.3461Y-4.3461
T3
X6.7Y-2.9047
X6.7Y-3.0031
X6.7Y-3.1016
X6.7Y-3.2
T4
X5.6175Y-4.7
X5.672Y-4.8118
X5.7266Y-4.7
X5.7811Y-4.8118
X5.8356Y-4.7
X5.8902Y-4.8118
X5.9447Y-4.7
X5.9992Y-4.8118
X6.0537Y-4.7
X6.1083Y-4.8118
X6.1628Y-4.7
X6.2173Y-4.8118
X6.2719Y-4.7
X6.3264Y-4.8118
X6.3809Y-4.7
X6.7Y-3.5
X6.7Y-3.6
X6.7Y-3.7
X6.7Y-3.8
X6.7Y-3.9
X6.7Y-4.0
T5
X5.2Y-3.0276
X5.2Y-3.5276
X5.2Y-3.6776
X5.2Y-4.1776
X5.4Y-3.0276
X5.4Y-3.5276
X5.4Y-3.6776
X5.4Y-4.1776
T6
X5.2126Y-2.5591
X5.2126Y-4.4488
X5.3437Y-4.7559
X6.6547Y-4.7559
X6.7874Y-2.5591
X6.7874Y-4.4488
T0
M30
