%TF.GenerationSoftware,KiCad,Pcbnew,7.0.1*%
%TF.CreationDate,2023-05-02T22:09:15+01:00*%
%TF.ProjectId,pico-joystick,7069636f-2d6a-46f7-9973-7469636b2e6b,rev?*%
%TF.SameCoordinates,Original*%
%TF.FileFunction,Soldermask,Bot*%
%TF.FilePolarity,Negative*%
%FSLAX46Y46*%
G04 Gerber Fmt 4.6, Leading zero omitted, Abs format (unit mm)*
G04 Created by KiCad (PCBNEW 7.0.1) date 2023-05-02 22:09:15*
%MOMM*%
%LPD*%
G01*
G04 APERTURE LIST*
G04 Aperture macros list*
%AMRoundRect*
0 Rectangle with rounded corners*
0 $1 Rounding radius*
0 $2 $3 $4 $5 $6 $7 $8 $9 X,Y pos of 4 corners*
0 Add a 4 corners polygon primitive as box body*
4,1,4,$2,$3,$4,$5,$6,$7,$8,$9,$2,$3,0*
0 Add four circle primitives for the rounded corners*
1,1,$1+$1,$2,$3*
1,1,$1+$1,$4,$5*
1,1,$1+$1,$6,$7*
1,1,$1+$1,$8,$9*
0 Add four rect primitives between the rounded corners*
20,1,$1+$1,$2,$3,$4,$5,0*
20,1,$1+$1,$4,$5,$6,$7,0*
20,1,$1+$1,$6,$7,$8,$9,0*
20,1,$1+$1,$8,$9,$2,$3,0*%
G04 Aperture macros list end*
%ADD10C,6.400000*%
%ADD11C,2.400000*%
%ADD12O,2.400000X2.400000*%
%ADD13C,1.600000*%
%ADD14RoundRect,0.250000X0.725000X-0.600000X0.725000X0.600000X-0.725000X0.600000X-0.725000X-0.600000X0*%
%ADD15O,1.950000X1.700000*%
%ADD16C,3.800000*%
%ADD17O,2.000000X1.200000*%
%ADD18O,1.200000X2.000000*%
%ADD19R,1.700000X1.700000*%
%ADD20O,1.700000X1.700000*%
%ADD21C,4.000000*%
%ADD22R,1.600000X1.600000*%
G04 APERTURE END LIST*
D10*
%TO.C,REF\u002A\u002A*%
X132400000Y-65000000D03*
%TD*%
D11*
%TO.C,R3*%
X172600000Y-106650000D03*
D12*
X172600000Y-93950000D03*
%TD*%
D10*
%TO.C,REF\u002A\u002A*%
X172400000Y-113000000D03*
%TD*%
D13*
%TO.C,C2*%
X172600000Y-73700000D03*
X172600000Y-71200000D03*
%TD*%
%TO.C,C1*%
X168120000Y-73730000D03*
X168120000Y-71230000D03*
%TD*%
D11*
%TO.C,R1*%
X168120000Y-90200000D03*
D12*
X168120000Y-77500000D03*
%TD*%
D11*
%TO.C,R4*%
X168120000Y-106650000D03*
D12*
X168120000Y-93950000D03*
%TD*%
D10*
%TO.C,REF\u002A\u002A*%
X172400000Y-65000000D03*
%TD*%
D14*
%TO.C,J2*%
X134700000Y-100500000D03*
D15*
X134700000Y-98000000D03*
X134700000Y-95500000D03*
X134700000Y-93000000D03*
%TD*%
D16*
%TO.C,U1*%
X146600000Y-62760000D03*
X146600000Y-109760000D03*
X158000000Y-62760000D03*
X158000000Y-109760000D03*
D17*
X143410000Y-62130000D03*
X143410000Y-64670000D03*
X143410000Y-67210000D03*
X143410000Y-69750000D03*
X143410000Y-72290000D03*
X143410000Y-74830000D03*
X143410000Y-77370000D03*
X143410000Y-79910000D03*
X143410000Y-82450000D03*
X143410000Y-84990000D03*
X143410000Y-87530000D03*
X143410000Y-90070000D03*
X143410000Y-92610000D03*
X143410000Y-95150000D03*
X143410000Y-97690000D03*
X143410000Y-100230000D03*
X143410000Y-102770000D03*
X143410000Y-105310000D03*
X143410000Y-107850000D03*
X143410000Y-110390000D03*
X161190000Y-110390000D03*
X161190000Y-107850000D03*
X161190000Y-105310000D03*
X161190000Y-102770000D03*
X161190000Y-100230000D03*
X161190000Y-97690000D03*
X161190000Y-95150000D03*
X161190000Y-92610000D03*
X161190000Y-90070000D03*
X161190000Y-87530000D03*
X161190000Y-84990000D03*
X161190000Y-82450000D03*
X161190000Y-79910000D03*
X161190000Y-77370000D03*
X161190000Y-74830000D03*
X161190000Y-72290000D03*
X161190000Y-69750000D03*
X161190000Y-67210000D03*
X161190000Y-64670000D03*
X161190000Y-62130000D03*
D18*
X149760000Y-110160000D03*
X152300000Y-110160000D03*
X154840000Y-110160000D03*
%TD*%
D19*
%TO.C,J3*%
X135200000Y-85240000D03*
D20*
X135200000Y-82700000D03*
X135200000Y-80160000D03*
X135200000Y-77620000D03*
X135200000Y-75080000D03*
X135200000Y-72540000D03*
%TD*%
D11*
%TO.C,R2*%
X172600000Y-90200000D03*
D12*
X172600000Y-77500000D03*
%TD*%
D10*
%TO.C,REF\u002A\u002A*%
X132400000Y-113000000D03*
%TD*%
D21*
%TO.C,J1*%
X135730000Y-120800000D03*
X169030000Y-120800000D03*
D22*
X162075000Y-119380000D03*
D13*
X159305000Y-119380000D03*
X156535000Y-119380000D03*
X153765000Y-119380000D03*
X150995000Y-119380000D03*
X148225000Y-119380000D03*
X145455000Y-119380000D03*
X142685000Y-119380000D03*
X160690000Y-122220000D03*
X157920000Y-122220000D03*
X155150000Y-122220000D03*
X152380000Y-122220000D03*
X149610000Y-122220000D03*
X146840000Y-122220000D03*
X144070000Y-122220000D03*
%TD*%
M02*
