%TF.GenerationSoftware,KiCad,Pcbnew,7.0.1*%
%TF.CreationDate,2023-04-10T15:25:16+01:00*%
%TF.ProjectId,pico-joystick,7069636f-2d6a-46f7-9973-7469636b2e6b,rev?*%
%TF.SameCoordinates,Original*%
%TF.FileFunction,Soldermask,Top*%
%TF.FilePolarity,Negative*%
%FSLAX46Y46*%
G04 Gerber Fmt 4.6, Leading zero omitted, Abs format (unit mm)*
G04 Created by KiCad (PCBNEW 7.0.1) date 2023-04-10 15:25:16*
%MOMM*%
%LPD*%
G01*
G04 APERTURE LIST*
G04 Aperture macros list*
%AMRoundRect*
0 Rectangle with rounded corners*
0 $1 Rounding radius*
0 $2 $3 $4 $5 $6 $7 $8 $9 X,Y pos of 4 corners*
0 Add a 4 corners polygon primitive as box body*
4,1,4,$2,$3,$4,$5,$6,$7,$8,$9,$2,$3,0*
0 Add four circle primitives for the rounded corners*
1,1,$1+$1,$2,$3*
1,1,$1+$1,$4,$5*
1,1,$1+$1,$6,$7*
1,1,$1+$1,$8,$9*
0 Add four rect primitives between the rounded corners*
20,1,$1+$1,$2,$3,$4,$5,0*
20,1,$1+$1,$4,$5,$6,$7,0*
20,1,$1+$1,$6,$7,$8,$9,0*
20,1,$1+$1,$8,$9,$2,$3,0*%
G04 Aperture macros list end*
%ADD10C,6.400000*%
%ADD11C,3.800000*%
%ADD12O,2.000000X1.200000*%
%ADD13O,1.200000X2.000000*%
%ADD14C,2.400000*%
%ADD15O,2.400000X2.400000*%
%ADD16RoundRect,0.250000X-0.725000X0.600000X-0.725000X-0.600000X0.725000X-0.600000X0.725000X0.600000X0*%
%ADD17O,1.950000X1.700000*%
%ADD18R,1.700000X1.700000*%
%ADD19O,1.700000X1.700000*%
%ADD20C,1.600000*%
%ADD21R,1.600000X1.600000*%
%ADD22C,4.000000*%
G04 APERTURE END LIST*
D10*
%TO.C,REF\u002A\u002A*%
X172400000Y-113000000D03*
%TD*%
%TO.C,REF\u002A\u002A*%
X132400000Y-113000000D03*
%TD*%
%TO.C,REF\u002A\u002A*%
X132400000Y-65000000D03*
%TD*%
%TO.C,REF\u002A\u002A*%
X172400000Y-65000000D03*
%TD*%
D11*
%TO.C,U1*%
X158000000Y-109760000D03*
X158000000Y-62760000D03*
X146600000Y-109760000D03*
X146600000Y-62760000D03*
D12*
X161190000Y-110390000D03*
X161190000Y-107850000D03*
X161190000Y-105310000D03*
X161190000Y-102770000D03*
X161190000Y-100230000D03*
X161190000Y-97690000D03*
X161190000Y-95150000D03*
X161190000Y-92610000D03*
X161190000Y-90070000D03*
X161190000Y-87530000D03*
X161190000Y-84990000D03*
X161190000Y-82450000D03*
X161190000Y-79910000D03*
X161190000Y-77370000D03*
X161190000Y-74830000D03*
X161190000Y-72290000D03*
X161190000Y-69750000D03*
X161190000Y-67210000D03*
X161190000Y-64670000D03*
X161190000Y-62130000D03*
X143410000Y-62130000D03*
X143410000Y-64670000D03*
X143410000Y-67210000D03*
X143410000Y-69750000D03*
X143410000Y-72290000D03*
X143410000Y-74830000D03*
X143410000Y-77370000D03*
X143410000Y-79910000D03*
X143410000Y-82450000D03*
X143410000Y-84990000D03*
X143410000Y-87530000D03*
X143410000Y-90070000D03*
X143410000Y-92610000D03*
X143410000Y-95150000D03*
X143410000Y-97690000D03*
X143410000Y-100230000D03*
X143410000Y-102770000D03*
X143410000Y-105310000D03*
X143410000Y-107850000D03*
X143410000Y-110390000D03*
D13*
X154840000Y-62360000D03*
X152300000Y-62360000D03*
X149760000Y-62360000D03*
%TD*%
D14*
%TO.C,R4*%
X137160000Y-89600000D03*
D15*
X137160000Y-76900000D03*
%TD*%
%TO.C,R3*%
X132080000Y-76900000D03*
D14*
X132080000Y-89600000D03*
%TD*%
%TO.C,R2*%
X132080000Y-106110000D03*
D15*
X132080000Y-93410000D03*
%TD*%
D14*
%TO.C,R1*%
X137160000Y-106110000D03*
D15*
X137160000Y-93410000D03*
%TD*%
D16*
%TO.C,J4*%
X170180000Y-73780000D03*
D17*
X170180000Y-76280000D03*
X170180000Y-78780000D03*
X170180000Y-81280000D03*
%TD*%
D18*
%TO.C,J3*%
X170180000Y-88900000D03*
D19*
X170180000Y-91440000D03*
X170180000Y-93980000D03*
X170180000Y-96520000D03*
X170180000Y-99060000D03*
X170180000Y-101600000D03*
%TD*%
D20*
%TO.C,J1*%
X144070000Y-122220000D03*
X146840000Y-122220000D03*
X149610000Y-122220000D03*
X152380000Y-122220000D03*
X155150000Y-122220000D03*
X157920000Y-122220000D03*
X160690000Y-122220000D03*
X142685000Y-119380000D03*
X145455000Y-119380000D03*
X148225000Y-119380000D03*
X150995000Y-119380000D03*
X153765000Y-119380000D03*
X156535000Y-119380000D03*
X159305000Y-119380000D03*
D21*
X162075000Y-119380000D03*
D22*
X135730000Y-120800000D03*
X169030000Y-120800000D03*
%TD*%
D20*
%TO.C,C2*%
X137160000Y-73090000D03*
X137160000Y-70590000D03*
%TD*%
%TO.C,C1*%
X132080000Y-70630000D03*
X132080000Y-73130000D03*
%TD*%
M02*
