%TF.GenerationSoftware,KiCad,Pcbnew,7.0.1*%
%TF.CreationDate,2023-04-10T15:25:29+01:00*%
%TF.ProjectId,pico-joystick,7069636f-2d6a-46f7-9973-7469636b2e6b,rev?*%
%TF.SameCoordinates,Original*%
%TF.FileFunction,Drillmap*%
%TF.FilePolarity,Positive*%
%FSLAX45Y45*%
G04 Gerber Fmt 4.5, Leading zero omitted, Abs format (unit mm)*
G04 Created by KiCad (PCBNEW 7.0.1) date 2023-04-10 15:25:29*
%MOMM*%
%LPD*%
G01*
G04 APERTURE LIST*
%ADD10C,0.100000*%
%ADD11C,0.200000*%
%ADD12C,0.040000*%
%ADD13C,0.080000*%
%ADD14C,0.095000*%
%ADD15C,0.120000*%
%ADD16C,0.320000*%
G04 APERTURE END LIST*
D10*
X12740000Y-6000000D02*
X17740000Y-6000000D01*
X17740000Y-13000000D01*
X12740000Y-13000000D01*
X12740000Y-6000000D01*
D11*
D12*
X13442000Y-10140000D02*
X13482000Y-10180000D01*
X13482000Y-10140000D02*
X13442000Y-10180000D01*
X13442000Y-10834500D02*
X13482000Y-10874500D01*
X13482000Y-10834500D02*
X13442000Y-10874500D01*
X13696000Y-9886000D02*
X13736000Y-9926000D01*
X13736000Y-9886000D02*
X13696000Y-9926000D01*
X14712000Y-10140000D02*
X14752000Y-10180000D01*
X14752000Y-10140000D02*
X14712000Y-10180000D01*
D13*
X13248000Y-7063000D02*
G75*
G03*
X13248000Y-7063000I-40000J0D01*
G01*
X13248000Y-7313000D02*
G75*
G03*
X13248000Y-7313000I-40000J0D01*
G01*
X13756000Y-7059000D02*
G75*
G03*
X13756000Y-7059000I-40000J0D01*
G01*
X13756000Y-7309000D02*
G75*
G03*
X13756000Y-7309000I-40000J0D01*
G01*
X14381000Y-6213000D02*
G75*
G03*
X14381000Y-6213000I-40000J0D01*
G01*
X14381000Y-6467000D02*
G75*
G03*
X14381000Y-6467000I-40000J0D01*
G01*
X14381000Y-6721000D02*
G75*
G03*
X14381000Y-6721000I-40000J0D01*
G01*
X14381000Y-6975000D02*
G75*
G03*
X14381000Y-6975000I-40000J0D01*
G01*
X14381000Y-7229000D02*
G75*
G03*
X14381000Y-7229000I-40000J0D01*
G01*
X14381000Y-7483000D02*
G75*
G03*
X14381000Y-7483000I-40000J0D01*
G01*
X14381000Y-7737000D02*
G75*
G03*
X14381000Y-7737000I-40000J0D01*
G01*
X14381000Y-7991000D02*
G75*
G03*
X14381000Y-7991000I-40000J0D01*
G01*
X14381000Y-8245000D02*
G75*
G03*
X14381000Y-8245000I-40000J0D01*
G01*
X14381000Y-8499000D02*
G75*
G03*
X14381000Y-8499000I-40000J0D01*
G01*
X14381000Y-8753000D02*
G75*
G03*
X14381000Y-8753000I-40000J0D01*
G01*
X14381000Y-9007000D02*
G75*
G03*
X14381000Y-9007000I-40000J0D01*
G01*
X14381000Y-9261000D02*
G75*
G03*
X14381000Y-9261000I-40000J0D01*
G01*
X14381000Y-9515000D02*
G75*
G03*
X14381000Y-9515000I-40000J0D01*
G01*
X14381000Y-9769000D02*
G75*
G03*
X14381000Y-9769000I-40000J0D01*
G01*
X14381000Y-10023000D02*
G75*
G03*
X14381000Y-10023000I-40000J0D01*
G01*
X14381000Y-10277000D02*
G75*
G03*
X14381000Y-10277000I-40000J0D01*
G01*
X14381000Y-10531000D02*
G75*
G03*
X14381000Y-10531000I-40000J0D01*
G01*
X14381000Y-10785000D02*
G75*
G03*
X14381000Y-10785000I-40000J0D01*
G01*
X14381000Y-11039000D02*
G75*
G03*
X14381000Y-11039000I-40000J0D01*
G01*
X15016000Y-6236000D02*
G75*
G03*
X15016000Y-6236000I-40000J0D01*
G01*
X15270000Y-6236000D02*
G75*
G03*
X15270000Y-6236000I-40000J0D01*
G01*
X15524000Y-6236000D02*
G75*
G03*
X15524000Y-6236000I-40000J0D01*
G01*
X16159000Y-6213000D02*
G75*
G03*
X16159000Y-6213000I-40000J0D01*
G01*
X16159000Y-6467000D02*
G75*
G03*
X16159000Y-6467000I-40000J0D01*
G01*
X16159000Y-6721000D02*
G75*
G03*
X16159000Y-6721000I-40000J0D01*
G01*
X16159000Y-6975000D02*
G75*
G03*
X16159000Y-6975000I-40000J0D01*
G01*
X16159000Y-7229000D02*
G75*
G03*
X16159000Y-7229000I-40000J0D01*
G01*
X16159000Y-7483000D02*
G75*
G03*
X16159000Y-7483000I-40000J0D01*
G01*
X16159000Y-7737000D02*
G75*
G03*
X16159000Y-7737000I-40000J0D01*
G01*
X16159000Y-7991000D02*
G75*
G03*
X16159000Y-7991000I-40000J0D01*
G01*
X16159000Y-8245000D02*
G75*
G03*
X16159000Y-8245000I-40000J0D01*
G01*
X16159000Y-8499000D02*
G75*
G03*
X16159000Y-8499000I-40000J0D01*
G01*
X16159000Y-8753000D02*
G75*
G03*
X16159000Y-8753000I-40000J0D01*
G01*
X16159000Y-9007000D02*
G75*
G03*
X16159000Y-9007000I-40000J0D01*
G01*
X16159000Y-9261000D02*
G75*
G03*
X16159000Y-9261000I-40000J0D01*
G01*
X16159000Y-9515000D02*
G75*
G03*
X16159000Y-9515000I-40000J0D01*
G01*
X16159000Y-9769000D02*
G75*
G03*
X16159000Y-9769000I-40000J0D01*
G01*
X16159000Y-10023000D02*
G75*
G03*
X16159000Y-10023000I-40000J0D01*
G01*
X16159000Y-10277000D02*
G75*
G03*
X16159000Y-10277000I-40000J0D01*
G01*
X16159000Y-10531000D02*
G75*
G03*
X16159000Y-10531000I-40000J0D01*
G01*
X16159000Y-10785000D02*
G75*
G03*
X16159000Y-10785000I-40000J0D01*
G01*
X16159000Y-11039000D02*
G75*
G03*
X16159000Y-11039000I-40000J0D01*
G01*
D14*
X17018000Y-7330500D02*
X17018000Y-7425500D01*
X16970500Y-7378000D02*
X17065500Y-7378000D01*
X17018000Y-7580500D02*
X17018000Y-7675500D01*
X16970500Y-7628000D02*
X17065500Y-7628000D01*
X17018000Y-7830500D02*
X17018000Y-7925500D01*
X16970500Y-7878000D02*
X17065500Y-7878000D01*
X17018000Y-8080500D02*
X17018000Y-8175500D01*
X16970500Y-8128000D02*
X17065500Y-8128000D01*
D10*
X14303856Y-11973356D02*
X14303856Y-11902644D01*
X14233144Y-11902644D01*
X14233144Y-11973356D01*
X14303856Y-11973356D01*
X14442356Y-12257356D02*
X14442356Y-12186644D01*
X14371644Y-12186644D01*
X14371644Y-12257356D01*
X14442356Y-12257356D01*
X14580856Y-11973356D02*
X14580856Y-11902644D01*
X14510144Y-11902644D01*
X14510144Y-11973356D01*
X14580856Y-11973356D01*
X14719356Y-12257356D02*
X14719356Y-12186644D01*
X14648644Y-12186644D01*
X14648644Y-12257356D01*
X14719356Y-12257356D01*
X14857856Y-11973356D02*
X14857856Y-11902644D01*
X14787144Y-11902644D01*
X14787144Y-11973356D01*
X14857856Y-11973356D01*
X14996356Y-12257356D02*
X14996356Y-12186644D01*
X14925644Y-12186644D01*
X14925644Y-12257356D01*
X14996356Y-12257356D01*
X15134856Y-11973356D02*
X15134856Y-11902644D01*
X15064144Y-11902644D01*
X15064144Y-11973356D01*
X15134856Y-11973356D01*
X15273356Y-12257356D02*
X15273356Y-12186644D01*
X15202644Y-12186644D01*
X15202644Y-12257356D01*
X15273356Y-12257356D01*
X15411856Y-11973356D02*
X15411856Y-11902644D01*
X15341144Y-11902644D01*
X15341144Y-11973356D01*
X15411856Y-11973356D01*
X15550356Y-12257356D02*
X15550356Y-12186644D01*
X15479644Y-12186644D01*
X15479644Y-12257356D01*
X15550356Y-12257356D01*
X15688856Y-11973356D02*
X15688856Y-11902644D01*
X15618144Y-11902644D01*
X15618144Y-11973356D01*
X15688856Y-11973356D01*
X15827356Y-12257356D02*
X15827356Y-12186644D01*
X15756644Y-12186644D01*
X15756644Y-12257356D01*
X15827356Y-12257356D01*
X15965856Y-11973356D02*
X15965856Y-11902644D01*
X15895144Y-11902644D01*
X15895144Y-11973356D01*
X15965856Y-11973356D01*
X16104356Y-12257356D02*
X16104356Y-12186644D01*
X16033644Y-12186644D01*
X16033644Y-12257356D01*
X16104356Y-12257356D01*
X16242856Y-11973356D02*
X16242856Y-11902644D01*
X16172144Y-11902644D01*
X16172144Y-11973356D01*
X16242856Y-11973356D01*
X17053356Y-8925356D02*
X17053356Y-8854644D01*
X16982644Y-8854644D01*
X16982644Y-8925356D01*
X17053356Y-8925356D01*
X17053356Y-9179356D02*
X17053356Y-9108644D01*
X16982644Y-9108644D01*
X16982644Y-9179356D01*
X17053356Y-9179356D01*
X17053356Y-9433356D02*
X17053356Y-9362644D01*
X16982644Y-9362644D01*
X16982644Y-9433356D01*
X17053356Y-9433356D01*
X17053356Y-9687356D02*
X17053356Y-9616644D01*
X16982644Y-9616644D01*
X16982644Y-9687356D01*
X17053356Y-9687356D01*
X17053356Y-9941356D02*
X17053356Y-9870644D01*
X16982644Y-9870644D01*
X16982644Y-9941356D01*
X17053356Y-9941356D01*
X17053356Y-10195356D02*
X17053356Y-10124644D01*
X16982644Y-10124644D01*
X16982644Y-10195356D01*
X17053356Y-10195356D01*
D15*
X13208000Y-7750000D02*
X13268000Y-7690000D01*
X13208000Y-7630000D01*
X13148000Y-7690000D01*
X13208000Y-7750000D01*
X13208000Y-9020000D02*
X13268000Y-8960000D01*
X13208000Y-8900000D01*
X13148000Y-8960000D01*
X13208000Y-9020000D01*
X13208000Y-9401000D02*
X13268000Y-9341000D01*
X13208000Y-9281000D01*
X13148000Y-9341000D01*
X13208000Y-9401000D01*
X13208000Y-10671000D02*
X13268000Y-10611000D01*
X13208000Y-10551000D01*
X13148000Y-10611000D01*
X13208000Y-10671000D01*
X13716000Y-7750000D02*
X13776000Y-7690000D01*
X13716000Y-7630000D01*
X13656000Y-7690000D01*
X13716000Y-7750000D01*
X13716000Y-9020000D02*
X13776000Y-8960000D01*
X13716000Y-8900000D01*
X13656000Y-8960000D01*
X13716000Y-9020000D01*
X13716000Y-9401000D02*
X13776000Y-9341000D01*
X13716000Y-9281000D01*
X13656000Y-9341000D01*
X13716000Y-9401000D01*
X13716000Y-10671000D02*
X13776000Y-10611000D01*
X13716000Y-10551000D01*
X13656000Y-10611000D01*
X13716000Y-10671000D01*
D16*
X13080000Y-6340000D02*
X13400000Y-6660000D01*
X13400000Y-6340000D02*
X13080000Y-6660000D01*
X13400000Y-6500000D02*
G75*
G03*
X13400000Y-6500000I-160000J0D01*
G01*
X13080000Y-11140000D02*
X13400000Y-11460000D01*
X13400000Y-11140000D02*
X13080000Y-11460000D01*
X13400000Y-11300000D02*
G75*
G03*
X13400000Y-11300000I-160000J0D01*
G01*
X13413000Y-11920000D02*
X13733000Y-12240000D01*
X13733000Y-11920000D02*
X13413000Y-12240000D01*
X13733000Y-12080000D02*
G75*
G03*
X13733000Y-12080000I-160000J0D01*
G01*
X16743000Y-11920000D02*
X17063000Y-12240000D01*
X17063000Y-11920000D02*
X16743000Y-12240000D01*
X17063000Y-12080000D02*
G75*
G03*
X17063000Y-12080000I-160000J0D01*
G01*
X17080000Y-6340000D02*
X17400000Y-6660000D01*
X17400000Y-6340000D02*
X17080000Y-6660000D01*
X17400000Y-6500000D02*
G75*
G03*
X17400000Y-6500000I-160000J0D01*
G01*
X17080000Y-11140000D02*
X17400000Y-11460000D01*
X17400000Y-11140000D02*
X17080000Y-11460000D01*
X17400000Y-11300000D02*
G75*
G03*
X17400000Y-11300000I-160000J0D01*
G01*
D11*
X12982619Y-13317524D02*
X12982619Y-13117524D01*
X12982619Y-13117524D02*
X13030238Y-13117524D01*
X13030238Y-13117524D02*
X13058809Y-13127048D01*
X13058809Y-13127048D02*
X13077857Y-13146095D01*
X13077857Y-13146095D02*
X13087381Y-13165143D01*
X13087381Y-13165143D02*
X13096905Y-13203238D01*
X13096905Y-13203238D02*
X13096905Y-13231809D01*
X13096905Y-13231809D02*
X13087381Y-13269905D01*
X13087381Y-13269905D02*
X13077857Y-13288952D01*
X13077857Y-13288952D02*
X13058809Y-13308000D01*
X13058809Y-13308000D02*
X13030238Y-13317524D01*
X13030238Y-13317524D02*
X12982619Y-13317524D01*
X13182619Y-13317524D02*
X13182619Y-13184190D01*
X13182619Y-13222286D02*
X13192143Y-13203238D01*
X13192143Y-13203238D02*
X13201667Y-13193714D01*
X13201667Y-13193714D02*
X13220714Y-13184190D01*
X13220714Y-13184190D02*
X13239762Y-13184190D01*
X13306428Y-13317524D02*
X13306428Y-13184190D01*
X13306428Y-13117524D02*
X13296905Y-13127048D01*
X13296905Y-13127048D02*
X13306428Y-13136571D01*
X13306428Y-13136571D02*
X13315952Y-13127048D01*
X13315952Y-13127048D02*
X13306428Y-13117524D01*
X13306428Y-13117524D02*
X13306428Y-13136571D01*
X13430238Y-13317524D02*
X13411190Y-13308000D01*
X13411190Y-13308000D02*
X13401667Y-13288952D01*
X13401667Y-13288952D02*
X13401667Y-13117524D01*
X13535000Y-13317524D02*
X13515952Y-13308000D01*
X13515952Y-13308000D02*
X13506428Y-13288952D01*
X13506428Y-13288952D02*
X13506428Y-13117524D01*
X13763571Y-13317524D02*
X13763571Y-13117524D01*
X13763571Y-13117524D02*
X13830238Y-13260381D01*
X13830238Y-13260381D02*
X13896905Y-13117524D01*
X13896905Y-13117524D02*
X13896905Y-13317524D01*
X14077857Y-13317524D02*
X14077857Y-13212762D01*
X14077857Y-13212762D02*
X14068333Y-13193714D01*
X14068333Y-13193714D02*
X14049286Y-13184190D01*
X14049286Y-13184190D02*
X14011190Y-13184190D01*
X14011190Y-13184190D02*
X13992143Y-13193714D01*
X14077857Y-13308000D02*
X14058809Y-13317524D01*
X14058809Y-13317524D02*
X14011190Y-13317524D01*
X14011190Y-13317524D02*
X13992143Y-13308000D01*
X13992143Y-13308000D02*
X13982619Y-13288952D01*
X13982619Y-13288952D02*
X13982619Y-13269905D01*
X13982619Y-13269905D02*
X13992143Y-13250857D01*
X13992143Y-13250857D02*
X14011190Y-13241333D01*
X14011190Y-13241333D02*
X14058809Y-13241333D01*
X14058809Y-13241333D02*
X14077857Y-13231809D01*
X14173095Y-13184190D02*
X14173095Y-13384190D01*
X14173095Y-13193714D02*
X14192143Y-13184190D01*
X14192143Y-13184190D02*
X14230238Y-13184190D01*
X14230238Y-13184190D02*
X14249286Y-13193714D01*
X14249286Y-13193714D02*
X14258809Y-13203238D01*
X14258809Y-13203238D02*
X14268333Y-13222286D01*
X14268333Y-13222286D02*
X14268333Y-13279428D01*
X14268333Y-13279428D02*
X14258809Y-13298476D01*
X14258809Y-13298476D02*
X14249286Y-13308000D01*
X14249286Y-13308000D02*
X14230238Y-13317524D01*
X14230238Y-13317524D02*
X14192143Y-13317524D01*
X14192143Y-13317524D02*
X14173095Y-13308000D01*
X14354048Y-13298476D02*
X14363571Y-13308000D01*
X14363571Y-13308000D02*
X14354048Y-13317524D01*
X14354048Y-13317524D02*
X14344524Y-13308000D01*
X14344524Y-13308000D02*
X14354048Y-13298476D01*
X14354048Y-13298476D02*
X14354048Y-13317524D01*
X14354048Y-13193714D02*
X14363571Y-13203238D01*
X14363571Y-13203238D02*
X14354048Y-13212762D01*
X14354048Y-13212762D02*
X14344524Y-13203238D01*
X14344524Y-13203238D02*
X14354048Y-13193714D01*
X14354048Y-13193714D02*
X14354048Y-13212762D01*
D12*
X12695000Y-13625000D02*
X12735000Y-13665000D01*
X12735000Y-13625000D02*
X12695000Y-13665000D01*
D11*
X13020714Y-13537524D02*
X13039762Y-13537524D01*
X13039762Y-13537524D02*
X13058809Y-13547048D01*
X13058809Y-13547048D02*
X13068333Y-13556571D01*
X13068333Y-13556571D02*
X13077857Y-13575619D01*
X13077857Y-13575619D02*
X13087381Y-13613714D01*
X13087381Y-13613714D02*
X13087381Y-13661333D01*
X13087381Y-13661333D02*
X13077857Y-13699428D01*
X13077857Y-13699428D02*
X13068333Y-13718476D01*
X13068333Y-13718476D02*
X13058809Y-13728000D01*
X13058809Y-13728000D02*
X13039762Y-13737524D01*
X13039762Y-13737524D02*
X13020714Y-13737524D01*
X13020714Y-13737524D02*
X13001667Y-13728000D01*
X13001667Y-13728000D02*
X12992143Y-13718476D01*
X12992143Y-13718476D02*
X12982619Y-13699428D01*
X12982619Y-13699428D02*
X12973095Y-13661333D01*
X12973095Y-13661333D02*
X12973095Y-13613714D01*
X12973095Y-13613714D02*
X12982619Y-13575619D01*
X12982619Y-13575619D02*
X12992143Y-13556571D01*
X12992143Y-13556571D02*
X13001667Y-13547048D01*
X13001667Y-13547048D02*
X13020714Y-13537524D01*
X13173095Y-13718476D02*
X13182619Y-13728000D01*
X13182619Y-13728000D02*
X13173095Y-13737524D01*
X13173095Y-13737524D02*
X13163571Y-13728000D01*
X13163571Y-13728000D02*
X13173095Y-13718476D01*
X13173095Y-13718476D02*
X13173095Y-13737524D01*
X13354048Y-13604190D02*
X13354048Y-13737524D01*
X13306428Y-13528000D02*
X13258809Y-13670857D01*
X13258809Y-13670857D02*
X13382619Y-13670857D01*
X13496905Y-13537524D02*
X13515952Y-13537524D01*
X13515952Y-13537524D02*
X13535000Y-13547048D01*
X13535000Y-13547048D02*
X13544524Y-13556571D01*
X13544524Y-13556571D02*
X13554048Y-13575619D01*
X13554048Y-13575619D02*
X13563571Y-13613714D01*
X13563571Y-13613714D02*
X13563571Y-13661333D01*
X13563571Y-13661333D02*
X13554048Y-13699428D01*
X13554048Y-13699428D02*
X13544524Y-13718476D01*
X13544524Y-13718476D02*
X13535000Y-13728000D01*
X13535000Y-13728000D02*
X13515952Y-13737524D01*
X13515952Y-13737524D02*
X13496905Y-13737524D01*
X13496905Y-13737524D02*
X13477857Y-13728000D01*
X13477857Y-13728000D02*
X13468333Y-13718476D01*
X13468333Y-13718476D02*
X13458809Y-13699428D01*
X13458809Y-13699428D02*
X13449286Y-13661333D01*
X13449286Y-13661333D02*
X13449286Y-13613714D01*
X13449286Y-13613714D02*
X13458809Y-13575619D01*
X13458809Y-13575619D02*
X13468333Y-13556571D01*
X13468333Y-13556571D02*
X13477857Y-13547048D01*
X13477857Y-13547048D02*
X13496905Y-13537524D01*
X13687381Y-13537524D02*
X13706429Y-13537524D01*
X13706429Y-13537524D02*
X13725476Y-13547048D01*
X13725476Y-13547048D02*
X13735000Y-13556571D01*
X13735000Y-13556571D02*
X13744524Y-13575619D01*
X13744524Y-13575619D02*
X13754048Y-13613714D01*
X13754048Y-13613714D02*
X13754048Y-13661333D01*
X13754048Y-13661333D02*
X13744524Y-13699428D01*
X13744524Y-13699428D02*
X13735000Y-13718476D01*
X13735000Y-13718476D02*
X13725476Y-13728000D01*
X13725476Y-13728000D02*
X13706429Y-13737524D01*
X13706429Y-13737524D02*
X13687381Y-13737524D01*
X13687381Y-13737524D02*
X13668333Y-13728000D01*
X13668333Y-13728000D02*
X13658809Y-13718476D01*
X13658809Y-13718476D02*
X13649286Y-13699428D01*
X13649286Y-13699428D02*
X13639762Y-13661333D01*
X13639762Y-13661333D02*
X13639762Y-13613714D01*
X13639762Y-13613714D02*
X13649286Y-13575619D01*
X13649286Y-13575619D02*
X13658809Y-13556571D01*
X13658809Y-13556571D02*
X13668333Y-13547048D01*
X13668333Y-13547048D02*
X13687381Y-13537524D01*
X13839762Y-13737524D02*
X13839762Y-13604190D01*
X13839762Y-13623238D02*
X13849286Y-13613714D01*
X13849286Y-13613714D02*
X13868333Y-13604190D01*
X13868333Y-13604190D02*
X13896905Y-13604190D01*
X13896905Y-13604190D02*
X13915952Y-13613714D01*
X13915952Y-13613714D02*
X13925476Y-13632762D01*
X13925476Y-13632762D02*
X13925476Y-13737524D01*
X13925476Y-13632762D02*
X13935000Y-13613714D01*
X13935000Y-13613714D02*
X13954048Y-13604190D01*
X13954048Y-13604190D02*
X13982619Y-13604190D01*
X13982619Y-13604190D02*
X14001667Y-13613714D01*
X14001667Y-13613714D02*
X14011190Y-13632762D01*
X14011190Y-13632762D02*
X14011190Y-13737524D01*
X14106429Y-13737524D02*
X14106429Y-13604190D01*
X14106429Y-13623238D02*
X14115952Y-13613714D01*
X14115952Y-13613714D02*
X14135000Y-13604190D01*
X14135000Y-13604190D02*
X14163571Y-13604190D01*
X14163571Y-13604190D02*
X14182619Y-13613714D01*
X14182619Y-13613714D02*
X14192143Y-13632762D01*
X14192143Y-13632762D02*
X14192143Y-13737524D01*
X14192143Y-13632762D02*
X14201667Y-13613714D01*
X14201667Y-13613714D02*
X14220714Y-13604190D01*
X14220714Y-13604190D02*
X14249286Y-13604190D01*
X14249286Y-13604190D02*
X14268333Y-13613714D01*
X14268333Y-13613714D02*
X14277857Y-13632762D01*
X14277857Y-13632762D02*
X14277857Y-13737524D01*
X14668333Y-13528000D02*
X14496905Y-13785143D01*
X14925476Y-13537524D02*
X14944524Y-13537524D01*
X14944524Y-13537524D02*
X14963572Y-13547048D01*
X14963572Y-13547048D02*
X14973095Y-13556571D01*
X14973095Y-13556571D02*
X14982619Y-13575619D01*
X14982619Y-13575619D02*
X14992143Y-13613714D01*
X14992143Y-13613714D02*
X14992143Y-13661333D01*
X14992143Y-13661333D02*
X14982619Y-13699428D01*
X14982619Y-13699428D02*
X14973095Y-13718476D01*
X14973095Y-13718476D02*
X14963572Y-13728000D01*
X14963572Y-13728000D02*
X14944524Y-13737524D01*
X14944524Y-13737524D02*
X14925476Y-13737524D01*
X14925476Y-13737524D02*
X14906429Y-13728000D01*
X14906429Y-13728000D02*
X14896905Y-13718476D01*
X14896905Y-13718476D02*
X14887381Y-13699428D01*
X14887381Y-13699428D02*
X14877857Y-13661333D01*
X14877857Y-13661333D02*
X14877857Y-13613714D01*
X14877857Y-13613714D02*
X14887381Y-13575619D01*
X14887381Y-13575619D02*
X14896905Y-13556571D01*
X14896905Y-13556571D02*
X14906429Y-13547048D01*
X14906429Y-13547048D02*
X14925476Y-13537524D01*
X15077857Y-13718476D02*
X15087381Y-13728000D01*
X15087381Y-13728000D02*
X15077857Y-13737524D01*
X15077857Y-13737524D02*
X15068333Y-13728000D01*
X15068333Y-13728000D02*
X15077857Y-13718476D01*
X15077857Y-13718476D02*
X15077857Y-13737524D01*
X15211191Y-13537524D02*
X15230238Y-13537524D01*
X15230238Y-13537524D02*
X15249286Y-13547048D01*
X15249286Y-13547048D02*
X15258810Y-13556571D01*
X15258810Y-13556571D02*
X15268333Y-13575619D01*
X15268333Y-13575619D02*
X15277857Y-13613714D01*
X15277857Y-13613714D02*
X15277857Y-13661333D01*
X15277857Y-13661333D02*
X15268333Y-13699428D01*
X15268333Y-13699428D02*
X15258810Y-13718476D01*
X15258810Y-13718476D02*
X15249286Y-13728000D01*
X15249286Y-13728000D02*
X15230238Y-13737524D01*
X15230238Y-13737524D02*
X15211191Y-13737524D01*
X15211191Y-13737524D02*
X15192143Y-13728000D01*
X15192143Y-13728000D02*
X15182619Y-13718476D01*
X15182619Y-13718476D02*
X15173095Y-13699428D01*
X15173095Y-13699428D02*
X15163572Y-13661333D01*
X15163572Y-13661333D02*
X15163572Y-13613714D01*
X15163572Y-13613714D02*
X15173095Y-13575619D01*
X15173095Y-13575619D02*
X15182619Y-13556571D01*
X15182619Y-13556571D02*
X15192143Y-13547048D01*
X15192143Y-13547048D02*
X15211191Y-13537524D01*
X15468333Y-13737524D02*
X15354048Y-13737524D01*
X15411191Y-13737524D02*
X15411191Y-13537524D01*
X15411191Y-13537524D02*
X15392143Y-13566095D01*
X15392143Y-13566095D02*
X15373095Y-13585143D01*
X15373095Y-13585143D02*
X15354048Y-13594667D01*
X15649286Y-13537524D02*
X15554048Y-13537524D01*
X15554048Y-13537524D02*
X15544524Y-13632762D01*
X15544524Y-13632762D02*
X15554048Y-13623238D01*
X15554048Y-13623238D02*
X15573095Y-13613714D01*
X15573095Y-13613714D02*
X15620714Y-13613714D01*
X15620714Y-13613714D02*
X15639762Y-13623238D01*
X15639762Y-13623238D02*
X15649286Y-13632762D01*
X15649286Y-13632762D02*
X15658810Y-13651809D01*
X15658810Y-13651809D02*
X15658810Y-13699428D01*
X15658810Y-13699428D02*
X15649286Y-13718476D01*
X15649286Y-13718476D02*
X15639762Y-13728000D01*
X15639762Y-13728000D02*
X15620714Y-13737524D01*
X15620714Y-13737524D02*
X15573095Y-13737524D01*
X15573095Y-13737524D02*
X15554048Y-13728000D01*
X15554048Y-13728000D02*
X15544524Y-13718476D01*
X15725476Y-13537524D02*
X15858810Y-13537524D01*
X15858810Y-13537524D02*
X15773095Y-13737524D01*
X15925476Y-13537524D02*
X15925476Y-13575619D01*
X16001667Y-13537524D02*
X16001667Y-13575619D01*
X16296905Y-13813714D02*
X16287381Y-13804190D01*
X16287381Y-13804190D02*
X16268334Y-13775619D01*
X16268334Y-13775619D02*
X16258810Y-13756571D01*
X16258810Y-13756571D02*
X16249286Y-13728000D01*
X16249286Y-13728000D02*
X16239762Y-13680381D01*
X16239762Y-13680381D02*
X16239762Y-13642286D01*
X16239762Y-13642286D02*
X16249286Y-13594667D01*
X16249286Y-13594667D02*
X16258810Y-13566095D01*
X16258810Y-13566095D02*
X16268334Y-13547048D01*
X16268334Y-13547048D02*
X16287381Y-13518476D01*
X16287381Y-13518476D02*
X16296905Y-13508952D01*
X16458810Y-13604190D02*
X16458810Y-13737524D01*
X16411191Y-13528000D02*
X16363572Y-13670857D01*
X16363572Y-13670857D02*
X16487381Y-13670857D01*
X16715953Y-13737524D02*
X16715953Y-13537524D01*
X16801667Y-13737524D02*
X16801667Y-13632762D01*
X16801667Y-13632762D02*
X16792143Y-13613714D01*
X16792143Y-13613714D02*
X16773096Y-13604190D01*
X16773096Y-13604190D02*
X16744524Y-13604190D01*
X16744524Y-13604190D02*
X16725476Y-13613714D01*
X16725476Y-13613714D02*
X16715953Y-13623238D01*
X16925477Y-13737524D02*
X16906429Y-13728000D01*
X16906429Y-13728000D02*
X16896905Y-13718476D01*
X16896905Y-13718476D02*
X16887381Y-13699428D01*
X16887381Y-13699428D02*
X16887381Y-13642286D01*
X16887381Y-13642286D02*
X16896905Y-13623238D01*
X16896905Y-13623238D02*
X16906429Y-13613714D01*
X16906429Y-13613714D02*
X16925477Y-13604190D01*
X16925477Y-13604190D02*
X16954048Y-13604190D01*
X16954048Y-13604190D02*
X16973096Y-13613714D01*
X16973096Y-13613714D02*
X16982619Y-13623238D01*
X16982619Y-13623238D02*
X16992143Y-13642286D01*
X16992143Y-13642286D02*
X16992143Y-13699428D01*
X16992143Y-13699428D02*
X16982619Y-13718476D01*
X16982619Y-13718476D02*
X16973096Y-13728000D01*
X16973096Y-13728000D02*
X16954048Y-13737524D01*
X16954048Y-13737524D02*
X16925477Y-13737524D01*
X17106429Y-13737524D02*
X17087381Y-13728000D01*
X17087381Y-13728000D02*
X17077858Y-13708952D01*
X17077858Y-13708952D02*
X17077858Y-13537524D01*
X17258810Y-13728000D02*
X17239762Y-13737524D01*
X17239762Y-13737524D02*
X17201667Y-13737524D01*
X17201667Y-13737524D02*
X17182619Y-13728000D01*
X17182619Y-13728000D02*
X17173096Y-13708952D01*
X17173096Y-13708952D02*
X17173096Y-13632762D01*
X17173096Y-13632762D02*
X17182619Y-13613714D01*
X17182619Y-13613714D02*
X17201667Y-13604190D01*
X17201667Y-13604190D02*
X17239762Y-13604190D01*
X17239762Y-13604190D02*
X17258810Y-13613714D01*
X17258810Y-13613714D02*
X17268334Y-13632762D01*
X17268334Y-13632762D02*
X17268334Y-13651809D01*
X17268334Y-13651809D02*
X17173096Y-13670857D01*
X17344524Y-13728000D02*
X17363572Y-13737524D01*
X17363572Y-13737524D02*
X17401667Y-13737524D01*
X17401667Y-13737524D02*
X17420715Y-13728000D01*
X17420715Y-13728000D02*
X17430239Y-13708952D01*
X17430239Y-13708952D02*
X17430239Y-13699428D01*
X17430239Y-13699428D02*
X17420715Y-13680381D01*
X17420715Y-13680381D02*
X17401667Y-13670857D01*
X17401667Y-13670857D02*
X17373096Y-13670857D01*
X17373096Y-13670857D02*
X17354048Y-13661333D01*
X17354048Y-13661333D02*
X17344524Y-13642286D01*
X17344524Y-13642286D02*
X17344524Y-13632762D01*
X17344524Y-13632762D02*
X17354048Y-13613714D01*
X17354048Y-13613714D02*
X17373096Y-13604190D01*
X17373096Y-13604190D02*
X17401667Y-13604190D01*
X17401667Y-13604190D02*
X17420715Y-13613714D01*
X17496905Y-13813714D02*
X17506429Y-13804190D01*
X17506429Y-13804190D02*
X17525477Y-13775619D01*
X17525477Y-13775619D02*
X17535000Y-13756571D01*
X17535000Y-13756571D02*
X17544524Y-13728000D01*
X17544524Y-13728000D02*
X17554048Y-13680381D01*
X17554048Y-13680381D02*
X17554048Y-13642286D01*
X17554048Y-13642286D02*
X17544524Y-13594667D01*
X17544524Y-13594667D02*
X17535000Y-13566095D01*
X17535000Y-13566095D02*
X17525477Y-13547048D01*
X17525477Y-13547048D02*
X17506429Y-13518476D01*
X17506429Y-13518476D02*
X17496905Y-13508952D01*
D13*
X12735000Y-13909000D02*
G75*
G03*
X12735000Y-13909000I-40000J0D01*
G01*
D11*
X13020714Y-13801524D02*
X13039762Y-13801524D01*
X13039762Y-13801524D02*
X13058809Y-13811048D01*
X13058809Y-13811048D02*
X13068333Y-13820571D01*
X13068333Y-13820571D02*
X13077857Y-13839619D01*
X13077857Y-13839619D02*
X13087381Y-13877714D01*
X13087381Y-13877714D02*
X13087381Y-13925333D01*
X13087381Y-13925333D02*
X13077857Y-13963428D01*
X13077857Y-13963428D02*
X13068333Y-13982476D01*
X13068333Y-13982476D02*
X13058809Y-13992000D01*
X13058809Y-13992000D02*
X13039762Y-14001524D01*
X13039762Y-14001524D02*
X13020714Y-14001524D01*
X13020714Y-14001524D02*
X13001667Y-13992000D01*
X13001667Y-13992000D02*
X12992143Y-13982476D01*
X12992143Y-13982476D02*
X12982619Y-13963428D01*
X12982619Y-13963428D02*
X12973095Y-13925333D01*
X12973095Y-13925333D02*
X12973095Y-13877714D01*
X12973095Y-13877714D02*
X12982619Y-13839619D01*
X12982619Y-13839619D02*
X12992143Y-13820571D01*
X12992143Y-13820571D02*
X13001667Y-13811048D01*
X13001667Y-13811048D02*
X13020714Y-13801524D01*
X13173095Y-13982476D02*
X13182619Y-13992000D01*
X13182619Y-13992000D02*
X13173095Y-14001524D01*
X13173095Y-14001524D02*
X13163571Y-13992000D01*
X13163571Y-13992000D02*
X13173095Y-13982476D01*
X13173095Y-13982476D02*
X13173095Y-14001524D01*
X13296905Y-13887238D02*
X13277857Y-13877714D01*
X13277857Y-13877714D02*
X13268333Y-13868190D01*
X13268333Y-13868190D02*
X13258809Y-13849143D01*
X13258809Y-13849143D02*
X13258809Y-13839619D01*
X13258809Y-13839619D02*
X13268333Y-13820571D01*
X13268333Y-13820571D02*
X13277857Y-13811048D01*
X13277857Y-13811048D02*
X13296905Y-13801524D01*
X13296905Y-13801524D02*
X13335000Y-13801524D01*
X13335000Y-13801524D02*
X13354048Y-13811048D01*
X13354048Y-13811048D02*
X13363571Y-13820571D01*
X13363571Y-13820571D02*
X13373095Y-13839619D01*
X13373095Y-13839619D02*
X13373095Y-13849143D01*
X13373095Y-13849143D02*
X13363571Y-13868190D01*
X13363571Y-13868190D02*
X13354048Y-13877714D01*
X13354048Y-13877714D02*
X13335000Y-13887238D01*
X13335000Y-13887238D02*
X13296905Y-13887238D01*
X13296905Y-13887238D02*
X13277857Y-13896762D01*
X13277857Y-13896762D02*
X13268333Y-13906286D01*
X13268333Y-13906286D02*
X13258809Y-13925333D01*
X13258809Y-13925333D02*
X13258809Y-13963428D01*
X13258809Y-13963428D02*
X13268333Y-13982476D01*
X13268333Y-13982476D02*
X13277857Y-13992000D01*
X13277857Y-13992000D02*
X13296905Y-14001524D01*
X13296905Y-14001524D02*
X13335000Y-14001524D01*
X13335000Y-14001524D02*
X13354048Y-13992000D01*
X13354048Y-13992000D02*
X13363571Y-13982476D01*
X13363571Y-13982476D02*
X13373095Y-13963428D01*
X13373095Y-13963428D02*
X13373095Y-13925333D01*
X13373095Y-13925333D02*
X13363571Y-13906286D01*
X13363571Y-13906286D02*
X13354048Y-13896762D01*
X13354048Y-13896762D02*
X13335000Y-13887238D01*
X13496905Y-13801524D02*
X13515952Y-13801524D01*
X13515952Y-13801524D02*
X13535000Y-13811048D01*
X13535000Y-13811048D02*
X13544524Y-13820571D01*
X13544524Y-13820571D02*
X13554048Y-13839619D01*
X13554048Y-13839619D02*
X13563571Y-13877714D01*
X13563571Y-13877714D02*
X13563571Y-13925333D01*
X13563571Y-13925333D02*
X13554048Y-13963428D01*
X13554048Y-13963428D02*
X13544524Y-13982476D01*
X13544524Y-13982476D02*
X13535000Y-13992000D01*
X13535000Y-13992000D02*
X13515952Y-14001524D01*
X13515952Y-14001524D02*
X13496905Y-14001524D01*
X13496905Y-14001524D02*
X13477857Y-13992000D01*
X13477857Y-13992000D02*
X13468333Y-13982476D01*
X13468333Y-13982476D02*
X13458809Y-13963428D01*
X13458809Y-13963428D02*
X13449286Y-13925333D01*
X13449286Y-13925333D02*
X13449286Y-13877714D01*
X13449286Y-13877714D02*
X13458809Y-13839619D01*
X13458809Y-13839619D02*
X13468333Y-13820571D01*
X13468333Y-13820571D02*
X13477857Y-13811048D01*
X13477857Y-13811048D02*
X13496905Y-13801524D01*
X13687381Y-13801524D02*
X13706429Y-13801524D01*
X13706429Y-13801524D02*
X13725476Y-13811048D01*
X13725476Y-13811048D02*
X13735000Y-13820571D01*
X13735000Y-13820571D02*
X13744524Y-13839619D01*
X13744524Y-13839619D02*
X13754048Y-13877714D01*
X13754048Y-13877714D02*
X13754048Y-13925333D01*
X13754048Y-13925333D02*
X13744524Y-13963428D01*
X13744524Y-13963428D02*
X13735000Y-13982476D01*
X13735000Y-13982476D02*
X13725476Y-13992000D01*
X13725476Y-13992000D02*
X13706429Y-14001524D01*
X13706429Y-14001524D02*
X13687381Y-14001524D01*
X13687381Y-14001524D02*
X13668333Y-13992000D01*
X13668333Y-13992000D02*
X13658809Y-13982476D01*
X13658809Y-13982476D02*
X13649286Y-13963428D01*
X13649286Y-13963428D02*
X13639762Y-13925333D01*
X13639762Y-13925333D02*
X13639762Y-13877714D01*
X13639762Y-13877714D02*
X13649286Y-13839619D01*
X13649286Y-13839619D02*
X13658809Y-13820571D01*
X13658809Y-13820571D02*
X13668333Y-13811048D01*
X13668333Y-13811048D02*
X13687381Y-13801524D01*
X13839762Y-14001524D02*
X13839762Y-13868190D01*
X13839762Y-13887238D02*
X13849286Y-13877714D01*
X13849286Y-13877714D02*
X13868333Y-13868190D01*
X13868333Y-13868190D02*
X13896905Y-13868190D01*
X13896905Y-13868190D02*
X13915952Y-13877714D01*
X13915952Y-13877714D02*
X13925476Y-13896762D01*
X13925476Y-13896762D02*
X13925476Y-14001524D01*
X13925476Y-13896762D02*
X13935000Y-13877714D01*
X13935000Y-13877714D02*
X13954048Y-13868190D01*
X13954048Y-13868190D02*
X13982619Y-13868190D01*
X13982619Y-13868190D02*
X14001667Y-13877714D01*
X14001667Y-13877714D02*
X14011190Y-13896762D01*
X14011190Y-13896762D02*
X14011190Y-14001524D01*
X14106429Y-14001524D02*
X14106429Y-13868190D01*
X14106429Y-13887238D02*
X14115952Y-13877714D01*
X14115952Y-13877714D02*
X14135000Y-13868190D01*
X14135000Y-13868190D02*
X14163571Y-13868190D01*
X14163571Y-13868190D02*
X14182619Y-13877714D01*
X14182619Y-13877714D02*
X14192143Y-13896762D01*
X14192143Y-13896762D02*
X14192143Y-14001524D01*
X14192143Y-13896762D02*
X14201667Y-13877714D01*
X14201667Y-13877714D02*
X14220714Y-13868190D01*
X14220714Y-13868190D02*
X14249286Y-13868190D01*
X14249286Y-13868190D02*
X14268333Y-13877714D01*
X14268333Y-13877714D02*
X14277857Y-13896762D01*
X14277857Y-13896762D02*
X14277857Y-14001524D01*
X14668333Y-13792000D02*
X14496905Y-14049143D01*
X14925476Y-13801524D02*
X14944524Y-13801524D01*
X14944524Y-13801524D02*
X14963572Y-13811048D01*
X14963572Y-13811048D02*
X14973095Y-13820571D01*
X14973095Y-13820571D02*
X14982619Y-13839619D01*
X14982619Y-13839619D02*
X14992143Y-13877714D01*
X14992143Y-13877714D02*
X14992143Y-13925333D01*
X14992143Y-13925333D02*
X14982619Y-13963428D01*
X14982619Y-13963428D02*
X14973095Y-13982476D01*
X14973095Y-13982476D02*
X14963572Y-13992000D01*
X14963572Y-13992000D02*
X14944524Y-14001524D01*
X14944524Y-14001524D02*
X14925476Y-14001524D01*
X14925476Y-14001524D02*
X14906429Y-13992000D01*
X14906429Y-13992000D02*
X14896905Y-13982476D01*
X14896905Y-13982476D02*
X14887381Y-13963428D01*
X14887381Y-13963428D02*
X14877857Y-13925333D01*
X14877857Y-13925333D02*
X14877857Y-13877714D01*
X14877857Y-13877714D02*
X14887381Y-13839619D01*
X14887381Y-13839619D02*
X14896905Y-13820571D01*
X14896905Y-13820571D02*
X14906429Y-13811048D01*
X14906429Y-13811048D02*
X14925476Y-13801524D01*
X15077857Y-13982476D02*
X15087381Y-13992000D01*
X15087381Y-13992000D02*
X15077857Y-14001524D01*
X15077857Y-14001524D02*
X15068333Y-13992000D01*
X15068333Y-13992000D02*
X15077857Y-13982476D01*
X15077857Y-13982476D02*
X15077857Y-14001524D01*
X15211191Y-13801524D02*
X15230238Y-13801524D01*
X15230238Y-13801524D02*
X15249286Y-13811048D01*
X15249286Y-13811048D02*
X15258810Y-13820571D01*
X15258810Y-13820571D02*
X15268333Y-13839619D01*
X15268333Y-13839619D02*
X15277857Y-13877714D01*
X15277857Y-13877714D02*
X15277857Y-13925333D01*
X15277857Y-13925333D02*
X15268333Y-13963428D01*
X15268333Y-13963428D02*
X15258810Y-13982476D01*
X15258810Y-13982476D02*
X15249286Y-13992000D01*
X15249286Y-13992000D02*
X15230238Y-14001524D01*
X15230238Y-14001524D02*
X15211191Y-14001524D01*
X15211191Y-14001524D02*
X15192143Y-13992000D01*
X15192143Y-13992000D02*
X15182619Y-13982476D01*
X15182619Y-13982476D02*
X15173095Y-13963428D01*
X15173095Y-13963428D02*
X15163572Y-13925333D01*
X15163572Y-13925333D02*
X15163572Y-13877714D01*
X15163572Y-13877714D02*
X15173095Y-13839619D01*
X15173095Y-13839619D02*
X15182619Y-13820571D01*
X15182619Y-13820571D02*
X15192143Y-13811048D01*
X15192143Y-13811048D02*
X15211191Y-13801524D01*
X15344524Y-13801524D02*
X15468333Y-13801524D01*
X15468333Y-13801524D02*
X15401667Y-13877714D01*
X15401667Y-13877714D02*
X15430238Y-13877714D01*
X15430238Y-13877714D02*
X15449286Y-13887238D01*
X15449286Y-13887238D02*
X15458810Y-13896762D01*
X15458810Y-13896762D02*
X15468333Y-13915809D01*
X15468333Y-13915809D02*
X15468333Y-13963428D01*
X15468333Y-13963428D02*
X15458810Y-13982476D01*
X15458810Y-13982476D02*
X15449286Y-13992000D01*
X15449286Y-13992000D02*
X15430238Y-14001524D01*
X15430238Y-14001524D02*
X15373095Y-14001524D01*
X15373095Y-14001524D02*
X15354048Y-13992000D01*
X15354048Y-13992000D02*
X15344524Y-13982476D01*
X15658810Y-14001524D02*
X15544524Y-14001524D01*
X15601667Y-14001524D02*
X15601667Y-13801524D01*
X15601667Y-13801524D02*
X15582619Y-13830095D01*
X15582619Y-13830095D02*
X15563572Y-13849143D01*
X15563572Y-13849143D02*
X15544524Y-13858667D01*
X15839762Y-13801524D02*
X15744524Y-13801524D01*
X15744524Y-13801524D02*
X15735000Y-13896762D01*
X15735000Y-13896762D02*
X15744524Y-13887238D01*
X15744524Y-13887238D02*
X15763572Y-13877714D01*
X15763572Y-13877714D02*
X15811191Y-13877714D01*
X15811191Y-13877714D02*
X15830238Y-13887238D01*
X15830238Y-13887238D02*
X15839762Y-13896762D01*
X15839762Y-13896762D02*
X15849286Y-13915809D01*
X15849286Y-13915809D02*
X15849286Y-13963428D01*
X15849286Y-13963428D02*
X15839762Y-13982476D01*
X15839762Y-13982476D02*
X15830238Y-13992000D01*
X15830238Y-13992000D02*
X15811191Y-14001524D01*
X15811191Y-14001524D02*
X15763572Y-14001524D01*
X15763572Y-14001524D02*
X15744524Y-13992000D01*
X15744524Y-13992000D02*
X15735000Y-13982476D01*
X15925476Y-13801524D02*
X15925476Y-13839619D01*
X16001667Y-13801524D02*
X16001667Y-13839619D01*
X16296905Y-14077714D02*
X16287381Y-14068190D01*
X16287381Y-14068190D02*
X16268334Y-14039619D01*
X16268334Y-14039619D02*
X16258810Y-14020571D01*
X16258810Y-14020571D02*
X16249286Y-13992000D01*
X16249286Y-13992000D02*
X16239762Y-13944381D01*
X16239762Y-13944381D02*
X16239762Y-13906286D01*
X16239762Y-13906286D02*
X16249286Y-13858667D01*
X16249286Y-13858667D02*
X16258810Y-13830095D01*
X16258810Y-13830095D02*
X16268334Y-13811048D01*
X16268334Y-13811048D02*
X16287381Y-13782476D01*
X16287381Y-13782476D02*
X16296905Y-13772952D01*
X16458810Y-13868190D02*
X16458810Y-14001524D01*
X16411191Y-13792000D02*
X16363572Y-13934857D01*
X16363572Y-13934857D02*
X16487381Y-13934857D01*
X16544524Y-13801524D02*
X16677857Y-13801524D01*
X16677857Y-13801524D02*
X16592143Y-14001524D01*
X16906429Y-14001524D02*
X16906429Y-13801524D01*
X16992143Y-14001524D02*
X16992143Y-13896762D01*
X16992143Y-13896762D02*
X16982619Y-13877714D01*
X16982619Y-13877714D02*
X16963572Y-13868190D01*
X16963572Y-13868190D02*
X16935000Y-13868190D01*
X16935000Y-13868190D02*
X16915953Y-13877714D01*
X16915953Y-13877714D02*
X16906429Y-13887238D01*
X17115953Y-14001524D02*
X17096905Y-13992000D01*
X17096905Y-13992000D02*
X17087381Y-13982476D01*
X17087381Y-13982476D02*
X17077858Y-13963428D01*
X17077858Y-13963428D02*
X17077858Y-13906286D01*
X17077858Y-13906286D02*
X17087381Y-13887238D01*
X17087381Y-13887238D02*
X17096905Y-13877714D01*
X17096905Y-13877714D02*
X17115953Y-13868190D01*
X17115953Y-13868190D02*
X17144524Y-13868190D01*
X17144524Y-13868190D02*
X17163572Y-13877714D01*
X17163572Y-13877714D02*
X17173096Y-13887238D01*
X17173096Y-13887238D02*
X17182619Y-13906286D01*
X17182619Y-13906286D02*
X17182619Y-13963428D01*
X17182619Y-13963428D02*
X17173096Y-13982476D01*
X17173096Y-13982476D02*
X17163572Y-13992000D01*
X17163572Y-13992000D02*
X17144524Y-14001524D01*
X17144524Y-14001524D02*
X17115953Y-14001524D01*
X17296905Y-14001524D02*
X17277858Y-13992000D01*
X17277858Y-13992000D02*
X17268334Y-13972952D01*
X17268334Y-13972952D02*
X17268334Y-13801524D01*
X17449286Y-13992000D02*
X17430239Y-14001524D01*
X17430239Y-14001524D02*
X17392143Y-14001524D01*
X17392143Y-14001524D02*
X17373096Y-13992000D01*
X17373096Y-13992000D02*
X17363572Y-13972952D01*
X17363572Y-13972952D02*
X17363572Y-13896762D01*
X17363572Y-13896762D02*
X17373096Y-13877714D01*
X17373096Y-13877714D02*
X17392143Y-13868190D01*
X17392143Y-13868190D02*
X17430239Y-13868190D01*
X17430239Y-13868190D02*
X17449286Y-13877714D01*
X17449286Y-13877714D02*
X17458810Y-13896762D01*
X17458810Y-13896762D02*
X17458810Y-13915809D01*
X17458810Y-13915809D02*
X17363572Y-13934857D01*
X17535000Y-13992000D02*
X17554048Y-14001524D01*
X17554048Y-14001524D02*
X17592143Y-14001524D01*
X17592143Y-14001524D02*
X17611191Y-13992000D01*
X17611191Y-13992000D02*
X17620715Y-13972952D01*
X17620715Y-13972952D02*
X17620715Y-13963428D01*
X17620715Y-13963428D02*
X17611191Y-13944381D01*
X17611191Y-13944381D02*
X17592143Y-13934857D01*
X17592143Y-13934857D02*
X17563572Y-13934857D01*
X17563572Y-13934857D02*
X17544524Y-13925333D01*
X17544524Y-13925333D02*
X17535000Y-13906286D01*
X17535000Y-13906286D02*
X17535000Y-13896762D01*
X17535000Y-13896762D02*
X17544524Y-13877714D01*
X17544524Y-13877714D02*
X17563572Y-13868190D01*
X17563572Y-13868190D02*
X17592143Y-13868190D01*
X17592143Y-13868190D02*
X17611191Y-13877714D01*
X17687381Y-14077714D02*
X17696905Y-14068190D01*
X17696905Y-14068190D02*
X17715953Y-14039619D01*
X17715953Y-14039619D02*
X17725477Y-14020571D01*
X17725477Y-14020571D02*
X17735000Y-13992000D01*
X17735000Y-13992000D02*
X17744524Y-13944381D01*
X17744524Y-13944381D02*
X17744524Y-13906286D01*
X17744524Y-13906286D02*
X17735000Y-13858667D01*
X17735000Y-13858667D02*
X17725477Y-13830095D01*
X17725477Y-13830095D02*
X17715953Y-13811048D01*
X17715953Y-13811048D02*
X17696905Y-13782476D01*
X17696905Y-13782476D02*
X17687381Y-13772952D01*
D14*
X12687500Y-14125500D02*
X12687500Y-14220500D01*
X12640000Y-14173000D02*
X12735000Y-14173000D01*
D11*
X13020714Y-14065524D02*
X13039762Y-14065524D01*
X13039762Y-14065524D02*
X13058809Y-14075048D01*
X13058809Y-14075048D02*
X13068333Y-14084571D01*
X13068333Y-14084571D02*
X13077857Y-14103619D01*
X13077857Y-14103619D02*
X13087381Y-14141714D01*
X13087381Y-14141714D02*
X13087381Y-14189333D01*
X13087381Y-14189333D02*
X13077857Y-14227428D01*
X13077857Y-14227428D02*
X13068333Y-14246476D01*
X13068333Y-14246476D02*
X13058809Y-14256000D01*
X13058809Y-14256000D02*
X13039762Y-14265524D01*
X13039762Y-14265524D02*
X13020714Y-14265524D01*
X13020714Y-14265524D02*
X13001667Y-14256000D01*
X13001667Y-14256000D02*
X12992143Y-14246476D01*
X12992143Y-14246476D02*
X12982619Y-14227428D01*
X12982619Y-14227428D02*
X12973095Y-14189333D01*
X12973095Y-14189333D02*
X12973095Y-14141714D01*
X12973095Y-14141714D02*
X12982619Y-14103619D01*
X12982619Y-14103619D02*
X12992143Y-14084571D01*
X12992143Y-14084571D02*
X13001667Y-14075048D01*
X13001667Y-14075048D02*
X13020714Y-14065524D01*
X13173095Y-14246476D02*
X13182619Y-14256000D01*
X13182619Y-14256000D02*
X13173095Y-14265524D01*
X13173095Y-14265524D02*
X13163571Y-14256000D01*
X13163571Y-14256000D02*
X13173095Y-14246476D01*
X13173095Y-14246476D02*
X13173095Y-14265524D01*
X13277857Y-14265524D02*
X13315952Y-14265524D01*
X13315952Y-14265524D02*
X13335000Y-14256000D01*
X13335000Y-14256000D02*
X13344524Y-14246476D01*
X13344524Y-14246476D02*
X13363571Y-14217905D01*
X13363571Y-14217905D02*
X13373095Y-14179809D01*
X13373095Y-14179809D02*
X13373095Y-14103619D01*
X13373095Y-14103619D02*
X13363571Y-14084571D01*
X13363571Y-14084571D02*
X13354048Y-14075048D01*
X13354048Y-14075048D02*
X13335000Y-14065524D01*
X13335000Y-14065524D02*
X13296905Y-14065524D01*
X13296905Y-14065524D02*
X13277857Y-14075048D01*
X13277857Y-14075048D02*
X13268333Y-14084571D01*
X13268333Y-14084571D02*
X13258809Y-14103619D01*
X13258809Y-14103619D02*
X13258809Y-14151238D01*
X13258809Y-14151238D02*
X13268333Y-14170286D01*
X13268333Y-14170286D02*
X13277857Y-14179809D01*
X13277857Y-14179809D02*
X13296905Y-14189333D01*
X13296905Y-14189333D02*
X13335000Y-14189333D01*
X13335000Y-14189333D02*
X13354048Y-14179809D01*
X13354048Y-14179809D02*
X13363571Y-14170286D01*
X13363571Y-14170286D02*
X13373095Y-14151238D01*
X13554048Y-14065524D02*
X13458809Y-14065524D01*
X13458809Y-14065524D02*
X13449286Y-14160762D01*
X13449286Y-14160762D02*
X13458809Y-14151238D01*
X13458809Y-14151238D02*
X13477857Y-14141714D01*
X13477857Y-14141714D02*
X13525476Y-14141714D01*
X13525476Y-14141714D02*
X13544524Y-14151238D01*
X13544524Y-14151238D02*
X13554048Y-14160762D01*
X13554048Y-14160762D02*
X13563571Y-14179809D01*
X13563571Y-14179809D02*
X13563571Y-14227428D01*
X13563571Y-14227428D02*
X13554048Y-14246476D01*
X13554048Y-14246476D02*
X13544524Y-14256000D01*
X13544524Y-14256000D02*
X13525476Y-14265524D01*
X13525476Y-14265524D02*
X13477857Y-14265524D01*
X13477857Y-14265524D02*
X13458809Y-14256000D01*
X13458809Y-14256000D02*
X13449286Y-14246476D01*
X13687381Y-14065524D02*
X13706429Y-14065524D01*
X13706429Y-14065524D02*
X13725476Y-14075048D01*
X13725476Y-14075048D02*
X13735000Y-14084571D01*
X13735000Y-14084571D02*
X13744524Y-14103619D01*
X13744524Y-14103619D02*
X13754048Y-14141714D01*
X13754048Y-14141714D02*
X13754048Y-14189333D01*
X13754048Y-14189333D02*
X13744524Y-14227428D01*
X13744524Y-14227428D02*
X13735000Y-14246476D01*
X13735000Y-14246476D02*
X13725476Y-14256000D01*
X13725476Y-14256000D02*
X13706429Y-14265524D01*
X13706429Y-14265524D02*
X13687381Y-14265524D01*
X13687381Y-14265524D02*
X13668333Y-14256000D01*
X13668333Y-14256000D02*
X13658809Y-14246476D01*
X13658809Y-14246476D02*
X13649286Y-14227428D01*
X13649286Y-14227428D02*
X13639762Y-14189333D01*
X13639762Y-14189333D02*
X13639762Y-14141714D01*
X13639762Y-14141714D02*
X13649286Y-14103619D01*
X13649286Y-14103619D02*
X13658809Y-14084571D01*
X13658809Y-14084571D02*
X13668333Y-14075048D01*
X13668333Y-14075048D02*
X13687381Y-14065524D01*
X13839762Y-14265524D02*
X13839762Y-14132190D01*
X13839762Y-14151238D02*
X13849286Y-14141714D01*
X13849286Y-14141714D02*
X13868333Y-14132190D01*
X13868333Y-14132190D02*
X13896905Y-14132190D01*
X13896905Y-14132190D02*
X13915952Y-14141714D01*
X13915952Y-14141714D02*
X13925476Y-14160762D01*
X13925476Y-14160762D02*
X13925476Y-14265524D01*
X13925476Y-14160762D02*
X13935000Y-14141714D01*
X13935000Y-14141714D02*
X13954048Y-14132190D01*
X13954048Y-14132190D02*
X13982619Y-14132190D01*
X13982619Y-14132190D02*
X14001667Y-14141714D01*
X14001667Y-14141714D02*
X14011190Y-14160762D01*
X14011190Y-14160762D02*
X14011190Y-14265524D01*
X14106429Y-14265524D02*
X14106429Y-14132190D01*
X14106429Y-14151238D02*
X14115952Y-14141714D01*
X14115952Y-14141714D02*
X14135000Y-14132190D01*
X14135000Y-14132190D02*
X14163571Y-14132190D01*
X14163571Y-14132190D02*
X14182619Y-14141714D01*
X14182619Y-14141714D02*
X14192143Y-14160762D01*
X14192143Y-14160762D02*
X14192143Y-14265524D01*
X14192143Y-14160762D02*
X14201667Y-14141714D01*
X14201667Y-14141714D02*
X14220714Y-14132190D01*
X14220714Y-14132190D02*
X14249286Y-14132190D01*
X14249286Y-14132190D02*
X14268333Y-14141714D01*
X14268333Y-14141714D02*
X14277857Y-14160762D01*
X14277857Y-14160762D02*
X14277857Y-14265524D01*
X14668333Y-14056000D02*
X14496905Y-14313143D01*
X14925476Y-14065524D02*
X14944524Y-14065524D01*
X14944524Y-14065524D02*
X14963572Y-14075048D01*
X14963572Y-14075048D02*
X14973095Y-14084571D01*
X14973095Y-14084571D02*
X14982619Y-14103619D01*
X14982619Y-14103619D02*
X14992143Y-14141714D01*
X14992143Y-14141714D02*
X14992143Y-14189333D01*
X14992143Y-14189333D02*
X14982619Y-14227428D01*
X14982619Y-14227428D02*
X14973095Y-14246476D01*
X14973095Y-14246476D02*
X14963572Y-14256000D01*
X14963572Y-14256000D02*
X14944524Y-14265524D01*
X14944524Y-14265524D02*
X14925476Y-14265524D01*
X14925476Y-14265524D02*
X14906429Y-14256000D01*
X14906429Y-14256000D02*
X14896905Y-14246476D01*
X14896905Y-14246476D02*
X14887381Y-14227428D01*
X14887381Y-14227428D02*
X14877857Y-14189333D01*
X14877857Y-14189333D02*
X14877857Y-14141714D01*
X14877857Y-14141714D02*
X14887381Y-14103619D01*
X14887381Y-14103619D02*
X14896905Y-14084571D01*
X14896905Y-14084571D02*
X14906429Y-14075048D01*
X14906429Y-14075048D02*
X14925476Y-14065524D01*
X15077857Y-14246476D02*
X15087381Y-14256000D01*
X15087381Y-14256000D02*
X15077857Y-14265524D01*
X15077857Y-14265524D02*
X15068333Y-14256000D01*
X15068333Y-14256000D02*
X15077857Y-14246476D01*
X15077857Y-14246476D02*
X15077857Y-14265524D01*
X15211191Y-14065524D02*
X15230238Y-14065524D01*
X15230238Y-14065524D02*
X15249286Y-14075048D01*
X15249286Y-14075048D02*
X15258810Y-14084571D01*
X15258810Y-14084571D02*
X15268333Y-14103619D01*
X15268333Y-14103619D02*
X15277857Y-14141714D01*
X15277857Y-14141714D02*
X15277857Y-14189333D01*
X15277857Y-14189333D02*
X15268333Y-14227428D01*
X15268333Y-14227428D02*
X15258810Y-14246476D01*
X15258810Y-14246476D02*
X15249286Y-14256000D01*
X15249286Y-14256000D02*
X15230238Y-14265524D01*
X15230238Y-14265524D02*
X15211191Y-14265524D01*
X15211191Y-14265524D02*
X15192143Y-14256000D01*
X15192143Y-14256000D02*
X15182619Y-14246476D01*
X15182619Y-14246476D02*
X15173095Y-14227428D01*
X15173095Y-14227428D02*
X15163572Y-14189333D01*
X15163572Y-14189333D02*
X15163572Y-14141714D01*
X15163572Y-14141714D02*
X15173095Y-14103619D01*
X15173095Y-14103619D02*
X15182619Y-14084571D01*
X15182619Y-14084571D02*
X15192143Y-14075048D01*
X15192143Y-14075048D02*
X15211191Y-14065524D01*
X15344524Y-14065524D02*
X15468333Y-14065524D01*
X15468333Y-14065524D02*
X15401667Y-14141714D01*
X15401667Y-14141714D02*
X15430238Y-14141714D01*
X15430238Y-14141714D02*
X15449286Y-14151238D01*
X15449286Y-14151238D02*
X15458810Y-14160762D01*
X15458810Y-14160762D02*
X15468333Y-14179809D01*
X15468333Y-14179809D02*
X15468333Y-14227428D01*
X15468333Y-14227428D02*
X15458810Y-14246476D01*
X15458810Y-14246476D02*
X15449286Y-14256000D01*
X15449286Y-14256000D02*
X15430238Y-14265524D01*
X15430238Y-14265524D02*
X15373095Y-14265524D01*
X15373095Y-14265524D02*
X15354048Y-14256000D01*
X15354048Y-14256000D02*
X15344524Y-14246476D01*
X15535000Y-14065524D02*
X15668333Y-14065524D01*
X15668333Y-14065524D02*
X15582619Y-14265524D01*
X15830238Y-14132190D02*
X15830238Y-14265524D01*
X15782619Y-14056000D02*
X15735000Y-14198857D01*
X15735000Y-14198857D02*
X15858810Y-14198857D01*
X15925476Y-14065524D02*
X15925476Y-14103619D01*
X16001667Y-14065524D02*
X16001667Y-14103619D01*
X16296905Y-14341714D02*
X16287381Y-14332190D01*
X16287381Y-14332190D02*
X16268334Y-14303619D01*
X16268334Y-14303619D02*
X16258810Y-14284571D01*
X16258810Y-14284571D02*
X16249286Y-14256000D01*
X16249286Y-14256000D02*
X16239762Y-14208381D01*
X16239762Y-14208381D02*
X16239762Y-14170286D01*
X16239762Y-14170286D02*
X16249286Y-14122667D01*
X16249286Y-14122667D02*
X16258810Y-14094095D01*
X16258810Y-14094095D02*
X16268334Y-14075048D01*
X16268334Y-14075048D02*
X16287381Y-14046476D01*
X16287381Y-14046476D02*
X16296905Y-14036952D01*
X16458810Y-14132190D02*
X16458810Y-14265524D01*
X16411191Y-14056000D02*
X16363572Y-14198857D01*
X16363572Y-14198857D02*
X16487381Y-14198857D01*
X16715953Y-14265524D02*
X16715953Y-14065524D01*
X16801667Y-14265524D02*
X16801667Y-14160762D01*
X16801667Y-14160762D02*
X16792143Y-14141714D01*
X16792143Y-14141714D02*
X16773096Y-14132190D01*
X16773096Y-14132190D02*
X16744524Y-14132190D01*
X16744524Y-14132190D02*
X16725476Y-14141714D01*
X16725476Y-14141714D02*
X16715953Y-14151238D01*
X16925477Y-14265524D02*
X16906429Y-14256000D01*
X16906429Y-14256000D02*
X16896905Y-14246476D01*
X16896905Y-14246476D02*
X16887381Y-14227428D01*
X16887381Y-14227428D02*
X16887381Y-14170286D01*
X16887381Y-14170286D02*
X16896905Y-14151238D01*
X16896905Y-14151238D02*
X16906429Y-14141714D01*
X16906429Y-14141714D02*
X16925477Y-14132190D01*
X16925477Y-14132190D02*
X16954048Y-14132190D01*
X16954048Y-14132190D02*
X16973096Y-14141714D01*
X16973096Y-14141714D02*
X16982619Y-14151238D01*
X16982619Y-14151238D02*
X16992143Y-14170286D01*
X16992143Y-14170286D02*
X16992143Y-14227428D01*
X16992143Y-14227428D02*
X16982619Y-14246476D01*
X16982619Y-14246476D02*
X16973096Y-14256000D01*
X16973096Y-14256000D02*
X16954048Y-14265524D01*
X16954048Y-14265524D02*
X16925477Y-14265524D01*
X17106429Y-14265524D02*
X17087381Y-14256000D01*
X17087381Y-14256000D02*
X17077858Y-14236952D01*
X17077858Y-14236952D02*
X17077858Y-14065524D01*
X17258810Y-14256000D02*
X17239762Y-14265524D01*
X17239762Y-14265524D02*
X17201667Y-14265524D01*
X17201667Y-14265524D02*
X17182619Y-14256000D01*
X17182619Y-14256000D02*
X17173096Y-14236952D01*
X17173096Y-14236952D02*
X17173096Y-14160762D01*
X17173096Y-14160762D02*
X17182619Y-14141714D01*
X17182619Y-14141714D02*
X17201667Y-14132190D01*
X17201667Y-14132190D02*
X17239762Y-14132190D01*
X17239762Y-14132190D02*
X17258810Y-14141714D01*
X17258810Y-14141714D02*
X17268334Y-14160762D01*
X17268334Y-14160762D02*
X17268334Y-14179809D01*
X17268334Y-14179809D02*
X17173096Y-14198857D01*
X17344524Y-14256000D02*
X17363572Y-14265524D01*
X17363572Y-14265524D02*
X17401667Y-14265524D01*
X17401667Y-14265524D02*
X17420715Y-14256000D01*
X17420715Y-14256000D02*
X17430239Y-14236952D01*
X17430239Y-14236952D02*
X17430239Y-14227428D01*
X17430239Y-14227428D02*
X17420715Y-14208381D01*
X17420715Y-14208381D02*
X17401667Y-14198857D01*
X17401667Y-14198857D02*
X17373096Y-14198857D01*
X17373096Y-14198857D02*
X17354048Y-14189333D01*
X17354048Y-14189333D02*
X17344524Y-14170286D01*
X17344524Y-14170286D02*
X17344524Y-14160762D01*
X17344524Y-14160762D02*
X17354048Y-14141714D01*
X17354048Y-14141714D02*
X17373096Y-14132190D01*
X17373096Y-14132190D02*
X17401667Y-14132190D01*
X17401667Y-14132190D02*
X17420715Y-14141714D01*
X17496905Y-14341714D02*
X17506429Y-14332190D01*
X17506429Y-14332190D02*
X17525477Y-14303619D01*
X17525477Y-14303619D02*
X17535000Y-14284571D01*
X17535000Y-14284571D02*
X17544524Y-14256000D01*
X17544524Y-14256000D02*
X17554048Y-14208381D01*
X17554048Y-14208381D02*
X17554048Y-14170286D01*
X17554048Y-14170286D02*
X17544524Y-14122667D01*
X17544524Y-14122667D02*
X17535000Y-14094095D01*
X17535000Y-14094095D02*
X17525477Y-14075048D01*
X17525477Y-14075048D02*
X17506429Y-14046476D01*
X17506429Y-14046476D02*
X17496905Y-14036952D01*
D10*
X12720356Y-14472356D02*
X12720356Y-14401644D01*
X12649644Y-14401644D01*
X12649644Y-14472356D01*
X12720356Y-14472356D01*
D11*
X13087381Y-14529524D02*
X12973095Y-14529524D01*
X13030238Y-14529524D02*
X13030238Y-14329524D01*
X13030238Y-14329524D02*
X13011190Y-14358095D01*
X13011190Y-14358095D02*
X12992143Y-14377143D01*
X12992143Y-14377143D02*
X12973095Y-14386667D01*
X13173095Y-14510476D02*
X13182619Y-14520000D01*
X13182619Y-14520000D02*
X13173095Y-14529524D01*
X13173095Y-14529524D02*
X13163571Y-14520000D01*
X13163571Y-14520000D02*
X13173095Y-14510476D01*
X13173095Y-14510476D02*
X13173095Y-14529524D01*
X13306428Y-14329524D02*
X13325476Y-14329524D01*
X13325476Y-14329524D02*
X13344524Y-14339048D01*
X13344524Y-14339048D02*
X13354048Y-14348571D01*
X13354048Y-14348571D02*
X13363571Y-14367619D01*
X13363571Y-14367619D02*
X13373095Y-14405714D01*
X13373095Y-14405714D02*
X13373095Y-14453333D01*
X13373095Y-14453333D02*
X13363571Y-14491428D01*
X13363571Y-14491428D02*
X13354048Y-14510476D01*
X13354048Y-14510476D02*
X13344524Y-14520000D01*
X13344524Y-14520000D02*
X13325476Y-14529524D01*
X13325476Y-14529524D02*
X13306428Y-14529524D01*
X13306428Y-14529524D02*
X13287381Y-14520000D01*
X13287381Y-14520000D02*
X13277857Y-14510476D01*
X13277857Y-14510476D02*
X13268333Y-14491428D01*
X13268333Y-14491428D02*
X13258809Y-14453333D01*
X13258809Y-14453333D02*
X13258809Y-14405714D01*
X13258809Y-14405714D02*
X13268333Y-14367619D01*
X13268333Y-14367619D02*
X13277857Y-14348571D01*
X13277857Y-14348571D02*
X13287381Y-14339048D01*
X13287381Y-14339048D02*
X13306428Y-14329524D01*
X13496905Y-14329524D02*
X13515952Y-14329524D01*
X13515952Y-14329524D02*
X13535000Y-14339048D01*
X13535000Y-14339048D02*
X13544524Y-14348571D01*
X13544524Y-14348571D02*
X13554048Y-14367619D01*
X13554048Y-14367619D02*
X13563571Y-14405714D01*
X13563571Y-14405714D02*
X13563571Y-14453333D01*
X13563571Y-14453333D02*
X13554048Y-14491428D01*
X13554048Y-14491428D02*
X13544524Y-14510476D01*
X13544524Y-14510476D02*
X13535000Y-14520000D01*
X13535000Y-14520000D02*
X13515952Y-14529524D01*
X13515952Y-14529524D02*
X13496905Y-14529524D01*
X13496905Y-14529524D02*
X13477857Y-14520000D01*
X13477857Y-14520000D02*
X13468333Y-14510476D01*
X13468333Y-14510476D02*
X13458809Y-14491428D01*
X13458809Y-14491428D02*
X13449286Y-14453333D01*
X13449286Y-14453333D02*
X13449286Y-14405714D01*
X13449286Y-14405714D02*
X13458809Y-14367619D01*
X13458809Y-14367619D02*
X13468333Y-14348571D01*
X13468333Y-14348571D02*
X13477857Y-14339048D01*
X13477857Y-14339048D02*
X13496905Y-14329524D01*
X13687381Y-14329524D02*
X13706429Y-14329524D01*
X13706429Y-14329524D02*
X13725476Y-14339048D01*
X13725476Y-14339048D02*
X13735000Y-14348571D01*
X13735000Y-14348571D02*
X13744524Y-14367619D01*
X13744524Y-14367619D02*
X13754048Y-14405714D01*
X13754048Y-14405714D02*
X13754048Y-14453333D01*
X13754048Y-14453333D02*
X13744524Y-14491428D01*
X13744524Y-14491428D02*
X13735000Y-14510476D01*
X13735000Y-14510476D02*
X13725476Y-14520000D01*
X13725476Y-14520000D02*
X13706429Y-14529524D01*
X13706429Y-14529524D02*
X13687381Y-14529524D01*
X13687381Y-14529524D02*
X13668333Y-14520000D01*
X13668333Y-14520000D02*
X13658809Y-14510476D01*
X13658809Y-14510476D02*
X13649286Y-14491428D01*
X13649286Y-14491428D02*
X13639762Y-14453333D01*
X13639762Y-14453333D02*
X13639762Y-14405714D01*
X13639762Y-14405714D02*
X13649286Y-14367619D01*
X13649286Y-14367619D02*
X13658809Y-14348571D01*
X13658809Y-14348571D02*
X13668333Y-14339048D01*
X13668333Y-14339048D02*
X13687381Y-14329524D01*
X13839762Y-14529524D02*
X13839762Y-14396190D01*
X13839762Y-14415238D02*
X13849286Y-14405714D01*
X13849286Y-14405714D02*
X13868333Y-14396190D01*
X13868333Y-14396190D02*
X13896905Y-14396190D01*
X13896905Y-14396190D02*
X13915952Y-14405714D01*
X13915952Y-14405714D02*
X13925476Y-14424762D01*
X13925476Y-14424762D02*
X13925476Y-14529524D01*
X13925476Y-14424762D02*
X13935000Y-14405714D01*
X13935000Y-14405714D02*
X13954048Y-14396190D01*
X13954048Y-14396190D02*
X13982619Y-14396190D01*
X13982619Y-14396190D02*
X14001667Y-14405714D01*
X14001667Y-14405714D02*
X14011190Y-14424762D01*
X14011190Y-14424762D02*
X14011190Y-14529524D01*
X14106429Y-14529524D02*
X14106429Y-14396190D01*
X14106429Y-14415238D02*
X14115952Y-14405714D01*
X14115952Y-14405714D02*
X14135000Y-14396190D01*
X14135000Y-14396190D02*
X14163571Y-14396190D01*
X14163571Y-14396190D02*
X14182619Y-14405714D01*
X14182619Y-14405714D02*
X14192143Y-14424762D01*
X14192143Y-14424762D02*
X14192143Y-14529524D01*
X14192143Y-14424762D02*
X14201667Y-14405714D01*
X14201667Y-14405714D02*
X14220714Y-14396190D01*
X14220714Y-14396190D02*
X14249286Y-14396190D01*
X14249286Y-14396190D02*
X14268333Y-14405714D01*
X14268333Y-14405714D02*
X14277857Y-14424762D01*
X14277857Y-14424762D02*
X14277857Y-14529524D01*
X14668333Y-14320000D02*
X14496905Y-14577143D01*
X14925476Y-14329524D02*
X14944524Y-14329524D01*
X14944524Y-14329524D02*
X14963572Y-14339048D01*
X14963572Y-14339048D02*
X14973095Y-14348571D01*
X14973095Y-14348571D02*
X14982619Y-14367619D01*
X14982619Y-14367619D02*
X14992143Y-14405714D01*
X14992143Y-14405714D02*
X14992143Y-14453333D01*
X14992143Y-14453333D02*
X14982619Y-14491428D01*
X14982619Y-14491428D02*
X14973095Y-14510476D01*
X14973095Y-14510476D02*
X14963572Y-14520000D01*
X14963572Y-14520000D02*
X14944524Y-14529524D01*
X14944524Y-14529524D02*
X14925476Y-14529524D01*
X14925476Y-14529524D02*
X14906429Y-14520000D01*
X14906429Y-14520000D02*
X14896905Y-14510476D01*
X14896905Y-14510476D02*
X14887381Y-14491428D01*
X14887381Y-14491428D02*
X14877857Y-14453333D01*
X14877857Y-14453333D02*
X14877857Y-14405714D01*
X14877857Y-14405714D02*
X14887381Y-14367619D01*
X14887381Y-14367619D02*
X14896905Y-14348571D01*
X14896905Y-14348571D02*
X14906429Y-14339048D01*
X14906429Y-14339048D02*
X14925476Y-14329524D01*
X15077857Y-14510476D02*
X15087381Y-14520000D01*
X15087381Y-14520000D02*
X15077857Y-14529524D01*
X15077857Y-14529524D02*
X15068333Y-14520000D01*
X15068333Y-14520000D02*
X15077857Y-14510476D01*
X15077857Y-14510476D02*
X15077857Y-14529524D01*
X15211191Y-14329524D02*
X15230238Y-14329524D01*
X15230238Y-14329524D02*
X15249286Y-14339048D01*
X15249286Y-14339048D02*
X15258810Y-14348571D01*
X15258810Y-14348571D02*
X15268333Y-14367619D01*
X15268333Y-14367619D02*
X15277857Y-14405714D01*
X15277857Y-14405714D02*
X15277857Y-14453333D01*
X15277857Y-14453333D02*
X15268333Y-14491428D01*
X15268333Y-14491428D02*
X15258810Y-14510476D01*
X15258810Y-14510476D02*
X15249286Y-14520000D01*
X15249286Y-14520000D02*
X15230238Y-14529524D01*
X15230238Y-14529524D02*
X15211191Y-14529524D01*
X15211191Y-14529524D02*
X15192143Y-14520000D01*
X15192143Y-14520000D02*
X15182619Y-14510476D01*
X15182619Y-14510476D02*
X15173095Y-14491428D01*
X15173095Y-14491428D02*
X15163572Y-14453333D01*
X15163572Y-14453333D02*
X15163572Y-14405714D01*
X15163572Y-14405714D02*
X15173095Y-14367619D01*
X15173095Y-14367619D02*
X15182619Y-14348571D01*
X15182619Y-14348571D02*
X15192143Y-14339048D01*
X15192143Y-14339048D02*
X15211191Y-14329524D01*
X15344524Y-14329524D02*
X15468333Y-14329524D01*
X15468333Y-14329524D02*
X15401667Y-14405714D01*
X15401667Y-14405714D02*
X15430238Y-14405714D01*
X15430238Y-14405714D02*
X15449286Y-14415238D01*
X15449286Y-14415238D02*
X15458810Y-14424762D01*
X15458810Y-14424762D02*
X15468333Y-14443809D01*
X15468333Y-14443809D02*
X15468333Y-14491428D01*
X15468333Y-14491428D02*
X15458810Y-14510476D01*
X15458810Y-14510476D02*
X15449286Y-14520000D01*
X15449286Y-14520000D02*
X15430238Y-14529524D01*
X15430238Y-14529524D02*
X15373095Y-14529524D01*
X15373095Y-14529524D02*
X15354048Y-14520000D01*
X15354048Y-14520000D02*
X15344524Y-14510476D01*
X15563572Y-14529524D02*
X15601667Y-14529524D01*
X15601667Y-14529524D02*
X15620714Y-14520000D01*
X15620714Y-14520000D02*
X15630238Y-14510476D01*
X15630238Y-14510476D02*
X15649286Y-14481905D01*
X15649286Y-14481905D02*
X15658810Y-14443809D01*
X15658810Y-14443809D02*
X15658810Y-14367619D01*
X15658810Y-14367619D02*
X15649286Y-14348571D01*
X15649286Y-14348571D02*
X15639762Y-14339048D01*
X15639762Y-14339048D02*
X15620714Y-14329524D01*
X15620714Y-14329524D02*
X15582619Y-14329524D01*
X15582619Y-14329524D02*
X15563572Y-14339048D01*
X15563572Y-14339048D02*
X15554048Y-14348571D01*
X15554048Y-14348571D02*
X15544524Y-14367619D01*
X15544524Y-14367619D02*
X15544524Y-14415238D01*
X15544524Y-14415238D02*
X15554048Y-14434286D01*
X15554048Y-14434286D02*
X15563572Y-14443809D01*
X15563572Y-14443809D02*
X15582619Y-14453333D01*
X15582619Y-14453333D02*
X15620714Y-14453333D01*
X15620714Y-14453333D02*
X15639762Y-14443809D01*
X15639762Y-14443809D02*
X15649286Y-14434286D01*
X15649286Y-14434286D02*
X15658810Y-14415238D01*
X15830238Y-14396190D02*
X15830238Y-14529524D01*
X15782619Y-14320000D02*
X15735000Y-14462857D01*
X15735000Y-14462857D02*
X15858810Y-14462857D01*
X15925476Y-14329524D02*
X15925476Y-14367619D01*
X16001667Y-14329524D02*
X16001667Y-14367619D01*
X16296905Y-14605714D02*
X16287381Y-14596190D01*
X16287381Y-14596190D02*
X16268334Y-14567619D01*
X16268334Y-14567619D02*
X16258810Y-14548571D01*
X16258810Y-14548571D02*
X16249286Y-14520000D01*
X16249286Y-14520000D02*
X16239762Y-14472381D01*
X16239762Y-14472381D02*
X16239762Y-14434286D01*
X16239762Y-14434286D02*
X16249286Y-14386667D01*
X16249286Y-14386667D02*
X16258810Y-14358095D01*
X16258810Y-14358095D02*
X16268334Y-14339048D01*
X16268334Y-14339048D02*
X16287381Y-14310476D01*
X16287381Y-14310476D02*
X16296905Y-14300952D01*
X16363572Y-14348571D02*
X16373095Y-14339048D01*
X16373095Y-14339048D02*
X16392143Y-14329524D01*
X16392143Y-14329524D02*
X16439762Y-14329524D01*
X16439762Y-14329524D02*
X16458810Y-14339048D01*
X16458810Y-14339048D02*
X16468334Y-14348571D01*
X16468334Y-14348571D02*
X16477857Y-14367619D01*
X16477857Y-14367619D02*
X16477857Y-14386667D01*
X16477857Y-14386667D02*
X16468334Y-14415238D01*
X16468334Y-14415238D02*
X16354048Y-14529524D01*
X16354048Y-14529524D02*
X16477857Y-14529524D01*
X16668334Y-14529524D02*
X16554048Y-14529524D01*
X16611191Y-14529524D02*
X16611191Y-14329524D01*
X16611191Y-14329524D02*
X16592143Y-14358095D01*
X16592143Y-14358095D02*
X16573095Y-14377143D01*
X16573095Y-14377143D02*
X16554048Y-14386667D01*
X16906429Y-14529524D02*
X16906429Y-14329524D01*
X16992143Y-14529524D02*
X16992143Y-14424762D01*
X16992143Y-14424762D02*
X16982619Y-14405714D01*
X16982619Y-14405714D02*
X16963572Y-14396190D01*
X16963572Y-14396190D02*
X16935000Y-14396190D01*
X16935000Y-14396190D02*
X16915953Y-14405714D01*
X16915953Y-14405714D02*
X16906429Y-14415238D01*
X17115953Y-14529524D02*
X17096905Y-14520000D01*
X17096905Y-14520000D02*
X17087381Y-14510476D01*
X17087381Y-14510476D02*
X17077858Y-14491428D01*
X17077858Y-14491428D02*
X17077858Y-14434286D01*
X17077858Y-14434286D02*
X17087381Y-14415238D01*
X17087381Y-14415238D02*
X17096905Y-14405714D01*
X17096905Y-14405714D02*
X17115953Y-14396190D01*
X17115953Y-14396190D02*
X17144524Y-14396190D01*
X17144524Y-14396190D02*
X17163572Y-14405714D01*
X17163572Y-14405714D02*
X17173096Y-14415238D01*
X17173096Y-14415238D02*
X17182619Y-14434286D01*
X17182619Y-14434286D02*
X17182619Y-14491428D01*
X17182619Y-14491428D02*
X17173096Y-14510476D01*
X17173096Y-14510476D02*
X17163572Y-14520000D01*
X17163572Y-14520000D02*
X17144524Y-14529524D01*
X17144524Y-14529524D02*
X17115953Y-14529524D01*
X17296905Y-14529524D02*
X17277858Y-14520000D01*
X17277858Y-14520000D02*
X17268334Y-14500952D01*
X17268334Y-14500952D02*
X17268334Y-14329524D01*
X17449286Y-14520000D02*
X17430239Y-14529524D01*
X17430239Y-14529524D02*
X17392143Y-14529524D01*
X17392143Y-14529524D02*
X17373096Y-14520000D01*
X17373096Y-14520000D02*
X17363572Y-14500952D01*
X17363572Y-14500952D02*
X17363572Y-14424762D01*
X17363572Y-14424762D02*
X17373096Y-14405714D01*
X17373096Y-14405714D02*
X17392143Y-14396190D01*
X17392143Y-14396190D02*
X17430239Y-14396190D01*
X17430239Y-14396190D02*
X17449286Y-14405714D01*
X17449286Y-14405714D02*
X17458810Y-14424762D01*
X17458810Y-14424762D02*
X17458810Y-14443809D01*
X17458810Y-14443809D02*
X17363572Y-14462857D01*
X17535000Y-14520000D02*
X17554048Y-14529524D01*
X17554048Y-14529524D02*
X17592143Y-14529524D01*
X17592143Y-14529524D02*
X17611191Y-14520000D01*
X17611191Y-14520000D02*
X17620715Y-14500952D01*
X17620715Y-14500952D02*
X17620715Y-14491428D01*
X17620715Y-14491428D02*
X17611191Y-14472381D01*
X17611191Y-14472381D02*
X17592143Y-14462857D01*
X17592143Y-14462857D02*
X17563572Y-14462857D01*
X17563572Y-14462857D02*
X17544524Y-14453333D01*
X17544524Y-14453333D02*
X17535000Y-14434286D01*
X17535000Y-14434286D02*
X17535000Y-14424762D01*
X17535000Y-14424762D02*
X17544524Y-14405714D01*
X17544524Y-14405714D02*
X17563572Y-14396190D01*
X17563572Y-14396190D02*
X17592143Y-14396190D01*
X17592143Y-14396190D02*
X17611191Y-14405714D01*
X17687381Y-14605714D02*
X17696905Y-14596190D01*
X17696905Y-14596190D02*
X17715953Y-14567619D01*
X17715953Y-14567619D02*
X17725477Y-14548571D01*
X17725477Y-14548571D02*
X17735000Y-14520000D01*
X17735000Y-14520000D02*
X17744524Y-14472381D01*
X17744524Y-14472381D02*
X17744524Y-14434286D01*
X17744524Y-14434286D02*
X17735000Y-14386667D01*
X17735000Y-14386667D02*
X17725477Y-14358095D01*
X17725477Y-14358095D02*
X17715953Y-14339048D01*
X17715953Y-14339048D02*
X17696905Y-14310476D01*
X17696905Y-14310476D02*
X17687381Y-14300952D01*
D15*
X12675000Y-14761000D02*
X12735000Y-14701000D01*
X12675000Y-14641000D01*
X12615000Y-14701000D01*
X12675000Y-14761000D01*
D11*
X13087381Y-14793524D02*
X12973095Y-14793524D01*
X13030238Y-14793524D02*
X13030238Y-14593524D01*
X13030238Y-14593524D02*
X13011190Y-14622095D01*
X13011190Y-14622095D02*
X12992143Y-14641143D01*
X12992143Y-14641143D02*
X12973095Y-14650667D01*
X13173095Y-14774476D02*
X13182619Y-14784000D01*
X13182619Y-14784000D02*
X13173095Y-14793524D01*
X13173095Y-14793524D02*
X13163571Y-14784000D01*
X13163571Y-14784000D02*
X13173095Y-14774476D01*
X13173095Y-14774476D02*
X13173095Y-14793524D01*
X13258809Y-14612571D02*
X13268333Y-14603048D01*
X13268333Y-14603048D02*
X13287381Y-14593524D01*
X13287381Y-14593524D02*
X13335000Y-14593524D01*
X13335000Y-14593524D02*
X13354048Y-14603048D01*
X13354048Y-14603048D02*
X13363571Y-14612571D01*
X13363571Y-14612571D02*
X13373095Y-14631619D01*
X13373095Y-14631619D02*
X13373095Y-14650667D01*
X13373095Y-14650667D02*
X13363571Y-14679238D01*
X13363571Y-14679238D02*
X13249286Y-14793524D01*
X13249286Y-14793524D02*
X13373095Y-14793524D01*
X13496905Y-14593524D02*
X13515952Y-14593524D01*
X13515952Y-14593524D02*
X13535000Y-14603048D01*
X13535000Y-14603048D02*
X13544524Y-14612571D01*
X13544524Y-14612571D02*
X13554048Y-14631619D01*
X13554048Y-14631619D02*
X13563571Y-14669714D01*
X13563571Y-14669714D02*
X13563571Y-14717333D01*
X13563571Y-14717333D02*
X13554048Y-14755428D01*
X13554048Y-14755428D02*
X13544524Y-14774476D01*
X13544524Y-14774476D02*
X13535000Y-14784000D01*
X13535000Y-14784000D02*
X13515952Y-14793524D01*
X13515952Y-14793524D02*
X13496905Y-14793524D01*
X13496905Y-14793524D02*
X13477857Y-14784000D01*
X13477857Y-14784000D02*
X13468333Y-14774476D01*
X13468333Y-14774476D02*
X13458809Y-14755428D01*
X13458809Y-14755428D02*
X13449286Y-14717333D01*
X13449286Y-14717333D02*
X13449286Y-14669714D01*
X13449286Y-14669714D02*
X13458809Y-14631619D01*
X13458809Y-14631619D02*
X13468333Y-14612571D01*
X13468333Y-14612571D02*
X13477857Y-14603048D01*
X13477857Y-14603048D02*
X13496905Y-14593524D01*
X13687381Y-14593524D02*
X13706429Y-14593524D01*
X13706429Y-14593524D02*
X13725476Y-14603048D01*
X13725476Y-14603048D02*
X13735000Y-14612571D01*
X13735000Y-14612571D02*
X13744524Y-14631619D01*
X13744524Y-14631619D02*
X13754048Y-14669714D01*
X13754048Y-14669714D02*
X13754048Y-14717333D01*
X13754048Y-14717333D02*
X13744524Y-14755428D01*
X13744524Y-14755428D02*
X13735000Y-14774476D01*
X13735000Y-14774476D02*
X13725476Y-14784000D01*
X13725476Y-14784000D02*
X13706429Y-14793524D01*
X13706429Y-14793524D02*
X13687381Y-14793524D01*
X13687381Y-14793524D02*
X13668333Y-14784000D01*
X13668333Y-14784000D02*
X13658809Y-14774476D01*
X13658809Y-14774476D02*
X13649286Y-14755428D01*
X13649286Y-14755428D02*
X13639762Y-14717333D01*
X13639762Y-14717333D02*
X13639762Y-14669714D01*
X13639762Y-14669714D02*
X13649286Y-14631619D01*
X13649286Y-14631619D02*
X13658809Y-14612571D01*
X13658809Y-14612571D02*
X13668333Y-14603048D01*
X13668333Y-14603048D02*
X13687381Y-14593524D01*
X13839762Y-14793524D02*
X13839762Y-14660190D01*
X13839762Y-14679238D02*
X13849286Y-14669714D01*
X13849286Y-14669714D02*
X13868333Y-14660190D01*
X13868333Y-14660190D02*
X13896905Y-14660190D01*
X13896905Y-14660190D02*
X13915952Y-14669714D01*
X13915952Y-14669714D02*
X13925476Y-14688762D01*
X13925476Y-14688762D02*
X13925476Y-14793524D01*
X13925476Y-14688762D02*
X13935000Y-14669714D01*
X13935000Y-14669714D02*
X13954048Y-14660190D01*
X13954048Y-14660190D02*
X13982619Y-14660190D01*
X13982619Y-14660190D02*
X14001667Y-14669714D01*
X14001667Y-14669714D02*
X14011190Y-14688762D01*
X14011190Y-14688762D02*
X14011190Y-14793524D01*
X14106429Y-14793524D02*
X14106429Y-14660190D01*
X14106429Y-14679238D02*
X14115952Y-14669714D01*
X14115952Y-14669714D02*
X14135000Y-14660190D01*
X14135000Y-14660190D02*
X14163571Y-14660190D01*
X14163571Y-14660190D02*
X14182619Y-14669714D01*
X14182619Y-14669714D02*
X14192143Y-14688762D01*
X14192143Y-14688762D02*
X14192143Y-14793524D01*
X14192143Y-14688762D02*
X14201667Y-14669714D01*
X14201667Y-14669714D02*
X14220714Y-14660190D01*
X14220714Y-14660190D02*
X14249286Y-14660190D01*
X14249286Y-14660190D02*
X14268333Y-14669714D01*
X14268333Y-14669714D02*
X14277857Y-14688762D01*
X14277857Y-14688762D02*
X14277857Y-14793524D01*
X14668333Y-14584000D02*
X14496905Y-14841143D01*
X14925476Y-14593524D02*
X14944524Y-14593524D01*
X14944524Y-14593524D02*
X14963572Y-14603048D01*
X14963572Y-14603048D02*
X14973095Y-14612571D01*
X14973095Y-14612571D02*
X14982619Y-14631619D01*
X14982619Y-14631619D02*
X14992143Y-14669714D01*
X14992143Y-14669714D02*
X14992143Y-14717333D01*
X14992143Y-14717333D02*
X14982619Y-14755428D01*
X14982619Y-14755428D02*
X14973095Y-14774476D01*
X14973095Y-14774476D02*
X14963572Y-14784000D01*
X14963572Y-14784000D02*
X14944524Y-14793524D01*
X14944524Y-14793524D02*
X14925476Y-14793524D01*
X14925476Y-14793524D02*
X14906429Y-14784000D01*
X14906429Y-14784000D02*
X14896905Y-14774476D01*
X14896905Y-14774476D02*
X14887381Y-14755428D01*
X14887381Y-14755428D02*
X14877857Y-14717333D01*
X14877857Y-14717333D02*
X14877857Y-14669714D01*
X14877857Y-14669714D02*
X14887381Y-14631619D01*
X14887381Y-14631619D02*
X14896905Y-14612571D01*
X14896905Y-14612571D02*
X14906429Y-14603048D01*
X14906429Y-14603048D02*
X14925476Y-14593524D01*
X15077857Y-14774476D02*
X15087381Y-14784000D01*
X15087381Y-14784000D02*
X15077857Y-14793524D01*
X15077857Y-14793524D02*
X15068333Y-14784000D01*
X15068333Y-14784000D02*
X15077857Y-14774476D01*
X15077857Y-14774476D02*
X15077857Y-14793524D01*
X15211191Y-14593524D02*
X15230238Y-14593524D01*
X15230238Y-14593524D02*
X15249286Y-14603048D01*
X15249286Y-14603048D02*
X15258810Y-14612571D01*
X15258810Y-14612571D02*
X15268333Y-14631619D01*
X15268333Y-14631619D02*
X15277857Y-14669714D01*
X15277857Y-14669714D02*
X15277857Y-14717333D01*
X15277857Y-14717333D02*
X15268333Y-14755428D01*
X15268333Y-14755428D02*
X15258810Y-14774476D01*
X15258810Y-14774476D02*
X15249286Y-14784000D01*
X15249286Y-14784000D02*
X15230238Y-14793524D01*
X15230238Y-14793524D02*
X15211191Y-14793524D01*
X15211191Y-14793524D02*
X15192143Y-14784000D01*
X15192143Y-14784000D02*
X15182619Y-14774476D01*
X15182619Y-14774476D02*
X15173095Y-14755428D01*
X15173095Y-14755428D02*
X15163572Y-14717333D01*
X15163572Y-14717333D02*
X15163572Y-14669714D01*
X15163572Y-14669714D02*
X15173095Y-14631619D01*
X15173095Y-14631619D02*
X15182619Y-14612571D01*
X15182619Y-14612571D02*
X15192143Y-14603048D01*
X15192143Y-14603048D02*
X15211191Y-14593524D01*
X15449286Y-14660190D02*
X15449286Y-14793524D01*
X15401667Y-14584000D02*
X15354048Y-14726857D01*
X15354048Y-14726857D02*
X15477857Y-14726857D01*
X15535000Y-14593524D02*
X15668333Y-14593524D01*
X15668333Y-14593524D02*
X15582619Y-14793524D01*
X15735000Y-14612571D02*
X15744524Y-14603048D01*
X15744524Y-14603048D02*
X15763572Y-14593524D01*
X15763572Y-14593524D02*
X15811191Y-14593524D01*
X15811191Y-14593524D02*
X15830238Y-14603048D01*
X15830238Y-14603048D02*
X15839762Y-14612571D01*
X15839762Y-14612571D02*
X15849286Y-14631619D01*
X15849286Y-14631619D02*
X15849286Y-14650667D01*
X15849286Y-14650667D02*
X15839762Y-14679238D01*
X15839762Y-14679238D02*
X15725476Y-14793524D01*
X15725476Y-14793524D02*
X15849286Y-14793524D01*
X15925476Y-14593524D02*
X15925476Y-14631619D01*
X16001667Y-14593524D02*
X16001667Y-14631619D01*
X16296905Y-14869714D02*
X16287381Y-14860190D01*
X16287381Y-14860190D02*
X16268334Y-14831619D01*
X16268334Y-14831619D02*
X16258810Y-14812571D01*
X16258810Y-14812571D02*
X16249286Y-14784000D01*
X16249286Y-14784000D02*
X16239762Y-14736381D01*
X16239762Y-14736381D02*
X16239762Y-14698286D01*
X16239762Y-14698286D02*
X16249286Y-14650667D01*
X16249286Y-14650667D02*
X16258810Y-14622095D01*
X16258810Y-14622095D02*
X16268334Y-14603048D01*
X16268334Y-14603048D02*
X16287381Y-14574476D01*
X16287381Y-14574476D02*
X16296905Y-14564952D01*
X16401667Y-14679238D02*
X16382619Y-14669714D01*
X16382619Y-14669714D02*
X16373095Y-14660190D01*
X16373095Y-14660190D02*
X16363572Y-14641143D01*
X16363572Y-14641143D02*
X16363572Y-14631619D01*
X16363572Y-14631619D02*
X16373095Y-14612571D01*
X16373095Y-14612571D02*
X16382619Y-14603048D01*
X16382619Y-14603048D02*
X16401667Y-14593524D01*
X16401667Y-14593524D02*
X16439762Y-14593524D01*
X16439762Y-14593524D02*
X16458810Y-14603048D01*
X16458810Y-14603048D02*
X16468334Y-14612571D01*
X16468334Y-14612571D02*
X16477857Y-14631619D01*
X16477857Y-14631619D02*
X16477857Y-14641143D01*
X16477857Y-14641143D02*
X16468334Y-14660190D01*
X16468334Y-14660190D02*
X16458810Y-14669714D01*
X16458810Y-14669714D02*
X16439762Y-14679238D01*
X16439762Y-14679238D02*
X16401667Y-14679238D01*
X16401667Y-14679238D02*
X16382619Y-14688762D01*
X16382619Y-14688762D02*
X16373095Y-14698286D01*
X16373095Y-14698286D02*
X16363572Y-14717333D01*
X16363572Y-14717333D02*
X16363572Y-14755428D01*
X16363572Y-14755428D02*
X16373095Y-14774476D01*
X16373095Y-14774476D02*
X16382619Y-14784000D01*
X16382619Y-14784000D02*
X16401667Y-14793524D01*
X16401667Y-14793524D02*
X16439762Y-14793524D01*
X16439762Y-14793524D02*
X16458810Y-14784000D01*
X16458810Y-14784000D02*
X16468334Y-14774476D01*
X16468334Y-14774476D02*
X16477857Y-14755428D01*
X16477857Y-14755428D02*
X16477857Y-14717333D01*
X16477857Y-14717333D02*
X16468334Y-14698286D01*
X16468334Y-14698286D02*
X16458810Y-14688762D01*
X16458810Y-14688762D02*
X16439762Y-14679238D01*
X16715953Y-14793524D02*
X16715953Y-14593524D01*
X16801667Y-14793524D02*
X16801667Y-14688762D01*
X16801667Y-14688762D02*
X16792143Y-14669714D01*
X16792143Y-14669714D02*
X16773096Y-14660190D01*
X16773096Y-14660190D02*
X16744524Y-14660190D01*
X16744524Y-14660190D02*
X16725476Y-14669714D01*
X16725476Y-14669714D02*
X16715953Y-14679238D01*
X16925477Y-14793524D02*
X16906429Y-14784000D01*
X16906429Y-14784000D02*
X16896905Y-14774476D01*
X16896905Y-14774476D02*
X16887381Y-14755428D01*
X16887381Y-14755428D02*
X16887381Y-14698286D01*
X16887381Y-14698286D02*
X16896905Y-14679238D01*
X16896905Y-14679238D02*
X16906429Y-14669714D01*
X16906429Y-14669714D02*
X16925477Y-14660190D01*
X16925477Y-14660190D02*
X16954048Y-14660190D01*
X16954048Y-14660190D02*
X16973096Y-14669714D01*
X16973096Y-14669714D02*
X16982619Y-14679238D01*
X16982619Y-14679238D02*
X16992143Y-14698286D01*
X16992143Y-14698286D02*
X16992143Y-14755428D01*
X16992143Y-14755428D02*
X16982619Y-14774476D01*
X16982619Y-14774476D02*
X16973096Y-14784000D01*
X16973096Y-14784000D02*
X16954048Y-14793524D01*
X16954048Y-14793524D02*
X16925477Y-14793524D01*
X17106429Y-14793524D02*
X17087381Y-14784000D01*
X17087381Y-14784000D02*
X17077858Y-14764952D01*
X17077858Y-14764952D02*
X17077858Y-14593524D01*
X17258810Y-14784000D02*
X17239762Y-14793524D01*
X17239762Y-14793524D02*
X17201667Y-14793524D01*
X17201667Y-14793524D02*
X17182619Y-14784000D01*
X17182619Y-14784000D02*
X17173096Y-14764952D01*
X17173096Y-14764952D02*
X17173096Y-14688762D01*
X17173096Y-14688762D02*
X17182619Y-14669714D01*
X17182619Y-14669714D02*
X17201667Y-14660190D01*
X17201667Y-14660190D02*
X17239762Y-14660190D01*
X17239762Y-14660190D02*
X17258810Y-14669714D01*
X17258810Y-14669714D02*
X17268334Y-14688762D01*
X17268334Y-14688762D02*
X17268334Y-14707809D01*
X17268334Y-14707809D02*
X17173096Y-14726857D01*
X17344524Y-14784000D02*
X17363572Y-14793524D01*
X17363572Y-14793524D02*
X17401667Y-14793524D01*
X17401667Y-14793524D02*
X17420715Y-14784000D01*
X17420715Y-14784000D02*
X17430239Y-14764952D01*
X17430239Y-14764952D02*
X17430239Y-14755428D01*
X17430239Y-14755428D02*
X17420715Y-14736381D01*
X17420715Y-14736381D02*
X17401667Y-14726857D01*
X17401667Y-14726857D02*
X17373096Y-14726857D01*
X17373096Y-14726857D02*
X17354048Y-14717333D01*
X17354048Y-14717333D02*
X17344524Y-14698286D01*
X17344524Y-14698286D02*
X17344524Y-14688762D01*
X17344524Y-14688762D02*
X17354048Y-14669714D01*
X17354048Y-14669714D02*
X17373096Y-14660190D01*
X17373096Y-14660190D02*
X17401667Y-14660190D01*
X17401667Y-14660190D02*
X17420715Y-14669714D01*
X17496905Y-14869714D02*
X17506429Y-14860190D01*
X17506429Y-14860190D02*
X17525477Y-14831619D01*
X17525477Y-14831619D02*
X17535000Y-14812571D01*
X17535000Y-14812571D02*
X17544524Y-14784000D01*
X17544524Y-14784000D02*
X17554048Y-14736381D01*
X17554048Y-14736381D02*
X17554048Y-14698286D01*
X17554048Y-14698286D02*
X17544524Y-14650667D01*
X17544524Y-14650667D02*
X17535000Y-14622095D01*
X17535000Y-14622095D02*
X17525477Y-14603048D01*
X17525477Y-14603048D02*
X17506429Y-14574476D01*
X17506429Y-14574476D02*
X17496905Y-14564952D01*
X12535000Y-14865000D02*
X12735000Y-15065000D01*
X12735000Y-14865000D02*
X12535000Y-15065000D01*
X12735000Y-14965000D02*
G75*
G03*
X12735000Y-14965000I-100000J0D01*
G01*
X12963571Y-14857524D02*
X13087381Y-14857524D01*
X13087381Y-14857524D02*
X13020714Y-14933714D01*
X13020714Y-14933714D02*
X13049286Y-14933714D01*
X13049286Y-14933714D02*
X13068333Y-14943238D01*
X13068333Y-14943238D02*
X13077857Y-14952762D01*
X13077857Y-14952762D02*
X13087381Y-14971809D01*
X13087381Y-14971809D02*
X13087381Y-15019428D01*
X13087381Y-15019428D02*
X13077857Y-15038476D01*
X13077857Y-15038476D02*
X13068333Y-15048000D01*
X13068333Y-15048000D02*
X13049286Y-15057524D01*
X13049286Y-15057524D02*
X12992143Y-15057524D01*
X12992143Y-15057524D02*
X12973095Y-15048000D01*
X12973095Y-15048000D02*
X12963571Y-15038476D01*
X13173095Y-15038476D02*
X13182619Y-15048000D01*
X13182619Y-15048000D02*
X13173095Y-15057524D01*
X13173095Y-15057524D02*
X13163571Y-15048000D01*
X13163571Y-15048000D02*
X13173095Y-15038476D01*
X13173095Y-15038476D02*
X13173095Y-15057524D01*
X13258809Y-14876571D02*
X13268333Y-14867048D01*
X13268333Y-14867048D02*
X13287381Y-14857524D01*
X13287381Y-14857524D02*
X13335000Y-14857524D01*
X13335000Y-14857524D02*
X13354048Y-14867048D01*
X13354048Y-14867048D02*
X13363571Y-14876571D01*
X13363571Y-14876571D02*
X13373095Y-14895619D01*
X13373095Y-14895619D02*
X13373095Y-14914667D01*
X13373095Y-14914667D02*
X13363571Y-14943238D01*
X13363571Y-14943238D02*
X13249286Y-15057524D01*
X13249286Y-15057524D02*
X13373095Y-15057524D01*
X13496905Y-14857524D02*
X13515952Y-14857524D01*
X13515952Y-14857524D02*
X13535000Y-14867048D01*
X13535000Y-14867048D02*
X13544524Y-14876571D01*
X13544524Y-14876571D02*
X13554048Y-14895619D01*
X13554048Y-14895619D02*
X13563571Y-14933714D01*
X13563571Y-14933714D02*
X13563571Y-14981333D01*
X13563571Y-14981333D02*
X13554048Y-15019428D01*
X13554048Y-15019428D02*
X13544524Y-15038476D01*
X13544524Y-15038476D02*
X13535000Y-15048000D01*
X13535000Y-15048000D02*
X13515952Y-15057524D01*
X13515952Y-15057524D02*
X13496905Y-15057524D01*
X13496905Y-15057524D02*
X13477857Y-15048000D01*
X13477857Y-15048000D02*
X13468333Y-15038476D01*
X13468333Y-15038476D02*
X13458809Y-15019428D01*
X13458809Y-15019428D02*
X13449286Y-14981333D01*
X13449286Y-14981333D02*
X13449286Y-14933714D01*
X13449286Y-14933714D02*
X13458809Y-14895619D01*
X13458809Y-14895619D02*
X13468333Y-14876571D01*
X13468333Y-14876571D02*
X13477857Y-14867048D01*
X13477857Y-14867048D02*
X13496905Y-14857524D01*
X13687381Y-14857524D02*
X13706429Y-14857524D01*
X13706429Y-14857524D02*
X13725476Y-14867048D01*
X13725476Y-14867048D02*
X13735000Y-14876571D01*
X13735000Y-14876571D02*
X13744524Y-14895619D01*
X13744524Y-14895619D02*
X13754048Y-14933714D01*
X13754048Y-14933714D02*
X13754048Y-14981333D01*
X13754048Y-14981333D02*
X13744524Y-15019428D01*
X13744524Y-15019428D02*
X13735000Y-15038476D01*
X13735000Y-15038476D02*
X13725476Y-15048000D01*
X13725476Y-15048000D02*
X13706429Y-15057524D01*
X13706429Y-15057524D02*
X13687381Y-15057524D01*
X13687381Y-15057524D02*
X13668333Y-15048000D01*
X13668333Y-15048000D02*
X13658809Y-15038476D01*
X13658809Y-15038476D02*
X13649286Y-15019428D01*
X13649286Y-15019428D02*
X13639762Y-14981333D01*
X13639762Y-14981333D02*
X13639762Y-14933714D01*
X13639762Y-14933714D02*
X13649286Y-14895619D01*
X13649286Y-14895619D02*
X13658809Y-14876571D01*
X13658809Y-14876571D02*
X13668333Y-14867048D01*
X13668333Y-14867048D02*
X13687381Y-14857524D01*
X13839762Y-15057524D02*
X13839762Y-14924190D01*
X13839762Y-14943238D02*
X13849286Y-14933714D01*
X13849286Y-14933714D02*
X13868333Y-14924190D01*
X13868333Y-14924190D02*
X13896905Y-14924190D01*
X13896905Y-14924190D02*
X13915952Y-14933714D01*
X13915952Y-14933714D02*
X13925476Y-14952762D01*
X13925476Y-14952762D02*
X13925476Y-15057524D01*
X13925476Y-14952762D02*
X13935000Y-14933714D01*
X13935000Y-14933714D02*
X13954048Y-14924190D01*
X13954048Y-14924190D02*
X13982619Y-14924190D01*
X13982619Y-14924190D02*
X14001667Y-14933714D01*
X14001667Y-14933714D02*
X14011190Y-14952762D01*
X14011190Y-14952762D02*
X14011190Y-15057524D01*
X14106429Y-15057524D02*
X14106429Y-14924190D01*
X14106429Y-14943238D02*
X14115952Y-14933714D01*
X14115952Y-14933714D02*
X14135000Y-14924190D01*
X14135000Y-14924190D02*
X14163571Y-14924190D01*
X14163571Y-14924190D02*
X14182619Y-14933714D01*
X14182619Y-14933714D02*
X14192143Y-14952762D01*
X14192143Y-14952762D02*
X14192143Y-15057524D01*
X14192143Y-14952762D02*
X14201667Y-14933714D01*
X14201667Y-14933714D02*
X14220714Y-14924190D01*
X14220714Y-14924190D02*
X14249286Y-14924190D01*
X14249286Y-14924190D02*
X14268333Y-14933714D01*
X14268333Y-14933714D02*
X14277857Y-14952762D01*
X14277857Y-14952762D02*
X14277857Y-15057524D01*
X14668333Y-14848000D02*
X14496905Y-15105143D01*
X14925476Y-14857524D02*
X14944524Y-14857524D01*
X14944524Y-14857524D02*
X14963572Y-14867048D01*
X14963572Y-14867048D02*
X14973095Y-14876571D01*
X14973095Y-14876571D02*
X14982619Y-14895619D01*
X14982619Y-14895619D02*
X14992143Y-14933714D01*
X14992143Y-14933714D02*
X14992143Y-14981333D01*
X14992143Y-14981333D02*
X14982619Y-15019428D01*
X14982619Y-15019428D02*
X14973095Y-15038476D01*
X14973095Y-15038476D02*
X14963572Y-15048000D01*
X14963572Y-15048000D02*
X14944524Y-15057524D01*
X14944524Y-15057524D02*
X14925476Y-15057524D01*
X14925476Y-15057524D02*
X14906429Y-15048000D01*
X14906429Y-15048000D02*
X14896905Y-15038476D01*
X14896905Y-15038476D02*
X14887381Y-15019428D01*
X14887381Y-15019428D02*
X14877857Y-14981333D01*
X14877857Y-14981333D02*
X14877857Y-14933714D01*
X14877857Y-14933714D02*
X14887381Y-14895619D01*
X14887381Y-14895619D02*
X14896905Y-14876571D01*
X14896905Y-14876571D02*
X14906429Y-14867048D01*
X14906429Y-14867048D02*
X14925476Y-14857524D01*
X15077857Y-15038476D02*
X15087381Y-15048000D01*
X15087381Y-15048000D02*
X15077857Y-15057524D01*
X15077857Y-15057524D02*
X15068333Y-15048000D01*
X15068333Y-15048000D02*
X15077857Y-15038476D01*
X15077857Y-15038476D02*
X15077857Y-15057524D01*
X15277857Y-15057524D02*
X15163572Y-15057524D01*
X15220714Y-15057524D02*
X15220714Y-14857524D01*
X15220714Y-14857524D02*
X15201667Y-14886095D01*
X15201667Y-14886095D02*
X15182619Y-14905143D01*
X15182619Y-14905143D02*
X15163572Y-14914667D01*
X15354048Y-14876571D02*
X15363572Y-14867048D01*
X15363572Y-14867048D02*
X15382619Y-14857524D01*
X15382619Y-14857524D02*
X15430238Y-14857524D01*
X15430238Y-14857524D02*
X15449286Y-14867048D01*
X15449286Y-14867048D02*
X15458810Y-14876571D01*
X15458810Y-14876571D02*
X15468333Y-14895619D01*
X15468333Y-14895619D02*
X15468333Y-14914667D01*
X15468333Y-14914667D02*
X15458810Y-14943238D01*
X15458810Y-14943238D02*
X15344524Y-15057524D01*
X15344524Y-15057524D02*
X15468333Y-15057524D01*
X15639762Y-14857524D02*
X15601667Y-14857524D01*
X15601667Y-14857524D02*
X15582619Y-14867048D01*
X15582619Y-14867048D02*
X15573095Y-14876571D01*
X15573095Y-14876571D02*
X15554048Y-14905143D01*
X15554048Y-14905143D02*
X15544524Y-14943238D01*
X15544524Y-14943238D02*
X15544524Y-15019428D01*
X15544524Y-15019428D02*
X15554048Y-15038476D01*
X15554048Y-15038476D02*
X15563572Y-15048000D01*
X15563572Y-15048000D02*
X15582619Y-15057524D01*
X15582619Y-15057524D02*
X15620714Y-15057524D01*
X15620714Y-15057524D02*
X15639762Y-15048000D01*
X15639762Y-15048000D02*
X15649286Y-15038476D01*
X15649286Y-15038476D02*
X15658810Y-15019428D01*
X15658810Y-15019428D02*
X15658810Y-14971809D01*
X15658810Y-14971809D02*
X15649286Y-14952762D01*
X15649286Y-14952762D02*
X15639762Y-14943238D01*
X15639762Y-14943238D02*
X15620714Y-14933714D01*
X15620714Y-14933714D02*
X15582619Y-14933714D01*
X15582619Y-14933714D02*
X15563572Y-14943238D01*
X15563572Y-14943238D02*
X15554048Y-14952762D01*
X15554048Y-14952762D02*
X15544524Y-14971809D01*
X15782619Y-14857524D02*
X15801667Y-14857524D01*
X15801667Y-14857524D02*
X15820714Y-14867048D01*
X15820714Y-14867048D02*
X15830238Y-14876571D01*
X15830238Y-14876571D02*
X15839762Y-14895619D01*
X15839762Y-14895619D02*
X15849286Y-14933714D01*
X15849286Y-14933714D02*
X15849286Y-14981333D01*
X15849286Y-14981333D02*
X15839762Y-15019428D01*
X15839762Y-15019428D02*
X15830238Y-15038476D01*
X15830238Y-15038476D02*
X15820714Y-15048000D01*
X15820714Y-15048000D02*
X15801667Y-15057524D01*
X15801667Y-15057524D02*
X15782619Y-15057524D01*
X15782619Y-15057524D02*
X15763572Y-15048000D01*
X15763572Y-15048000D02*
X15754048Y-15038476D01*
X15754048Y-15038476D02*
X15744524Y-15019428D01*
X15744524Y-15019428D02*
X15735000Y-14981333D01*
X15735000Y-14981333D02*
X15735000Y-14933714D01*
X15735000Y-14933714D02*
X15744524Y-14895619D01*
X15744524Y-14895619D02*
X15754048Y-14876571D01*
X15754048Y-14876571D02*
X15763572Y-14867048D01*
X15763572Y-14867048D02*
X15782619Y-14857524D01*
X15925476Y-14857524D02*
X15925476Y-14895619D01*
X16001667Y-14857524D02*
X16001667Y-14895619D01*
X16296905Y-15133714D02*
X16287381Y-15124190D01*
X16287381Y-15124190D02*
X16268334Y-15095619D01*
X16268334Y-15095619D02*
X16258810Y-15076571D01*
X16258810Y-15076571D02*
X16249286Y-15048000D01*
X16249286Y-15048000D02*
X16239762Y-15000381D01*
X16239762Y-15000381D02*
X16239762Y-14962286D01*
X16239762Y-14962286D02*
X16249286Y-14914667D01*
X16249286Y-14914667D02*
X16258810Y-14886095D01*
X16258810Y-14886095D02*
X16268334Y-14867048D01*
X16268334Y-14867048D02*
X16287381Y-14838476D01*
X16287381Y-14838476D02*
X16296905Y-14828952D01*
X16458810Y-14857524D02*
X16420714Y-14857524D01*
X16420714Y-14857524D02*
X16401667Y-14867048D01*
X16401667Y-14867048D02*
X16392143Y-14876571D01*
X16392143Y-14876571D02*
X16373095Y-14905143D01*
X16373095Y-14905143D02*
X16363572Y-14943238D01*
X16363572Y-14943238D02*
X16363572Y-15019428D01*
X16363572Y-15019428D02*
X16373095Y-15038476D01*
X16373095Y-15038476D02*
X16382619Y-15048000D01*
X16382619Y-15048000D02*
X16401667Y-15057524D01*
X16401667Y-15057524D02*
X16439762Y-15057524D01*
X16439762Y-15057524D02*
X16458810Y-15048000D01*
X16458810Y-15048000D02*
X16468334Y-15038476D01*
X16468334Y-15038476D02*
X16477857Y-15019428D01*
X16477857Y-15019428D02*
X16477857Y-14971809D01*
X16477857Y-14971809D02*
X16468334Y-14952762D01*
X16468334Y-14952762D02*
X16458810Y-14943238D01*
X16458810Y-14943238D02*
X16439762Y-14933714D01*
X16439762Y-14933714D02*
X16401667Y-14933714D01*
X16401667Y-14933714D02*
X16382619Y-14943238D01*
X16382619Y-14943238D02*
X16373095Y-14952762D01*
X16373095Y-14952762D02*
X16363572Y-14971809D01*
X16715953Y-15057524D02*
X16715953Y-14857524D01*
X16801667Y-15057524D02*
X16801667Y-14952762D01*
X16801667Y-14952762D02*
X16792143Y-14933714D01*
X16792143Y-14933714D02*
X16773096Y-14924190D01*
X16773096Y-14924190D02*
X16744524Y-14924190D01*
X16744524Y-14924190D02*
X16725476Y-14933714D01*
X16725476Y-14933714D02*
X16715953Y-14943238D01*
X16925477Y-15057524D02*
X16906429Y-15048000D01*
X16906429Y-15048000D02*
X16896905Y-15038476D01*
X16896905Y-15038476D02*
X16887381Y-15019428D01*
X16887381Y-15019428D02*
X16887381Y-14962286D01*
X16887381Y-14962286D02*
X16896905Y-14943238D01*
X16896905Y-14943238D02*
X16906429Y-14933714D01*
X16906429Y-14933714D02*
X16925477Y-14924190D01*
X16925477Y-14924190D02*
X16954048Y-14924190D01*
X16954048Y-14924190D02*
X16973096Y-14933714D01*
X16973096Y-14933714D02*
X16982619Y-14943238D01*
X16982619Y-14943238D02*
X16992143Y-14962286D01*
X16992143Y-14962286D02*
X16992143Y-15019428D01*
X16992143Y-15019428D02*
X16982619Y-15038476D01*
X16982619Y-15038476D02*
X16973096Y-15048000D01*
X16973096Y-15048000D02*
X16954048Y-15057524D01*
X16954048Y-15057524D02*
X16925477Y-15057524D01*
X17106429Y-15057524D02*
X17087381Y-15048000D01*
X17087381Y-15048000D02*
X17077858Y-15028952D01*
X17077858Y-15028952D02*
X17077858Y-14857524D01*
X17258810Y-15048000D02*
X17239762Y-15057524D01*
X17239762Y-15057524D02*
X17201667Y-15057524D01*
X17201667Y-15057524D02*
X17182619Y-15048000D01*
X17182619Y-15048000D02*
X17173096Y-15028952D01*
X17173096Y-15028952D02*
X17173096Y-14952762D01*
X17173096Y-14952762D02*
X17182619Y-14933714D01*
X17182619Y-14933714D02*
X17201667Y-14924190D01*
X17201667Y-14924190D02*
X17239762Y-14924190D01*
X17239762Y-14924190D02*
X17258810Y-14933714D01*
X17258810Y-14933714D02*
X17268334Y-14952762D01*
X17268334Y-14952762D02*
X17268334Y-14971809D01*
X17268334Y-14971809D02*
X17173096Y-14990857D01*
X17344524Y-15048000D02*
X17363572Y-15057524D01*
X17363572Y-15057524D02*
X17401667Y-15057524D01*
X17401667Y-15057524D02*
X17420715Y-15048000D01*
X17420715Y-15048000D02*
X17430239Y-15028952D01*
X17430239Y-15028952D02*
X17430239Y-15019428D01*
X17430239Y-15019428D02*
X17420715Y-15000381D01*
X17420715Y-15000381D02*
X17401667Y-14990857D01*
X17401667Y-14990857D02*
X17373096Y-14990857D01*
X17373096Y-14990857D02*
X17354048Y-14981333D01*
X17354048Y-14981333D02*
X17344524Y-14962286D01*
X17344524Y-14962286D02*
X17344524Y-14952762D01*
X17344524Y-14952762D02*
X17354048Y-14933714D01*
X17354048Y-14933714D02*
X17373096Y-14924190D01*
X17373096Y-14924190D02*
X17401667Y-14924190D01*
X17401667Y-14924190D02*
X17420715Y-14933714D01*
X17496905Y-15133714D02*
X17506429Y-15124190D01*
X17506429Y-15124190D02*
X17525477Y-15095619D01*
X17525477Y-15095619D02*
X17535000Y-15076571D01*
X17535000Y-15076571D02*
X17544524Y-15048000D01*
X17544524Y-15048000D02*
X17554048Y-15000381D01*
X17554048Y-15000381D02*
X17554048Y-14962286D01*
X17554048Y-14962286D02*
X17544524Y-14914667D01*
X17544524Y-14914667D02*
X17535000Y-14886095D01*
X17535000Y-14886095D02*
X17525477Y-14867048D01*
X17525477Y-14867048D02*
X17506429Y-14838476D01*
X17506429Y-14838476D02*
X17496905Y-14828952D01*
M02*
